G04 #@! TF.GenerationSoftware,KiCad,Pcbnew,(5.0.0)*
G04 #@! TF.CreationDate,2018-09-11T16:23:21+02:00*
G04 #@! TF.ProjectId,romprg_megadrive_cart,726F6D7072675F6D6567616472697665,1*
G04 #@! TF.SameCoordinates,Original*
G04 #@! TF.FileFunction,Legend,Top*
G04 #@! TF.FilePolarity,Positive*
%FSLAX46Y46*%
G04 Gerber Fmt 4.6, Leading zero omitted, Abs format (unit mm)*
G04 Created by KiCad (PCBNEW (5.0.0)) date 09/11/18 16:23:21*
%MOMM*%
%LPD*%
G01*
G04 APERTURE LIST*
%ADD10C,0.125000*%
%ADD11C,0.120000*%
%ADD12C,0.010000*%
%ADD13C,0.150000*%
G04 APERTURE END LIST*
D10*
X62247916Y-113678571D02*
X62247916Y-114892857D01*
X62200297Y-115035714D01*
X62152678Y-115107142D01*
X62057440Y-115178571D01*
X61914583Y-115178571D01*
X61819345Y-115107142D01*
X62247916Y-114607142D02*
X62152678Y-114678571D01*
X61962202Y-114678571D01*
X61866964Y-114607142D01*
X61819345Y-114535714D01*
X61771726Y-114392857D01*
X61771726Y-113964285D01*
X61819345Y-113821428D01*
X61866964Y-113750000D01*
X61962202Y-113678571D01*
X62152678Y-113678571D01*
X62247916Y-113750000D01*
X62724107Y-114678571D02*
X62724107Y-113678571D01*
X62724107Y-113178571D02*
X62676488Y-113250000D01*
X62724107Y-113321428D01*
X62771726Y-113250000D01*
X62724107Y-113178571D01*
X62724107Y-113321428D01*
X63057440Y-113678571D02*
X63438392Y-113678571D01*
X63200297Y-113178571D02*
X63200297Y-114464285D01*
X63247916Y-114607142D01*
X63343154Y-114678571D01*
X63438392Y-114678571D01*
X63771726Y-114678571D02*
X63771726Y-113178571D01*
X64200297Y-114678571D02*
X64200297Y-113892857D01*
X64152678Y-113750000D01*
X64057440Y-113678571D01*
X63914583Y-113678571D01*
X63819345Y-113750000D01*
X63771726Y-113821428D01*
X65105059Y-113678571D02*
X65105059Y-114678571D01*
X64676488Y-113678571D02*
X64676488Y-114464285D01*
X64724107Y-114607142D01*
X64819345Y-114678571D01*
X64962202Y-114678571D01*
X65057440Y-114607142D01*
X65105059Y-114535714D01*
X65581250Y-114678571D02*
X65581250Y-113178571D01*
X65581250Y-113750000D02*
X65676488Y-113678571D01*
X65866964Y-113678571D01*
X65962202Y-113750000D01*
X66009821Y-113821428D01*
X66057440Y-113964285D01*
X66057440Y-114392857D01*
X66009821Y-114535714D01*
X65962202Y-114607142D01*
X65866964Y-114678571D01*
X65676488Y-114678571D01*
X65581250Y-114607142D01*
X66486011Y-114535714D02*
X66533630Y-114607142D01*
X66486011Y-114678571D01*
X66438392Y-114607142D01*
X66486011Y-114535714D01*
X66486011Y-114678571D01*
X67390773Y-114607142D02*
X67295535Y-114678571D01*
X67105059Y-114678571D01*
X67009821Y-114607142D01*
X66962202Y-114535714D01*
X66914583Y-114392857D01*
X66914583Y-113964285D01*
X66962202Y-113821428D01*
X67009821Y-113750000D01*
X67105059Y-113678571D01*
X67295535Y-113678571D01*
X67390773Y-113750000D01*
X67962202Y-114678571D02*
X67866964Y-114607142D01*
X67819345Y-114535714D01*
X67771726Y-114392857D01*
X67771726Y-113964285D01*
X67819345Y-113821428D01*
X67866964Y-113750000D01*
X67962202Y-113678571D01*
X68105059Y-113678571D01*
X68200297Y-113750000D01*
X68247916Y-113821428D01*
X68295535Y-113964285D01*
X68295535Y-114392857D01*
X68247916Y-114535714D01*
X68200297Y-114607142D01*
X68105059Y-114678571D01*
X67962202Y-114678571D01*
X68724107Y-114678571D02*
X68724107Y-113678571D01*
X68724107Y-113821428D02*
X68771726Y-113750000D01*
X68866964Y-113678571D01*
X69009821Y-113678571D01*
X69105059Y-113750000D01*
X69152678Y-113892857D01*
X69152678Y-114678571D01*
X69152678Y-113892857D02*
X69200297Y-113750000D01*
X69295535Y-113678571D01*
X69438392Y-113678571D01*
X69533630Y-113750000D01*
X69581250Y-113892857D01*
X69581250Y-114678571D01*
X70771726Y-113107142D02*
X69914583Y-115035714D01*
X70962202Y-113678571D02*
X71343154Y-113678571D01*
X71105059Y-113178571D02*
X71105059Y-114464285D01*
X71152678Y-114607142D01*
X71247916Y-114678571D01*
X71343154Y-114678571D01*
X72057440Y-114607142D02*
X71962202Y-114678571D01*
X71771726Y-114678571D01*
X71676488Y-114607142D01*
X71628869Y-114464285D01*
X71628869Y-113892857D01*
X71676488Y-113750000D01*
X71771726Y-113678571D01*
X71962202Y-113678571D01*
X72057440Y-113750000D01*
X72105059Y-113892857D01*
X72105059Y-114035714D01*
X71628869Y-114178571D01*
X72533630Y-114678571D02*
X72533630Y-113178571D01*
X72962202Y-114678571D02*
X72962202Y-113892857D01*
X72914583Y-113750000D01*
X72819345Y-113678571D01*
X72676488Y-113678571D01*
X72581250Y-113750000D01*
X72533630Y-113821428D01*
X73438392Y-114678571D02*
X73438392Y-113178571D01*
X74009821Y-114678571D02*
X73581250Y-113821428D01*
X74009821Y-113178571D02*
X73438392Y-114035714D01*
X74866964Y-114678571D02*
X74866964Y-113892857D01*
X74819345Y-113750000D01*
X74724107Y-113678571D01*
X74533630Y-113678571D01*
X74438392Y-113750000D01*
X74866964Y-114607142D02*
X74771726Y-114678571D01*
X74533630Y-114678571D01*
X74438392Y-114607142D01*
X74390773Y-114464285D01*
X74390773Y-114321428D01*
X74438392Y-114178571D01*
X74533630Y-114107142D01*
X74771726Y-114107142D01*
X74866964Y-114035714D01*
X75343154Y-114678571D02*
X75343154Y-113678571D01*
X75343154Y-113178571D02*
X75295535Y-113250000D01*
X75343154Y-113321428D01*
X75390773Y-113250000D01*
X75343154Y-113178571D01*
X75343154Y-113321428D01*
X75819345Y-114678571D02*
X75819345Y-113178571D01*
X76390773Y-114678571D01*
X76390773Y-113178571D01*
X77581250Y-113107142D02*
X76724107Y-115035714D01*
X78486011Y-114678571D02*
X78152678Y-113964285D01*
X77914583Y-114678571D02*
X77914583Y-113178571D01*
X78295535Y-113178571D01*
X78390773Y-113250000D01*
X78438392Y-113321428D01*
X78486011Y-113464285D01*
X78486011Y-113678571D01*
X78438392Y-113821428D01*
X78390773Y-113892857D01*
X78295535Y-113964285D01*
X77914583Y-113964285D01*
X79105059Y-113178571D02*
X79295535Y-113178571D01*
X79390773Y-113250000D01*
X79486011Y-113392857D01*
X79533630Y-113678571D01*
X79533630Y-114178571D01*
X79486011Y-114464285D01*
X79390773Y-114607142D01*
X79295535Y-114678571D01*
X79105059Y-114678571D01*
X79009821Y-114607142D01*
X78914583Y-114464285D01*
X78866964Y-114178571D01*
X78866964Y-113678571D01*
X78914583Y-113392857D01*
X79009821Y-113250000D01*
X79105059Y-113178571D01*
X79962202Y-114678571D02*
X79962202Y-113178571D01*
X80295535Y-114250000D01*
X80628869Y-113178571D01*
X80628869Y-114678571D01*
X81105059Y-113678571D02*
X81105059Y-115178571D01*
X81105059Y-113750000D02*
X81200297Y-113678571D01*
X81390773Y-113678571D01*
X81486011Y-113750000D01*
X81533630Y-113821428D01*
X81581250Y-113964285D01*
X81581250Y-114392857D01*
X81533630Y-114535714D01*
X81486011Y-114607142D01*
X81390773Y-114678571D01*
X81200297Y-114678571D01*
X81105059Y-114607142D01*
X82009821Y-114678571D02*
X82009821Y-113678571D01*
X82009821Y-113964285D02*
X82057440Y-113821428D01*
X82105059Y-113750000D01*
X82200297Y-113678571D01*
X82295535Y-113678571D01*
X83057440Y-113678571D02*
X83057440Y-114892857D01*
X83009821Y-115035714D01*
X82962202Y-115107142D01*
X82866964Y-115178571D01*
X82724107Y-115178571D01*
X82628869Y-115107142D01*
X83057440Y-114607142D02*
X82962202Y-114678571D01*
X82771726Y-114678571D01*
X82676488Y-114607142D01*
X82628869Y-114535714D01*
X82581250Y-114392857D01*
X82581250Y-113964285D01*
X82628869Y-113821428D01*
X82676488Y-113750000D01*
X82771726Y-113678571D01*
X82962202Y-113678571D01*
X83057440Y-113750000D01*
X62188392Y-109789285D02*
X61938392Y-109432142D01*
X61759821Y-109789285D02*
X61759821Y-109039285D01*
X62045535Y-109039285D01*
X62116964Y-109075000D01*
X62152678Y-109110714D01*
X62188392Y-109182142D01*
X62188392Y-109289285D01*
X62152678Y-109360714D01*
X62116964Y-109396428D01*
X62045535Y-109432142D01*
X61759821Y-109432142D01*
X62652678Y-109039285D02*
X62795535Y-109039285D01*
X62866964Y-109075000D01*
X62938392Y-109146428D01*
X62974107Y-109289285D01*
X62974107Y-109539285D01*
X62938392Y-109682142D01*
X62866964Y-109753571D01*
X62795535Y-109789285D01*
X62652678Y-109789285D01*
X62581250Y-109753571D01*
X62509821Y-109682142D01*
X62474107Y-109539285D01*
X62474107Y-109289285D01*
X62509821Y-109146428D01*
X62581250Y-109075000D01*
X62652678Y-109039285D01*
X63295535Y-109789285D02*
X63295535Y-109039285D01*
X63545535Y-109575000D01*
X63795535Y-109039285D01*
X63795535Y-109789285D01*
X64152678Y-109289285D02*
X64152678Y-110039285D01*
X64152678Y-109325000D02*
X64224107Y-109289285D01*
X64366964Y-109289285D01*
X64438392Y-109325000D01*
X64474107Y-109360714D01*
X64509821Y-109432142D01*
X64509821Y-109646428D01*
X64474107Y-109717857D01*
X64438392Y-109753571D01*
X64366964Y-109789285D01*
X64224107Y-109789285D01*
X64152678Y-109753571D01*
X64831250Y-109789285D02*
X64831250Y-109289285D01*
X64831250Y-109432142D02*
X64866964Y-109360714D01*
X64902678Y-109325000D01*
X64974107Y-109289285D01*
X65045535Y-109289285D01*
X65616964Y-109289285D02*
X65616964Y-109896428D01*
X65581250Y-109967857D01*
X65545535Y-110003571D01*
X65474107Y-110039285D01*
X65366964Y-110039285D01*
X65295535Y-110003571D01*
X65616964Y-109753571D02*
X65545535Y-109789285D01*
X65402678Y-109789285D01*
X65331250Y-109753571D01*
X65295535Y-109717857D01*
X65259821Y-109646428D01*
X65259821Y-109432142D01*
X65295535Y-109360714D01*
X65331250Y-109325000D01*
X65402678Y-109289285D01*
X65545535Y-109289285D01*
X65616964Y-109325000D01*
X66545535Y-109503571D02*
X67116964Y-109503571D01*
X68045535Y-109789285D02*
X68045535Y-109039285D01*
X68295535Y-109575000D01*
X68545535Y-109039285D01*
X68545535Y-109789285D01*
X69188392Y-109753571D02*
X69116964Y-109789285D01*
X68974107Y-109789285D01*
X68902678Y-109753571D01*
X68866964Y-109682142D01*
X68866964Y-109396428D01*
X68902678Y-109325000D01*
X68974107Y-109289285D01*
X69116964Y-109289285D01*
X69188392Y-109325000D01*
X69224107Y-109396428D01*
X69224107Y-109467857D01*
X68866964Y-109539285D01*
X69866964Y-109289285D02*
X69866964Y-109896428D01*
X69831250Y-109967857D01*
X69795535Y-110003571D01*
X69724107Y-110039285D01*
X69616964Y-110039285D01*
X69545535Y-110003571D01*
X69866964Y-109753571D02*
X69795535Y-109789285D01*
X69652678Y-109789285D01*
X69581250Y-109753571D01*
X69545535Y-109717857D01*
X69509821Y-109646428D01*
X69509821Y-109432142D01*
X69545535Y-109360714D01*
X69581250Y-109325000D01*
X69652678Y-109289285D01*
X69795535Y-109289285D01*
X69866964Y-109325000D01*
X70545535Y-109789285D02*
X70545535Y-109396428D01*
X70509821Y-109325000D01*
X70438392Y-109289285D01*
X70295535Y-109289285D01*
X70224107Y-109325000D01*
X70545535Y-109753571D02*
X70474107Y-109789285D01*
X70295535Y-109789285D01*
X70224107Y-109753571D01*
X70188392Y-109682142D01*
X70188392Y-109610714D01*
X70224107Y-109539285D01*
X70295535Y-109503571D01*
X70474107Y-109503571D01*
X70545535Y-109467857D01*
X71224107Y-109789285D02*
X71224107Y-109039285D01*
X71224107Y-109753571D02*
X71152678Y-109789285D01*
X71009821Y-109789285D01*
X70938392Y-109753571D01*
X70902678Y-109717857D01*
X70866964Y-109646428D01*
X70866964Y-109432142D01*
X70902678Y-109360714D01*
X70938392Y-109325000D01*
X71009821Y-109289285D01*
X71152678Y-109289285D01*
X71224107Y-109325000D01*
X71581250Y-109789285D02*
X71581250Y-109289285D01*
X71581250Y-109432142D02*
X71616964Y-109360714D01*
X71652678Y-109325000D01*
X71724107Y-109289285D01*
X71795535Y-109289285D01*
X72045535Y-109789285D02*
X72045535Y-109289285D01*
X72045535Y-109039285D02*
X72009821Y-109075000D01*
X72045535Y-109110714D01*
X72081250Y-109075000D01*
X72045535Y-109039285D01*
X72045535Y-109110714D01*
X72331250Y-109289285D02*
X72509821Y-109789285D01*
X72688392Y-109289285D01*
X73259821Y-109753571D02*
X73188392Y-109789285D01*
X73045535Y-109789285D01*
X72974107Y-109753571D01*
X72938392Y-109682142D01*
X72938392Y-109396428D01*
X72974107Y-109325000D01*
X73045535Y-109289285D01*
X73188392Y-109289285D01*
X73259821Y-109325000D01*
X73295535Y-109396428D01*
X73295535Y-109467857D01*
X72938392Y-109539285D01*
X74509821Y-109753571D02*
X74438392Y-109789285D01*
X74295535Y-109789285D01*
X74224107Y-109753571D01*
X74188392Y-109717857D01*
X74152678Y-109646428D01*
X74152678Y-109432142D01*
X74188392Y-109360714D01*
X74224107Y-109325000D01*
X74295535Y-109289285D01*
X74438392Y-109289285D01*
X74509821Y-109325000D01*
X75152678Y-109789285D02*
X75152678Y-109396428D01*
X75116964Y-109325000D01*
X75045535Y-109289285D01*
X74902678Y-109289285D01*
X74831250Y-109325000D01*
X75152678Y-109753571D02*
X75081250Y-109789285D01*
X74902678Y-109789285D01*
X74831250Y-109753571D01*
X74795535Y-109682142D01*
X74795535Y-109610714D01*
X74831250Y-109539285D01*
X74902678Y-109503571D01*
X75081250Y-109503571D01*
X75152678Y-109467857D01*
X75509821Y-109789285D02*
X75509821Y-109289285D01*
X75509821Y-109432142D02*
X75545535Y-109360714D01*
X75581250Y-109325000D01*
X75652678Y-109289285D01*
X75724107Y-109289285D01*
X75866964Y-109289285D02*
X76152678Y-109289285D01*
X75974107Y-109039285D02*
X75974107Y-109682142D01*
X76009821Y-109753571D01*
X76081250Y-109789285D01*
X76152678Y-109789285D01*
X76974107Y-109289285D02*
X76974107Y-110039285D01*
X76974107Y-109325000D02*
X77045535Y-109289285D01*
X77188392Y-109289285D01*
X77259821Y-109325000D01*
X77295535Y-109360714D01*
X77331250Y-109432142D01*
X77331250Y-109646428D01*
X77295535Y-109717857D01*
X77259821Y-109753571D01*
X77188392Y-109789285D01*
X77045535Y-109789285D01*
X76974107Y-109753571D01*
X77652678Y-109789285D02*
X77652678Y-109289285D01*
X77652678Y-109432142D02*
X77688392Y-109360714D01*
X77724107Y-109325000D01*
X77795535Y-109289285D01*
X77866964Y-109289285D01*
X78224107Y-109789285D02*
X78152678Y-109753571D01*
X78116964Y-109717857D01*
X78081250Y-109646428D01*
X78081250Y-109432142D01*
X78116964Y-109360714D01*
X78152678Y-109325000D01*
X78224107Y-109289285D01*
X78331250Y-109289285D01*
X78402678Y-109325000D01*
X78438392Y-109360714D01*
X78474107Y-109432142D01*
X78474107Y-109646428D01*
X78438392Y-109717857D01*
X78402678Y-109753571D01*
X78331250Y-109789285D01*
X78224107Y-109789285D01*
X79116964Y-109289285D02*
X79116964Y-109896428D01*
X79081250Y-109967857D01*
X79045535Y-110003571D01*
X78974107Y-110039285D01*
X78866964Y-110039285D01*
X78795535Y-110003571D01*
X79116964Y-109753571D02*
X79045535Y-109789285D01*
X78902678Y-109789285D01*
X78831250Y-109753571D01*
X78795535Y-109717857D01*
X78759821Y-109646428D01*
X78759821Y-109432142D01*
X78795535Y-109360714D01*
X78831250Y-109325000D01*
X78902678Y-109289285D01*
X79045535Y-109289285D01*
X79116964Y-109325000D01*
X79474107Y-109789285D02*
X79474107Y-109289285D01*
X79474107Y-109432142D02*
X79509821Y-109360714D01*
X79545535Y-109325000D01*
X79616964Y-109289285D01*
X79688392Y-109289285D01*
X80259821Y-109789285D02*
X80259821Y-109396428D01*
X80224107Y-109325000D01*
X80152678Y-109289285D01*
X80009821Y-109289285D01*
X79938392Y-109325000D01*
X80259821Y-109753571D02*
X80188392Y-109789285D01*
X80009821Y-109789285D01*
X79938392Y-109753571D01*
X79902678Y-109682142D01*
X79902678Y-109610714D01*
X79938392Y-109539285D01*
X80009821Y-109503571D01*
X80188392Y-109503571D01*
X80259821Y-109467857D01*
X80616964Y-109789285D02*
X80616964Y-109289285D01*
X80616964Y-109360714D02*
X80652678Y-109325000D01*
X80724107Y-109289285D01*
X80831250Y-109289285D01*
X80902678Y-109325000D01*
X80938392Y-109396428D01*
X80938392Y-109789285D01*
X80938392Y-109396428D02*
X80974107Y-109325000D01*
X81045535Y-109289285D01*
X81152678Y-109289285D01*
X81224107Y-109325000D01*
X81259821Y-109396428D01*
X81259821Y-109789285D01*
X81616964Y-109789285D02*
X81616964Y-109289285D01*
X81616964Y-109360714D02*
X81652678Y-109325000D01*
X81724107Y-109289285D01*
X81831250Y-109289285D01*
X81902678Y-109325000D01*
X81938392Y-109396428D01*
X81938392Y-109789285D01*
X81938392Y-109396428D02*
X81974107Y-109325000D01*
X82045535Y-109289285D01*
X82152678Y-109289285D01*
X82224107Y-109325000D01*
X82259821Y-109396428D01*
X82259821Y-109789285D01*
X82902678Y-109753571D02*
X82831250Y-109789285D01*
X82688392Y-109789285D01*
X82616964Y-109753571D01*
X82581250Y-109682142D01*
X82581250Y-109396428D01*
X82616964Y-109325000D01*
X82688392Y-109289285D01*
X82831250Y-109289285D01*
X82902678Y-109325000D01*
X82938392Y-109396428D01*
X82938392Y-109467857D01*
X82581250Y-109539285D01*
X83259821Y-109789285D02*
X83259821Y-109289285D01*
X83259821Y-109432142D02*
X83295535Y-109360714D01*
X83331250Y-109325000D01*
X83402678Y-109289285D01*
X83474107Y-109289285D01*
X84295535Y-109789285D02*
X84295535Y-109289285D01*
X84295535Y-109432142D02*
X84331250Y-109360714D01*
X84366964Y-109325000D01*
X84438392Y-109289285D01*
X84509821Y-109289285D01*
X85045535Y-109753571D02*
X84974107Y-109789285D01*
X84831250Y-109789285D01*
X84759821Y-109753571D01*
X84724107Y-109682142D01*
X84724107Y-109396428D01*
X84759821Y-109325000D01*
X84831250Y-109289285D01*
X84974107Y-109289285D01*
X85045535Y-109325000D01*
X85081250Y-109396428D01*
X85081250Y-109467857D01*
X84724107Y-109539285D01*
X85331250Y-109289285D02*
X85509821Y-109789285D01*
X85688392Y-109289285D01*
X85974107Y-109717857D02*
X86009821Y-109753571D01*
X85974107Y-109789285D01*
X85938392Y-109753571D01*
X85974107Y-109717857D01*
X85974107Y-109789285D01*
X86724107Y-109789285D02*
X86295535Y-109789285D01*
X86509821Y-109789285D02*
X86509821Y-109039285D01*
X86438392Y-109146428D01*
X86366964Y-109217857D01*
X86295535Y-109253571D01*
X61652678Y-110539285D02*
X61938392Y-110539285D01*
X61759821Y-111039285D02*
X61759821Y-110396428D01*
X61795535Y-110325000D01*
X61866964Y-110289285D01*
X61938392Y-110289285D01*
X62295535Y-111039285D02*
X62224107Y-111003571D01*
X62188392Y-110967857D01*
X62152678Y-110896428D01*
X62152678Y-110682142D01*
X62188392Y-110610714D01*
X62224107Y-110575000D01*
X62295535Y-110539285D01*
X62402678Y-110539285D01*
X62474107Y-110575000D01*
X62509821Y-110610714D01*
X62545535Y-110682142D01*
X62545535Y-110896428D01*
X62509821Y-110967857D01*
X62474107Y-111003571D01*
X62402678Y-111039285D01*
X62295535Y-111039285D01*
X62866964Y-111039285D02*
X62866964Y-110539285D01*
X62866964Y-110682142D02*
X62902678Y-110610714D01*
X62938392Y-110575000D01*
X63009821Y-110539285D01*
X63081250Y-110539285D01*
X63866964Y-110360714D02*
X63902678Y-110325000D01*
X63974107Y-110289285D01*
X64152678Y-110289285D01*
X64224107Y-110325000D01*
X64259821Y-110360714D01*
X64295535Y-110432142D01*
X64295535Y-110503571D01*
X64259821Y-110610714D01*
X63831250Y-111039285D01*
X64295535Y-111039285D01*
X64652678Y-111039285D02*
X64795535Y-111039285D01*
X64866964Y-111003571D01*
X64902678Y-110967857D01*
X64974107Y-110860714D01*
X65009821Y-110717857D01*
X65009821Y-110432142D01*
X64974107Y-110360714D01*
X64938392Y-110325000D01*
X64866964Y-110289285D01*
X64724107Y-110289285D01*
X64652678Y-110325000D01*
X64616964Y-110360714D01*
X64581250Y-110432142D01*
X64581250Y-110610714D01*
X64616964Y-110682142D01*
X64652678Y-110717857D01*
X64724107Y-110753571D01*
X64866964Y-110753571D01*
X64938392Y-110717857D01*
X64974107Y-110682142D01*
X65009821Y-110610714D01*
X65581250Y-110646428D02*
X65331250Y-110646428D01*
X65331250Y-111039285D02*
X65331250Y-110289285D01*
X65688392Y-110289285D01*
X66438392Y-110539285D02*
X66724107Y-110539285D01*
X66545535Y-111039285D02*
X66545535Y-110396428D01*
X66581250Y-110325000D01*
X66652678Y-110289285D01*
X66724107Y-110289285D01*
X67081250Y-111039285D02*
X67009821Y-111003571D01*
X66974107Y-110932142D01*
X66974107Y-110289285D01*
X67688392Y-111039285D02*
X67688392Y-110646428D01*
X67652678Y-110575000D01*
X67581250Y-110539285D01*
X67438392Y-110539285D01*
X67366964Y-110575000D01*
X67688392Y-111003571D02*
X67616964Y-111039285D01*
X67438392Y-111039285D01*
X67366964Y-111003571D01*
X67331250Y-110932142D01*
X67331250Y-110860714D01*
X67366964Y-110789285D01*
X67438392Y-110753571D01*
X67616964Y-110753571D01*
X67688392Y-110717857D01*
X68009821Y-111003571D02*
X68081250Y-111039285D01*
X68224107Y-111039285D01*
X68295535Y-111003571D01*
X68331250Y-110932142D01*
X68331250Y-110896428D01*
X68295535Y-110825000D01*
X68224107Y-110789285D01*
X68116964Y-110789285D01*
X68045535Y-110753571D01*
X68009821Y-110682142D01*
X68009821Y-110646428D01*
X68045535Y-110575000D01*
X68116964Y-110539285D01*
X68224107Y-110539285D01*
X68295535Y-110575000D01*
X68652678Y-111039285D02*
X68652678Y-110289285D01*
X68974107Y-111039285D02*
X68974107Y-110646428D01*
X68938392Y-110575000D01*
X68866964Y-110539285D01*
X68759821Y-110539285D01*
X68688392Y-110575000D01*
X68652678Y-110610714D01*
X69902678Y-111039285D02*
X69902678Y-110289285D01*
X69902678Y-110575000D02*
X69974107Y-110539285D01*
X70116964Y-110539285D01*
X70188392Y-110575000D01*
X70224107Y-110610714D01*
X70259821Y-110682142D01*
X70259821Y-110896428D01*
X70224107Y-110967857D01*
X70188392Y-111003571D01*
X70116964Y-111039285D01*
X69974107Y-111039285D01*
X69902678Y-111003571D01*
X70902678Y-111039285D02*
X70902678Y-110646428D01*
X70866964Y-110575000D01*
X70795535Y-110539285D01*
X70652678Y-110539285D01*
X70581250Y-110575000D01*
X70902678Y-111003571D02*
X70831250Y-111039285D01*
X70652678Y-111039285D01*
X70581250Y-111003571D01*
X70545535Y-110932142D01*
X70545535Y-110860714D01*
X70581250Y-110789285D01*
X70652678Y-110753571D01*
X70831250Y-110753571D01*
X70902678Y-110717857D01*
X71224107Y-111003571D02*
X71295535Y-111039285D01*
X71438392Y-111039285D01*
X71509821Y-111003571D01*
X71545535Y-110932142D01*
X71545535Y-110896428D01*
X71509821Y-110825000D01*
X71438392Y-110789285D01*
X71331250Y-110789285D01*
X71259821Y-110753571D01*
X71224107Y-110682142D01*
X71224107Y-110646428D01*
X71259821Y-110575000D01*
X71331250Y-110539285D01*
X71438392Y-110539285D01*
X71509821Y-110575000D01*
X72152678Y-111003571D02*
X72081250Y-111039285D01*
X71938392Y-111039285D01*
X71866964Y-111003571D01*
X71831250Y-110932142D01*
X71831250Y-110646428D01*
X71866964Y-110575000D01*
X71938392Y-110539285D01*
X72081250Y-110539285D01*
X72152678Y-110575000D01*
X72188392Y-110646428D01*
X72188392Y-110717857D01*
X71831250Y-110789285D01*
X72831250Y-111039285D02*
X72831250Y-110289285D01*
X72831250Y-111003571D02*
X72759821Y-111039285D01*
X72616964Y-111039285D01*
X72545535Y-111003571D01*
X72509821Y-110967857D01*
X72474107Y-110896428D01*
X72474107Y-110682142D01*
X72509821Y-110610714D01*
X72545535Y-110575000D01*
X72616964Y-110539285D01*
X72759821Y-110539285D01*
X72831250Y-110575000D01*
X74081250Y-111003571D02*
X74009821Y-111039285D01*
X73866964Y-111039285D01*
X73795535Y-111003571D01*
X73759821Y-110967857D01*
X73724107Y-110896428D01*
X73724107Y-110682142D01*
X73759821Y-110610714D01*
X73795535Y-110575000D01*
X73866964Y-110539285D01*
X74009821Y-110539285D01*
X74081250Y-110575000D01*
X74724107Y-111039285D02*
X74724107Y-110646428D01*
X74688392Y-110575000D01*
X74616964Y-110539285D01*
X74474107Y-110539285D01*
X74402678Y-110575000D01*
X74724107Y-111003571D02*
X74652678Y-111039285D01*
X74474107Y-111039285D01*
X74402678Y-111003571D01*
X74366964Y-110932142D01*
X74366964Y-110860714D01*
X74402678Y-110789285D01*
X74474107Y-110753571D01*
X74652678Y-110753571D01*
X74724107Y-110717857D01*
X75081250Y-111039285D02*
X75081250Y-110539285D01*
X75081250Y-110682142D02*
X75116964Y-110610714D01*
X75152678Y-110575000D01*
X75224107Y-110539285D01*
X75295535Y-110539285D01*
X75438392Y-110539285D02*
X75724107Y-110539285D01*
X75545535Y-110289285D02*
X75545535Y-110932142D01*
X75581250Y-111003571D01*
X75652678Y-111039285D01*
X75724107Y-111039285D01*
X75938392Y-111003571D02*
X76009821Y-111039285D01*
X76152678Y-111039285D01*
X76224107Y-111003571D01*
X76259821Y-110932142D01*
X76259821Y-110896428D01*
X76224107Y-110825000D01*
X76152678Y-110789285D01*
X76045535Y-110789285D01*
X75974107Y-110753571D01*
X75938392Y-110682142D01*
X75938392Y-110646428D01*
X75974107Y-110575000D01*
X76045535Y-110539285D01*
X76152678Y-110539285D01*
X76224107Y-110575000D01*
X61724107Y-112253571D02*
X61795535Y-112289285D01*
X61938392Y-112289285D01*
X62009821Y-112253571D01*
X62045535Y-112182142D01*
X62045535Y-112146428D01*
X62009821Y-112075000D01*
X61938392Y-112039285D01*
X61831250Y-112039285D01*
X61759821Y-112003571D01*
X61724107Y-111932142D01*
X61724107Y-111896428D01*
X61759821Y-111825000D01*
X61831250Y-111789285D01*
X61938392Y-111789285D01*
X62009821Y-111825000D01*
X62474107Y-112289285D02*
X62402678Y-112253571D01*
X62366964Y-112217857D01*
X62331250Y-112146428D01*
X62331250Y-111932142D01*
X62366964Y-111860714D01*
X62402678Y-111825000D01*
X62474107Y-111789285D01*
X62581250Y-111789285D01*
X62652678Y-111825000D01*
X62688392Y-111860714D01*
X62724107Y-111932142D01*
X62724107Y-112146428D01*
X62688392Y-112217857D01*
X62652678Y-112253571D01*
X62581250Y-112289285D01*
X62474107Y-112289285D01*
X63366964Y-111789285D02*
X63366964Y-112289285D01*
X63045535Y-111789285D02*
X63045535Y-112182142D01*
X63081250Y-112253571D01*
X63152678Y-112289285D01*
X63259821Y-112289285D01*
X63331250Y-112253571D01*
X63366964Y-112217857D01*
X63724107Y-112289285D02*
X63724107Y-111789285D01*
X63724107Y-111932142D02*
X63759821Y-111860714D01*
X63795535Y-111825000D01*
X63866964Y-111789285D01*
X63938392Y-111789285D01*
X64509821Y-112253571D02*
X64438392Y-112289285D01*
X64295535Y-112289285D01*
X64224107Y-112253571D01*
X64188392Y-112217857D01*
X64152678Y-112146428D01*
X64152678Y-111932142D01*
X64188392Y-111860714D01*
X64224107Y-111825000D01*
X64295535Y-111789285D01*
X64438392Y-111789285D01*
X64509821Y-111825000D01*
X65116964Y-112253571D02*
X65045535Y-112289285D01*
X64902678Y-112289285D01*
X64831250Y-112253571D01*
X64795535Y-112182142D01*
X64795535Y-111896428D01*
X64831250Y-111825000D01*
X64902678Y-111789285D01*
X65045535Y-111789285D01*
X65116964Y-111825000D01*
X65152678Y-111896428D01*
X65152678Y-111967857D01*
X64795535Y-112039285D01*
X65438392Y-112253571D02*
X65509821Y-112289285D01*
X65652678Y-112289285D01*
X65724107Y-112253571D01*
X65759821Y-112182142D01*
X65759821Y-112146428D01*
X65724107Y-112075000D01*
X65652678Y-112039285D01*
X65545535Y-112039285D01*
X65474107Y-112003571D01*
X65438392Y-111932142D01*
X65438392Y-111896428D01*
X65474107Y-111825000D01*
X65545535Y-111789285D01*
X65652678Y-111789285D01*
X65724107Y-111825000D01*
X66974107Y-112289285D02*
X66974107Y-111896428D01*
X66938392Y-111825000D01*
X66866964Y-111789285D01*
X66724107Y-111789285D01*
X66652678Y-111825000D01*
X66974107Y-112253571D02*
X66902678Y-112289285D01*
X66724107Y-112289285D01*
X66652678Y-112253571D01*
X66616964Y-112182142D01*
X66616964Y-112110714D01*
X66652678Y-112039285D01*
X66724107Y-112003571D01*
X66902678Y-112003571D01*
X66974107Y-111967857D01*
X67331250Y-111789285D02*
X67331250Y-112289285D01*
X67331250Y-111860714D02*
X67366964Y-111825000D01*
X67438392Y-111789285D01*
X67545535Y-111789285D01*
X67616964Y-111825000D01*
X67652678Y-111896428D01*
X67652678Y-112289285D01*
X68331250Y-112289285D02*
X68331250Y-111539285D01*
X68331250Y-112253571D02*
X68259821Y-112289285D01*
X68116964Y-112289285D01*
X68045535Y-112253571D01*
X68009821Y-112217857D01*
X67974107Y-112146428D01*
X67974107Y-111932142D01*
X68009821Y-111860714D01*
X68045535Y-111825000D01*
X68116964Y-111789285D01*
X68259821Y-111789285D01*
X68331250Y-111825000D01*
X69224107Y-112253571D02*
X69295535Y-112289285D01*
X69438392Y-112289285D01*
X69509821Y-112253571D01*
X69545535Y-112182142D01*
X69545535Y-112146428D01*
X69509821Y-112075000D01*
X69438392Y-112039285D01*
X69331250Y-112039285D01*
X69259821Y-112003571D01*
X69224107Y-111932142D01*
X69224107Y-111896428D01*
X69259821Y-111825000D01*
X69331250Y-111789285D01*
X69438392Y-111789285D01*
X69509821Y-111825000D01*
X69974107Y-112289285D02*
X69902678Y-112253571D01*
X69866964Y-112217857D01*
X69831250Y-112146428D01*
X69831250Y-111932142D01*
X69866964Y-111860714D01*
X69902678Y-111825000D01*
X69974107Y-111789285D01*
X70081250Y-111789285D01*
X70152678Y-111825000D01*
X70188392Y-111860714D01*
X70224107Y-111932142D01*
X70224107Y-112146428D01*
X70188392Y-112217857D01*
X70152678Y-112253571D01*
X70081250Y-112289285D01*
X69974107Y-112289285D01*
X70438392Y-111789285D02*
X70724107Y-111789285D01*
X70545535Y-112289285D02*
X70545535Y-111646428D01*
X70581250Y-111575000D01*
X70652678Y-111539285D01*
X70724107Y-111539285D01*
X70866964Y-111789285D02*
X71152678Y-111789285D01*
X70974107Y-111539285D02*
X70974107Y-112182142D01*
X71009821Y-112253571D01*
X71081250Y-112289285D01*
X71152678Y-112289285D01*
X71331250Y-111789285D02*
X71474107Y-112289285D01*
X71616964Y-111932142D01*
X71759821Y-112289285D01*
X71902678Y-111789285D01*
X72509821Y-112289285D02*
X72509821Y-111896428D01*
X72474107Y-111825000D01*
X72402678Y-111789285D01*
X72259821Y-111789285D01*
X72188392Y-111825000D01*
X72509821Y-112253571D02*
X72438392Y-112289285D01*
X72259821Y-112289285D01*
X72188392Y-112253571D01*
X72152678Y-112182142D01*
X72152678Y-112110714D01*
X72188392Y-112039285D01*
X72259821Y-112003571D01*
X72438392Y-112003571D01*
X72509821Y-111967857D01*
X72866964Y-112289285D02*
X72866964Y-111789285D01*
X72866964Y-111932142D02*
X72902678Y-111860714D01*
X72938392Y-111825000D01*
X73009821Y-111789285D01*
X73081250Y-111789285D01*
X73616964Y-112253571D02*
X73545535Y-112289285D01*
X73402678Y-112289285D01*
X73331250Y-112253571D01*
X73295535Y-112182142D01*
X73295535Y-111896428D01*
X73331250Y-111825000D01*
X73402678Y-111789285D01*
X73545535Y-111789285D01*
X73616964Y-111825000D01*
X73652678Y-111896428D01*
X73652678Y-111967857D01*
X73295535Y-112039285D01*
X74866964Y-112289285D02*
X74866964Y-111896428D01*
X74831250Y-111825000D01*
X74759821Y-111789285D01*
X74616964Y-111789285D01*
X74545535Y-111825000D01*
X74866964Y-112253571D02*
X74795535Y-112289285D01*
X74616964Y-112289285D01*
X74545535Y-112253571D01*
X74509821Y-112182142D01*
X74509821Y-112110714D01*
X74545535Y-112039285D01*
X74616964Y-112003571D01*
X74795535Y-112003571D01*
X74866964Y-111967857D01*
X75152678Y-111789285D02*
X75331250Y-112289285D01*
X75509821Y-111789285D01*
X76116964Y-112289285D02*
X76116964Y-111896428D01*
X76081250Y-111825000D01*
X76009821Y-111789285D01*
X75866964Y-111789285D01*
X75795535Y-111825000D01*
X76116964Y-112253571D02*
X76045535Y-112289285D01*
X75866964Y-112289285D01*
X75795535Y-112253571D01*
X75759821Y-112182142D01*
X75759821Y-112110714D01*
X75795535Y-112039285D01*
X75866964Y-112003571D01*
X76045535Y-112003571D01*
X76116964Y-111967857D01*
X76474107Y-112289285D02*
X76474107Y-111789285D01*
X76474107Y-111539285D02*
X76438392Y-111575000D01*
X76474107Y-111610714D01*
X76509821Y-111575000D01*
X76474107Y-111539285D01*
X76474107Y-111610714D01*
X76938392Y-112289285D02*
X76866964Y-112253571D01*
X76831250Y-112182142D01*
X76831250Y-111539285D01*
X77545535Y-112289285D02*
X77545535Y-111896428D01*
X77509821Y-111825000D01*
X77438392Y-111789285D01*
X77295535Y-111789285D01*
X77224107Y-111825000D01*
X77545535Y-112253571D02*
X77474107Y-112289285D01*
X77295535Y-112289285D01*
X77224107Y-112253571D01*
X77188392Y-112182142D01*
X77188392Y-112110714D01*
X77224107Y-112039285D01*
X77295535Y-112003571D01*
X77474107Y-112003571D01*
X77545535Y-111967857D01*
X77902678Y-112289285D02*
X77902678Y-111539285D01*
X77902678Y-111825000D02*
X77974107Y-111789285D01*
X78116964Y-111789285D01*
X78188392Y-111825000D01*
X78224107Y-111860714D01*
X78259821Y-111932142D01*
X78259821Y-112146428D01*
X78224107Y-112217857D01*
X78188392Y-112253571D01*
X78116964Y-112289285D01*
X77974107Y-112289285D01*
X77902678Y-112253571D01*
X78688392Y-112289285D02*
X78616964Y-112253571D01*
X78581250Y-112182142D01*
X78581250Y-111539285D01*
X79259821Y-112253571D02*
X79188392Y-112289285D01*
X79045535Y-112289285D01*
X78974107Y-112253571D01*
X78938392Y-112182142D01*
X78938392Y-111896428D01*
X78974107Y-111825000D01*
X79045535Y-111789285D01*
X79188392Y-111789285D01*
X79259821Y-111825000D01*
X79295535Y-111896428D01*
X79295535Y-111967857D01*
X78938392Y-112039285D01*
X80509821Y-112289285D02*
X80509821Y-111896428D01*
X80474107Y-111825000D01*
X80402678Y-111789285D01*
X80259821Y-111789285D01*
X80188392Y-111825000D01*
X80509821Y-112253571D02*
X80438392Y-112289285D01*
X80259821Y-112289285D01*
X80188392Y-112253571D01*
X80152678Y-112182142D01*
X80152678Y-112110714D01*
X80188392Y-112039285D01*
X80259821Y-112003571D01*
X80438392Y-112003571D01*
X80509821Y-111967857D01*
X80759821Y-111789285D02*
X81045535Y-111789285D01*
X80866964Y-111539285D02*
X80866964Y-112182142D01*
X80902678Y-112253571D01*
X80974107Y-112289285D01*
X81045535Y-112289285D01*
D11*
G04 #@! TO.C,CON1*
X51370000Y-128130000D02*
X51370000Y-129400000D01*
X52700000Y-128130000D02*
X51370000Y-128130000D01*
X53970000Y-130730000D02*
X53970000Y-128130000D01*
X51370000Y-130730000D02*
X53970000Y-130730000D01*
X51370000Y-135870000D02*
X51370000Y-130730000D01*
X132770000Y-135870000D02*
X51370000Y-135870000D01*
X132770000Y-128130000D02*
X132770000Y-135870000D01*
X53970000Y-128130000D02*
X132770000Y-128130000D01*
D12*
G04 #@! TO.C,REF\002A\002A*
G36*
X130109014Y-108452998D02*
X130267006Y-108453863D01*
X130381347Y-108456205D01*
X130459407Y-108460762D01*
X130508554Y-108468270D01*
X130536159Y-108479466D01*
X130549592Y-108495088D01*
X130556221Y-108515873D01*
X130556865Y-108518563D01*
X130566935Y-108567113D01*
X130585575Y-108662905D01*
X130610845Y-108795743D01*
X130640807Y-108955431D01*
X130673522Y-109131774D01*
X130674664Y-109137967D01*
X130707433Y-109310782D01*
X130738093Y-109463469D01*
X130764664Y-109586871D01*
X130785167Y-109671831D01*
X130797626Y-109709190D01*
X130798220Y-109709852D01*
X130834919Y-109728095D01*
X130910586Y-109758497D01*
X131008878Y-109794493D01*
X131009425Y-109794685D01*
X131133233Y-109841222D01*
X131279196Y-109900504D01*
X131416781Y-109960109D01*
X131423293Y-109963056D01*
X131647390Y-110064765D01*
X132143619Y-109725897D01*
X132295846Y-109622592D01*
X132433741Y-109530237D01*
X132549315Y-109454084D01*
X132634579Y-109399385D01*
X132681544Y-109371393D01*
X132686004Y-109369317D01*
X132720134Y-109378560D01*
X132783881Y-109423156D01*
X132879731Y-109505209D01*
X133010169Y-109626821D01*
X133143328Y-109756205D01*
X133271694Y-109883702D01*
X133386581Y-110000046D01*
X133481073Y-110098052D01*
X133548253Y-110170536D01*
X133581206Y-110210313D01*
X133582432Y-110212361D01*
X133586074Y-110239656D01*
X133572350Y-110284234D01*
X133537869Y-110352112D01*
X133479239Y-110449311D01*
X133393070Y-110581851D01*
X133278200Y-110752476D01*
X133176254Y-110902655D01*
X133085123Y-111037350D01*
X133010073Y-111148740D01*
X132956369Y-111229005D01*
X132929280Y-111270325D01*
X132927574Y-111273130D01*
X132930882Y-111312721D01*
X132955953Y-111389669D01*
X132997798Y-111489432D01*
X133012712Y-111521291D01*
X133077786Y-111663226D01*
X133147212Y-111824273D01*
X133203609Y-111963621D01*
X133244247Y-112067044D01*
X133276526Y-112145642D01*
X133295178Y-112186720D01*
X133297497Y-112189885D01*
X133331803Y-112195128D01*
X133412669Y-112209494D01*
X133529343Y-112230937D01*
X133671075Y-112257413D01*
X133827110Y-112286877D01*
X133986698Y-112317283D01*
X134139085Y-112346588D01*
X134273521Y-112372745D01*
X134379252Y-112393710D01*
X134445526Y-112407439D01*
X134461782Y-112411320D01*
X134478573Y-112420900D01*
X134491249Y-112442536D01*
X134500378Y-112483531D01*
X134506531Y-112551189D01*
X134510280Y-112652812D01*
X134512192Y-112795703D01*
X134512840Y-112987165D01*
X134512874Y-113065645D01*
X134512874Y-113703906D01*
X134359598Y-113734160D01*
X134274322Y-113750564D01*
X134147070Y-113774509D01*
X133993315Y-113803107D01*
X133828534Y-113833467D01*
X133782989Y-113841806D01*
X133630932Y-113871370D01*
X133498468Y-113900442D01*
X133396714Y-113926329D01*
X133336788Y-113946337D01*
X133326805Y-113952301D01*
X133302293Y-113994534D01*
X133267148Y-114076370D01*
X133228173Y-114181683D01*
X133220442Y-114204368D01*
X133169360Y-114345018D01*
X133105954Y-114503714D01*
X133043904Y-114646225D01*
X133043598Y-114646886D01*
X132940267Y-114870440D01*
X133619961Y-115870232D01*
X133183621Y-116307300D01*
X133051649Y-116437381D01*
X132931279Y-116552048D01*
X132829273Y-116645181D01*
X132752391Y-116710658D01*
X132707393Y-116742357D01*
X132700938Y-116744368D01*
X132663040Y-116728529D01*
X132585708Y-116684496D01*
X132477389Y-116617490D01*
X132346532Y-116532734D01*
X132205052Y-116437816D01*
X132061461Y-116340998D01*
X131933435Y-116256751D01*
X131829105Y-116190258D01*
X131756600Y-116146702D01*
X131724158Y-116131264D01*
X131684576Y-116144328D01*
X131609519Y-116178750D01*
X131514468Y-116227380D01*
X131504392Y-116232785D01*
X131376391Y-116296980D01*
X131288618Y-116328463D01*
X131234028Y-116328798D01*
X131205575Y-116299548D01*
X131205410Y-116299138D01*
X131191188Y-116264498D01*
X131157269Y-116182269D01*
X131106284Y-116058814D01*
X131040862Y-115900498D01*
X130963634Y-115713686D01*
X130877229Y-115504742D01*
X130793551Y-115302446D01*
X130701588Y-115079200D01*
X130617150Y-114872392D01*
X130542769Y-114688362D01*
X130480974Y-114533451D01*
X130434297Y-114413996D01*
X130405268Y-114336339D01*
X130396322Y-114307356D01*
X130418756Y-114274110D01*
X130477439Y-114221123D01*
X130555689Y-114162704D01*
X130778534Y-113977952D01*
X130952718Y-113766182D01*
X131076154Y-113531856D01*
X131146754Y-113279434D01*
X131162431Y-113013377D01*
X131151036Y-112890575D01*
X131088950Y-112635793D01*
X130982023Y-112410801D01*
X130836889Y-112217817D01*
X130660178Y-112059061D01*
X130458522Y-111936750D01*
X130238554Y-111853105D01*
X130006906Y-111810344D01*
X129770209Y-111810687D01*
X129535095Y-111856352D01*
X129308196Y-111949559D01*
X129096144Y-112092527D01*
X129007636Y-112173383D01*
X128837889Y-112381007D01*
X128719699Y-112607895D01*
X128652278Y-112847433D01*
X128634840Y-113093007D01*
X128666598Y-113338003D01*
X128746765Y-113575808D01*
X128874555Y-113799807D01*
X129049180Y-114003387D01*
X129244312Y-114162704D01*
X129325591Y-114223602D01*
X129383009Y-114276015D01*
X129403678Y-114307406D01*
X129392856Y-114341639D01*
X129362077Y-114423419D01*
X129313874Y-114546407D01*
X129250778Y-114704263D01*
X129175322Y-114890649D01*
X129090038Y-115099226D01*
X129006219Y-115302496D01*
X128913745Y-115525933D01*
X128828089Y-115732984D01*
X128751882Y-115917286D01*
X128687753Y-116072475D01*
X128638332Y-116192188D01*
X128606248Y-116270061D01*
X128594359Y-116299138D01*
X128566274Y-116328677D01*
X128511949Y-116328591D01*
X128424395Y-116297326D01*
X128296619Y-116233329D01*
X128295608Y-116232785D01*
X128199402Y-116183121D01*
X128121631Y-116146945D01*
X128077777Y-116131408D01*
X128075842Y-116131264D01*
X128042829Y-116147024D01*
X127969946Y-116190850D01*
X127865322Y-116257557D01*
X127737090Y-116341964D01*
X127594948Y-116437816D01*
X127450233Y-116534867D01*
X127319804Y-116619270D01*
X127212110Y-116685801D01*
X127135598Y-116729238D01*
X127099062Y-116744368D01*
X127065418Y-116724482D01*
X126997776Y-116668903D01*
X126902893Y-116583754D01*
X126787530Y-116475153D01*
X126658445Y-116349221D01*
X126616229Y-116307149D01*
X126179739Y-115869931D01*
X126511977Y-115382340D01*
X126612946Y-115232605D01*
X126701562Y-115098220D01*
X126772854Y-114986969D01*
X126821850Y-114906639D01*
X126843578Y-114865014D01*
X126844215Y-114862053D01*
X126832760Y-114822818D01*
X126801949Y-114743895D01*
X126757116Y-114638509D01*
X126725647Y-114567954D01*
X126666808Y-114432876D01*
X126611396Y-114296409D01*
X126568436Y-114181103D01*
X126556766Y-114145977D01*
X126523611Y-114052174D01*
X126491201Y-113979694D01*
X126473399Y-113952301D01*
X126434114Y-113935536D01*
X126348374Y-113911770D01*
X126227303Y-113883697D01*
X126082027Y-113854009D01*
X126017012Y-113841806D01*
X125851913Y-113811468D01*
X125693552Y-113782093D01*
X125557404Y-113756569D01*
X125458943Y-113737785D01*
X125440402Y-113734160D01*
X125287127Y-113703906D01*
X125287127Y-113065645D01*
X125287471Y-112855770D01*
X125288884Y-112696980D01*
X125291936Y-112581973D01*
X125297197Y-112503446D01*
X125305237Y-112454096D01*
X125316627Y-112426619D01*
X125331937Y-112413713D01*
X125338218Y-112411320D01*
X125376104Y-112402833D01*
X125459805Y-112385900D01*
X125578567Y-112362566D01*
X125721639Y-112334875D01*
X125878268Y-112304873D01*
X126037703Y-112274604D01*
X126189191Y-112246115D01*
X126321981Y-112221449D01*
X126425319Y-112202651D01*
X126488455Y-112191767D01*
X126502503Y-112189885D01*
X126515230Y-112164704D01*
X126543400Y-112097622D01*
X126581748Y-112001333D01*
X126596391Y-111963621D01*
X126655452Y-111817921D01*
X126725000Y-111656951D01*
X126787288Y-111521291D01*
X126833121Y-111417561D01*
X126863613Y-111332326D01*
X126873792Y-111280126D01*
X126872169Y-111273130D01*
X126850657Y-111240102D01*
X126801535Y-111166643D01*
X126730077Y-111060577D01*
X126641555Y-110929726D01*
X126541241Y-110781912D01*
X126521406Y-110752734D01*
X126405012Y-110579863D01*
X126319452Y-110448226D01*
X126261316Y-110351761D01*
X126227192Y-110284408D01*
X126213669Y-110240106D01*
X126217336Y-110212794D01*
X126217430Y-110212620D01*
X126246293Y-110176746D01*
X126310133Y-110107391D01*
X126402031Y-110011745D01*
X126515067Y-109896999D01*
X126642321Y-109770341D01*
X126656672Y-109756205D01*
X126817043Y-109600903D01*
X126940805Y-109486870D01*
X127030445Y-109412002D01*
X127088448Y-109374196D01*
X127113996Y-109369317D01*
X127151282Y-109390603D01*
X127228657Y-109439773D01*
X127338133Y-109511575D01*
X127471720Y-109600755D01*
X127621430Y-109702063D01*
X127656382Y-109725897D01*
X128152610Y-110064765D01*
X128376707Y-109963056D01*
X128512989Y-109903783D01*
X128659276Y-109844170D01*
X128785035Y-109796640D01*
X128790575Y-109794685D01*
X128888943Y-109758677D01*
X128964771Y-109728229D01*
X129001718Y-109709905D01*
X129001780Y-109709852D01*
X129013504Y-109676729D01*
X129033432Y-109595267D01*
X129059587Y-109474625D01*
X129089990Y-109323959D01*
X129122663Y-109152428D01*
X129125336Y-109137967D01*
X129158110Y-108961235D01*
X129188198Y-108800810D01*
X129213661Y-108666888D01*
X129232559Y-108569663D01*
X129242953Y-108519332D01*
X129243135Y-108518563D01*
X129249461Y-108497153D01*
X129261761Y-108480988D01*
X129287406Y-108469331D01*
X129333765Y-108461445D01*
X129408208Y-108456593D01*
X129518105Y-108454039D01*
X129670825Y-108453045D01*
X129873738Y-108452874D01*
X129900000Y-108452874D01*
X130109014Y-108452998D01*
X130109014Y-108452998D01*
G37*
X130109014Y-108452998D02*
X130267006Y-108453863D01*
X130381347Y-108456205D01*
X130459407Y-108460762D01*
X130508554Y-108468270D01*
X130536159Y-108479466D01*
X130549592Y-108495088D01*
X130556221Y-108515873D01*
X130556865Y-108518563D01*
X130566935Y-108567113D01*
X130585575Y-108662905D01*
X130610845Y-108795743D01*
X130640807Y-108955431D01*
X130673522Y-109131774D01*
X130674664Y-109137967D01*
X130707433Y-109310782D01*
X130738093Y-109463469D01*
X130764664Y-109586871D01*
X130785167Y-109671831D01*
X130797626Y-109709190D01*
X130798220Y-109709852D01*
X130834919Y-109728095D01*
X130910586Y-109758497D01*
X131008878Y-109794493D01*
X131009425Y-109794685D01*
X131133233Y-109841222D01*
X131279196Y-109900504D01*
X131416781Y-109960109D01*
X131423293Y-109963056D01*
X131647390Y-110064765D01*
X132143619Y-109725897D01*
X132295846Y-109622592D01*
X132433741Y-109530237D01*
X132549315Y-109454084D01*
X132634579Y-109399385D01*
X132681544Y-109371393D01*
X132686004Y-109369317D01*
X132720134Y-109378560D01*
X132783881Y-109423156D01*
X132879731Y-109505209D01*
X133010169Y-109626821D01*
X133143328Y-109756205D01*
X133271694Y-109883702D01*
X133386581Y-110000046D01*
X133481073Y-110098052D01*
X133548253Y-110170536D01*
X133581206Y-110210313D01*
X133582432Y-110212361D01*
X133586074Y-110239656D01*
X133572350Y-110284234D01*
X133537869Y-110352112D01*
X133479239Y-110449311D01*
X133393070Y-110581851D01*
X133278200Y-110752476D01*
X133176254Y-110902655D01*
X133085123Y-111037350D01*
X133010073Y-111148740D01*
X132956369Y-111229005D01*
X132929280Y-111270325D01*
X132927574Y-111273130D01*
X132930882Y-111312721D01*
X132955953Y-111389669D01*
X132997798Y-111489432D01*
X133012712Y-111521291D01*
X133077786Y-111663226D01*
X133147212Y-111824273D01*
X133203609Y-111963621D01*
X133244247Y-112067044D01*
X133276526Y-112145642D01*
X133295178Y-112186720D01*
X133297497Y-112189885D01*
X133331803Y-112195128D01*
X133412669Y-112209494D01*
X133529343Y-112230937D01*
X133671075Y-112257413D01*
X133827110Y-112286877D01*
X133986698Y-112317283D01*
X134139085Y-112346588D01*
X134273521Y-112372745D01*
X134379252Y-112393710D01*
X134445526Y-112407439D01*
X134461782Y-112411320D01*
X134478573Y-112420900D01*
X134491249Y-112442536D01*
X134500378Y-112483531D01*
X134506531Y-112551189D01*
X134510280Y-112652812D01*
X134512192Y-112795703D01*
X134512840Y-112987165D01*
X134512874Y-113065645D01*
X134512874Y-113703906D01*
X134359598Y-113734160D01*
X134274322Y-113750564D01*
X134147070Y-113774509D01*
X133993315Y-113803107D01*
X133828534Y-113833467D01*
X133782989Y-113841806D01*
X133630932Y-113871370D01*
X133498468Y-113900442D01*
X133396714Y-113926329D01*
X133336788Y-113946337D01*
X133326805Y-113952301D01*
X133302293Y-113994534D01*
X133267148Y-114076370D01*
X133228173Y-114181683D01*
X133220442Y-114204368D01*
X133169360Y-114345018D01*
X133105954Y-114503714D01*
X133043904Y-114646225D01*
X133043598Y-114646886D01*
X132940267Y-114870440D01*
X133619961Y-115870232D01*
X133183621Y-116307300D01*
X133051649Y-116437381D01*
X132931279Y-116552048D01*
X132829273Y-116645181D01*
X132752391Y-116710658D01*
X132707393Y-116742357D01*
X132700938Y-116744368D01*
X132663040Y-116728529D01*
X132585708Y-116684496D01*
X132477389Y-116617490D01*
X132346532Y-116532734D01*
X132205052Y-116437816D01*
X132061461Y-116340998D01*
X131933435Y-116256751D01*
X131829105Y-116190258D01*
X131756600Y-116146702D01*
X131724158Y-116131264D01*
X131684576Y-116144328D01*
X131609519Y-116178750D01*
X131514468Y-116227380D01*
X131504392Y-116232785D01*
X131376391Y-116296980D01*
X131288618Y-116328463D01*
X131234028Y-116328798D01*
X131205575Y-116299548D01*
X131205410Y-116299138D01*
X131191188Y-116264498D01*
X131157269Y-116182269D01*
X131106284Y-116058814D01*
X131040862Y-115900498D01*
X130963634Y-115713686D01*
X130877229Y-115504742D01*
X130793551Y-115302446D01*
X130701588Y-115079200D01*
X130617150Y-114872392D01*
X130542769Y-114688362D01*
X130480974Y-114533451D01*
X130434297Y-114413996D01*
X130405268Y-114336339D01*
X130396322Y-114307356D01*
X130418756Y-114274110D01*
X130477439Y-114221123D01*
X130555689Y-114162704D01*
X130778534Y-113977952D01*
X130952718Y-113766182D01*
X131076154Y-113531856D01*
X131146754Y-113279434D01*
X131162431Y-113013377D01*
X131151036Y-112890575D01*
X131088950Y-112635793D01*
X130982023Y-112410801D01*
X130836889Y-112217817D01*
X130660178Y-112059061D01*
X130458522Y-111936750D01*
X130238554Y-111853105D01*
X130006906Y-111810344D01*
X129770209Y-111810687D01*
X129535095Y-111856352D01*
X129308196Y-111949559D01*
X129096144Y-112092527D01*
X129007636Y-112173383D01*
X128837889Y-112381007D01*
X128719699Y-112607895D01*
X128652278Y-112847433D01*
X128634840Y-113093007D01*
X128666598Y-113338003D01*
X128746765Y-113575808D01*
X128874555Y-113799807D01*
X129049180Y-114003387D01*
X129244312Y-114162704D01*
X129325591Y-114223602D01*
X129383009Y-114276015D01*
X129403678Y-114307406D01*
X129392856Y-114341639D01*
X129362077Y-114423419D01*
X129313874Y-114546407D01*
X129250778Y-114704263D01*
X129175322Y-114890649D01*
X129090038Y-115099226D01*
X129006219Y-115302496D01*
X128913745Y-115525933D01*
X128828089Y-115732984D01*
X128751882Y-115917286D01*
X128687753Y-116072475D01*
X128638332Y-116192188D01*
X128606248Y-116270061D01*
X128594359Y-116299138D01*
X128566274Y-116328677D01*
X128511949Y-116328591D01*
X128424395Y-116297326D01*
X128296619Y-116233329D01*
X128295608Y-116232785D01*
X128199402Y-116183121D01*
X128121631Y-116146945D01*
X128077777Y-116131408D01*
X128075842Y-116131264D01*
X128042829Y-116147024D01*
X127969946Y-116190850D01*
X127865322Y-116257557D01*
X127737090Y-116341964D01*
X127594948Y-116437816D01*
X127450233Y-116534867D01*
X127319804Y-116619270D01*
X127212110Y-116685801D01*
X127135598Y-116729238D01*
X127099062Y-116744368D01*
X127065418Y-116724482D01*
X126997776Y-116668903D01*
X126902893Y-116583754D01*
X126787530Y-116475153D01*
X126658445Y-116349221D01*
X126616229Y-116307149D01*
X126179739Y-115869931D01*
X126511977Y-115382340D01*
X126612946Y-115232605D01*
X126701562Y-115098220D01*
X126772854Y-114986969D01*
X126821850Y-114906639D01*
X126843578Y-114865014D01*
X126844215Y-114862053D01*
X126832760Y-114822818D01*
X126801949Y-114743895D01*
X126757116Y-114638509D01*
X126725647Y-114567954D01*
X126666808Y-114432876D01*
X126611396Y-114296409D01*
X126568436Y-114181103D01*
X126556766Y-114145977D01*
X126523611Y-114052174D01*
X126491201Y-113979694D01*
X126473399Y-113952301D01*
X126434114Y-113935536D01*
X126348374Y-113911770D01*
X126227303Y-113883697D01*
X126082027Y-113854009D01*
X126017012Y-113841806D01*
X125851913Y-113811468D01*
X125693552Y-113782093D01*
X125557404Y-113756569D01*
X125458943Y-113737785D01*
X125440402Y-113734160D01*
X125287127Y-113703906D01*
X125287127Y-113065645D01*
X125287471Y-112855770D01*
X125288884Y-112696980D01*
X125291936Y-112581973D01*
X125297197Y-112503446D01*
X125305237Y-112454096D01*
X125316627Y-112426619D01*
X125331937Y-112413713D01*
X125338218Y-112411320D01*
X125376104Y-112402833D01*
X125459805Y-112385900D01*
X125578567Y-112362566D01*
X125721639Y-112334875D01*
X125878268Y-112304873D01*
X126037703Y-112274604D01*
X126189191Y-112246115D01*
X126321981Y-112221449D01*
X126425319Y-112202651D01*
X126488455Y-112191767D01*
X126502503Y-112189885D01*
X126515230Y-112164704D01*
X126543400Y-112097622D01*
X126581748Y-112001333D01*
X126596391Y-111963621D01*
X126655452Y-111817921D01*
X126725000Y-111656951D01*
X126787288Y-111521291D01*
X126833121Y-111417561D01*
X126863613Y-111332326D01*
X126873792Y-111280126D01*
X126872169Y-111273130D01*
X126850657Y-111240102D01*
X126801535Y-111166643D01*
X126730077Y-111060577D01*
X126641555Y-110929726D01*
X126541241Y-110781912D01*
X126521406Y-110752734D01*
X126405012Y-110579863D01*
X126319452Y-110448226D01*
X126261316Y-110351761D01*
X126227192Y-110284408D01*
X126213669Y-110240106D01*
X126217336Y-110212794D01*
X126217430Y-110212620D01*
X126246293Y-110176746D01*
X126310133Y-110107391D01*
X126402031Y-110011745D01*
X126515067Y-109896999D01*
X126642321Y-109770341D01*
X126656672Y-109756205D01*
X126817043Y-109600903D01*
X126940805Y-109486870D01*
X127030445Y-109412002D01*
X127088448Y-109374196D01*
X127113996Y-109369317D01*
X127151282Y-109390603D01*
X127228657Y-109439773D01*
X127338133Y-109511575D01*
X127471720Y-109600755D01*
X127621430Y-109702063D01*
X127656382Y-109725897D01*
X128152610Y-110064765D01*
X128376707Y-109963056D01*
X128512989Y-109903783D01*
X128659276Y-109844170D01*
X128785035Y-109796640D01*
X128790575Y-109794685D01*
X128888943Y-109758677D01*
X128964771Y-109728229D01*
X129001718Y-109709905D01*
X129001780Y-109709852D01*
X129013504Y-109676729D01*
X129033432Y-109595267D01*
X129059587Y-109474625D01*
X129089990Y-109323959D01*
X129122663Y-109152428D01*
X129125336Y-109137967D01*
X129158110Y-108961235D01*
X129188198Y-108800810D01*
X129213661Y-108666888D01*
X129232559Y-108569663D01*
X129242953Y-108519332D01*
X129243135Y-108518563D01*
X129249461Y-108497153D01*
X129261761Y-108480988D01*
X129287406Y-108469331D01*
X129333765Y-108461445D01*
X129408208Y-108456593D01*
X129518105Y-108454039D01*
X129670825Y-108453045D01*
X129873738Y-108452874D01*
X129900000Y-108452874D01*
X130109014Y-108452998D01*
G36*
X136243439Y-117956540D02*
X136358950Y-118032034D01*
X136414664Y-118099617D01*
X136458804Y-118222255D01*
X136462309Y-118319298D01*
X136454368Y-118449056D01*
X136155115Y-118580039D01*
X136009611Y-118646958D01*
X135914537Y-118700790D01*
X135865101Y-118747416D01*
X135856511Y-118792720D01*
X135883972Y-118842582D01*
X135914253Y-118875632D01*
X136002363Y-118928633D01*
X136098196Y-118932347D01*
X136186212Y-118891041D01*
X136250869Y-118808983D01*
X136262433Y-118780008D01*
X136317825Y-118689509D01*
X136381553Y-118650940D01*
X136468966Y-118617946D01*
X136468966Y-118743034D01*
X136461238Y-118828156D01*
X136430966Y-118899938D01*
X136367518Y-118982356D01*
X136358088Y-118993066D01*
X136287513Y-119066391D01*
X136226847Y-119105742D01*
X136150950Y-119123845D01*
X136088030Y-119129774D01*
X135975487Y-119131251D01*
X135895370Y-119112535D01*
X135845390Y-119084747D01*
X135766838Y-119023641D01*
X135712463Y-118957554D01*
X135678052Y-118874441D01*
X135659388Y-118762254D01*
X135652256Y-118608946D01*
X135651687Y-118531136D01*
X135653622Y-118437853D01*
X135829899Y-118437853D01*
X135831944Y-118487896D01*
X135837039Y-118496092D01*
X135870666Y-118484958D01*
X135943030Y-118455493D01*
X136039747Y-118413601D01*
X136059973Y-118404597D01*
X136182203Y-118342442D01*
X136249547Y-118287815D01*
X136264348Y-118236649D01*
X136228947Y-118184876D01*
X136199711Y-118162000D01*
X136094216Y-118116250D01*
X135995476Y-118123808D01*
X135912812Y-118179651D01*
X135855548Y-118278753D01*
X135837188Y-118357414D01*
X135829899Y-118437853D01*
X135653622Y-118437853D01*
X135655459Y-118349351D01*
X135669359Y-118214853D01*
X135696894Y-118116916D01*
X135741572Y-118044811D01*
X135806901Y-117987813D01*
X135835383Y-117969393D01*
X135964763Y-117921422D01*
X136106412Y-117918403D01*
X136243439Y-117956540D01*
X136243439Y-117956540D01*
G37*
X136243439Y-117956540D02*
X136358950Y-118032034D01*
X136414664Y-118099617D01*
X136458804Y-118222255D01*
X136462309Y-118319298D01*
X136454368Y-118449056D01*
X136155115Y-118580039D01*
X136009611Y-118646958D01*
X135914537Y-118700790D01*
X135865101Y-118747416D01*
X135856511Y-118792720D01*
X135883972Y-118842582D01*
X135914253Y-118875632D01*
X136002363Y-118928633D01*
X136098196Y-118932347D01*
X136186212Y-118891041D01*
X136250869Y-118808983D01*
X136262433Y-118780008D01*
X136317825Y-118689509D01*
X136381553Y-118650940D01*
X136468966Y-118617946D01*
X136468966Y-118743034D01*
X136461238Y-118828156D01*
X136430966Y-118899938D01*
X136367518Y-118982356D01*
X136358088Y-118993066D01*
X136287513Y-119066391D01*
X136226847Y-119105742D01*
X136150950Y-119123845D01*
X136088030Y-119129774D01*
X135975487Y-119131251D01*
X135895370Y-119112535D01*
X135845390Y-119084747D01*
X135766838Y-119023641D01*
X135712463Y-118957554D01*
X135678052Y-118874441D01*
X135659388Y-118762254D01*
X135652256Y-118608946D01*
X135651687Y-118531136D01*
X135653622Y-118437853D01*
X135829899Y-118437853D01*
X135831944Y-118487896D01*
X135837039Y-118496092D01*
X135870666Y-118484958D01*
X135943030Y-118455493D01*
X136039747Y-118413601D01*
X136059973Y-118404597D01*
X136182203Y-118342442D01*
X136249547Y-118287815D01*
X136264348Y-118236649D01*
X136228947Y-118184876D01*
X136199711Y-118162000D01*
X136094216Y-118116250D01*
X135995476Y-118123808D01*
X135912812Y-118179651D01*
X135855548Y-118278753D01*
X135837188Y-118357414D01*
X135829899Y-118437853D01*
X135653622Y-118437853D01*
X135655459Y-118349351D01*
X135669359Y-118214853D01*
X135696894Y-118116916D01*
X135741572Y-118044811D01*
X135806901Y-117987813D01*
X135835383Y-117969393D01*
X135964763Y-117921422D01*
X136106412Y-117918403D01*
X136243439Y-117956540D01*
G36*
X135235690Y-117940018D02*
X135270585Y-117955269D01*
X135353877Y-118021235D01*
X135425103Y-118116618D01*
X135469153Y-118218406D01*
X135476322Y-118268587D01*
X135452285Y-118338647D01*
X135399561Y-118375717D01*
X135343031Y-118398164D01*
X135317146Y-118402300D01*
X135304542Y-118372283D01*
X135279654Y-118306961D01*
X135268735Y-118277445D01*
X135207508Y-118175348D01*
X135118861Y-118124423D01*
X135005193Y-118125989D01*
X134996774Y-118127994D01*
X134936088Y-118156767D01*
X134891474Y-118212859D01*
X134861002Y-118303163D01*
X134842744Y-118434571D01*
X134834771Y-118613974D01*
X134834023Y-118709433D01*
X134833652Y-118859913D01*
X134831223Y-118962495D01*
X134824760Y-119027672D01*
X134812288Y-119065938D01*
X134791833Y-119087785D01*
X134761419Y-119103707D01*
X134759661Y-119104509D01*
X134701091Y-119129272D01*
X134672075Y-119138391D01*
X134667616Y-119110822D01*
X134663799Y-119034620D01*
X134660899Y-118919541D01*
X134659191Y-118775341D01*
X134658851Y-118669814D01*
X134660588Y-118465613D01*
X134667382Y-118310697D01*
X134681607Y-118196024D01*
X134705638Y-118112551D01*
X134741848Y-118051236D01*
X134792612Y-118003034D01*
X134842739Y-117969393D01*
X134963275Y-117924619D01*
X135103557Y-117914521D01*
X135235690Y-117940018D01*
X135235690Y-117940018D01*
G37*
X135235690Y-117940018D02*
X135270585Y-117955269D01*
X135353877Y-118021235D01*
X135425103Y-118116618D01*
X135469153Y-118218406D01*
X135476322Y-118268587D01*
X135452285Y-118338647D01*
X135399561Y-118375717D01*
X135343031Y-118398164D01*
X135317146Y-118402300D01*
X135304542Y-118372283D01*
X135279654Y-118306961D01*
X135268735Y-118277445D01*
X135207508Y-118175348D01*
X135118861Y-118124423D01*
X135005193Y-118125989D01*
X134996774Y-118127994D01*
X134936088Y-118156767D01*
X134891474Y-118212859D01*
X134861002Y-118303163D01*
X134842744Y-118434571D01*
X134834771Y-118613974D01*
X134834023Y-118709433D01*
X134833652Y-118859913D01*
X134831223Y-118962495D01*
X134824760Y-119027672D01*
X134812288Y-119065938D01*
X134791833Y-119087785D01*
X134761419Y-119103707D01*
X134759661Y-119104509D01*
X134701091Y-119129272D01*
X134672075Y-119138391D01*
X134667616Y-119110822D01*
X134663799Y-119034620D01*
X134660899Y-118919541D01*
X134659191Y-118775341D01*
X134658851Y-118669814D01*
X134660588Y-118465613D01*
X134667382Y-118310697D01*
X134681607Y-118196024D01*
X134705638Y-118112551D01*
X134741848Y-118051236D01*
X134792612Y-118003034D01*
X134842739Y-117969393D01*
X134963275Y-117924619D01*
X135103557Y-117914521D01*
X135235690Y-117940018D01*
G36*
X134214406Y-117935156D02*
X134298469Y-117973393D01*
X134364450Y-118019726D01*
X134412794Y-118071532D01*
X134446172Y-118138363D01*
X134467253Y-118229769D01*
X134478707Y-118355301D01*
X134483203Y-118524508D01*
X134483678Y-118635933D01*
X134483678Y-119070627D01*
X134409316Y-119104509D01*
X134350746Y-119129272D01*
X134321730Y-119138391D01*
X134316179Y-119111257D01*
X134311775Y-119038094D01*
X134309078Y-118931263D01*
X134308506Y-118846437D01*
X134306046Y-118723887D01*
X134299412Y-118626668D01*
X134289726Y-118567134D01*
X134282032Y-118554483D01*
X134230311Y-118567402D01*
X134149117Y-118600539D01*
X134055102Y-118645461D01*
X133964917Y-118693735D01*
X133895215Y-118736928D01*
X133862648Y-118766608D01*
X133862519Y-118766929D01*
X133865320Y-118821857D01*
X133890439Y-118874292D01*
X133934541Y-118916881D01*
X133998909Y-118931126D01*
X134053921Y-118929466D01*
X134131835Y-118928245D01*
X134172732Y-118946498D01*
X134197295Y-118994726D01*
X134200392Y-119003820D01*
X134211040Y-119072598D01*
X134182565Y-119114360D01*
X134108344Y-119134263D01*
X134028168Y-119137944D01*
X133883890Y-119110658D01*
X133809203Y-119071690D01*
X133716963Y-118980148D01*
X133668043Y-118867782D01*
X133663654Y-118749051D01*
X133705001Y-118638411D01*
X133767197Y-118569080D01*
X133829294Y-118530265D01*
X133926895Y-118481125D01*
X134040632Y-118431292D01*
X134059590Y-118423677D01*
X134184521Y-118368545D01*
X134256539Y-118319954D01*
X134279700Y-118271647D01*
X134258064Y-118217370D01*
X134220920Y-118174943D01*
X134133127Y-118122702D01*
X134036530Y-118118784D01*
X133947944Y-118159041D01*
X133884186Y-118239326D01*
X133875817Y-118260040D01*
X133827096Y-118336225D01*
X133755965Y-118392785D01*
X133666207Y-118439201D01*
X133666207Y-118307584D01*
X133671490Y-118227168D01*
X133694142Y-118163786D01*
X133744367Y-118096163D01*
X133792582Y-118044076D01*
X133867554Y-117970322D01*
X133925806Y-117930702D01*
X133988372Y-117914810D01*
X134059193Y-117912184D01*
X134214406Y-117935156D01*
X134214406Y-117935156D01*
G37*
X134214406Y-117935156D02*
X134298469Y-117973393D01*
X134364450Y-118019726D01*
X134412794Y-118071532D01*
X134446172Y-118138363D01*
X134467253Y-118229769D01*
X134478707Y-118355301D01*
X134483203Y-118524508D01*
X134483678Y-118635933D01*
X134483678Y-119070627D01*
X134409316Y-119104509D01*
X134350746Y-119129272D01*
X134321730Y-119138391D01*
X134316179Y-119111257D01*
X134311775Y-119038094D01*
X134309078Y-118931263D01*
X134308506Y-118846437D01*
X134306046Y-118723887D01*
X134299412Y-118626668D01*
X134289726Y-118567134D01*
X134282032Y-118554483D01*
X134230311Y-118567402D01*
X134149117Y-118600539D01*
X134055102Y-118645461D01*
X133964917Y-118693735D01*
X133895215Y-118736928D01*
X133862648Y-118766608D01*
X133862519Y-118766929D01*
X133865320Y-118821857D01*
X133890439Y-118874292D01*
X133934541Y-118916881D01*
X133998909Y-118931126D01*
X134053921Y-118929466D01*
X134131835Y-118928245D01*
X134172732Y-118946498D01*
X134197295Y-118994726D01*
X134200392Y-119003820D01*
X134211040Y-119072598D01*
X134182565Y-119114360D01*
X134108344Y-119134263D01*
X134028168Y-119137944D01*
X133883890Y-119110658D01*
X133809203Y-119071690D01*
X133716963Y-118980148D01*
X133668043Y-118867782D01*
X133663654Y-118749051D01*
X133705001Y-118638411D01*
X133767197Y-118569080D01*
X133829294Y-118530265D01*
X133926895Y-118481125D01*
X134040632Y-118431292D01*
X134059590Y-118423677D01*
X134184521Y-118368545D01*
X134256539Y-118319954D01*
X134279700Y-118271647D01*
X134258064Y-118217370D01*
X134220920Y-118174943D01*
X134133127Y-118122702D01*
X134036530Y-118118784D01*
X133947944Y-118159041D01*
X133884186Y-118239326D01*
X133875817Y-118260040D01*
X133827096Y-118336225D01*
X133755965Y-118392785D01*
X133666207Y-118439201D01*
X133666207Y-118307584D01*
X133671490Y-118227168D01*
X133694142Y-118163786D01*
X133744367Y-118096163D01*
X133792582Y-118044076D01*
X133867554Y-117970322D01*
X133925806Y-117930702D01*
X133988372Y-117914810D01*
X134059193Y-117912184D01*
X134214406Y-117935156D01*
G36*
X133480124Y-117939840D02*
X133484579Y-118016653D01*
X133488071Y-118133391D01*
X133490315Y-118280821D01*
X133491035Y-118435455D01*
X133491035Y-118958727D01*
X133398645Y-119051117D01*
X133334978Y-119108047D01*
X133279089Y-119131107D01*
X133202702Y-119129647D01*
X133172380Y-119125934D01*
X133077610Y-119115126D01*
X132999222Y-119108933D01*
X132980115Y-119108361D01*
X132915699Y-119112102D01*
X132823571Y-119121494D01*
X132787850Y-119125934D01*
X132700114Y-119132801D01*
X132641153Y-119117885D01*
X132582690Y-119071835D01*
X132561585Y-119051117D01*
X132469195Y-118958727D01*
X132469195Y-117979947D01*
X132543558Y-117946066D01*
X132607590Y-117920970D01*
X132645052Y-117912184D01*
X132654657Y-117939950D01*
X132663635Y-118017530D01*
X132671386Y-118136348D01*
X132677314Y-118287828D01*
X132680173Y-118415805D01*
X132688161Y-118919425D01*
X132757848Y-118929278D01*
X132821229Y-118922389D01*
X132852286Y-118900083D01*
X132860967Y-118858379D01*
X132868378Y-118769544D01*
X132873931Y-118644834D01*
X132877036Y-118495507D01*
X132877484Y-118418661D01*
X132877931Y-117976287D01*
X132969874Y-117944235D01*
X133034949Y-117922443D01*
X133070347Y-117912281D01*
X133071368Y-117912184D01*
X133074920Y-117939809D01*
X133078823Y-118016411D01*
X133082751Y-118132579D01*
X133086376Y-118278904D01*
X133088908Y-118415805D01*
X133096897Y-118919425D01*
X133272069Y-118919425D01*
X133280107Y-118459965D01*
X133288146Y-118000505D01*
X133373543Y-117956344D01*
X133436593Y-117926019D01*
X133473910Y-117912258D01*
X133474987Y-117912184D01*
X133480124Y-117939840D01*
X133480124Y-117939840D01*
G37*
X133480124Y-117939840D02*
X133484579Y-118016653D01*
X133488071Y-118133391D01*
X133490315Y-118280821D01*
X133491035Y-118435455D01*
X133491035Y-118958727D01*
X133398645Y-119051117D01*
X133334978Y-119108047D01*
X133279089Y-119131107D01*
X133202702Y-119129647D01*
X133172380Y-119125934D01*
X133077610Y-119115126D01*
X132999222Y-119108933D01*
X132980115Y-119108361D01*
X132915699Y-119112102D01*
X132823571Y-119121494D01*
X132787850Y-119125934D01*
X132700114Y-119132801D01*
X132641153Y-119117885D01*
X132582690Y-119071835D01*
X132561585Y-119051117D01*
X132469195Y-118958727D01*
X132469195Y-117979947D01*
X132543558Y-117946066D01*
X132607590Y-117920970D01*
X132645052Y-117912184D01*
X132654657Y-117939950D01*
X132663635Y-118017530D01*
X132671386Y-118136348D01*
X132677314Y-118287828D01*
X132680173Y-118415805D01*
X132688161Y-118919425D01*
X132757848Y-118929278D01*
X132821229Y-118922389D01*
X132852286Y-118900083D01*
X132860967Y-118858379D01*
X132868378Y-118769544D01*
X132873931Y-118644834D01*
X132877036Y-118495507D01*
X132877484Y-118418661D01*
X132877931Y-117976287D01*
X132969874Y-117944235D01*
X133034949Y-117922443D01*
X133070347Y-117912281D01*
X133071368Y-117912184D01*
X133074920Y-117939809D01*
X133078823Y-118016411D01*
X133082751Y-118132579D01*
X133086376Y-118278904D01*
X133088908Y-118415805D01*
X133096897Y-118919425D01*
X133272069Y-118919425D01*
X133280107Y-118459965D01*
X133288146Y-118000505D01*
X133373543Y-117956344D01*
X133436593Y-117926019D01*
X133473910Y-117912258D01*
X133474987Y-117912184D01*
X133480124Y-117939840D01*
G36*
X132293914Y-118154455D02*
X132293543Y-118372661D01*
X132292108Y-118540519D01*
X132289002Y-118666070D01*
X132283622Y-118757355D01*
X132275362Y-118822415D01*
X132263616Y-118869291D01*
X132247781Y-118906024D01*
X132235790Y-118926991D01*
X132136490Y-119040694D01*
X132010588Y-119111965D01*
X131871291Y-119137538D01*
X131731805Y-119114150D01*
X131648743Y-119072119D01*
X131561545Y-118999411D01*
X131502117Y-118910612D01*
X131466261Y-118794320D01*
X131449781Y-118639135D01*
X131447447Y-118525287D01*
X131447761Y-118517106D01*
X131651724Y-118517106D01*
X131652970Y-118647657D01*
X131658678Y-118734080D01*
X131671804Y-118790618D01*
X131695306Y-118831514D01*
X131723386Y-118862362D01*
X131817688Y-118921905D01*
X131918940Y-118926992D01*
X132014636Y-118877279D01*
X132022084Y-118870543D01*
X132053874Y-118835502D01*
X132073808Y-118793811D01*
X132084600Y-118731762D01*
X132088965Y-118635644D01*
X132089655Y-118529379D01*
X132088159Y-118395880D01*
X132081964Y-118306822D01*
X132068514Y-118248293D01*
X132045251Y-118206382D01*
X132026175Y-118184123D01*
X131937563Y-118127985D01*
X131835508Y-118121235D01*
X131738095Y-118164114D01*
X131719296Y-118180032D01*
X131687293Y-118215382D01*
X131667318Y-118257502D01*
X131656593Y-118320251D01*
X131652339Y-118417487D01*
X131651724Y-118517106D01*
X131447761Y-118517106D01*
X131454504Y-118341947D01*
X131478472Y-118204195D01*
X131523548Y-118100632D01*
X131593928Y-118019856D01*
X131648743Y-117978455D01*
X131748376Y-117933728D01*
X131863855Y-117912967D01*
X131971199Y-117918525D01*
X132031264Y-117940943D01*
X132054835Y-117947323D01*
X132070477Y-117923535D01*
X132081395Y-117859788D01*
X132089655Y-117762687D01*
X132098699Y-117654541D01*
X132111261Y-117589475D01*
X132134119Y-117552268D01*
X132174051Y-117527699D01*
X132199138Y-117516819D01*
X132294023Y-117477072D01*
X132293914Y-118154455D01*
X132293914Y-118154455D01*
G37*
X132293914Y-118154455D02*
X132293543Y-118372661D01*
X132292108Y-118540519D01*
X132289002Y-118666070D01*
X132283622Y-118757355D01*
X132275362Y-118822415D01*
X132263616Y-118869291D01*
X132247781Y-118906024D01*
X132235790Y-118926991D01*
X132136490Y-119040694D01*
X132010588Y-119111965D01*
X131871291Y-119137538D01*
X131731805Y-119114150D01*
X131648743Y-119072119D01*
X131561545Y-118999411D01*
X131502117Y-118910612D01*
X131466261Y-118794320D01*
X131449781Y-118639135D01*
X131447447Y-118525287D01*
X131447761Y-118517106D01*
X131651724Y-118517106D01*
X131652970Y-118647657D01*
X131658678Y-118734080D01*
X131671804Y-118790618D01*
X131695306Y-118831514D01*
X131723386Y-118862362D01*
X131817688Y-118921905D01*
X131918940Y-118926992D01*
X132014636Y-118877279D01*
X132022084Y-118870543D01*
X132053874Y-118835502D01*
X132073808Y-118793811D01*
X132084600Y-118731762D01*
X132088965Y-118635644D01*
X132089655Y-118529379D01*
X132088159Y-118395880D01*
X132081964Y-118306822D01*
X132068514Y-118248293D01*
X132045251Y-118206382D01*
X132026175Y-118184123D01*
X131937563Y-118127985D01*
X131835508Y-118121235D01*
X131738095Y-118164114D01*
X131719296Y-118180032D01*
X131687293Y-118215382D01*
X131667318Y-118257502D01*
X131656593Y-118320251D01*
X131652339Y-118417487D01*
X131651724Y-118517106D01*
X131447761Y-118517106D01*
X131454504Y-118341947D01*
X131478472Y-118204195D01*
X131523548Y-118100632D01*
X131593928Y-118019856D01*
X131648743Y-117978455D01*
X131748376Y-117933728D01*
X131863855Y-117912967D01*
X131971199Y-117918525D01*
X132031264Y-117940943D01*
X132054835Y-117947323D01*
X132070477Y-117923535D01*
X132081395Y-117859788D01*
X132089655Y-117762687D01*
X132098699Y-117654541D01*
X132111261Y-117589475D01*
X132134119Y-117552268D01*
X132174051Y-117527699D01*
X132199138Y-117516819D01*
X132294023Y-117477072D01*
X132293914Y-118154455D01*
G36*
X130965943Y-117921920D02*
X131098565Y-117970859D01*
X131206010Y-118057419D01*
X131248032Y-118118352D01*
X131293843Y-118230161D01*
X131292891Y-118311006D01*
X131244808Y-118365378D01*
X131227017Y-118374624D01*
X131150204Y-118403450D01*
X131110976Y-118396065D01*
X131097689Y-118347658D01*
X131097012Y-118320920D01*
X131072686Y-118222548D01*
X131009281Y-118153734D01*
X130921154Y-118120498D01*
X130822663Y-118128861D01*
X130742602Y-118172296D01*
X130715561Y-118197072D01*
X130696394Y-118227129D01*
X130683446Y-118272565D01*
X130675064Y-118343476D01*
X130669593Y-118449960D01*
X130665378Y-118602112D01*
X130664287Y-118650287D01*
X130660307Y-118815095D01*
X130655781Y-118931088D01*
X130648995Y-119007833D01*
X130638231Y-119054893D01*
X130621773Y-119081835D01*
X130597906Y-119098223D01*
X130582626Y-119105463D01*
X130517733Y-119130220D01*
X130479534Y-119138391D01*
X130466912Y-119111103D01*
X130459208Y-119028603D01*
X130456380Y-118889941D01*
X130458386Y-118694162D01*
X130459011Y-118663965D01*
X130463421Y-118485349D01*
X130468635Y-118354923D01*
X130476055Y-118262492D01*
X130487082Y-118197858D01*
X130503117Y-118150825D01*
X130525561Y-118111196D01*
X130537302Y-118094215D01*
X130604619Y-118019080D01*
X130679910Y-117960638D01*
X130689128Y-117955536D01*
X130824133Y-117915260D01*
X130965943Y-117921920D01*
X130965943Y-117921920D01*
G37*
X130965943Y-117921920D02*
X131098565Y-117970859D01*
X131206010Y-118057419D01*
X131248032Y-118118352D01*
X131293843Y-118230161D01*
X131292891Y-118311006D01*
X131244808Y-118365378D01*
X131227017Y-118374624D01*
X131150204Y-118403450D01*
X131110976Y-118396065D01*
X131097689Y-118347658D01*
X131097012Y-118320920D01*
X131072686Y-118222548D01*
X131009281Y-118153734D01*
X130921154Y-118120498D01*
X130822663Y-118128861D01*
X130742602Y-118172296D01*
X130715561Y-118197072D01*
X130696394Y-118227129D01*
X130683446Y-118272565D01*
X130675064Y-118343476D01*
X130669593Y-118449960D01*
X130665378Y-118602112D01*
X130664287Y-118650287D01*
X130660307Y-118815095D01*
X130655781Y-118931088D01*
X130648995Y-119007833D01*
X130638231Y-119054893D01*
X130621773Y-119081835D01*
X130597906Y-119098223D01*
X130582626Y-119105463D01*
X130517733Y-119130220D01*
X130479534Y-119138391D01*
X130466912Y-119111103D01*
X130459208Y-119028603D01*
X130456380Y-118889941D01*
X130458386Y-118694162D01*
X130459011Y-118663965D01*
X130463421Y-118485349D01*
X130468635Y-118354923D01*
X130476055Y-118262492D01*
X130487082Y-118197858D01*
X130503117Y-118150825D01*
X130525561Y-118111196D01*
X130537302Y-118094215D01*
X130604619Y-118019080D01*
X130679910Y-117960638D01*
X130689128Y-117955536D01*
X130824133Y-117915260D01*
X130965943Y-117921920D01*
G36*
X129979944Y-117924360D02*
X130094343Y-117966842D01*
X130095652Y-117967658D01*
X130166403Y-118019730D01*
X130218636Y-118080584D01*
X130255371Y-118159887D01*
X130279634Y-118267309D01*
X130294445Y-118412517D01*
X130302829Y-118605179D01*
X130303564Y-118632628D01*
X130314120Y-119046521D01*
X130225291Y-119092456D01*
X130161018Y-119123498D01*
X130122210Y-119138206D01*
X130120415Y-119138391D01*
X130113700Y-119111250D01*
X130108365Y-119038041D01*
X130105083Y-118931081D01*
X130104368Y-118844469D01*
X130104351Y-118704162D01*
X130097937Y-118616051D01*
X130075580Y-118574025D01*
X130027732Y-118571975D01*
X129944849Y-118603790D01*
X129819713Y-118662272D01*
X129727697Y-118710845D01*
X129680371Y-118752986D01*
X129666458Y-118798916D01*
X129666437Y-118801189D01*
X129689395Y-118880311D01*
X129757370Y-118923055D01*
X129861398Y-118929246D01*
X129936330Y-118928172D01*
X129975839Y-118949753D01*
X130000478Y-119001591D01*
X130014659Y-119067632D01*
X129994223Y-119105104D01*
X129986528Y-119110467D01*
X129914083Y-119132006D01*
X129812633Y-119135055D01*
X129708157Y-119120778D01*
X129634125Y-119094688D01*
X129531772Y-119007785D01*
X129473591Y-118886816D01*
X129462069Y-118792308D01*
X129470862Y-118707062D01*
X129502680Y-118637476D01*
X129565684Y-118575672D01*
X129668031Y-118513772D01*
X129817882Y-118443897D01*
X129827012Y-118439948D01*
X129961997Y-118377588D01*
X130045294Y-118326446D01*
X130080997Y-118280488D01*
X130073203Y-118233683D01*
X130026007Y-118179998D01*
X130011894Y-118167644D01*
X129917359Y-118119741D01*
X129819406Y-118121758D01*
X129734097Y-118168724D01*
X129677496Y-118255669D01*
X129672237Y-118272734D01*
X129621023Y-118355504D01*
X129556037Y-118395372D01*
X129462069Y-118434882D01*
X129462069Y-118332658D01*
X129490653Y-118184072D01*
X129575495Y-118047784D01*
X129619645Y-118002191D01*
X129720005Y-117943674D01*
X129847635Y-117917184D01*
X129979944Y-117924360D01*
X129979944Y-117924360D01*
G37*
X129979944Y-117924360D02*
X130094343Y-117966842D01*
X130095652Y-117967658D01*
X130166403Y-118019730D01*
X130218636Y-118080584D01*
X130255371Y-118159887D01*
X130279634Y-118267309D01*
X130294445Y-118412517D01*
X130302829Y-118605179D01*
X130303564Y-118632628D01*
X130314120Y-119046521D01*
X130225291Y-119092456D01*
X130161018Y-119123498D01*
X130122210Y-119138206D01*
X130120415Y-119138391D01*
X130113700Y-119111250D01*
X130108365Y-119038041D01*
X130105083Y-118931081D01*
X130104368Y-118844469D01*
X130104351Y-118704162D01*
X130097937Y-118616051D01*
X130075580Y-118574025D01*
X130027732Y-118571975D01*
X129944849Y-118603790D01*
X129819713Y-118662272D01*
X129727697Y-118710845D01*
X129680371Y-118752986D01*
X129666458Y-118798916D01*
X129666437Y-118801189D01*
X129689395Y-118880311D01*
X129757370Y-118923055D01*
X129861398Y-118929246D01*
X129936330Y-118928172D01*
X129975839Y-118949753D01*
X130000478Y-119001591D01*
X130014659Y-119067632D01*
X129994223Y-119105104D01*
X129986528Y-119110467D01*
X129914083Y-119132006D01*
X129812633Y-119135055D01*
X129708157Y-119120778D01*
X129634125Y-119094688D01*
X129531772Y-119007785D01*
X129473591Y-118886816D01*
X129462069Y-118792308D01*
X129470862Y-118707062D01*
X129502680Y-118637476D01*
X129565684Y-118575672D01*
X129668031Y-118513772D01*
X129817882Y-118443897D01*
X129827012Y-118439948D01*
X129961997Y-118377588D01*
X130045294Y-118326446D01*
X130080997Y-118280488D01*
X130073203Y-118233683D01*
X130026007Y-118179998D01*
X130011894Y-118167644D01*
X129917359Y-118119741D01*
X129819406Y-118121758D01*
X129734097Y-118168724D01*
X129677496Y-118255669D01*
X129672237Y-118272734D01*
X129621023Y-118355504D01*
X129556037Y-118395372D01*
X129462069Y-118434882D01*
X129462069Y-118332658D01*
X129490653Y-118184072D01*
X129575495Y-118047784D01*
X129619645Y-118002191D01*
X129720005Y-117943674D01*
X129847635Y-117917184D01*
X129979944Y-117924360D01*
G36*
X128644598Y-117723857D02*
X128653154Y-117843188D01*
X128662981Y-117913506D01*
X128676599Y-117944179D01*
X128696527Y-117944571D01*
X128702989Y-117940910D01*
X128788940Y-117914398D01*
X128900745Y-117915946D01*
X129014414Y-117943199D01*
X129085510Y-117978455D01*
X129158405Y-118034778D01*
X129211693Y-118098519D01*
X129248275Y-118179510D01*
X129271050Y-118287586D01*
X129282919Y-118432580D01*
X129286782Y-118624326D01*
X129286851Y-118661109D01*
X129286897Y-119074288D01*
X129194954Y-119106339D01*
X129129652Y-119128144D01*
X129093824Y-119138297D01*
X129092770Y-119138391D01*
X129089242Y-119110860D01*
X129086239Y-119034923D01*
X129083990Y-118920565D01*
X129082724Y-118777769D01*
X129082529Y-118690951D01*
X129082123Y-118519773D01*
X129080032Y-118397088D01*
X129074947Y-118313000D01*
X129065560Y-118257614D01*
X129050561Y-118221032D01*
X129028642Y-118193359D01*
X129014957Y-118180032D01*
X128920949Y-118126328D01*
X128818364Y-118122307D01*
X128725290Y-118167725D01*
X128708078Y-118184123D01*
X128682832Y-118214957D01*
X128665320Y-118251531D01*
X128654142Y-118304415D01*
X128647896Y-118384177D01*
X128645182Y-118501385D01*
X128644598Y-118662991D01*
X128644598Y-119074288D01*
X128552655Y-119106339D01*
X128487353Y-119128144D01*
X128451525Y-119138297D01*
X128450471Y-119138391D01*
X128447775Y-119110448D01*
X128445345Y-119031630D01*
X128443278Y-118909453D01*
X128441671Y-118751432D01*
X128440623Y-118565083D01*
X128440231Y-118357920D01*
X128440230Y-118348706D01*
X128440230Y-117559020D01*
X128535115Y-117518997D01*
X128630000Y-117478973D01*
X128644598Y-117723857D01*
X128644598Y-117723857D01*
G37*
X128644598Y-117723857D02*
X128653154Y-117843188D01*
X128662981Y-117913506D01*
X128676599Y-117944179D01*
X128696527Y-117944571D01*
X128702989Y-117940910D01*
X128788940Y-117914398D01*
X128900745Y-117915946D01*
X129014414Y-117943199D01*
X129085510Y-117978455D01*
X129158405Y-118034778D01*
X129211693Y-118098519D01*
X129248275Y-118179510D01*
X129271050Y-118287586D01*
X129282919Y-118432580D01*
X129286782Y-118624326D01*
X129286851Y-118661109D01*
X129286897Y-119074288D01*
X129194954Y-119106339D01*
X129129652Y-119128144D01*
X129093824Y-119138297D01*
X129092770Y-119138391D01*
X129089242Y-119110860D01*
X129086239Y-119034923D01*
X129083990Y-118920565D01*
X129082724Y-118777769D01*
X129082529Y-118690951D01*
X129082123Y-118519773D01*
X129080032Y-118397088D01*
X129074947Y-118313000D01*
X129065560Y-118257614D01*
X129050561Y-118221032D01*
X129028642Y-118193359D01*
X129014957Y-118180032D01*
X128920949Y-118126328D01*
X128818364Y-118122307D01*
X128725290Y-118167725D01*
X128708078Y-118184123D01*
X128682832Y-118214957D01*
X128665320Y-118251531D01*
X128654142Y-118304415D01*
X128647896Y-118384177D01*
X128645182Y-118501385D01*
X128644598Y-118662991D01*
X128644598Y-119074288D01*
X128552655Y-119106339D01*
X128487353Y-119128144D01*
X128451525Y-119138297D01*
X128450471Y-119138391D01*
X128447775Y-119110448D01*
X128445345Y-119031630D01*
X128443278Y-118909453D01*
X128441671Y-118751432D01*
X128440623Y-118565083D01*
X128440231Y-118357920D01*
X128440230Y-118348706D01*
X128440230Y-117559020D01*
X128535115Y-117518997D01*
X128630000Y-117478973D01*
X128644598Y-117723857D01*
G36*
X126215552Y-117884676D02*
X126330658Y-117962111D01*
X126419611Y-118073949D01*
X126472749Y-118216265D01*
X126483497Y-118321015D01*
X126482276Y-118364726D01*
X126472056Y-118398194D01*
X126443961Y-118428179D01*
X126389116Y-118461440D01*
X126298645Y-118504738D01*
X126163672Y-118564833D01*
X126162989Y-118565134D01*
X126038751Y-118622037D01*
X125936873Y-118672565D01*
X125867767Y-118711280D01*
X125841846Y-118732740D01*
X125841839Y-118732913D01*
X125864685Y-118779644D01*
X125918109Y-118831154D01*
X125979442Y-118868261D01*
X126010515Y-118875632D01*
X126095289Y-118850138D01*
X126168293Y-118786291D01*
X126203913Y-118716094D01*
X126238180Y-118664343D01*
X126305303Y-118605409D01*
X126384208Y-118554496D01*
X126453821Y-118526809D01*
X126468377Y-118525287D01*
X126484763Y-118550321D01*
X126485750Y-118614311D01*
X126473708Y-118700593D01*
X126451007Y-118792501D01*
X126420014Y-118873369D01*
X126418448Y-118876509D01*
X126325181Y-119006734D01*
X126204304Y-119095311D01*
X126067027Y-119138786D01*
X125924560Y-119133706D01*
X125788112Y-119076616D01*
X125782045Y-119072602D01*
X125674710Y-118975326D01*
X125604132Y-118848409D01*
X125565074Y-118681526D01*
X125559832Y-118634639D01*
X125550548Y-118413329D01*
X125561678Y-118310124D01*
X125841839Y-118310124D01*
X125845479Y-118374503D01*
X125865389Y-118393291D01*
X125915026Y-118379235D01*
X125993267Y-118346009D01*
X126080726Y-118304359D01*
X126082899Y-118303256D01*
X126157030Y-118264265D01*
X126186781Y-118238244D01*
X126179445Y-118210965D01*
X126148553Y-118175121D01*
X126069960Y-118123251D01*
X125985323Y-118119439D01*
X125909403Y-118157189D01*
X125856965Y-118230001D01*
X125841839Y-118310124D01*
X125561678Y-118310124D01*
X125569644Y-118236261D01*
X125618634Y-118095829D01*
X125686836Y-117997447D01*
X125809935Y-117898030D01*
X125945528Y-117848711D01*
X126083955Y-117845568D01*
X126215552Y-117884676D01*
X126215552Y-117884676D01*
G37*
X126215552Y-117884676D02*
X126330658Y-117962111D01*
X126419611Y-118073949D01*
X126472749Y-118216265D01*
X126483497Y-118321015D01*
X126482276Y-118364726D01*
X126472056Y-118398194D01*
X126443961Y-118428179D01*
X126389116Y-118461440D01*
X126298645Y-118504738D01*
X126163672Y-118564833D01*
X126162989Y-118565134D01*
X126038751Y-118622037D01*
X125936873Y-118672565D01*
X125867767Y-118711280D01*
X125841846Y-118732740D01*
X125841839Y-118732913D01*
X125864685Y-118779644D01*
X125918109Y-118831154D01*
X125979442Y-118868261D01*
X126010515Y-118875632D01*
X126095289Y-118850138D01*
X126168293Y-118786291D01*
X126203913Y-118716094D01*
X126238180Y-118664343D01*
X126305303Y-118605409D01*
X126384208Y-118554496D01*
X126453821Y-118526809D01*
X126468377Y-118525287D01*
X126484763Y-118550321D01*
X126485750Y-118614311D01*
X126473708Y-118700593D01*
X126451007Y-118792501D01*
X126420014Y-118873369D01*
X126418448Y-118876509D01*
X126325181Y-119006734D01*
X126204304Y-119095311D01*
X126067027Y-119138786D01*
X125924560Y-119133706D01*
X125788112Y-119076616D01*
X125782045Y-119072602D01*
X125674710Y-118975326D01*
X125604132Y-118848409D01*
X125565074Y-118681526D01*
X125559832Y-118634639D01*
X125550548Y-118413329D01*
X125561678Y-118310124D01*
X125841839Y-118310124D01*
X125845479Y-118374503D01*
X125865389Y-118393291D01*
X125915026Y-118379235D01*
X125993267Y-118346009D01*
X126080726Y-118304359D01*
X126082899Y-118303256D01*
X126157030Y-118264265D01*
X126186781Y-118238244D01*
X126179445Y-118210965D01*
X126148553Y-118175121D01*
X126069960Y-118123251D01*
X125985323Y-118119439D01*
X125909403Y-118157189D01*
X125856965Y-118230001D01*
X125841839Y-118310124D01*
X125561678Y-118310124D01*
X125569644Y-118236261D01*
X125618634Y-118095829D01*
X125686836Y-117997447D01*
X125809935Y-117898030D01*
X125945528Y-117848711D01*
X126083955Y-117845568D01*
X126215552Y-117884676D01*
G36*
X123948221Y-117866015D02*
X124085061Y-117937968D01*
X124186051Y-118053766D01*
X124221925Y-118128213D01*
X124249839Y-118239992D01*
X124264129Y-118381227D01*
X124265484Y-118535371D01*
X124254595Y-118685879D01*
X124232153Y-118816205D01*
X124198850Y-118909803D01*
X124188615Y-118925922D01*
X124067382Y-119046249D01*
X123923387Y-119118317D01*
X123767139Y-119139408D01*
X123609148Y-119106802D01*
X123565180Y-119087253D01*
X123479556Y-119027012D01*
X123404408Y-118947135D01*
X123397306Y-118937004D01*
X123368439Y-118888181D01*
X123349357Y-118835990D01*
X123338084Y-118767285D01*
X123332645Y-118668918D01*
X123331062Y-118527744D01*
X123331035Y-118496092D01*
X123331107Y-118486019D01*
X123622989Y-118486019D01*
X123624687Y-118619256D01*
X123631372Y-118707674D01*
X123645425Y-118764785D01*
X123669229Y-118804102D01*
X123681379Y-118817241D01*
X123751236Y-118867172D01*
X123819059Y-118864895D01*
X123887635Y-118821584D01*
X123928535Y-118775346D01*
X123952758Y-118707857D01*
X123966361Y-118601433D01*
X123967294Y-118589020D01*
X123969616Y-118396147D01*
X123945350Y-118252900D01*
X123894824Y-118160160D01*
X123818368Y-118118807D01*
X123791076Y-118116552D01*
X123719411Y-118127893D01*
X123670390Y-118167184D01*
X123640418Y-118242326D01*
X123625899Y-118361222D01*
X123622989Y-118486019D01*
X123331107Y-118486019D01*
X123332122Y-118345659D01*
X123336688Y-118240549D01*
X123346688Y-118167714D01*
X123364079Y-118114108D01*
X123390816Y-118066681D01*
X123396724Y-118057864D01*
X123496032Y-117939007D01*
X123604242Y-117870008D01*
X123735981Y-117842619D01*
X123780717Y-117841281D01*
X123948221Y-117866015D01*
X123948221Y-117866015D01*
G37*
X123948221Y-117866015D02*
X124085061Y-117937968D01*
X124186051Y-118053766D01*
X124221925Y-118128213D01*
X124249839Y-118239992D01*
X124264129Y-118381227D01*
X124265484Y-118535371D01*
X124254595Y-118685879D01*
X124232153Y-118816205D01*
X124198850Y-118909803D01*
X124188615Y-118925922D01*
X124067382Y-119046249D01*
X123923387Y-119118317D01*
X123767139Y-119139408D01*
X123609148Y-119106802D01*
X123565180Y-119087253D01*
X123479556Y-119027012D01*
X123404408Y-118947135D01*
X123397306Y-118937004D01*
X123368439Y-118888181D01*
X123349357Y-118835990D01*
X123338084Y-118767285D01*
X123332645Y-118668918D01*
X123331062Y-118527744D01*
X123331035Y-118496092D01*
X123331107Y-118486019D01*
X123622989Y-118486019D01*
X123624687Y-118619256D01*
X123631372Y-118707674D01*
X123645425Y-118764785D01*
X123669229Y-118804102D01*
X123681379Y-118817241D01*
X123751236Y-118867172D01*
X123819059Y-118864895D01*
X123887635Y-118821584D01*
X123928535Y-118775346D01*
X123952758Y-118707857D01*
X123966361Y-118601433D01*
X123967294Y-118589020D01*
X123969616Y-118396147D01*
X123945350Y-118252900D01*
X123894824Y-118160160D01*
X123818368Y-118118807D01*
X123791076Y-118116552D01*
X123719411Y-118127893D01*
X123670390Y-118167184D01*
X123640418Y-118242326D01*
X123625899Y-118361222D01*
X123622989Y-118486019D01*
X123331107Y-118486019D01*
X123332122Y-118345659D01*
X123336688Y-118240549D01*
X123346688Y-118167714D01*
X123364079Y-118114108D01*
X123390816Y-118066681D01*
X123396724Y-118057864D01*
X123496032Y-117939007D01*
X123604242Y-117870008D01*
X123735981Y-117842619D01*
X123780717Y-117841281D01*
X123948221Y-117866015D01*
G36*
X127317429Y-117877719D02*
X127411123Y-117931914D01*
X127476264Y-117985707D01*
X127523907Y-118042066D01*
X127556728Y-118110987D01*
X127577406Y-118202468D01*
X127588620Y-118326506D01*
X127593049Y-118493098D01*
X127593563Y-118612851D01*
X127593563Y-119053659D01*
X127469483Y-119109283D01*
X127345402Y-119164907D01*
X127330805Y-118682095D01*
X127324773Y-118501779D01*
X127318445Y-118370901D01*
X127310606Y-118280511D01*
X127300037Y-118221664D01*
X127285523Y-118185413D01*
X127265848Y-118162810D01*
X127259535Y-118157917D01*
X127163888Y-118119706D01*
X127067207Y-118134827D01*
X127009655Y-118174943D01*
X126986245Y-118203370D01*
X126970039Y-118240672D01*
X126959741Y-118297223D01*
X126954049Y-118383394D01*
X126951664Y-118509558D01*
X126951264Y-118641042D01*
X126951186Y-118805999D01*
X126948361Y-118922761D01*
X126938907Y-119001510D01*
X126918940Y-119052431D01*
X126884576Y-119085706D01*
X126831932Y-119111520D01*
X126761617Y-119138344D01*
X126684820Y-119167542D01*
X126693962Y-118649346D01*
X126697643Y-118462539D01*
X126701950Y-118324490D01*
X126708123Y-118225568D01*
X126717402Y-118156145D01*
X126731027Y-118106590D01*
X126750239Y-118067273D01*
X126773402Y-118032584D01*
X126885152Y-117921770D01*
X127021513Y-117857689D01*
X127169825Y-117842339D01*
X127317429Y-117877719D01*
X127317429Y-117877719D01*
G37*
X127317429Y-117877719D02*
X127411123Y-117931914D01*
X127476264Y-117985707D01*
X127523907Y-118042066D01*
X127556728Y-118110987D01*
X127577406Y-118202468D01*
X127588620Y-118326506D01*
X127593049Y-118493098D01*
X127593563Y-118612851D01*
X127593563Y-119053659D01*
X127469483Y-119109283D01*
X127345402Y-119164907D01*
X127330805Y-118682095D01*
X127324773Y-118501779D01*
X127318445Y-118370901D01*
X127310606Y-118280511D01*
X127300037Y-118221664D01*
X127285523Y-118185413D01*
X127265848Y-118162810D01*
X127259535Y-118157917D01*
X127163888Y-118119706D01*
X127067207Y-118134827D01*
X127009655Y-118174943D01*
X126986245Y-118203370D01*
X126970039Y-118240672D01*
X126959741Y-118297223D01*
X126954049Y-118383394D01*
X126951664Y-118509558D01*
X126951264Y-118641042D01*
X126951186Y-118805999D01*
X126948361Y-118922761D01*
X126938907Y-119001510D01*
X126918940Y-119052431D01*
X126884576Y-119085706D01*
X126831932Y-119111520D01*
X126761617Y-119138344D01*
X126684820Y-119167542D01*
X126693962Y-118649346D01*
X126697643Y-118462539D01*
X126701950Y-118324490D01*
X126708123Y-118225568D01*
X126717402Y-118156145D01*
X126731027Y-118106590D01*
X126750239Y-118067273D01*
X126773402Y-118032584D01*
X126885152Y-117921770D01*
X127021513Y-117857689D01*
X127169825Y-117842339D01*
X127317429Y-117877719D01*
G36*
X125071900Y-117861903D02*
X125183450Y-117917522D01*
X125281908Y-118019931D01*
X125309023Y-118057864D01*
X125338562Y-118107500D01*
X125357728Y-118161412D01*
X125368693Y-118233364D01*
X125373629Y-118337122D01*
X125374713Y-118474101D01*
X125369818Y-118661815D01*
X125352804Y-118802758D01*
X125320177Y-118907908D01*
X125268442Y-118988243D01*
X125194104Y-119054741D01*
X125188642Y-119058678D01*
X125115380Y-119098953D01*
X125027160Y-119118880D01*
X124914962Y-119123793D01*
X124732567Y-119123793D01*
X124732491Y-119300857D01*
X124730793Y-119399470D01*
X124720450Y-119457314D01*
X124693422Y-119492006D01*
X124641668Y-119521164D01*
X124629239Y-119527121D01*
X124571077Y-119555039D01*
X124526044Y-119572672D01*
X124492559Y-119574194D01*
X124469038Y-119553781D01*
X124453900Y-119505607D01*
X124445563Y-119423846D01*
X124442444Y-119302672D01*
X124442960Y-119136260D01*
X124445529Y-118918785D01*
X124446332Y-118853736D01*
X124449222Y-118629502D01*
X124451812Y-118482821D01*
X124732414Y-118482821D01*
X124733991Y-118607326D01*
X124741000Y-118688787D01*
X124756858Y-118742515D01*
X124784981Y-118783823D01*
X124804075Y-118803971D01*
X124882135Y-118862921D01*
X124951247Y-118867720D01*
X125022560Y-118819038D01*
X125024368Y-118817241D01*
X125053383Y-118779618D01*
X125071033Y-118728484D01*
X125079936Y-118649738D01*
X125082709Y-118529276D01*
X125082759Y-118502588D01*
X125076058Y-118336583D01*
X125054248Y-118221505D01*
X125014765Y-118151254D01*
X124955044Y-118119729D01*
X124920528Y-118116552D01*
X124838611Y-118131460D01*
X124782421Y-118180548D01*
X124748598Y-118270362D01*
X124733780Y-118407445D01*
X124732414Y-118482821D01*
X124451812Y-118482821D01*
X124452287Y-118455952D01*
X124456247Y-118325382D01*
X124461826Y-118230087D01*
X124469746Y-118162364D01*
X124480731Y-118114507D01*
X124495501Y-118078813D01*
X124514782Y-118047578D01*
X124523049Y-118035824D01*
X124632712Y-117924797D01*
X124771365Y-117861847D01*
X124931754Y-117844297D01*
X125071900Y-117861903D01*
X125071900Y-117861903D01*
G37*
X125071900Y-117861903D02*
X125183450Y-117917522D01*
X125281908Y-118019931D01*
X125309023Y-118057864D01*
X125338562Y-118107500D01*
X125357728Y-118161412D01*
X125368693Y-118233364D01*
X125373629Y-118337122D01*
X125374713Y-118474101D01*
X125369818Y-118661815D01*
X125352804Y-118802758D01*
X125320177Y-118907908D01*
X125268442Y-118988243D01*
X125194104Y-119054741D01*
X125188642Y-119058678D01*
X125115380Y-119098953D01*
X125027160Y-119118880D01*
X124914962Y-119123793D01*
X124732567Y-119123793D01*
X124732491Y-119300857D01*
X124730793Y-119399470D01*
X124720450Y-119457314D01*
X124693422Y-119492006D01*
X124641668Y-119521164D01*
X124629239Y-119527121D01*
X124571077Y-119555039D01*
X124526044Y-119572672D01*
X124492559Y-119574194D01*
X124469038Y-119553781D01*
X124453900Y-119505607D01*
X124445563Y-119423846D01*
X124442444Y-119302672D01*
X124442960Y-119136260D01*
X124445529Y-118918785D01*
X124446332Y-118853736D01*
X124449222Y-118629502D01*
X124451812Y-118482821D01*
X124732414Y-118482821D01*
X124733991Y-118607326D01*
X124741000Y-118688787D01*
X124756858Y-118742515D01*
X124784981Y-118783823D01*
X124804075Y-118803971D01*
X124882135Y-118862921D01*
X124951247Y-118867720D01*
X125022560Y-118819038D01*
X125024368Y-118817241D01*
X125053383Y-118779618D01*
X125071033Y-118728484D01*
X125079936Y-118649738D01*
X125082709Y-118529276D01*
X125082759Y-118502588D01*
X125076058Y-118336583D01*
X125054248Y-118221505D01*
X125014765Y-118151254D01*
X124955044Y-118119729D01*
X124920528Y-118116552D01*
X124838611Y-118131460D01*
X124782421Y-118180548D01*
X124748598Y-118270362D01*
X124733780Y-118407445D01*
X124732414Y-118482821D01*
X124451812Y-118482821D01*
X124452287Y-118455952D01*
X124456247Y-118325382D01*
X124461826Y-118230087D01*
X124469746Y-118162364D01*
X124480731Y-118114507D01*
X124495501Y-118078813D01*
X124514782Y-118047578D01*
X124523049Y-118035824D01*
X124632712Y-117924797D01*
X124771365Y-117861847D01*
X124931754Y-117844297D01*
X125071900Y-117861903D01*
G04 #@! TO.C,XA1*
D13*
X49031904Y-100636380D02*
X49698571Y-101636380D01*
X49698571Y-100636380D02*
X49031904Y-101636380D01*
X50031904Y-101350666D02*
X50508095Y-101350666D01*
X49936666Y-101636380D02*
X50270000Y-100636380D01*
X50603333Y-101636380D01*
X51460476Y-101636380D02*
X50889047Y-101636380D01*
X51174761Y-101636380D02*
X51174761Y-100636380D01*
X51079523Y-100779238D01*
X50984285Y-100874476D01*
X50889047Y-100922095D01*
G04 #@! TO.C,CON1*
X134457142Y-133414285D02*
X134504761Y-133461904D01*
X134552380Y-133604761D01*
X134552380Y-133700000D01*
X134504761Y-133842857D01*
X134409523Y-133938095D01*
X134314285Y-133985714D01*
X134123809Y-134033333D01*
X133980952Y-134033333D01*
X133790476Y-133985714D01*
X133695238Y-133938095D01*
X133600000Y-133842857D01*
X133552380Y-133700000D01*
X133552380Y-133604761D01*
X133600000Y-133461904D01*
X133647619Y-133414285D01*
X133552380Y-132795238D02*
X133552380Y-132604761D01*
X133600000Y-132509523D01*
X133695238Y-132414285D01*
X133885714Y-132366666D01*
X134219047Y-132366666D01*
X134409523Y-132414285D01*
X134504761Y-132509523D01*
X134552380Y-132604761D01*
X134552380Y-132795238D01*
X134504761Y-132890476D01*
X134409523Y-132985714D01*
X134219047Y-133033333D01*
X133885714Y-133033333D01*
X133695238Y-132985714D01*
X133600000Y-132890476D01*
X133552380Y-132795238D01*
X134552380Y-131938095D02*
X133552380Y-131938095D01*
X134552380Y-131366666D01*
X133552380Y-131366666D01*
X134552380Y-130366666D02*
X134552380Y-130938095D01*
X134552380Y-130652380D02*
X133552380Y-130652380D01*
X133695238Y-130747619D01*
X133790476Y-130842857D01*
X133838095Y-130938095D01*
X78830952Y-122107857D02*
X78783333Y-122143571D01*
X78640476Y-122179285D01*
X78545238Y-122179285D01*
X78402380Y-122143571D01*
X78307142Y-122072142D01*
X78259523Y-122000714D01*
X78211904Y-121857857D01*
X78211904Y-121750714D01*
X78259523Y-121607857D01*
X78307142Y-121536428D01*
X78402380Y-121465000D01*
X78545238Y-121429285D01*
X78640476Y-121429285D01*
X78783333Y-121465000D01*
X78830952Y-121500714D01*
X79211904Y-121965000D02*
X79688095Y-121965000D01*
X79116666Y-122179285D02*
X79450000Y-121429285D01*
X79783333Y-122179285D01*
X80688095Y-122179285D02*
X80354761Y-121822142D01*
X80116666Y-122179285D02*
X80116666Y-121429285D01*
X80497619Y-121429285D01*
X80592857Y-121465000D01*
X80640476Y-121500714D01*
X80688095Y-121572142D01*
X80688095Y-121679285D01*
X80640476Y-121750714D01*
X80592857Y-121786428D01*
X80497619Y-121822142D01*
X80116666Y-121822142D01*
X80973809Y-121429285D02*
X81545238Y-121429285D01*
X81259523Y-122179285D02*
X81259523Y-121429285D01*
X82973809Y-121786428D02*
X83116666Y-121822142D01*
X83164285Y-121857857D01*
X83211904Y-121929285D01*
X83211904Y-122036428D01*
X83164285Y-122107857D01*
X83116666Y-122143571D01*
X83021428Y-122179285D01*
X82640476Y-122179285D01*
X82640476Y-121429285D01*
X82973809Y-121429285D01*
X83069047Y-121465000D01*
X83116666Y-121500714D01*
X83164285Y-121572142D01*
X83164285Y-121643571D01*
X83116666Y-121715000D01*
X83069047Y-121750714D01*
X82973809Y-121786428D01*
X82640476Y-121786428D01*
X83592857Y-121965000D02*
X84069047Y-121965000D01*
X83497619Y-122179285D02*
X83830952Y-121429285D01*
X84164285Y-122179285D01*
X85069047Y-122107857D02*
X85021428Y-122143571D01*
X84878571Y-122179285D01*
X84783333Y-122179285D01*
X84640476Y-122143571D01*
X84545238Y-122072142D01*
X84497619Y-122000714D01*
X84450000Y-121857857D01*
X84450000Y-121750714D01*
X84497619Y-121607857D01*
X84545238Y-121536428D01*
X84640476Y-121465000D01*
X84783333Y-121429285D01*
X84878571Y-121429285D01*
X85021428Y-121465000D01*
X85069047Y-121500714D01*
X85497619Y-122179285D02*
X85497619Y-121429285D01*
X86069047Y-122179285D02*
X85640476Y-121750714D01*
X86069047Y-121429285D02*
X85497619Y-121857857D01*
X87259523Y-122179285D02*
X87259523Y-121429285D01*
X87259523Y-121786428D02*
X87830952Y-121786428D01*
X87830952Y-122179285D02*
X87830952Y-121429285D01*
X88307142Y-121786428D02*
X88640476Y-121786428D01*
X88783333Y-122179285D02*
X88307142Y-122179285D01*
X88307142Y-121429285D01*
X88783333Y-121429285D01*
X89783333Y-122179285D02*
X89450000Y-121822142D01*
X89211904Y-122179285D02*
X89211904Y-121429285D01*
X89592857Y-121429285D01*
X89688095Y-121465000D01*
X89735714Y-121500714D01*
X89783333Y-121572142D01*
X89783333Y-121679285D01*
X89735714Y-121750714D01*
X89688095Y-121786428D01*
X89592857Y-121822142D01*
X89211904Y-121822142D01*
X90211904Y-121786428D02*
X90545238Y-121786428D01*
X90688095Y-122179285D02*
X90211904Y-122179285D01*
X90211904Y-121429285D01*
X90688095Y-121429285D01*
X78402380Y-144967857D02*
X78354761Y-145003571D01*
X78211904Y-145039285D01*
X78116666Y-145039285D01*
X77973809Y-145003571D01*
X77878571Y-144932142D01*
X77830952Y-144860714D01*
X77783333Y-144717857D01*
X77783333Y-144610714D01*
X77830952Y-144467857D01*
X77878571Y-144396428D01*
X77973809Y-144325000D01*
X78116666Y-144289285D01*
X78211904Y-144289285D01*
X78354761Y-144325000D01*
X78402380Y-144360714D01*
X78783333Y-144825000D02*
X79259523Y-144825000D01*
X78688095Y-145039285D02*
X79021428Y-144289285D01*
X79354761Y-145039285D01*
X80259523Y-145039285D02*
X79926190Y-144682142D01*
X79688095Y-145039285D02*
X79688095Y-144289285D01*
X80069047Y-144289285D01*
X80164285Y-144325000D01*
X80211904Y-144360714D01*
X80259523Y-144432142D01*
X80259523Y-144539285D01*
X80211904Y-144610714D01*
X80164285Y-144646428D01*
X80069047Y-144682142D01*
X79688095Y-144682142D01*
X80545238Y-144289285D02*
X81116666Y-144289285D01*
X80830952Y-145039285D02*
X80830952Y-144289285D01*
X82545238Y-144646428D02*
X82211904Y-144646428D01*
X82211904Y-145039285D02*
X82211904Y-144289285D01*
X82688095Y-144289285D01*
X83640476Y-145039285D02*
X83307142Y-144682142D01*
X83069047Y-145039285D02*
X83069047Y-144289285D01*
X83450000Y-144289285D01*
X83545238Y-144325000D01*
X83592857Y-144360714D01*
X83640476Y-144432142D01*
X83640476Y-144539285D01*
X83592857Y-144610714D01*
X83545238Y-144646428D01*
X83450000Y-144682142D01*
X83069047Y-144682142D01*
X84259523Y-144289285D02*
X84450000Y-144289285D01*
X84545238Y-144325000D01*
X84640476Y-144396428D01*
X84688095Y-144539285D01*
X84688095Y-144789285D01*
X84640476Y-144932142D01*
X84545238Y-145003571D01*
X84450000Y-145039285D01*
X84259523Y-145039285D01*
X84164285Y-145003571D01*
X84069047Y-144932142D01*
X84021428Y-144789285D01*
X84021428Y-144539285D01*
X84069047Y-144396428D01*
X84164285Y-144325000D01*
X84259523Y-144289285D01*
X85116666Y-145039285D02*
X85116666Y-144289285D01*
X85688095Y-145039285D01*
X85688095Y-144289285D01*
X86021428Y-144289285D02*
X86592857Y-144289285D01*
X86307142Y-145039285D02*
X86307142Y-144289285D01*
X87688095Y-145039285D02*
X87688095Y-144289285D01*
X87688095Y-144646428D02*
X88259523Y-144646428D01*
X88259523Y-145039285D02*
X88259523Y-144289285D01*
X88735714Y-144646428D02*
X89069047Y-144646428D01*
X89211904Y-145039285D02*
X88735714Y-145039285D01*
X88735714Y-144289285D01*
X89211904Y-144289285D01*
X90211904Y-145039285D02*
X89878571Y-144682142D01*
X89640476Y-145039285D02*
X89640476Y-144289285D01*
X90021428Y-144289285D01*
X90116666Y-144325000D01*
X90164285Y-144360714D01*
X90211904Y-144432142D01*
X90211904Y-144539285D01*
X90164285Y-144610714D01*
X90116666Y-144646428D01*
X90021428Y-144682142D01*
X89640476Y-144682142D01*
X90640476Y-144646428D02*
X90973809Y-144646428D01*
X91116666Y-145039285D02*
X90640476Y-145039285D01*
X90640476Y-144289285D01*
X91116666Y-144289285D01*
X114112380Y-126388095D02*
X113112380Y-126388095D01*
X113112380Y-126150000D01*
X113160000Y-126007142D01*
X113255238Y-125911904D01*
X113350476Y-125864285D01*
X113540952Y-125816666D01*
X113683809Y-125816666D01*
X113874285Y-125864285D01*
X113969523Y-125911904D01*
X114064761Y-126007142D01*
X114112380Y-126150000D01*
X114112380Y-126388095D01*
X113112380Y-124911904D02*
X113112380Y-125388095D01*
X113588571Y-125435714D01*
X113540952Y-125388095D01*
X113493333Y-125292857D01*
X113493333Y-125054761D01*
X113540952Y-124959523D01*
X113588571Y-124911904D01*
X113683809Y-124864285D01*
X113921904Y-124864285D01*
X114017142Y-124911904D01*
X114064761Y-124959523D01*
X114112380Y-125054761D01*
X114112380Y-125292857D01*
X114064761Y-125388095D01*
X114017142Y-125435714D01*
X116652380Y-126388095D02*
X115652380Y-126388095D01*
X115652380Y-126150000D01*
X115700000Y-126007142D01*
X115795238Y-125911904D01*
X115890476Y-125864285D01*
X116080952Y-125816666D01*
X116223809Y-125816666D01*
X116414285Y-125864285D01*
X116509523Y-125911904D01*
X116604761Y-126007142D01*
X116652380Y-126150000D01*
X116652380Y-126388095D01*
X115747619Y-125435714D02*
X115700000Y-125388095D01*
X115652380Y-125292857D01*
X115652380Y-125054761D01*
X115700000Y-124959523D01*
X115747619Y-124911904D01*
X115842857Y-124864285D01*
X115938095Y-124864285D01*
X116080952Y-124911904D01*
X116652380Y-125483333D01*
X116652380Y-124864285D01*
X111572380Y-126388095D02*
X110572380Y-126388095D01*
X110572380Y-126150000D01*
X110620000Y-126007142D01*
X110715238Y-125911904D01*
X110810476Y-125864285D01*
X111000952Y-125816666D01*
X111143809Y-125816666D01*
X111334285Y-125864285D01*
X111429523Y-125911904D01*
X111524761Y-126007142D01*
X111572380Y-126150000D01*
X111572380Y-126388095D01*
X111572380Y-125340476D02*
X111572380Y-125150000D01*
X111524761Y-125054761D01*
X111477142Y-125007142D01*
X111334285Y-124911904D01*
X111143809Y-124864285D01*
X110762857Y-124864285D01*
X110667619Y-124911904D01*
X110620000Y-124959523D01*
X110572380Y-125054761D01*
X110572380Y-125245238D01*
X110620000Y-125340476D01*
X110667619Y-125388095D01*
X110762857Y-125435714D01*
X111000952Y-125435714D01*
X111096190Y-125388095D01*
X111143809Y-125340476D01*
X111191428Y-125245238D01*
X111191428Y-125054761D01*
X111143809Y-124959523D01*
X111096190Y-124911904D01*
X111000952Y-124864285D01*
X109032380Y-126388095D02*
X108032380Y-126388095D01*
X108032380Y-126150000D01*
X108080000Y-126007142D01*
X108175238Y-125911904D01*
X108270476Y-125864285D01*
X108460952Y-125816666D01*
X108603809Y-125816666D01*
X108794285Y-125864285D01*
X108889523Y-125911904D01*
X108984761Y-126007142D01*
X109032380Y-126150000D01*
X109032380Y-126388095D01*
X109032380Y-124864285D02*
X109032380Y-125435714D01*
X109032380Y-125150000D02*
X108032380Y-125150000D01*
X108175238Y-125245238D01*
X108270476Y-125340476D01*
X108318095Y-125435714D01*
X106492380Y-126388095D02*
X105492380Y-126388095D01*
X105492380Y-126150000D01*
X105540000Y-126007142D01*
X105635238Y-125911904D01*
X105730476Y-125864285D01*
X105920952Y-125816666D01*
X106063809Y-125816666D01*
X106254285Y-125864285D01*
X106349523Y-125911904D01*
X106444761Y-126007142D01*
X106492380Y-126150000D01*
X106492380Y-126388095D01*
X105492380Y-124959523D02*
X105492380Y-125150000D01*
X105540000Y-125245238D01*
X105587619Y-125292857D01*
X105730476Y-125388095D01*
X105920952Y-125435714D01*
X106301904Y-125435714D01*
X106397142Y-125388095D01*
X106444761Y-125340476D01*
X106492380Y-125245238D01*
X106492380Y-125054761D01*
X106444761Y-124959523D01*
X106397142Y-124911904D01*
X106301904Y-124864285D01*
X106063809Y-124864285D01*
X105968571Y-124911904D01*
X105920952Y-124959523D01*
X105873333Y-125054761D01*
X105873333Y-125245238D01*
X105920952Y-125340476D01*
X105968571Y-125388095D01*
X106063809Y-125435714D01*
X103952380Y-126388095D02*
X102952380Y-126388095D01*
X102952380Y-126150000D01*
X103000000Y-126007142D01*
X103095238Y-125911904D01*
X103190476Y-125864285D01*
X103380952Y-125816666D01*
X103523809Y-125816666D01*
X103714285Y-125864285D01*
X103809523Y-125911904D01*
X103904761Y-126007142D01*
X103952380Y-126150000D01*
X103952380Y-126388095D01*
X103380952Y-125245238D02*
X103333333Y-125340476D01*
X103285714Y-125388095D01*
X103190476Y-125435714D01*
X103142857Y-125435714D01*
X103047619Y-125388095D01*
X103000000Y-125340476D01*
X102952380Y-125245238D01*
X102952380Y-125054761D01*
X103000000Y-124959523D01*
X103047619Y-124911904D01*
X103142857Y-124864285D01*
X103190476Y-124864285D01*
X103285714Y-124911904D01*
X103333333Y-124959523D01*
X103380952Y-125054761D01*
X103380952Y-125245238D01*
X103428571Y-125340476D01*
X103476190Y-125388095D01*
X103571428Y-125435714D01*
X103761904Y-125435714D01*
X103857142Y-125388095D01*
X103904761Y-125340476D01*
X103952380Y-125245238D01*
X103952380Y-125054761D01*
X103904761Y-124959523D01*
X103857142Y-124911904D01*
X103761904Y-124864285D01*
X103571428Y-124864285D01*
X103476190Y-124911904D01*
X103428571Y-124959523D01*
X103380952Y-125054761D01*
X130940000Y-126411904D02*
X130892380Y-126507142D01*
X130892380Y-126650000D01*
X130940000Y-126792857D01*
X131035238Y-126888095D01*
X131130476Y-126935714D01*
X131320952Y-126983333D01*
X131463809Y-126983333D01*
X131654285Y-126935714D01*
X131749523Y-126888095D01*
X131844761Y-126792857D01*
X131892380Y-126650000D01*
X131892380Y-126554761D01*
X131844761Y-126411904D01*
X131797142Y-126364285D01*
X131463809Y-126364285D01*
X131463809Y-126554761D01*
X131892380Y-125935714D02*
X130892380Y-125935714D01*
X131892380Y-125364285D01*
X130892380Y-125364285D01*
X131892380Y-124888095D02*
X130892380Y-124888095D01*
X130892380Y-124650000D01*
X130940000Y-124507142D01*
X131035238Y-124411904D01*
X131130476Y-124364285D01*
X131320952Y-124316666D01*
X131463809Y-124316666D01*
X131654285Y-124364285D01*
X131749523Y-124411904D01*
X131844761Y-124507142D01*
X131892380Y-124650000D01*
X131892380Y-124888095D01*
X124272380Y-126388095D02*
X123272380Y-126388095D01*
X123272380Y-126150000D01*
X123320000Y-126007142D01*
X123415238Y-125911904D01*
X123510476Y-125864285D01*
X123700952Y-125816666D01*
X123843809Y-125816666D01*
X124034285Y-125864285D01*
X124129523Y-125911904D01*
X124224761Y-126007142D01*
X124272380Y-126150000D01*
X124272380Y-126388095D01*
X123272380Y-125483333D02*
X123272380Y-124864285D01*
X123653333Y-125197619D01*
X123653333Y-125054761D01*
X123700952Y-124959523D01*
X123748571Y-124911904D01*
X123843809Y-124864285D01*
X124081904Y-124864285D01*
X124177142Y-124911904D01*
X124224761Y-124959523D01*
X124272380Y-125054761D01*
X124272380Y-125340476D01*
X124224761Y-125435714D01*
X124177142Y-125483333D01*
X121732380Y-126388095D02*
X120732380Y-126388095D01*
X120732380Y-126150000D01*
X120780000Y-126007142D01*
X120875238Y-125911904D01*
X120970476Y-125864285D01*
X121160952Y-125816666D01*
X121303809Y-125816666D01*
X121494285Y-125864285D01*
X121589523Y-125911904D01*
X121684761Y-126007142D01*
X121732380Y-126150000D01*
X121732380Y-126388095D01*
X121065714Y-124959523D02*
X121732380Y-124959523D01*
X120684761Y-125197619D02*
X121399047Y-125435714D01*
X121399047Y-124816666D01*
X119192380Y-126864285D02*
X118192380Y-126864285D01*
X118192380Y-126626190D01*
X118240000Y-126483333D01*
X118335238Y-126388095D01*
X118430476Y-126340476D01*
X118620952Y-126292857D01*
X118763809Y-126292857D01*
X118954285Y-126340476D01*
X119049523Y-126388095D01*
X119144761Y-126483333D01*
X119192380Y-126626190D01*
X119192380Y-126864285D01*
X119192380Y-125340476D02*
X119192380Y-125911904D01*
X119192380Y-125626190D02*
X118192380Y-125626190D01*
X118335238Y-125721428D01*
X118430476Y-125816666D01*
X118478095Y-125911904D01*
X118192380Y-124721428D02*
X118192380Y-124626190D01*
X118240000Y-124530952D01*
X118287619Y-124483333D01*
X118382857Y-124435714D01*
X118573333Y-124388095D01*
X118811428Y-124388095D01*
X119001904Y-124435714D01*
X119097142Y-124483333D01*
X119144761Y-124530952D01*
X119192380Y-124626190D01*
X119192380Y-124721428D01*
X119144761Y-124816666D01*
X119097142Y-124864285D01*
X119001904Y-124911904D01*
X118811428Y-124959523D01*
X118573333Y-124959523D01*
X118382857Y-124911904D01*
X118287619Y-124864285D01*
X118240000Y-124816666D01*
X118192380Y-124721428D01*
X126812380Y-126864285D02*
X125812380Y-126864285D01*
X125812380Y-126626190D01*
X125860000Y-126483333D01*
X125955238Y-126388095D01*
X126050476Y-126340476D01*
X126240952Y-126292857D01*
X126383809Y-126292857D01*
X126574285Y-126340476D01*
X126669523Y-126388095D01*
X126764761Y-126483333D01*
X126812380Y-126626190D01*
X126812380Y-126864285D01*
X126812380Y-125340476D02*
X126812380Y-125911904D01*
X126812380Y-125626190D02*
X125812380Y-125626190D01*
X125955238Y-125721428D01*
X126050476Y-125816666D01*
X126098095Y-125911904D01*
X126812380Y-124388095D02*
X126812380Y-124959523D01*
X126812380Y-124673809D02*
X125812380Y-124673809D01*
X125955238Y-124769047D01*
X126050476Y-124864285D01*
X126098095Y-124959523D01*
X128352380Y-126983333D02*
X129352380Y-126650000D01*
X128352380Y-126316666D01*
X129257142Y-125411904D02*
X129304761Y-125459523D01*
X129352380Y-125602380D01*
X129352380Y-125697619D01*
X129304761Y-125840476D01*
X129209523Y-125935714D01*
X129114285Y-125983333D01*
X128923809Y-126030952D01*
X128780952Y-126030952D01*
X128590476Y-125983333D01*
X128495238Y-125935714D01*
X128400000Y-125840476D01*
X128352380Y-125697619D01*
X128352380Y-125602380D01*
X128400000Y-125459523D01*
X128447619Y-125411904D01*
X129257142Y-124411904D02*
X129304761Y-124459523D01*
X129352380Y-124602380D01*
X129352380Y-124697619D01*
X129304761Y-124840476D01*
X129209523Y-124935714D01*
X129114285Y-124983333D01*
X128923809Y-125030952D01*
X128780952Y-125030952D01*
X128590476Y-124983333D01*
X128495238Y-124935714D01*
X128400000Y-124840476D01*
X128352380Y-124697619D01*
X128352380Y-124602380D01*
X128400000Y-124459523D01*
X128447619Y-124411904D01*
X101412380Y-126388095D02*
X100412380Y-126388095D01*
X100412380Y-126150000D01*
X100460000Y-126007142D01*
X100555238Y-125911904D01*
X100650476Y-125864285D01*
X100840952Y-125816666D01*
X100983809Y-125816666D01*
X101174285Y-125864285D01*
X101269523Y-125911904D01*
X101364761Y-126007142D01*
X101412380Y-126150000D01*
X101412380Y-126388095D01*
X100412380Y-125197619D02*
X100412380Y-125102380D01*
X100460000Y-125007142D01*
X100507619Y-124959523D01*
X100602857Y-124911904D01*
X100793333Y-124864285D01*
X101031428Y-124864285D01*
X101221904Y-124911904D01*
X101317142Y-124959523D01*
X101364761Y-125007142D01*
X101412380Y-125102380D01*
X101412380Y-125197619D01*
X101364761Y-125292857D01*
X101317142Y-125340476D01*
X101221904Y-125388095D01*
X101031428Y-125435714D01*
X100793333Y-125435714D01*
X100602857Y-125388095D01*
X100507619Y-125340476D01*
X100460000Y-125292857D01*
X100412380Y-125197619D01*
X98872380Y-126388095D02*
X97872380Y-126388095D01*
X97872380Y-126150000D01*
X97920000Y-126007142D01*
X98015238Y-125911904D01*
X98110476Y-125864285D01*
X98300952Y-125816666D01*
X98443809Y-125816666D01*
X98634285Y-125864285D01*
X98729523Y-125911904D01*
X98824761Y-126007142D01*
X98872380Y-126150000D01*
X98872380Y-126388095D01*
X97872380Y-125483333D02*
X97872380Y-124816666D01*
X98872380Y-125245238D01*
X95380000Y-126411904D02*
X95332380Y-126507142D01*
X95332380Y-126650000D01*
X95380000Y-126792857D01*
X95475238Y-126888095D01*
X95570476Y-126935714D01*
X95760952Y-126983333D01*
X95903809Y-126983333D01*
X96094285Y-126935714D01*
X96189523Y-126888095D01*
X96284761Y-126792857D01*
X96332380Y-126650000D01*
X96332380Y-126554761D01*
X96284761Y-126411904D01*
X96237142Y-126364285D01*
X95903809Y-126364285D01*
X95903809Y-126554761D01*
X96332380Y-125935714D02*
X95332380Y-125935714D01*
X96332380Y-125364285D01*
X95332380Y-125364285D01*
X96332380Y-124888095D02*
X95332380Y-124888095D01*
X95332380Y-124650000D01*
X95380000Y-124507142D01*
X95475238Y-124411904D01*
X95570476Y-124364285D01*
X95760952Y-124316666D01*
X95903809Y-124316666D01*
X96094285Y-124364285D01*
X96189523Y-124411904D01*
X96284761Y-124507142D01*
X96332380Y-124650000D01*
X96332380Y-124888095D01*
X93506666Y-126364285D02*
X93506666Y-125888095D01*
X93792380Y-126459523D02*
X92792380Y-126126190D01*
X93792380Y-125792857D01*
X92792380Y-125269047D02*
X92792380Y-125173809D01*
X92840000Y-125078571D01*
X92887619Y-125030952D01*
X92982857Y-124983333D01*
X93173333Y-124935714D01*
X93411428Y-124935714D01*
X93601904Y-124983333D01*
X93697142Y-125030952D01*
X93744761Y-125078571D01*
X93792380Y-125173809D01*
X93792380Y-125269047D01*
X93744761Y-125364285D01*
X93697142Y-125411904D01*
X93601904Y-125459523D01*
X93411428Y-125507142D01*
X93173333Y-125507142D01*
X92982857Y-125459523D01*
X92887619Y-125411904D01*
X92840000Y-125364285D01*
X92792380Y-125269047D01*
X90966666Y-126840476D02*
X90966666Y-126364285D01*
X91252380Y-126935714D02*
X90252380Y-126602380D01*
X91252380Y-126269047D01*
X91252380Y-125411904D02*
X91252380Y-125983333D01*
X91252380Y-125697619D02*
X90252380Y-125697619D01*
X90395238Y-125792857D01*
X90490476Y-125888095D01*
X90538095Y-125983333D01*
X90252380Y-124554761D02*
X90252380Y-124745238D01*
X90300000Y-124840476D01*
X90347619Y-124888095D01*
X90490476Y-124983333D01*
X90680952Y-125030952D01*
X91061904Y-125030952D01*
X91157142Y-124983333D01*
X91204761Y-124935714D01*
X91252380Y-124840476D01*
X91252380Y-124650000D01*
X91204761Y-124554761D01*
X91157142Y-124507142D01*
X91061904Y-124459523D01*
X90823809Y-124459523D01*
X90728571Y-124507142D01*
X90680952Y-124554761D01*
X90633333Y-124650000D01*
X90633333Y-124840476D01*
X90680952Y-124935714D01*
X90728571Y-124983333D01*
X90823809Y-125030952D01*
X78266666Y-126364285D02*
X78266666Y-125888095D01*
X78552380Y-126459523D02*
X77552380Y-126126190D01*
X78552380Y-125792857D01*
X77552380Y-125554761D02*
X77552380Y-124935714D01*
X77933333Y-125269047D01*
X77933333Y-125126190D01*
X77980952Y-125030952D01*
X78028571Y-124983333D01*
X78123809Y-124935714D01*
X78361904Y-124935714D01*
X78457142Y-124983333D01*
X78504761Y-125030952D01*
X78552380Y-125126190D01*
X78552380Y-125411904D01*
X78504761Y-125507142D01*
X78457142Y-125554761D01*
X73186666Y-126364285D02*
X73186666Y-125888095D01*
X73472380Y-126459523D02*
X72472380Y-126126190D01*
X73472380Y-125792857D01*
X72805714Y-125030952D02*
X73472380Y-125030952D01*
X72424761Y-125269047D02*
X73139047Y-125507142D01*
X73139047Y-124888095D01*
X70646666Y-126840476D02*
X70646666Y-126364285D01*
X70932380Y-126935714D02*
X69932380Y-126602380D01*
X70932380Y-126269047D01*
X70932380Y-125411904D02*
X70932380Y-125983333D01*
X70932380Y-125697619D02*
X69932380Y-125697619D01*
X70075238Y-125792857D01*
X70170476Y-125888095D01*
X70218095Y-125983333D01*
X70027619Y-125030952D02*
X69980000Y-124983333D01*
X69932380Y-124888095D01*
X69932380Y-124650000D01*
X69980000Y-124554761D01*
X70027619Y-124507142D01*
X70122857Y-124459523D01*
X70218095Y-124459523D01*
X70360952Y-124507142D01*
X70932380Y-125078571D01*
X70932380Y-124459523D01*
X68106666Y-126364285D02*
X68106666Y-125888095D01*
X68392380Y-126459523D02*
X67392380Y-126126190D01*
X68392380Y-125792857D01*
X67392380Y-124983333D02*
X67392380Y-125459523D01*
X67868571Y-125507142D01*
X67820952Y-125459523D01*
X67773333Y-125364285D01*
X67773333Y-125126190D01*
X67820952Y-125030952D01*
X67868571Y-124983333D01*
X67963809Y-124935714D01*
X68201904Y-124935714D01*
X68297142Y-124983333D01*
X68344761Y-125030952D01*
X68392380Y-125126190D01*
X68392380Y-125364285D01*
X68344761Y-125459523D01*
X68297142Y-125507142D01*
X75726666Y-126840476D02*
X75726666Y-126364285D01*
X76012380Y-126935714D02*
X75012380Y-126602380D01*
X76012380Y-126269047D01*
X76012380Y-125411904D02*
X76012380Y-125983333D01*
X76012380Y-125697619D02*
X75012380Y-125697619D01*
X75155238Y-125792857D01*
X75250476Y-125888095D01*
X75298095Y-125983333D01*
X75012380Y-125078571D02*
X75012380Y-124459523D01*
X75393333Y-124792857D01*
X75393333Y-124650000D01*
X75440952Y-124554761D01*
X75488571Y-124507142D01*
X75583809Y-124459523D01*
X75821904Y-124459523D01*
X75917142Y-124507142D01*
X75964761Y-124554761D01*
X76012380Y-124650000D01*
X76012380Y-124935714D01*
X75964761Y-125030952D01*
X75917142Y-125078571D01*
X65566666Y-126840476D02*
X65566666Y-126364285D01*
X65852380Y-126935714D02*
X64852380Y-126602380D01*
X65852380Y-126269047D01*
X65852380Y-125411904D02*
X65852380Y-125983333D01*
X65852380Y-125697619D02*
X64852380Y-125697619D01*
X64995238Y-125792857D01*
X65090476Y-125888095D01*
X65138095Y-125983333D01*
X65852380Y-124459523D02*
X65852380Y-125030952D01*
X65852380Y-124745238D02*
X64852380Y-124745238D01*
X64995238Y-124840476D01*
X65090476Y-124935714D01*
X65138095Y-125030952D01*
X63026666Y-126364285D02*
X63026666Y-125888095D01*
X63312380Y-126459523D02*
X62312380Y-126126190D01*
X63312380Y-125792857D01*
X62312380Y-125030952D02*
X62312380Y-125221428D01*
X62360000Y-125316666D01*
X62407619Y-125364285D01*
X62550476Y-125459523D01*
X62740952Y-125507142D01*
X63121904Y-125507142D01*
X63217142Y-125459523D01*
X63264761Y-125411904D01*
X63312380Y-125316666D01*
X63312380Y-125126190D01*
X63264761Y-125030952D01*
X63217142Y-124983333D01*
X63121904Y-124935714D01*
X62883809Y-124935714D01*
X62788571Y-124983333D01*
X62740952Y-125030952D01*
X62693333Y-125126190D01*
X62693333Y-125316666D01*
X62740952Y-125411904D01*
X62788571Y-125459523D01*
X62883809Y-125507142D01*
X60486666Y-126840476D02*
X60486666Y-126364285D01*
X60772380Y-126935714D02*
X59772380Y-126602380D01*
X60772380Y-126269047D01*
X60772380Y-125411904D02*
X60772380Y-125983333D01*
X60772380Y-125697619D02*
X59772380Y-125697619D01*
X59915238Y-125792857D01*
X60010476Y-125888095D01*
X60058095Y-125983333D01*
X59772380Y-124792857D02*
X59772380Y-124697619D01*
X59820000Y-124602380D01*
X59867619Y-124554761D01*
X59962857Y-124507142D01*
X60153333Y-124459523D01*
X60391428Y-124459523D01*
X60581904Y-124507142D01*
X60677142Y-124554761D01*
X60724761Y-124602380D01*
X60772380Y-124697619D01*
X60772380Y-124792857D01*
X60724761Y-124888095D01*
X60677142Y-124935714D01*
X60581904Y-124983333D01*
X60391428Y-125030952D01*
X60153333Y-125030952D01*
X59962857Y-124983333D01*
X59867619Y-124935714D01*
X59820000Y-124888095D01*
X59772380Y-124792857D01*
X57946666Y-126364285D02*
X57946666Y-125888095D01*
X58232380Y-126459523D02*
X57232380Y-126126190D01*
X58232380Y-125792857D01*
X57232380Y-125554761D02*
X57232380Y-124888095D01*
X58232380Y-125316666D01*
X54692380Y-126983333D02*
X55692380Y-126650000D01*
X54692380Y-126316666D01*
X55597142Y-125411904D02*
X55644761Y-125459523D01*
X55692380Y-125602380D01*
X55692380Y-125697619D01*
X55644761Y-125840476D01*
X55549523Y-125935714D01*
X55454285Y-125983333D01*
X55263809Y-126030952D01*
X55120952Y-126030952D01*
X54930476Y-125983333D01*
X54835238Y-125935714D01*
X54740000Y-125840476D01*
X54692380Y-125697619D01*
X54692380Y-125602380D01*
X54740000Y-125459523D01*
X54787619Y-125411904D01*
X55597142Y-124411904D02*
X55644761Y-124459523D01*
X55692380Y-124602380D01*
X55692380Y-124697619D01*
X55644761Y-124840476D01*
X55549523Y-124935714D01*
X55454285Y-124983333D01*
X55263809Y-125030952D01*
X55120952Y-125030952D01*
X54930476Y-124983333D01*
X54835238Y-124935714D01*
X54740000Y-124840476D01*
X54692380Y-124697619D01*
X54692380Y-124602380D01*
X54740000Y-124459523D01*
X54787619Y-124411904D01*
X52200000Y-126411904D02*
X52152380Y-126507142D01*
X52152380Y-126650000D01*
X52200000Y-126792857D01*
X52295238Y-126888095D01*
X52390476Y-126935714D01*
X52580952Y-126983333D01*
X52723809Y-126983333D01*
X52914285Y-126935714D01*
X53009523Y-126888095D01*
X53104761Y-126792857D01*
X53152380Y-126650000D01*
X53152380Y-126554761D01*
X53104761Y-126411904D01*
X53057142Y-126364285D01*
X52723809Y-126364285D01*
X52723809Y-126554761D01*
X53152380Y-125935714D02*
X52152380Y-125935714D01*
X53152380Y-125364285D01*
X52152380Y-125364285D01*
X53152380Y-124888095D02*
X52152380Y-124888095D01*
X52152380Y-124650000D01*
X52200000Y-124507142D01*
X52295238Y-124411904D01*
X52390476Y-124364285D01*
X52580952Y-124316666D01*
X52723809Y-124316666D01*
X52914285Y-124364285D01*
X53009523Y-124411904D01*
X53104761Y-124507142D01*
X53152380Y-124650000D01*
X53152380Y-124888095D01*
X85886666Y-126840476D02*
X85886666Y-126364285D01*
X86172380Y-126935714D02*
X85172380Y-126602380D01*
X86172380Y-126269047D01*
X86172380Y-125411904D02*
X86172380Y-125983333D01*
X86172380Y-125697619D02*
X85172380Y-125697619D01*
X85315238Y-125792857D01*
X85410476Y-125888095D01*
X85458095Y-125983333D01*
X85172380Y-124507142D02*
X85172380Y-124983333D01*
X85648571Y-125030952D01*
X85600952Y-124983333D01*
X85553333Y-124888095D01*
X85553333Y-124650000D01*
X85600952Y-124554761D01*
X85648571Y-124507142D01*
X85743809Y-124459523D01*
X85981904Y-124459523D01*
X86077142Y-124507142D01*
X86124761Y-124554761D01*
X86172380Y-124650000D01*
X86172380Y-124888095D01*
X86124761Y-124983333D01*
X86077142Y-125030952D01*
X83346666Y-126364285D02*
X83346666Y-125888095D01*
X83632380Y-126459523D02*
X82632380Y-126126190D01*
X83632380Y-125792857D01*
X82727619Y-125507142D02*
X82680000Y-125459523D01*
X82632380Y-125364285D01*
X82632380Y-125126190D01*
X82680000Y-125030952D01*
X82727619Y-124983333D01*
X82822857Y-124935714D01*
X82918095Y-124935714D01*
X83060952Y-124983333D01*
X83632380Y-125554761D01*
X83632380Y-124935714D01*
X80806666Y-126840476D02*
X80806666Y-126364285D01*
X81092380Y-126935714D02*
X80092380Y-126602380D01*
X81092380Y-126269047D01*
X81092380Y-125411904D02*
X81092380Y-125983333D01*
X81092380Y-125697619D02*
X80092380Y-125697619D01*
X80235238Y-125792857D01*
X80330476Y-125888095D01*
X80378095Y-125983333D01*
X80425714Y-124554761D02*
X81092380Y-124554761D01*
X80044761Y-124792857D02*
X80759047Y-125030952D01*
X80759047Y-124411904D01*
X88426666Y-126364285D02*
X88426666Y-125888095D01*
X88712380Y-126459523D02*
X87712380Y-126126190D01*
X88712380Y-125792857D01*
X88712380Y-124935714D02*
X88712380Y-125507142D01*
X88712380Y-125221428D02*
X87712380Y-125221428D01*
X87855238Y-125316666D01*
X87950476Y-125411904D01*
X87998095Y-125507142D01*
X130525000Y-142572380D02*
X130525000Y-141572380D01*
X131797142Y-141762857D02*
X131844761Y-141810476D01*
X131892380Y-141953333D01*
X131892380Y-142048571D01*
X131844761Y-142191428D01*
X131749523Y-142286666D01*
X131654285Y-142334285D01*
X131463809Y-142381904D01*
X131320952Y-142381904D01*
X131130476Y-142334285D01*
X131035238Y-142286666D01*
X130940000Y-142191428D01*
X130892380Y-142048571D01*
X130892380Y-141953333D01*
X130940000Y-141810476D01*
X130987619Y-141762857D01*
X130525000Y-141572380D02*
X130525000Y-140715238D01*
X131606666Y-141381904D02*
X131606666Y-140905714D01*
X131892380Y-141477142D02*
X130892380Y-141143809D01*
X131892380Y-140810476D01*
X130525000Y-140715238D02*
X130525000Y-139715238D01*
X131892380Y-139905714D02*
X131416190Y-140239047D01*
X131892380Y-140477142D02*
X130892380Y-140477142D01*
X130892380Y-140096190D01*
X130940000Y-140000952D01*
X130987619Y-139953333D01*
X131082857Y-139905714D01*
X131225714Y-139905714D01*
X131320952Y-139953333D01*
X131368571Y-140000952D01*
X131416190Y-140096190D01*
X131416190Y-140477142D01*
X130525000Y-139715238D02*
X130525000Y-138953333D01*
X130892380Y-139620000D02*
X130892380Y-139048571D01*
X131892380Y-139334285D02*
X130892380Y-139334285D01*
X130525000Y-138953333D02*
X130525000Y-138191428D01*
X131987619Y-138953333D02*
X131987619Y-138191428D01*
X130525000Y-138191428D02*
X130525000Y-137715238D01*
X131892380Y-137953333D02*
X130892380Y-137953333D01*
X130525000Y-137715238D02*
X130525000Y-136667619D01*
X131892380Y-137477142D02*
X130892380Y-137477142D01*
X131892380Y-136905714D01*
X130892380Y-136905714D01*
X127985000Y-141262857D02*
X127985000Y-140500952D01*
X128352380Y-141167619D02*
X128352380Y-140596190D01*
X129352380Y-140881904D02*
X128352380Y-140881904D01*
X127985000Y-140500952D02*
X127985000Y-140024761D01*
X129352380Y-140262857D02*
X128352380Y-140262857D01*
X127985000Y-140024761D02*
X127985000Y-138881904D01*
X129352380Y-139786666D02*
X128352380Y-139786666D01*
X129066666Y-139453333D01*
X128352380Y-139120000D01*
X129352380Y-139120000D01*
X127985000Y-138881904D02*
X127985000Y-137977142D01*
X128828571Y-138643809D02*
X128828571Y-138310476D01*
X129352380Y-138167619D02*
X129352380Y-138643809D01*
X128352380Y-138643809D01*
X128352380Y-138167619D01*
X125445000Y-142739047D02*
X125445000Y-141786666D01*
X126764761Y-142548571D02*
X126812380Y-142405714D01*
X126812380Y-142167619D01*
X126764761Y-142072380D01*
X126717142Y-142024761D01*
X126621904Y-141977142D01*
X126526666Y-141977142D01*
X126431428Y-142024761D01*
X126383809Y-142072380D01*
X126336190Y-142167619D01*
X126288571Y-142358095D01*
X126240952Y-142453333D01*
X126193333Y-142500952D01*
X126098095Y-142548571D01*
X126002857Y-142548571D01*
X125907619Y-142500952D01*
X125860000Y-142453333D01*
X125812380Y-142358095D01*
X125812380Y-142120000D01*
X125860000Y-141977142D01*
X125445000Y-141786666D02*
X125445000Y-141024761D01*
X126907619Y-141786666D02*
X126907619Y-141024761D01*
X125445000Y-141024761D02*
X125445000Y-140024761D01*
X126812380Y-140215238D02*
X126336190Y-140548571D01*
X126812380Y-140786666D02*
X125812380Y-140786666D01*
X125812380Y-140405714D01*
X125860000Y-140310476D01*
X125907619Y-140262857D01*
X126002857Y-140215238D01*
X126145714Y-140215238D01*
X126240952Y-140262857D01*
X126288571Y-140310476D01*
X126336190Y-140405714D01*
X126336190Y-140786666D01*
X125445000Y-140024761D02*
X125445000Y-139120000D01*
X126288571Y-139786666D02*
X126288571Y-139453333D01*
X126812380Y-139310476D02*
X126812380Y-139786666D01*
X125812380Y-139786666D01*
X125812380Y-139310476D01*
X125445000Y-139120000D02*
X125445000Y-138167619D01*
X126764761Y-138929523D02*
X126812380Y-138786666D01*
X126812380Y-138548571D01*
X126764761Y-138453333D01*
X126717142Y-138405714D01*
X126621904Y-138358095D01*
X126526666Y-138358095D01*
X126431428Y-138405714D01*
X126383809Y-138453333D01*
X126336190Y-138548571D01*
X126288571Y-138739047D01*
X126240952Y-138834285D01*
X126193333Y-138881904D01*
X126098095Y-138929523D01*
X126002857Y-138929523D01*
X125907619Y-138881904D01*
X125860000Y-138834285D01*
X125812380Y-138739047D01*
X125812380Y-138500952D01*
X125860000Y-138358095D01*
X125445000Y-138167619D02*
X125445000Y-137262857D01*
X126288571Y-137929523D02*
X126288571Y-137596190D01*
X126812380Y-137453333D02*
X126812380Y-137929523D01*
X125812380Y-137929523D01*
X125812380Y-137453333D01*
X125445000Y-137262857D02*
X125445000Y-136500952D01*
X125812380Y-137167619D02*
X125812380Y-136596190D01*
X126812380Y-136881904D02*
X125812380Y-136881904D01*
X106492380Y-140834285D02*
X105492380Y-140834285D01*
X105492380Y-140596190D01*
X105540000Y-140453333D01*
X105635238Y-140358095D01*
X105730476Y-140310476D01*
X105920952Y-140262857D01*
X106063809Y-140262857D01*
X106254285Y-140310476D01*
X106349523Y-140358095D01*
X106444761Y-140453333D01*
X106492380Y-140596190D01*
X106492380Y-140834285D01*
X106492380Y-139310476D02*
X106492380Y-139881904D01*
X106492380Y-139596190D02*
X105492380Y-139596190D01*
X105635238Y-139691428D01*
X105730476Y-139786666D01*
X105778095Y-139881904D01*
X105492380Y-138405714D02*
X105492380Y-138881904D01*
X105968571Y-138929523D01*
X105920952Y-138881904D01*
X105873333Y-138786666D01*
X105873333Y-138548571D01*
X105920952Y-138453333D01*
X105968571Y-138405714D01*
X106063809Y-138358095D01*
X106301904Y-138358095D01*
X106397142Y-138405714D01*
X106444761Y-138453333D01*
X106492380Y-138548571D01*
X106492380Y-138786666D01*
X106444761Y-138881904D01*
X106397142Y-138929523D01*
X122905000Y-141691428D02*
X122905000Y-140643809D01*
X123272380Y-141453333D02*
X124081904Y-141453333D01*
X124177142Y-141405714D01*
X124224761Y-141358095D01*
X124272380Y-141262857D01*
X124272380Y-141072380D01*
X124224761Y-140977142D01*
X124177142Y-140929523D01*
X124081904Y-140881904D01*
X123272380Y-140881904D01*
X122905000Y-140643809D02*
X122905000Y-139643809D01*
X124272380Y-140405714D02*
X123272380Y-140405714D01*
X123272380Y-140167619D01*
X123320000Y-140024761D01*
X123415238Y-139929523D01*
X123510476Y-139881904D01*
X123700952Y-139834285D01*
X123843809Y-139834285D01*
X124034285Y-139881904D01*
X124129523Y-139929523D01*
X124224761Y-140024761D01*
X124272380Y-140167619D01*
X124272380Y-140405714D01*
X122905000Y-139643809D02*
X122905000Y-138691428D01*
X124224761Y-139453333D02*
X124272380Y-139310476D01*
X124272380Y-139072380D01*
X124224761Y-138977142D01*
X124177142Y-138929523D01*
X124081904Y-138881904D01*
X123986666Y-138881904D01*
X123891428Y-138929523D01*
X123843809Y-138977142D01*
X123796190Y-139072380D01*
X123748571Y-139262857D01*
X123700952Y-139358095D01*
X123653333Y-139405714D01*
X123558095Y-139453333D01*
X123462857Y-139453333D01*
X123367619Y-139405714D01*
X123320000Y-139358095D01*
X123272380Y-139262857D01*
X123272380Y-139024761D01*
X123320000Y-138881904D01*
X122905000Y-138691428D02*
X122905000Y-137548571D01*
X123272380Y-138548571D02*
X124272380Y-138310476D01*
X123558095Y-138120000D01*
X124272380Y-137929523D01*
X123272380Y-137691428D01*
X120365000Y-141572380D02*
X120365000Y-140762857D01*
X121732380Y-140858095D02*
X121732380Y-141334285D01*
X120732380Y-141334285D01*
X120365000Y-140762857D02*
X120365000Y-139762857D01*
X121732380Y-140524761D02*
X120732380Y-140524761D01*
X120732380Y-140286666D01*
X120780000Y-140143809D01*
X120875238Y-140048571D01*
X120970476Y-140000952D01*
X121160952Y-139953333D01*
X121303809Y-139953333D01*
X121494285Y-140000952D01*
X121589523Y-140048571D01*
X121684761Y-140143809D01*
X121732380Y-140286666D01*
X121732380Y-140524761D01*
X120365000Y-139762857D02*
X120365000Y-138810476D01*
X121684761Y-139572380D02*
X121732380Y-139429523D01*
X121732380Y-139191428D01*
X121684761Y-139096190D01*
X121637142Y-139048571D01*
X121541904Y-139000952D01*
X121446666Y-139000952D01*
X121351428Y-139048571D01*
X121303809Y-139096190D01*
X121256190Y-139191428D01*
X121208571Y-139381904D01*
X121160952Y-139477142D01*
X121113333Y-139524761D01*
X121018095Y-139572380D01*
X120922857Y-139572380D01*
X120827619Y-139524761D01*
X120780000Y-139477142D01*
X120732380Y-139381904D01*
X120732380Y-139143809D01*
X120780000Y-139000952D01*
X120365000Y-138810476D02*
X120365000Y-137667619D01*
X120732380Y-138667619D02*
X121732380Y-138429523D01*
X121018095Y-138239047D01*
X121732380Y-138048571D01*
X120732380Y-137810476D01*
X117825000Y-142881904D02*
X117825000Y-141929523D01*
X118192380Y-142215238D02*
X118192380Y-142405714D01*
X118240000Y-142500952D01*
X118287619Y-142548571D01*
X118430476Y-142643809D01*
X118620952Y-142691428D01*
X119001904Y-142691428D01*
X119097142Y-142643809D01*
X119144761Y-142596190D01*
X119192380Y-142500952D01*
X119192380Y-142310476D01*
X119144761Y-142215238D01*
X119097142Y-142167619D01*
X119001904Y-142120000D01*
X118763809Y-142120000D01*
X118668571Y-142167619D01*
X118620952Y-142215238D01*
X118573333Y-142310476D01*
X118573333Y-142500952D01*
X118620952Y-142596190D01*
X118668571Y-142643809D01*
X118763809Y-142691428D01*
X117825000Y-141929523D02*
X117825000Y-140977142D01*
X118620952Y-141548571D02*
X118573333Y-141643809D01*
X118525714Y-141691428D01*
X118430476Y-141739047D01*
X118382857Y-141739047D01*
X118287619Y-141691428D01*
X118240000Y-141643809D01*
X118192380Y-141548571D01*
X118192380Y-141358095D01*
X118240000Y-141262857D01*
X118287619Y-141215238D01*
X118382857Y-141167619D01*
X118430476Y-141167619D01*
X118525714Y-141215238D01*
X118573333Y-141262857D01*
X118620952Y-141358095D01*
X118620952Y-141548571D01*
X118668571Y-141643809D01*
X118716190Y-141691428D01*
X118811428Y-141739047D01*
X119001904Y-141739047D01*
X119097142Y-141691428D01*
X119144761Y-141643809D01*
X119192380Y-141548571D01*
X119192380Y-141358095D01*
X119144761Y-141262857D01*
X119097142Y-141215238D01*
X119001904Y-141167619D01*
X118811428Y-141167619D01*
X118716190Y-141215238D01*
X118668571Y-141262857D01*
X118620952Y-141358095D01*
X117825000Y-140977142D02*
X117825000Y-139977142D01*
X119192380Y-140739047D02*
X118192380Y-140739047D01*
X119192380Y-140167619D02*
X118620952Y-140596190D01*
X118192380Y-140167619D02*
X118763809Y-140739047D01*
X117825000Y-139977142D02*
X117825000Y-139215238D01*
X119287619Y-139977142D02*
X119287619Y-139215238D01*
X117825000Y-139215238D02*
X117825000Y-138215238D01*
X119192380Y-138405714D02*
X118716190Y-138739047D01*
X119192380Y-138977142D02*
X118192380Y-138977142D01*
X118192380Y-138596190D01*
X118240000Y-138500952D01*
X118287619Y-138453333D01*
X118382857Y-138405714D01*
X118525714Y-138405714D01*
X118620952Y-138453333D01*
X118668571Y-138500952D01*
X118716190Y-138596190D01*
X118716190Y-138977142D01*
X117825000Y-138215238D02*
X117825000Y-137310476D01*
X118668571Y-137977142D02*
X118668571Y-137643809D01*
X119192380Y-137500952D02*
X119192380Y-137977142D01*
X118192380Y-137977142D01*
X118192380Y-137500952D01*
X117825000Y-137310476D02*
X117825000Y-136358095D01*
X119144761Y-137120000D02*
X119192380Y-136977142D01*
X119192380Y-136739047D01*
X119144761Y-136643809D01*
X119097142Y-136596190D01*
X119001904Y-136548571D01*
X118906666Y-136548571D01*
X118811428Y-136596190D01*
X118763809Y-136643809D01*
X118716190Y-136739047D01*
X118668571Y-136929523D01*
X118620952Y-137024761D01*
X118573333Y-137072380D01*
X118478095Y-137120000D01*
X118382857Y-137120000D01*
X118287619Y-137072380D01*
X118240000Y-137024761D01*
X118192380Y-136929523D01*
X118192380Y-136691428D01*
X118240000Y-136548571D01*
X115285000Y-142524761D02*
X115285000Y-141715238D01*
X116652380Y-141810476D02*
X116652380Y-142286666D01*
X115652380Y-142286666D01*
X115285000Y-141715238D02*
X115285000Y-140667619D01*
X115652380Y-141286666D02*
X115652380Y-141096190D01*
X115700000Y-141000952D01*
X115795238Y-140905714D01*
X115985714Y-140858095D01*
X116319047Y-140858095D01*
X116509523Y-140905714D01*
X116604761Y-141000952D01*
X116652380Y-141096190D01*
X116652380Y-141286666D01*
X116604761Y-141381904D01*
X116509523Y-141477142D01*
X116319047Y-141524761D01*
X115985714Y-141524761D01*
X115795238Y-141477142D01*
X115700000Y-141381904D01*
X115652380Y-141286666D01*
X115285000Y-140667619D02*
X115285000Y-139905714D01*
X116747619Y-140667619D02*
X116747619Y-139905714D01*
X115285000Y-139905714D02*
X115285000Y-138762857D01*
X116652380Y-139667619D02*
X115652380Y-139667619D01*
X116366666Y-139334285D01*
X115652380Y-139000952D01*
X116652380Y-139000952D01*
X115285000Y-138762857D02*
X115285000Y-137858095D01*
X116128571Y-138524761D02*
X116128571Y-138191428D01*
X116652380Y-138048571D02*
X116652380Y-138524761D01*
X115652380Y-138524761D01*
X115652380Y-138048571D01*
X115285000Y-137858095D02*
X115285000Y-136715238D01*
X116652380Y-137620000D02*
X115652380Y-137620000D01*
X116366666Y-137286666D01*
X115652380Y-136953333D01*
X116652380Y-136953333D01*
X114112380Y-140834285D02*
X113112380Y-140834285D01*
X113112380Y-140596190D01*
X113160000Y-140453333D01*
X113255238Y-140358095D01*
X113350476Y-140310476D01*
X113540952Y-140262857D01*
X113683809Y-140262857D01*
X113874285Y-140310476D01*
X113969523Y-140358095D01*
X114064761Y-140453333D01*
X114112380Y-140596190D01*
X114112380Y-140834285D01*
X114112380Y-139310476D02*
X114112380Y-139881904D01*
X114112380Y-139596190D02*
X113112380Y-139596190D01*
X113255238Y-139691428D01*
X113350476Y-139786666D01*
X113398095Y-139881904D01*
X113207619Y-138929523D02*
X113160000Y-138881904D01*
X113112380Y-138786666D01*
X113112380Y-138548571D01*
X113160000Y-138453333D01*
X113207619Y-138405714D01*
X113302857Y-138358095D01*
X113398095Y-138358095D01*
X113540952Y-138405714D01*
X114112380Y-138977142D01*
X114112380Y-138358095D01*
X111572380Y-140834285D02*
X110572380Y-140834285D01*
X110572380Y-140596190D01*
X110620000Y-140453333D01*
X110715238Y-140358095D01*
X110810476Y-140310476D01*
X111000952Y-140262857D01*
X111143809Y-140262857D01*
X111334285Y-140310476D01*
X111429523Y-140358095D01*
X111524761Y-140453333D01*
X111572380Y-140596190D01*
X111572380Y-140834285D01*
X111572380Y-139310476D02*
X111572380Y-139881904D01*
X111572380Y-139596190D02*
X110572380Y-139596190D01*
X110715238Y-139691428D01*
X110810476Y-139786666D01*
X110858095Y-139881904D01*
X110572380Y-138977142D02*
X110572380Y-138358095D01*
X110953333Y-138691428D01*
X110953333Y-138548571D01*
X111000952Y-138453333D01*
X111048571Y-138405714D01*
X111143809Y-138358095D01*
X111381904Y-138358095D01*
X111477142Y-138405714D01*
X111524761Y-138453333D01*
X111572380Y-138548571D01*
X111572380Y-138834285D01*
X111524761Y-138929523D01*
X111477142Y-138977142D01*
X109032380Y-140834285D02*
X108032380Y-140834285D01*
X108032380Y-140596190D01*
X108080000Y-140453333D01*
X108175238Y-140358095D01*
X108270476Y-140310476D01*
X108460952Y-140262857D01*
X108603809Y-140262857D01*
X108794285Y-140310476D01*
X108889523Y-140358095D01*
X108984761Y-140453333D01*
X109032380Y-140596190D01*
X109032380Y-140834285D01*
X109032380Y-139310476D02*
X109032380Y-139881904D01*
X109032380Y-139596190D02*
X108032380Y-139596190D01*
X108175238Y-139691428D01*
X108270476Y-139786666D01*
X108318095Y-139881904D01*
X108365714Y-138453333D02*
X109032380Y-138453333D01*
X107984761Y-138691428D02*
X108699047Y-138929523D01*
X108699047Y-138310476D01*
X102585000Y-141881904D02*
X102585000Y-140881904D01*
X103857142Y-141072380D02*
X103904761Y-141120000D01*
X103952380Y-141262857D01*
X103952380Y-141358095D01*
X103904761Y-141500952D01*
X103809523Y-141596190D01*
X103714285Y-141643809D01*
X103523809Y-141691428D01*
X103380952Y-141691428D01*
X103190476Y-141643809D01*
X103095238Y-141596190D01*
X103000000Y-141500952D01*
X102952380Y-141358095D01*
X102952380Y-141262857D01*
X103000000Y-141120000D01*
X103047619Y-141072380D01*
X102585000Y-140881904D02*
X102585000Y-140024761D01*
X103666666Y-140691428D02*
X103666666Y-140215238D01*
X103952380Y-140786666D02*
X102952380Y-140453333D01*
X103952380Y-140120000D01*
X102585000Y-140024761D02*
X102585000Y-139072380D01*
X103904761Y-139834285D02*
X103952380Y-139691428D01*
X103952380Y-139453333D01*
X103904761Y-139358095D01*
X103857142Y-139310476D01*
X103761904Y-139262857D01*
X103666666Y-139262857D01*
X103571428Y-139310476D01*
X103523809Y-139358095D01*
X103476190Y-139453333D01*
X103428571Y-139643809D01*
X103380952Y-139739047D01*
X103333333Y-139786666D01*
X103238095Y-139834285D01*
X103142857Y-139834285D01*
X103047619Y-139786666D01*
X103000000Y-139739047D01*
X102952380Y-139643809D01*
X102952380Y-139405714D01*
X103000000Y-139262857D01*
X102585000Y-139072380D02*
X102585000Y-138310476D01*
X104047619Y-139072380D02*
X104047619Y-138310476D01*
X102585000Y-138310476D02*
X102585000Y-137358095D01*
X103952380Y-137548571D02*
X103952380Y-138120000D01*
X103952380Y-137834285D02*
X102952380Y-137834285D01*
X103095238Y-137929523D01*
X103190476Y-138024761D01*
X103238095Y-138120000D01*
X100045000Y-141929523D02*
X100045000Y-140929523D01*
X101412380Y-141691428D02*
X100412380Y-141691428D01*
X100412380Y-141453333D01*
X100460000Y-141310476D01*
X100555238Y-141215238D01*
X100650476Y-141167619D01*
X100840952Y-141120000D01*
X100983809Y-141120000D01*
X101174285Y-141167619D01*
X101269523Y-141215238D01*
X101364761Y-141310476D01*
X101412380Y-141453333D01*
X101412380Y-141691428D01*
X100045000Y-140929523D02*
X100045000Y-140167619D01*
X100412380Y-140834285D02*
X100412380Y-140262857D01*
X101412380Y-140548571D02*
X100412380Y-140548571D01*
X100045000Y-140167619D02*
X100045000Y-139310476D01*
X101126666Y-139977142D02*
X101126666Y-139500952D01*
X101412380Y-140072380D02*
X100412380Y-139739047D01*
X101412380Y-139405714D01*
X100045000Y-139310476D02*
X100045000Y-138310476D01*
X101317142Y-138500952D02*
X101364761Y-138548571D01*
X101412380Y-138691428D01*
X101412380Y-138786666D01*
X101364761Y-138929523D01*
X101269523Y-139024761D01*
X101174285Y-139072380D01*
X100983809Y-139120000D01*
X100840952Y-139120000D01*
X100650476Y-139072380D01*
X100555238Y-139024761D01*
X100460000Y-138929523D01*
X100412380Y-138786666D01*
X100412380Y-138691428D01*
X100460000Y-138548571D01*
X100507619Y-138500952D01*
X100045000Y-138310476D02*
X100045000Y-137310476D01*
X101412380Y-138072380D02*
X100412380Y-138072380D01*
X101412380Y-137500952D02*
X100840952Y-137929523D01*
X100412380Y-137500952D02*
X100983809Y-138072380D01*
X98777142Y-140215238D02*
X98824761Y-140262857D01*
X98872380Y-140405714D01*
X98872380Y-140500952D01*
X98824761Y-140643809D01*
X98729523Y-140739047D01*
X98634285Y-140786666D01*
X98443809Y-140834285D01*
X98300952Y-140834285D01*
X98110476Y-140786666D01*
X98015238Y-140739047D01*
X97920000Y-140643809D01*
X97872380Y-140500952D01*
X97872380Y-140405714D01*
X97920000Y-140262857D01*
X97967619Y-140215238D01*
X98872380Y-139310476D02*
X98872380Y-139786666D01*
X97872380Y-139786666D01*
X98872380Y-138977142D02*
X97872380Y-138977142D01*
X98872380Y-138405714D02*
X98300952Y-138834285D01*
X97872380Y-138405714D02*
X98443809Y-138977142D01*
X94965000Y-140524761D02*
X94965000Y-139667619D01*
X96046666Y-140334285D02*
X96046666Y-139858095D01*
X96332380Y-140429523D02*
X95332380Y-140096190D01*
X96332380Y-139762857D01*
X94965000Y-139667619D02*
X94965000Y-138715238D01*
X96284761Y-139477142D02*
X96332380Y-139334285D01*
X96332380Y-139096190D01*
X96284761Y-139000952D01*
X96237142Y-138953333D01*
X96141904Y-138905714D01*
X96046666Y-138905714D01*
X95951428Y-138953333D01*
X95903809Y-139000952D01*
X95856190Y-139096190D01*
X95808571Y-139286666D01*
X95760952Y-139381904D01*
X95713333Y-139429523D01*
X95618095Y-139477142D01*
X95522857Y-139477142D01*
X95427619Y-139429523D01*
X95380000Y-139381904D01*
X95332380Y-139286666D01*
X95332380Y-139048571D01*
X95380000Y-138905714D01*
X92425000Y-140572380D02*
X92425000Y-139572380D01*
X93697142Y-139762857D02*
X93744761Y-139810476D01*
X93792380Y-139953333D01*
X93792380Y-140048571D01*
X93744761Y-140191428D01*
X93649523Y-140286666D01*
X93554285Y-140334285D01*
X93363809Y-140381904D01*
X93220952Y-140381904D01*
X93030476Y-140334285D01*
X92935238Y-140286666D01*
X92840000Y-140191428D01*
X92792380Y-140048571D01*
X92792380Y-139953333D01*
X92840000Y-139810476D01*
X92887619Y-139762857D01*
X92425000Y-139572380D02*
X92425000Y-138667619D01*
X93268571Y-139334285D02*
X93268571Y-139000952D01*
X93792380Y-138858095D02*
X93792380Y-139334285D01*
X92792380Y-139334285D01*
X92792380Y-138858095D01*
X89885000Y-140596190D02*
X89885000Y-139548571D01*
X90252380Y-140167619D02*
X90252380Y-139977142D01*
X90300000Y-139881904D01*
X90395238Y-139786666D01*
X90585714Y-139739047D01*
X90919047Y-139739047D01*
X91109523Y-139786666D01*
X91204761Y-139881904D01*
X91252380Y-139977142D01*
X91252380Y-140167619D01*
X91204761Y-140262857D01*
X91109523Y-140358095D01*
X90919047Y-140405714D01*
X90585714Y-140405714D01*
X90395238Y-140358095D01*
X90300000Y-140262857D01*
X90252380Y-140167619D01*
X89885000Y-139548571D02*
X89885000Y-138643809D01*
X90728571Y-139310476D02*
X90728571Y-138977142D01*
X91252380Y-138834285D02*
X91252380Y-139310476D01*
X90252380Y-139310476D01*
X90252380Y-138834285D01*
X88712380Y-142167619D02*
X87712380Y-142167619D01*
X88188571Y-142167619D02*
X88188571Y-141596190D01*
X88712380Y-141596190D02*
X87712380Y-141596190D01*
X88664761Y-141167619D02*
X88712380Y-141024761D01*
X88712380Y-140786666D01*
X88664761Y-140691428D01*
X88617142Y-140643809D01*
X88521904Y-140596190D01*
X88426666Y-140596190D01*
X88331428Y-140643809D01*
X88283809Y-140691428D01*
X88236190Y-140786666D01*
X88188571Y-140977142D01*
X88140952Y-141072380D01*
X88093333Y-141120000D01*
X87998095Y-141167619D01*
X87902857Y-141167619D01*
X87807619Y-141120000D01*
X87760000Y-141072380D01*
X87712380Y-140977142D01*
X87712380Y-140739047D01*
X87760000Y-140596190D01*
X88807619Y-140405714D02*
X88807619Y-139643809D01*
X88617142Y-138834285D02*
X88664761Y-138881904D01*
X88712380Y-139024761D01*
X88712380Y-139120000D01*
X88664761Y-139262857D01*
X88569523Y-139358095D01*
X88474285Y-139405714D01*
X88283809Y-139453333D01*
X88140952Y-139453333D01*
X87950476Y-139405714D01*
X87855238Y-139358095D01*
X87760000Y-139262857D01*
X87712380Y-139120000D01*
X87712380Y-139024761D01*
X87760000Y-138881904D01*
X87807619Y-138834285D01*
X88712380Y-137929523D02*
X88712380Y-138405714D01*
X87712380Y-138405714D01*
X88712380Y-137596190D02*
X87712380Y-137596190D01*
X88712380Y-137024761D02*
X88140952Y-137453333D01*
X87712380Y-137024761D02*
X88283809Y-137596190D01*
X86172380Y-141834285D02*
X85172380Y-141834285D01*
X85648571Y-141834285D02*
X85648571Y-141262857D01*
X86172380Y-141262857D02*
X85172380Y-141262857D01*
X86124761Y-140834285D02*
X86172380Y-140691428D01*
X86172380Y-140453333D01*
X86124761Y-140358095D01*
X86077142Y-140310476D01*
X85981904Y-140262857D01*
X85886666Y-140262857D01*
X85791428Y-140310476D01*
X85743809Y-140358095D01*
X85696190Y-140453333D01*
X85648571Y-140643809D01*
X85600952Y-140739047D01*
X85553333Y-140786666D01*
X85458095Y-140834285D01*
X85362857Y-140834285D01*
X85267619Y-140786666D01*
X85220000Y-140739047D01*
X85172380Y-140643809D01*
X85172380Y-140405714D01*
X85220000Y-140262857D01*
X85696190Y-139643809D02*
X86172380Y-139643809D01*
X85172380Y-139977142D02*
X85696190Y-139643809D01*
X85172380Y-139310476D01*
X86172380Y-138977142D02*
X85172380Y-138977142D01*
X86172380Y-138405714D01*
X85172380Y-138405714D01*
X86077142Y-137358095D02*
X86124761Y-137405714D01*
X86172380Y-137548571D01*
X86172380Y-137643809D01*
X86124761Y-137786666D01*
X86029523Y-137881904D01*
X85934285Y-137929523D01*
X85743809Y-137977142D01*
X85600952Y-137977142D01*
X85410476Y-137929523D01*
X85315238Y-137881904D01*
X85220000Y-137786666D01*
X85172380Y-137643809D01*
X85172380Y-137548571D01*
X85220000Y-137405714D01*
X85267619Y-137358095D01*
X82632380Y-141881904D02*
X83632380Y-141548571D01*
X82632380Y-141215238D01*
X83584761Y-140929523D02*
X83632380Y-140786666D01*
X83632380Y-140548571D01*
X83584761Y-140453333D01*
X83537142Y-140405714D01*
X83441904Y-140358095D01*
X83346666Y-140358095D01*
X83251428Y-140405714D01*
X83203809Y-140453333D01*
X83156190Y-140548571D01*
X83108571Y-140739047D01*
X83060952Y-140834285D01*
X83013333Y-140881904D01*
X82918095Y-140929523D01*
X82822857Y-140929523D01*
X82727619Y-140881904D01*
X82680000Y-140834285D01*
X82632380Y-140739047D01*
X82632380Y-140500952D01*
X82680000Y-140358095D01*
X83156190Y-139739047D02*
X83632380Y-139739047D01*
X82632380Y-140072380D02*
X83156190Y-139739047D01*
X82632380Y-139405714D01*
X83632380Y-139072380D02*
X82632380Y-139072380D01*
X83632380Y-138500952D01*
X82632380Y-138500952D01*
X83537142Y-137453333D02*
X83584761Y-137500952D01*
X83632380Y-137643809D01*
X83632380Y-137739047D01*
X83584761Y-137881904D01*
X83489523Y-137977142D01*
X83394285Y-138024761D01*
X83203809Y-138072380D01*
X83060952Y-138072380D01*
X82870476Y-138024761D01*
X82775238Y-137977142D01*
X82680000Y-137881904D01*
X82632380Y-137739047D01*
X82632380Y-137643809D01*
X82680000Y-137500952D01*
X82727619Y-137453333D01*
X80092380Y-141667619D02*
X81092380Y-141334285D01*
X80092380Y-141000952D01*
X81092380Y-140667619D02*
X80092380Y-140667619D01*
X81092380Y-140191428D02*
X80092380Y-140191428D01*
X80092380Y-139953333D01*
X80140000Y-139810476D01*
X80235238Y-139715238D01*
X80330476Y-139667619D01*
X80520952Y-139620000D01*
X80663809Y-139620000D01*
X80854285Y-139667619D01*
X80949523Y-139715238D01*
X81044761Y-139810476D01*
X81092380Y-139953333D01*
X81092380Y-140191428D01*
X80568571Y-139191428D02*
X80568571Y-138858095D01*
X81092380Y-138715238D02*
X81092380Y-139191428D01*
X80092380Y-139191428D01*
X80092380Y-138715238D01*
X80092380Y-138096190D02*
X80092380Y-137905714D01*
X80140000Y-137810476D01*
X80235238Y-137715238D01*
X80425714Y-137667619D01*
X80759047Y-137667619D01*
X80949523Y-137715238D01*
X81044761Y-137810476D01*
X81092380Y-137905714D01*
X81092380Y-138096190D01*
X81044761Y-138191428D01*
X80949523Y-138286666D01*
X80759047Y-138334285D01*
X80425714Y-138334285D01*
X80235238Y-138286666D01*
X80140000Y-138191428D01*
X80092380Y-138096190D01*
X78266666Y-140810476D02*
X78266666Y-140334285D01*
X78552380Y-140905714D02*
X77552380Y-140572380D01*
X78552380Y-140239047D01*
X77647619Y-139953333D02*
X77600000Y-139905714D01*
X77552380Y-139810476D01*
X77552380Y-139572380D01*
X77600000Y-139477142D01*
X77647619Y-139429523D01*
X77742857Y-139381904D01*
X77838095Y-139381904D01*
X77980952Y-139429523D01*
X78552380Y-140000952D01*
X78552380Y-139381904D01*
X77647619Y-139000952D02*
X77600000Y-138953333D01*
X77552380Y-138858095D01*
X77552380Y-138620000D01*
X77600000Y-138524761D01*
X77647619Y-138477142D01*
X77742857Y-138429523D01*
X77838095Y-138429523D01*
X77980952Y-138477142D01*
X78552380Y-139048571D01*
X78552380Y-138429523D01*
X75726666Y-140810476D02*
X75726666Y-140334285D01*
X76012380Y-140905714D02*
X75012380Y-140572380D01*
X76012380Y-140239047D01*
X75107619Y-139953333D02*
X75060000Y-139905714D01*
X75012380Y-139810476D01*
X75012380Y-139572380D01*
X75060000Y-139477142D01*
X75107619Y-139429523D01*
X75202857Y-139381904D01*
X75298095Y-139381904D01*
X75440952Y-139429523D01*
X76012380Y-140000952D01*
X76012380Y-139381904D01*
X76012380Y-138429523D02*
X76012380Y-139000952D01*
X76012380Y-138715238D02*
X75012380Y-138715238D01*
X75155238Y-138810476D01*
X75250476Y-138905714D01*
X75298095Y-139000952D01*
X73186666Y-140810476D02*
X73186666Y-140334285D01*
X73472380Y-140905714D02*
X72472380Y-140572380D01*
X73472380Y-140239047D01*
X72567619Y-139953333D02*
X72520000Y-139905714D01*
X72472380Y-139810476D01*
X72472380Y-139572380D01*
X72520000Y-139477142D01*
X72567619Y-139429523D01*
X72662857Y-139381904D01*
X72758095Y-139381904D01*
X72900952Y-139429523D01*
X73472380Y-140000952D01*
X73472380Y-139381904D01*
X72472380Y-138762857D02*
X72472380Y-138667619D01*
X72520000Y-138572380D01*
X72567619Y-138524761D01*
X72662857Y-138477142D01*
X72853333Y-138429523D01*
X73091428Y-138429523D01*
X73281904Y-138477142D01*
X73377142Y-138524761D01*
X73424761Y-138572380D01*
X73472380Y-138667619D01*
X73472380Y-138762857D01*
X73424761Y-138858095D01*
X73377142Y-138905714D01*
X73281904Y-138953333D01*
X73091428Y-139000952D01*
X72853333Y-139000952D01*
X72662857Y-138953333D01*
X72567619Y-138905714D01*
X72520000Y-138858095D01*
X72472380Y-138762857D01*
X70646666Y-140810476D02*
X70646666Y-140334285D01*
X70932380Y-140905714D02*
X69932380Y-140572380D01*
X70932380Y-140239047D01*
X70932380Y-139381904D02*
X70932380Y-139953333D01*
X70932380Y-139667619D02*
X69932380Y-139667619D01*
X70075238Y-139762857D01*
X70170476Y-139858095D01*
X70218095Y-139953333D01*
X70932380Y-138905714D02*
X70932380Y-138715238D01*
X70884761Y-138620000D01*
X70837142Y-138572380D01*
X70694285Y-138477142D01*
X70503809Y-138429523D01*
X70122857Y-138429523D01*
X70027619Y-138477142D01*
X69980000Y-138524761D01*
X69932380Y-138620000D01*
X69932380Y-138810476D01*
X69980000Y-138905714D01*
X70027619Y-138953333D01*
X70122857Y-139000952D01*
X70360952Y-139000952D01*
X70456190Y-138953333D01*
X70503809Y-138905714D01*
X70551428Y-138810476D01*
X70551428Y-138620000D01*
X70503809Y-138524761D01*
X70456190Y-138477142D01*
X70360952Y-138429523D01*
X68106666Y-140810476D02*
X68106666Y-140334285D01*
X68392380Y-140905714D02*
X67392380Y-140572380D01*
X68392380Y-140239047D01*
X68392380Y-139381904D02*
X68392380Y-139953333D01*
X68392380Y-139667619D02*
X67392380Y-139667619D01*
X67535238Y-139762857D01*
X67630476Y-139858095D01*
X67678095Y-139953333D01*
X67820952Y-138810476D02*
X67773333Y-138905714D01*
X67725714Y-138953333D01*
X67630476Y-139000952D01*
X67582857Y-139000952D01*
X67487619Y-138953333D01*
X67440000Y-138905714D01*
X67392380Y-138810476D01*
X67392380Y-138620000D01*
X67440000Y-138524761D01*
X67487619Y-138477142D01*
X67582857Y-138429523D01*
X67630476Y-138429523D01*
X67725714Y-138477142D01*
X67773333Y-138524761D01*
X67820952Y-138620000D01*
X67820952Y-138810476D01*
X67868571Y-138905714D01*
X67916190Y-138953333D01*
X68011428Y-139000952D01*
X68201904Y-139000952D01*
X68297142Y-138953333D01*
X68344761Y-138905714D01*
X68392380Y-138810476D01*
X68392380Y-138620000D01*
X68344761Y-138524761D01*
X68297142Y-138477142D01*
X68201904Y-138429523D01*
X68011428Y-138429523D01*
X67916190Y-138477142D01*
X67868571Y-138524761D01*
X67820952Y-138620000D01*
X65566666Y-140810476D02*
X65566666Y-140334285D01*
X65852380Y-140905714D02*
X64852380Y-140572380D01*
X65852380Y-140239047D01*
X65852380Y-139381904D02*
X65852380Y-139953333D01*
X65852380Y-139667619D02*
X64852380Y-139667619D01*
X64995238Y-139762857D01*
X65090476Y-139858095D01*
X65138095Y-139953333D01*
X64852380Y-139048571D02*
X64852380Y-138381904D01*
X65852380Y-138810476D01*
X63026666Y-140334285D02*
X63026666Y-139858095D01*
X63312380Y-140429523D02*
X62312380Y-140096190D01*
X63312380Y-139762857D01*
X63312380Y-139381904D02*
X63312380Y-139191428D01*
X63264761Y-139096190D01*
X63217142Y-139048571D01*
X63074285Y-138953333D01*
X62883809Y-138905714D01*
X62502857Y-138905714D01*
X62407619Y-138953333D01*
X62360000Y-139000952D01*
X62312380Y-139096190D01*
X62312380Y-139286666D01*
X62360000Y-139381904D01*
X62407619Y-139429523D01*
X62502857Y-139477142D01*
X62740952Y-139477142D01*
X62836190Y-139429523D01*
X62883809Y-139381904D01*
X62931428Y-139286666D01*
X62931428Y-139096190D01*
X62883809Y-139000952D01*
X62836190Y-138953333D01*
X62740952Y-138905714D01*
X60486666Y-140334285D02*
X60486666Y-139858095D01*
X60772380Y-140429523D02*
X59772380Y-140096190D01*
X60772380Y-139762857D01*
X60200952Y-139286666D02*
X60153333Y-139381904D01*
X60105714Y-139429523D01*
X60010476Y-139477142D01*
X59962857Y-139477142D01*
X59867619Y-139429523D01*
X59820000Y-139381904D01*
X59772380Y-139286666D01*
X59772380Y-139096190D01*
X59820000Y-139000952D01*
X59867619Y-138953333D01*
X59962857Y-138905714D01*
X60010476Y-138905714D01*
X60105714Y-138953333D01*
X60153333Y-139000952D01*
X60200952Y-139096190D01*
X60200952Y-139286666D01*
X60248571Y-139381904D01*
X60296190Y-139429523D01*
X60391428Y-139477142D01*
X60581904Y-139477142D01*
X60677142Y-139429523D01*
X60724761Y-139381904D01*
X60772380Y-139286666D01*
X60772380Y-139096190D01*
X60724761Y-139000952D01*
X60677142Y-138953333D01*
X60581904Y-138905714D01*
X60391428Y-138905714D01*
X60296190Y-138953333D01*
X60248571Y-139000952D01*
X60200952Y-139096190D01*
X58184761Y-141810476D02*
X58232380Y-141667619D01*
X58232380Y-141429523D01*
X58184761Y-141334285D01*
X58137142Y-141286666D01*
X58041904Y-141239047D01*
X57946666Y-141239047D01*
X57851428Y-141286666D01*
X57803809Y-141334285D01*
X57756190Y-141429523D01*
X57708571Y-141620000D01*
X57660952Y-141715238D01*
X57613333Y-141762857D01*
X57518095Y-141810476D01*
X57422857Y-141810476D01*
X57327619Y-141762857D01*
X57280000Y-141715238D01*
X57232380Y-141620000D01*
X57232380Y-141381904D01*
X57280000Y-141239047D01*
X58232380Y-140810476D02*
X57232380Y-140810476D01*
X58232380Y-140239047D01*
X57232380Y-140239047D01*
X58232380Y-139762857D02*
X57232380Y-139762857D01*
X57232380Y-139524761D01*
X57280000Y-139381904D01*
X57375238Y-139286666D01*
X57470476Y-139239047D01*
X57660952Y-139191428D01*
X57803809Y-139191428D01*
X57994285Y-139239047D01*
X58089523Y-139286666D01*
X58184761Y-139381904D01*
X58232380Y-139524761D01*
X58232380Y-139762857D01*
X58327619Y-139000952D02*
X58327619Y-138239047D01*
X58232380Y-137429523D02*
X57756190Y-137762857D01*
X58232380Y-138000952D02*
X57232380Y-138000952D01*
X57232380Y-137620000D01*
X57280000Y-137524761D01*
X57327619Y-137477142D01*
X57422857Y-137429523D01*
X57565714Y-137429523D01*
X57660952Y-137477142D01*
X57708571Y-137524761D01*
X57756190Y-137620000D01*
X57756190Y-138000952D01*
X54325000Y-142786666D02*
X54325000Y-141739047D01*
X55692380Y-142548571D02*
X54692380Y-142548571D01*
X55168571Y-142548571D02*
X55168571Y-141977142D01*
X55692380Y-141977142D02*
X54692380Y-141977142D01*
X54325000Y-141739047D02*
X54325000Y-140977142D01*
X55787619Y-141739047D02*
X55787619Y-140977142D01*
X54325000Y-140977142D02*
X54325000Y-139977142D01*
X55692380Y-140167619D02*
X55216190Y-140500952D01*
X55692380Y-140739047D02*
X54692380Y-140739047D01*
X54692380Y-140358095D01*
X54740000Y-140262857D01*
X54787619Y-140215238D01*
X54882857Y-140167619D01*
X55025714Y-140167619D01*
X55120952Y-140215238D01*
X55168571Y-140262857D01*
X55216190Y-140358095D01*
X55216190Y-140739047D01*
X54325000Y-139977142D02*
X54325000Y-139072380D01*
X55168571Y-139739047D02*
X55168571Y-139405714D01*
X55692380Y-139262857D02*
X55692380Y-139739047D01*
X54692380Y-139739047D01*
X54692380Y-139262857D01*
X54325000Y-139072380D02*
X54325000Y-138120000D01*
X55644761Y-138881904D02*
X55692380Y-138739047D01*
X55692380Y-138500952D01*
X55644761Y-138405714D01*
X55597142Y-138358095D01*
X55501904Y-138310476D01*
X55406666Y-138310476D01*
X55311428Y-138358095D01*
X55263809Y-138405714D01*
X55216190Y-138500952D01*
X55168571Y-138691428D01*
X55120952Y-138786666D01*
X55073333Y-138834285D01*
X54978095Y-138881904D01*
X54882857Y-138881904D01*
X54787619Y-138834285D01*
X54740000Y-138786666D01*
X54692380Y-138691428D01*
X54692380Y-138453333D01*
X54740000Y-138310476D01*
X54325000Y-138120000D02*
X54325000Y-137215238D01*
X55168571Y-137881904D02*
X55168571Y-137548571D01*
X55692380Y-137405714D02*
X55692380Y-137881904D01*
X54692380Y-137881904D01*
X54692380Y-137405714D01*
X54325000Y-137215238D02*
X54325000Y-136453333D01*
X54692380Y-137120000D02*
X54692380Y-136548571D01*
X55692380Y-136834285D02*
X54692380Y-136834285D01*
X53104761Y-141715238D02*
X53152380Y-141572380D01*
X53152380Y-141334285D01*
X53104761Y-141239047D01*
X53057142Y-141191428D01*
X52961904Y-141143809D01*
X52866666Y-141143809D01*
X52771428Y-141191428D01*
X52723809Y-141239047D01*
X52676190Y-141334285D01*
X52628571Y-141524761D01*
X52580952Y-141620000D01*
X52533333Y-141667619D01*
X52438095Y-141715238D01*
X52342857Y-141715238D01*
X52247619Y-141667619D01*
X52200000Y-141620000D01*
X52152380Y-141524761D01*
X52152380Y-141286666D01*
X52200000Y-141143809D01*
X53152380Y-140715238D02*
X52152380Y-140715238D01*
X53152380Y-140143809D01*
X52152380Y-140143809D01*
X53152380Y-139667619D02*
X52152380Y-139667619D01*
X52152380Y-139429523D01*
X52200000Y-139286666D01*
X52295238Y-139191428D01*
X52390476Y-139143809D01*
X52580952Y-139096190D01*
X52723809Y-139096190D01*
X52914285Y-139143809D01*
X53009523Y-139191428D01*
X53104761Y-139286666D01*
X53152380Y-139429523D01*
X53152380Y-139667619D01*
X53247619Y-138905714D02*
X53247619Y-138143809D01*
X53152380Y-137429523D02*
X53152380Y-137905714D01*
X52152380Y-137905714D01*
G04 #@! TD*
M02*
