M48
;DRILL file {KiCad (5.0.0)} date 09/11/18 16:23:42
;FORMAT={3:3/ absolute / metric / suppress leading zeros}
FMAT,2
METRIC,TZ
T1C0.400
T2C1.000
T3C1.016
T4C3.200
%
G90
G05
M71
T1
X133634Y-129079
X133686Y-135912
T2
X52700Y-129460
X52700Y-134540
X55240Y-129460
X55240Y-134540
X57780Y-129460
X57780Y-134540
X60320Y-129460
X60320Y-134540
X62860Y-129460
X62860Y-134540
X65400Y-129460
X65400Y-134540
X67940Y-129460
X67940Y-134540
X70480Y-129460
X70480Y-134540
X73020Y-129460
X73020Y-134540
X75560Y-129460
X75560Y-134540
X78100Y-129460
X78100Y-134540
X80640Y-129460
X80640Y-134540
X83180Y-129460
X83180Y-134540
X85720Y-129460
X85720Y-134540
X88260Y-129460
X88260Y-134540
X90800Y-129460
X90800Y-134540
X93340Y-129460
X93340Y-134540
X95880Y-129460
X95880Y-134540
X98420Y-129460
X98420Y-134540
X100960Y-129460
X100960Y-134540
X103500Y-129460
X103500Y-134540
X106040Y-129460
X106040Y-134540
X108580Y-129460
X108580Y-134540
X111120Y-129460
X111120Y-134540
X113660Y-129460
X113660Y-134540
X116200Y-129460
X116200Y-134540
X118740Y-129460
X118740Y-134540
X121280Y-129460
X121280Y-134540
X123820Y-129460
X123820Y-134540
X126360Y-129460
X126360Y-134540
X128900Y-129460
X128900Y-134540
X131440Y-129460
X131440Y-134540
T3
X66526Y-104740
X69066Y-104740
X71606Y-104740
X74146Y-104740
X75670Y-153000
X76686Y-104740
X78210Y-153000
X79226Y-104740
X80750Y-153000
X81766Y-104740
X83290Y-153000
X84306Y-104740
X85830Y-153000
X86846Y-104740
X88370Y-153000
X89386Y-104740
X90910Y-153000
X93450Y-104740
X93450Y-153000
X95990Y-104740
X98530Y-104740
X98530Y-153000
X101070Y-104740
X101070Y-153000
X103610Y-104740
X103610Y-153000
X106150Y-104740
X106150Y-153000
X108690Y-104740
X108690Y-153000
X111230Y-104740
X111230Y-153000
X113770Y-153000
X116310Y-104740
X116310Y-153000
X118850Y-104740
X121390Y-104740
X121390Y-153000
X123930Y-104740
X123930Y-153000
X126470Y-104740
X126470Y-153000
X129010Y-104740
X129010Y-153000
X131550Y-104740
X131550Y-153000
X134090Y-104740
X134090Y-153000
X136630Y-153000
X139170Y-153000
X141710Y-104740
X141710Y-107280
X141710Y-109820
X141710Y-112360
X141710Y-114900
X141710Y-117440
X141710Y-119980
X141710Y-122520
X141710Y-125060
X141710Y-127600
X141710Y-130140
X141710Y-132680
X141710Y-135220
X141710Y-137760
X141710Y-140300
X141710Y-142840
X141710Y-145380
X141710Y-147920
X144250Y-104740
X144250Y-107280
X144250Y-109820
X144250Y-112360
X144250Y-114900
X144250Y-117440
X144250Y-119980
X144250Y-122520
X144250Y-125060
X144250Y-127600
X144250Y-130140
X144250Y-132680
X144250Y-135220
X144250Y-137760
X144250Y-140300
X144250Y-142840
X144250Y-145380
X144250Y-147920
T4
X61700Y-153000
X62970Y-104740
X113770Y-119980
X113770Y-147920
X137900Y-104740
X144250Y-153000
T0
M30
