G04 #@! TF.GenerationSoftware,KiCad,Pcbnew,(5.0.0)*
G04 #@! TF.CreationDate,2018-09-11T16:23:21+02:00*
G04 #@! TF.ProjectId,romprg_megadrive_cart,726F6D7072675F6D6567616472697665,1*
G04 #@! TF.SameCoordinates,Original*
G04 #@! TF.FileFunction,Copper,L2,Bot,Signal*
G04 #@! TF.FilePolarity,Positive*
%FSLAX46Y46*%
G04 Gerber Fmt 4.6, Leading zero omitted, Abs format (unit mm)*
G04 Created by KiCad (PCBNEW (5.0.0)) date 09/11/18 16:23:21*
%MOMM*%
%LPD*%
G01*
G04 APERTURE LIST*
G04 #@! TA.AperFunction,ComponentPad*
%ADD10O,1.727200X1.727200*%
G04 #@! TD*
G04 #@! TA.AperFunction,ComponentPad*
%ADD11O,1.700000X1.700000*%
G04 #@! TD*
G04 #@! TA.AperFunction,ComponentPad*
%ADD12R,1.700000X1.700000*%
G04 #@! TD*
G04 #@! TA.AperFunction,ViaPad*
%ADD13C,0.800000*%
G04 #@! TD*
G04 #@! TA.AperFunction,Conductor*
%ADD14C,0.250000*%
G04 #@! TD*
G04 #@! TA.AperFunction,Conductor*
%ADD15C,0.254000*%
G04 #@! TD*
G04 APERTURE END LIST*
D10*
G04 #@! TO.P,XA1,A0*
G04 #@! TO.N,Net-(XA1-PadA0)*
X98530000Y-153000000D03*
G04 #@! TO.P,XA1,VIN*
G04 #@! TO.N,Net-(XA1-PadVIN)*
X93450000Y-153000000D03*
G04 #@! TO.P,XA1,GND3*
G04 #@! TO.N,GND*
X90910000Y-153000000D03*
G04 #@! TO.P,XA1,GND2*
X88370000Y-153000000D03*
G04 #@! TO.P,XA1,5V1*
G04 #@! TO.N,+5V*
X85830000Y-153000000D03*
G04 #@! TO.P,XA1,3V3*
G04 #@! TO.N,Net-(XA1-Pad3V3)*
X83290000Y-153000000D03*
G04 #@! TO.P,XA1,RST1*
G04 #@! TO.N,Net-(XA1-PadRST1)*
X80750000Y-153000000D03*
G04 #@! TO.P,XA1,IORF*
G04 #@! TO.N,Net-(XA1-PadIORF)*
X78210000Y-153000000D03*
G04 #@! TO.P,XA1,D21*
G04 #@! TO.N,Net-(XA1-PadD21)*
X134090000Y-104740000D03*
G04 #@! TO.P,XA1,D20*
G04 #@! TO.N,Net-(XA1-PadD20)*
X131550000Y-104740000D03*
G04 #@! TO.P,XA1,D19*
G04 #@! TO.N,Net-(XA1-PadD19)*
X129010000Y-104740000D03*
G04 #@! TO.P,XA1,D18*
G04 #@! TO.N,Net-(XA1-PadD18)*
X126470000Y-104740000D03*
G04 #@! TO.P,XA1,D17*
G04 #@! TO.N,Net-(XA1-PadD17)*
X123930000Y-104740000D03*
G04 #@! TO.P,XA1,D16*
G04 #@! TO.N,Net-(XA1-PadD16)*
X121390000Y-104740000D03*
G04 #@! TO.P,XA1,D15*
G04 #@! TO.N,Net-(XA1-PadD15)*
X118850000Y-104740000D03*
G04 #@! TO.P,XA1,D14*
G04 #@! TO.N,Net-(XA1-PadD14)*
X116310000Y-104740000D03*
G04 #@! TO.P,XA1,D0*
G04 #@! TO.N,Net-(XA1-PadD0)*
X111230000Y-104740000D03*
G04 #@! TO.P,XA1,D1*
G04 #@! TO.N,Net-(XA1-PadD1)*
X108690000Y-104740000D03*
G04 #@! TO.P,XA1,D2*
G04 #@! TO.N,Net-(XA1-PadD2)*
X106150000Y-104740000D03*
G04 #@! TO.P,XA1,D3*
G04 #@! TO.N,Net-(XA1-PadD3)*
X103610000Y-104740000D03*
G04 #@! TO.P,XA1,D4*
G04 #@! TO.N,Net-(XA1-PadD4)*
X101070000Y-104740000D03*
G04 #@! TO.P,XA1,D5*
G04 #@! TO.N,Net-(XA1-PadD5)*
X98530000Y-104740000D03*
G04 #@! TO.P,XA1,D6*
G04 #@! TO.N,Net-(XA1-PadD6)*
X95990000Y-104740000D03*
G04 #@! TO.P,XA1,D7*
G04 #@! TO.N,Net-(XA1-PadD7)*
X93450000Y-104740000D03*
G04 #@! TO.P,XA1,GND1*
G04 #@! TO.N,GND*
X74146000Y-104740000D03*
G04 #@! TO.P,XA1,D8*
G04 #@! TO.N,Net-(XA1-PadD8)*
X89386000Y-104740000D03*
G04 #@! TO.P,XA1,D9*
G04 #@! TO.N,Net-(XA1-PadD9)*
X86846000Y-104740000D03*
G04 #@! TO.P,XA1,D10*
G04 #@! TO.N,PB4*
X84306000Y-104740000D03*
G04 #@! TO.P,XA1,SCL*
G04 #@! TO.N,Net-(XA1-PadSCL)*
X66526000Y-104740000D03*
G04 #@! TO.P,XA1,SDA*
G04 #@! TO.N,Net-(XA1-PadSDA)*
X69066000Y-104740000D03*
G04 #@! TO.P,XA1,AREF*
G04 #@! TO.N,Net-(XA1-PadAREF)*
X71606000Y-104740000D03*
G04 #@! TO.P,XA1,D13*
G04 #@! TO.N,Net-(XA1-PadD13)*
X76686000Y-104740000D03*
G04 #@! TO.P,XA1,D12*
G04 #@! TO.N,PB6*
X79226000Y-104740000D03*
G04 #@! TO.P,XA1,D11*
G04 #@! TO.N,PB5*
X81766000Y-104740000D03*
G04 #@! TO.P,XA1,*
G04 #@! TO.N,*
X75670000Y-153000000D03*
G04 #@! TO.P,XA1,A1*
G04 #@! TO.N,Net-(XA1-PadA1)*
X101070000Y-153000000D03*
G04 #@! TO.P,XA1,A2*
G04 #@! TO.N,Net-(XA1-PadA2)*
X103610000Y-153000000D03*
G04 #@! TO.P,XA1,A3*
G04 #@! TO.N,Net-(XA1-PadA3)*
X106150000Y-153000000D03*
G04 #@! TO.P,XA1,A4*
G04 #@! TO.N,Net-(XA1-PadA4)*
X108690000Y-153000000D03*
G04 #@! TO.P,XA1,A5*
G04 #@! TO.N,Net-(XA1-PadA5)*
X111230000Y-153000000D03*
G04 #@! TO.P,XA1,A6*
G04 #@! TO.N,Net-(XA1-PadA6)*
X113770000Y-153000000D03*
G04 #@! TO.P,XA1,A7*
G04 #@! TO.N,Net-(XA1-PadA7)*
X116310000Y-153000000D03*
G04 #@! TO.P,XA1,A8*
G04 #@! TO.N,PK0*
X121390000Y-153000000D03*
G04 #@! TO.P,XA1,A9*
G04 #@! TO.N,PK1*
X123930000Y-153000000D03*
G04 #@! TO.P,XA1,A10*
G04 #@! TO.N,PK2*
X126470000Y-153000000D03*
G04 #@! TO.P,XA1,A11*
G04 #@! TO.N,PK3*
X129010000Y-153000000D03*
G04 #@! TO.P,XA1,A12*
G04 #@! TO.N,PK4*
X131550000Y-153000000D03*
G04 #@! TO.P,XA1,A13*
G04 #@! TO.N,PK5*
X134090000Y-153000000D03*
G04 #@! TO.P,XA1,A14*
G04 #@! TO.N,PK6*
X136630000Y-153000000D03*
G04 #@! TO.P,XA1,A15*
G04 #@! TO.N,PK7*
X139170000Y-153000000D03*
G04 #@! TO.P,XA1,5V3*
G04 #@! TO.N,+5V*
X141710000Y-104740000D03*
G04 #@! TO.P,XA1,5V4*
X144250000Y-104740000D03*
G04 #@! TO.P,XA1,D22*
G04 #@! TO.N,PA0*
X141710000Y-107280000D03*
G04 #@! TO.P,XA1,D23*
G04 #@! TO.N,PA1*
X144250000Y-107280000D03*
G04 #@! TO.P,XA1,D24*
G04 #@! TO.N,PA2*
X141710000Y-109820000D03*
G04 #@! TO.P,XA1,D25*
G04 #@! TO.N,PA3*
X144250000Y-109820000D03*
G04 #@! TO.P,XA1,D26*
G04 #@! TO.N,PA4*
X141710000Y-112360000D03*
G04 #@! TO.P,XA1,D27*
G04 #@! TO.N,PA5*
X144250000Y-112360000D03*
G04 #@! TO.P,XA1,D28*
G04 #@! TO.N,PA6*
X141710000Y-114900000D03*
G04 #@! TO.P,XA1,D29*
G04 #@! TO.N,PA7*
X144250000Y-114900000D03*
G04 #@! TO.P,XA1,D30*
G04 #@! TO.N,PC7*
X141710000Y-117440000D03*
G04 #@! TO.P,XA1,D31*
G04 #@! TO.N,PC6*
X144250000Y-117440000D03*
G04 #@! TO.P,XA1,D32*
G04 #@! TO.N,PC5*
X141710000Y-119980000D03*
G04 #@! TO.P,XA1,D33*
G04 #@! TO.N,PC4*
X144250000Y-119980000D03*
G04 #@! TO.P,XA1,D34*
G04 #@! TO.N,PC3*
X141710000Y-122520000D03*
G04 #@! TO.P,XA1,D35*
G04 #@! TO.N,PC2*
X144250000Y-122520000D03*
G04 #@! TO.P,XA1,D36*
G04 #@! TO.N,PC1*
X141710000Y-125060000D03*
G04 #@! TO.P,XA1,D37*
G04 #@! TO.N,PC0*
X144250000Y-125060000D03*
G04 #@! TO.P,XA1,D38*
G04 #@! TO.N,Net-(XA1-PadD38)*
X141710000Y-127600000D03*
G04 #@! TO.P,XA1,D39*
G04 #@! TO.N,PG2*
X144250000Y-127600000D03*
G04 #@! TO.P,XA1,D40*
G04 #@! TO.N,PG1*
X141710000Y-130140000D03*
G04 #@! TO.P,XA1,D41*
G04 #@! TO.N,PG0*
X144250000Y-130140000D03*
G04 #@! TO.P,XA1,D42*
G04 #@! TO.N,PL7*
X141710000Y-132680000D03*
G04 #@! TO.P,XA1,D43*
G04 #@! TO.N,PL6*
X144250000Y-132680000D03*
G04 #@! TO.P,XA1,D44*
G04 #@! TO.N,PL5*
X141710000Y-135220000D03*
G04 #@! TO.P,XA1,D45*
G04 #@! TO.N,PL4*
X144250000Y-135220000D03*
G04 #@! TO.P,XA1,D46*
G04 #@! TO.N,PL3*
X141710000Y-137760000D03*
G04 #@! TO.P,XA1,D47*
G04 #@! TO.N,PL2*
X144250000Y-137760000D03*
G04 #@! TO.P,XA1,D48*
G04 #@! TO.N,PL1*
X141710000Y-140300000D03*
G04 #@! TO.P,XA1,D49*
G04 #@! TO.N,PL0*
X144250000Y-140300000D03*
G04 #@! TO.P,XA1,D50*
G04 #@! TO.N,PB3*
X141710000Y-142840000D03*
G04 #@! TO.P,XA1,D51*
G04 #@! TO.N,PB2*
X144250000Y-142840000D03*
G04 #@! TO.P,XA1,D52*
G04 #@! TO.N,PB1*
X141710000Y-145380000D03*
G04 #@! TO.P,XA1,D53*
G04 #@! TO.N,PB0*
X144250000Y-145380000D03*
G04 #@! TO.P,XA1,GND5*
G04 #@! TO.N,GND*
X141710000Y-147920000D03*
G04 #@! TO.P,XA1,GND6*
X144250000Y-147920000D03*
G04 #@! TD*
D11*
G04 #@! TO.P,CON1,B32*
G04 #@! TO.N,Net-(CON1-PadB32)*
X131440000Y-134540000D03*
G04 #@! TO.P,CON1,A32*
G04 #@! TO.N,GND*
X131440000Y-129460000D03*
G04 #@! TO.P,CON1,B31*
G04 #@! TO.N,Net-(CON1-PadB31)*
X128900000Y-134540000D03*
G04 #@! TO.P,CON1,A31*
G04 #@! TO.N,+5V*
X128900000Y-129460000D03*
G04 #@! TO.P,CON1,B30*
G04 #@! TO.N,Net-(CON1-PadB30)*
X126360000Y-134540000D03*
G04 #@! TO.P,CON1,A30*
G04 #@! TO.N,PC3*
X126360000Y-129460000D03*
G04 #@! TO.P,CON1,B29*
G04 #@! TO.N,Net-(CON1-PadB29)*
X123820000Y-134540000D03*
G04 #@! TO.P,CON1,A29*
G04 #@! TO.N,PA3*
X123820000Y-129460000D03*
G04 #@! TO.P,CON1,B28*
G04 #@! TO.N,Net-(CON1-PadB28)*
X121280000Y-134540000D03*
G04 #@! TO.P,CON1,A28*
G04 #@! TO.N,PA4*
X121280000Y-129460000D03*
G04 #@! TO.P,CON1,B27*
G04 #@! TO.N,Net-(CON1-PadB27)*
X118740000Y-134540000D03*
G04 #@! TO.P,CON1,A27*
G04 #@! TO.N,PC2*
X118740000Y-129460000D03*
G04 #@! TO.P,CON1,B26*
G04 #@! TO.N,Net-(CON1-PadB26)*
X116200000Y-134540000D03*
G04 #@! TO.P,CON1,A26*
G04 #@! TO.N,PA2*
X116200000Y-129460000D03*
G04 #@! TO.P,CON1,B25*
G04 #@! TO.N,PC4*
X113660000Y-134540000D03*
G04 #@! TO.P,CON1,A25*
G04 #@! TO.N,PA5*
X113660000Y-129460000D03*
G04 #@! TO.P,CON1,B24*
G04 #@! TO.N,PC5*
X111120000Y-134540000D03*
G04 #@! TO.P,CON1,A24*
G04 #@! TO.N,PC1*
X111120000Y-129460000D03*
G04 #@! TO.P,CON1,B23*
G04 #@! TO.N,PC6*
X108580000Y-134540000D03*
G04 #@! TO.P,CON1,A23*
G04 #@! TO.N,PA1*
X108580000Y-129460000D03*
G04 #@! TO.P,CON1,B22*
G04 #@! TO.N,PC7*
X106040000Y-134540000D03*
G04 #@! TO.P,CON1,A22*
G04 #@! TO.N,PA6*
X106040000Y-129460000D03*
G04 #@! TO.P,CON1,B21*
G04 #@! TO.N,Net-(CON1-PadB21)*
X103500000Y-134540000D03*
G04 #@! TO.P,CON1,A21*
G04 #@! TO.N,PC0*
X103500000Y-129460000D03*
G04 #@! TO.P,CON1,B20*
G04 #@! TO.N,Net-(CON1-PadB20)*
X100960000Y-134540000D03*
G04 #@! TO.P,CON1,A20*
G04 #@! TO.N,PA0*
X100960000Y-129460000D03*
G04 #@! TO.P,CON1,B19*
G04 #@! TO.N,Net-(CON1-PadB19)*
X98420000Y-134540000D03*
G04 #@! TO.P,CON1,A19*
G04 #@! TO.N,PA7*
X98420000Y-129460000D03*
G04 #@! TO.P,CON1,B18*
G04 #@! TO.N,PG2*
X95880000Y-134540000D03*
G04 #@! TO.P,CON1,A18*
G04 #@! TO.N,GND*
X95880000Y-129460000D03*
G04 #@! TO.P,CON1,B17*
G04 #@! TO.N,PG0*
X93340000Y-134540000D03*
G04 #@! TO.P,CON1,A17*
G04 #@! TO.N,PL0*
X93340000Y-129460000D03*
G04 #@! TO.P,CON1,B16*
G04 #@! TO.N,PG1*
X90800000Y-134540000D03*
G04 #@! TO.P,CON1,A16*
G04 #@! TO.N,PB0*
X90800000Y-129460000D03*
G04 #@! TO.P,CON1,B15*
G04 #@! TO.N,Net-(CON1-PadB15)*
X88260000Y-134540000D03*
G04 #@! TO.P,CON1,A15*
G04 #@! TO.N,PL1*
X88260000Y-129460000D03*
G04 #@! TO.P,CON1,B14*
G04 #@! TO.N,Net-(CON1-PadB14)*
X85720000Y-134540000D03*
G04 #@! TO.P,CON1,A14*
G04 #@! TO.N,PK7*
X85720000Y-129460000D03*
G04 #@! TO.P,CON1,B13*
G04 #@! TO.N,Net-(CON1-PadB13)*
X83180000Y-134540000D03*
G04 #@! TO.P,CON1,A13*
G04 #@! TO.N,PL2*
X83180000Y-129460000D03*
G04 #@! TO.P,CON1,B12*
G04 #@! TO.N,Net-(CON1-PadB12)*
X80640000Y-134540000D03*
G04 #@! TO.P,CON1,A12*
G04 #@! TO.N,PK6*
X80640000Y-129460000D03*
G04 #@! TO.P,CON1,B11*
G04 #@! TO.N,PB6*
X78100000Y-134540000D03*
G04 #@! TO.P,CON1,A11*
G04 #@! TO.N,PL3*
X78100000Y-129460000D03*
G04 #@! TO.P,CON1,B10*
G04 #@! TO.N,PB5*
X75560000Y-134540000D03*
G04 #@! TO.P,CON1,A10*
G04 #@! TO.N,PK5*
X75560000Y-129460000D03*
G04 #@! TO.P,CON1,B09*
G04 #@! TO.N,PB4*
X73020000Y-134540000D03*
G04 #@! TO.P,CON1,A09*
G04 #@! TO.N,PL4*
X73020000Y-129460000D03*
G04 #@! TO.P,CON1,B08*
G04 #@! TO.N,PB3*
X70480000Y-134540000D03*
G04 #@! TO.P,CON1,A08*
G04 #@! TO.N,PK4*
X70480000Y-129460000D03*
G04 #@! TO.P,CON1,B07*
G04 #@! TO.N,PB2*
X67940000Y-134540000D03*
G04 #@! TO.P,CON1,A07*
G04 #@! TO.N,PL5*
X67940000Y-129460000D03*
G04 #@! TO.P,CON1,B06*
G04 #@! TO.N,PB1*
X65400000Y-134540000D03*
G04 #@! TO.P,CON1,A06*
G04 #@! TO.N,PK3*
X65400000Y-129460000D03*
G04 #@! TO.P,CON1,B05*
G04 #@! TO.N,PK1*
X62860000Y-134540000D03*
G04 #@! TO.P,CON1,A05*
G04 #@! TO.N,PL6*
X62860000Y-129460000D03*
G04 #@! TO.P,CON1,B04*
G04 #@! TO.N,PK0*
X60320000Y-134540000D03*
G04 #@! TO.P,CON1,A04*
G04 #@! TO.N,PK2*
X60320000Y-129460000D03*
G04 #@! TO.P,CON1,B03*
G04 #@! TO.N,Net-(CON1-PadB03)*
X57780000Y-134540000D03*
G04 #@! TO.P,CON1,A03*
G04 #@! TO.N,PL7*
X57780000Y-129460000D03*
G04 #@! TO.P,CON1,B02*
G04 #@! TO.N,Net-(CON1-PadB02)*
X55240000Y-134540000D03*
G04 #@! TO.P,CON1,A02*
G04 #@! TO.N,+5V*
X55240000Y-129460000D03*
G04 #@! TO.P,CON1,B01*
G04 #@! TO.N,Net-(CON1-PadB01)*
X52700000Y-134540000D03*
D12*
G04 #@! TO.P,CON1,A01*
G04 #@! TO.N,GND*
X52700000Y-129460000D03*
G04 #@! TD*
D13*
G04 #@! TO.N,PG0*
X133686000Y-135911700D03*
G04 #@! TO.N,PC1*
X133633700Y-129079000D03*
G04 #@! TD*
D14*
G04 #@! TO.N,+5V*
X141710000Y-105928900D02*
X141338500Y-105928900D01*
X141338500Y-105928900D02*
X128900000Y-118367400D01*
X128900000Y-118367400D02*
X128900000Y-128284700D01*
X128900000Y-129460000D02*
X128900000Y-128284700D01*
X141710000Y-104740000D02*
X141710000Y-105928900D01*
X76930000Y-144100000D02*
X85830000Y-153000000D01*
X76930000Y-139330000D02*
X76930000Y-144100000D01*
X58880000Y-133100000D02*
X63179400Y-133100000D01*
X55240000Y-129460000D02*
X58880000Y-133100000D01*
X69895034Y-137065034D02*
X74665034Y-137065034D01*
X63179400Y-133100000D02*
X64130000Y-134050600D01*
X74665034Y-137065034D02*
X76930000Y-139330000D01*
X68932500Y-136102500D02*
X69895034Y-137065034D01*
X64130000Y-134050600D02*
X64130000Y-135030000D01*
X64130000Y-135030000D02*
X65202500Y-136102500D01*
X65202500Y-136102500D02*
X68932500Y-136102500D01*
G04 #@! TO.N,PK2*
X62860000Y-132000000D02*
X60320000Y-129460000D01*
X67158900Y-132000000D02*
X62860000Y-132000000D01*
X69210000Y-134051100D02*
X67158900Y-132000000D01*
X69210000Y-135519233D02*
X69210000Y-134051100D01*
X70305790Y-136615023D02*
X69210000Y-135519233D01*
X126470000Y-153000000D02*
X125270044Y-151800044D01*
X85490811Y-151800044D02*
X77490767Y-143800000D01*
X77490767Y-143800000D02*
X77490767Y-138890767D01*
X77490767Y-138890767D02*
X75215023Y-136615023D01*
X125270044Y-151800044D02*
X85490811Y-151800044D01*
X75215023Y-136615023D02*
X70305790Y-136615023D01*
G04 #@! TO.N,PK3*
X71750000Y-134147300D02*
X68238000Y-130635300D01*
X68238000Y-130635300D02*
X66575300Y-130635300D01*
X66575300Y-130635300D02*
X66249999Y-130309999D01*
X129010000Y-153000000D02*
X127360033Y-151350033D01*
X66249999Y-130309999D02*
X65400000Y-129460000D01*
X127360033Y-151350033D02*
X85677211Y-151350033D01*
X78027178Y-143700000D02*
X78027178Y-138227178D01*
X85677211Y-151350033D02*
X78027178Y-143700000D01*
X72615012Y-136165012D02*
X71750000Y-135300000D01*
X75965012Y-136165012D02*
X72615012Y-136165012D01*
X78027178Y-138227178D02*
X75965012Y-136165012D01*
X71750000Y-135300000D02*
X71750000Y-134147300D01*
G04 #@! TO.N,PK4*
X78663589Y-143700000D02*
X78663589Y-138227178D01*
X71329999Y-130309999D02*
X70480000Y-129460000D01*
X131550000Y-153000000D02*
X129450022Y-150900022D01*
X129450022Y-150900022D02*
X85863611Y-150900022D01*
X74290000Y-135200000D02*
X74290000Y-133270000D01*
X74290000Y-133270000D02*
X71329999Y-130309999D01*
X74805001Y-135715001D02*
X74290000Y-135200000D01*
X76151412Y-135715001D02*
X74805001Y-135715001D01*
X78663589Y-138227178D02*
X76151412Y-135715001D01*
X85863611Y-150900022D02*
X78663589Y-143700000D01*
G04 #@! TO.N,PB4*
X69267600Y-130787600D02*
X73020000Y-134540000D01*
X69267600Y-128732400D02*
X69267600Y-130787600D01*
X73681500Y-124318500D02*
X69267600Y-128732400D01*
X80496000Y-106185500D02*
X73681500Y-113000000D01*
X83117100Y-104740000D02*
X83117100Y-104368500D01*
X84306000Y-104740000D02*
X83117100Y-104740000D01*
X73681500Y-113000000D02*
X73681500Y-124318500D01*
X83117100Y-104368500D02*
X82297600Y-103549000D01*
X82297600Y-103549000D02*
X81265700Y-103549000D01*
X81265700Y-103549000D02*
X80496000Y-104318700D01*
X80496000Y-104318700D02*
X80496000Y-106185500D01*
G04 #@! TO.N,PK5*
X79275001Y-133175001D02*
X75560000Y-129460000D01*
X79275001Y-143675001D02*
X79275001Y-133175001D01*
X86050011Y-150450011D02*
X79275001Y-143675001D01*
X134090000Y-153000000D02*
X131540011Y-150450011D01*
X131540011Y-150450011D02*
X86050011Y-150450011D01*
G04 #@! TO.N,PB5*
X81766000Y-105928900D02*
X81766000Y-104740000D01*
X75560000Y-134540000D02*
X75560000Y-133739002D01*
X75560000Y-133739002D02*
X71844999Y-130024001D01*
X71844999Y-130024001D02*
X71844999Y-128255001D01*
X71844999Y-128255001D02*
X74384700Y-125715300D01*
X74384700Y-125715300D02*
X74384700Y-113310200D01*
X74384700Y-113310200D02*
X81766000Y-105928900D01*
G04 #@! TO.N,PL3*
X104864600Y-135057000D02*
X107567600Y-137760000D01*
X104864600Y-134149100D02*
X104864600Y-135057000D01*
X79740000Y-127820000D02*
X98485100Y-127820000D01*
X103900000Y-133184500D02*
X104864600Y-134149100D01*
X78100000Y-129460000D02*
X79740000Y-127820000D01*
X107567600Y-137760000D02*
X141710000Y-137760000D01*
X98485100Y-127820000D02*
X99690000Y-129024900D01*
X99690000Y-129024900D02*
X99690000Y-130690000D01*
X99690000Y-130690000D02*
X102184500Y-133184500D01*
X102184500Y-133184500D02*
X103900000Y-133184500D01*
G04 #@! TO.N,PB6*
X74384999Y-130824999D02*
X78100000Y-134540000D01*
X74384999Y-127015001D02*
X74384999Y-130824999D01*
X75000000Y-126400000D02*
X74384999Y-127015001D01*
X75000000Y-113800000D02*
X75000000Y-126400000D01*
X82600000Y-106200000D02*
X75000000Y-113800000D01*
X79226000Y-104740000D02*
X80919200Y-103046800D01*
X80919200Y-103046800D02*
X84346900Y-103046800D01*
X84346900Y-103046800D02*
X85499200Y-104199100D01*
X85499200Y-104199100D02*
X85499200Y-105500800D01*
X85499200Y-105500800D02*
X84800000Y-106200000D01*
X84800000Y-106200000D02*
X82600000Y-106200000D01*
G04 #@! TO.N,PK6*
X133630000Y-150000000D02*
X136630000Y-153000000D01*
X80640000Y-129460000D02*
X81815300Y-130635300D01*
X81815300Y-130635300D02*
X86107800Y-130635300D01*
X86107800Y-130635300D02*
X89530000Y-134057500D01*
X89530000Y-134057500D02*
X89530000Y-134948300D01*
X89530000Y-134948300D02*
X104581700Y-150000000D01*
X104581700Y-150000000D02*
X133630000Y-150000000D01*
G04 #@! TO.N,PK7*
X86895300Y-129460000D02*
X85720000Y-129460000D01*
X86895300Y-129827400D02*
X86895300Y-129460000D01*
X87703200Y-130635300D02*
X86895300Y-129827400D01*
X139170000Y-153000000D02*
X131215500Y-145045500D01*
X131215500Y-145045500D02*
X102180100Y-145045500D01*
X102180100Y-145045500D02*
X92070000Y-134935400D01*
X92070000Y-134145300D02*
X88560000Y-130635300D01*
X92070000Y-134935400D02*
X92070000Y-134145300D01*
X88560000Y-130635300D02*
X87703200Y-130635300D01*
G04 #@! TO.N,PL1*
X89435300Y-128284700D02*
X88260000Y-129460000D01*
X96374300Y-128284700D02*
X89435300Y-128284700D01*
X97244600Y-129155000D02*
X96374300Y-128284700D01*
X100254400Y-133035200D02*
X97244600Y-130025400D01*
X101200000Y-133035200D02*
X100254400Y-133035200D01*
X140200000Y-140300000D02*
X139336401Y-139436401D01*
X141710000Y-140300000D02*
X140200000Y-140300000D01*
X97244600Y-130025400D02*
X97244600Y-129155000D01*
X139336401Y-139436401D02*
X106725701Y-139436401D01*
X106725701Y-139436401D02*
X102230000Y-134940700D01*
X102230000Y-134940700D02*
X102230000Y-134065200D01*
X102230000Y-134065200D02*
X101200000Y-133035200D01*
G04 #@! TO.N,PB0*
X143061100Y-145380000D02*
X144250000Y-145380000D01*
X97150000Y-134050500D02*
X97150000Y-134970800D01*
X140000000Y-141700000D02*
X140000000Y-143300000D01*
X92783200Y-130635300D02*
X93734800Y-130635300D01*
X139000000Y-140700000D02*
X140000000Y-141700000D01*
X142197600Y-144144900D02*
X143061100Y-145008400D01*
X91975300Y-129827400D02*
X92783200Y-130635300D01*
X91975300Y-129460000D02*
X91975300Y-129827400D01*
X93734800Y-130635300D02*
X97150000Y-134050500D01*
X106300000Y-140700000D02*
X139000000Y-140700000D01*
X90800000Y-129460000D02*
X91975300Y-129460000D01*
X97150000Y-134970800D02*
X98344212Y-136165012D01*
X98344212Y-136165012D02*
X101765012Y-136165012D01*
X101765012Y-136165012D02*
X106300000Y-140700000D01*
X140000000Y-143300000D02*
X140844900Y-144144900D01*
X140844900Y-144144900D02*
X142197600Y-144144900D01*
X143061100Y-145008400D02*
X143061100Y-145380000D01*
G04 #@! TO.N,PL0*
X106336411Y-140100000D02*
X101951412Y-135715001D01*
X101951412Y-135715001D02*
X100465401Y-135715001D01*
X99690000Y-134939600D02*
X99690000Y-134145300D01*
X139300000Y-140100000D02*
X106336411Y-140100000D01*
X140704700Y-141504700D02*
X139300000Y-140100000D01*
X144250000Y-140300000D02*
X143045300Y-141504700D01*
X100465401Y-135715001D02*
X99690000Y-134939600D01*
X143045300Y-141504700D02*
X140704700Y-141504700D01*
X96935300Y-133055300D02*
X98600000Y-133055300D01*
X93340000Y-129460000D02*
X96935300Y-133055300D01*
X99690000Y-134145300D02*
X98600000Y-133055300D01*
G04 #@! TO.N,PG0*
X133686000Y-135414000D02*
X133686000Y-135911700D01*
X137771100Y-131328900D02*
X133686000Y-135414000D01*
X142243800Y-131328900D02*
X137771100Y-131328900D01*
X143061100Y-130511600D02*
X142243800Y-131328900D01*
X144250000Y-130140000D02*
X143061100Y-130140000D01*
X143061100Y-130140000D02*
X143061100Y-130511600D01*
G04 #@! TO.N,PA6*
X141710000Y-116088900D02*
X141338500Y-116088900D01*
X141338500Y-116088900D02*
X134359100Y-123068300D01*
X134359100Y-123068300D02*
X134359100Y-129518200D01*
X134359100Y-129518200D02*
X131846900Y-132030400D01*
X131846900Y-132030400D02*
X109478300Y-132030400D01*
X109478300Y-132030400D02*
X107215300Y-129767400D01*
X107215300Y-129767400D02*
X107215300Y-129460000D01*
X141710000Y-114900000D02*
X141710000Y-116088900D01*
X106040000Y-129460000D02*
X107215300Y-129460000D01*
G04 #@! TO.N,PC7*
X107215300Y-134172600D02*
X107215300Y-134540000D01*
X108023200Y-133364700D02*
X107215300Y-134172600D01*
X141710000Y-118628900D02*
X141338500Y-118628900D01*
X141710000Y-117440000D02*
X141710000Y-118628900D01*
X141338500Y-118628900D02*
X139400000Y-120567400D01*
X107215300Y-134540000D02*
X106040000Y-134540000D01*
X139400000Y-120567400D02*
X139400000Y-127600000D01*
X139400000Y-127600000D02*
X133635300Y-133364700D01*
X133635300Y-133364700D02*
X108023200Y-133364700D01*
G04 #@! TO.N,PC6*
X108580000Y-134540000D02*
X109755300Y-134540000D01*
X144250000Y-117440000D02*
X144250000Y-118628900D01*
X144250000Y-118628900D02*
X143878400Y-118628900D01*
X143878400Y-118628900D02*
X143061100Y-119446200D01*
X143061100Y-119446200D02*
X143061100Y-120332200D01*
X143061100Y-120332200D02*
X142143300Y-121250000D01*
X142143300Y-121250000D02*
X141210200Y-121250000D01*
X141210200Y-121250000D02*
X140521000Y-121939200D01*
X140521000Y-121939200D02*
X140521000Y-127777800D01*
X140521000Y-127777800D02*
X132117500Y-136181300D01*
X132117500Y-136181300D02*
X111029300Y-136181300D01*
X111029300Y-136181300D02*
X109755300Y-134907300D01*
X109755300Y-134907300D02*
X109755300Y-134540000D01*
G04 #@! TO.N,PC1*
X133633700Y-129079000D02*
X133633700Y-129582600D01*
X133633700Y-129582600D02*
X131636200Y-131580100D01*
X131636200Y-131580100D02*
X114048000Y-131580100D01*
X114048000Y-131580100D02*
X112295300Y-129827400D01*
X112295300Y-129827400D02*
X112295300Y-129460000D01*
X111120000Y-129460000D02*
X112295300Y-129460000D01*
G04 #@! TO.N,PC5*
X140000000Y-121690000D02*
X140000000Y-127661900D01*
X141710000Y-119980000D02*
X140000000Y-121690000D01*
X140000000Y-127661900D02*
X131946600Y-135715300D01*
X131946600Y-135715300D02*
X113103200Y-135715300D01*
X113103200Y-135715300D02*
X112295300Y-134907400D01*
X112295300Y-134540000D02*
X111120000Y-134540000D01*
X112295300Y-134907400D02*
X112295300Y-134540000D01*
G04 #@! TO.N,PA5*
X143061100Y-112360000D02*
X144250000Y-112360000D01*
X143061100Y-112731600D02*
X143061100Y-112360000D01*
X142243800Y-113548900D02*
X143061100Y-112731600D01*
X140521399Y-114329471D02*
X141139471Y-113711399D01*
X140521399Y-115470529D02*
X140521399Y-114329471D01*
X140920930Y-115870060D02*
X140521399Y-115470529D01*
X113660000Y-129460000D02*
X114835300Y-129460000D01*
X114835300Y-129460000D02*
X114835300Y-129827300D01*
X114835300Y-129827300D02*
X116137700Y-131129700D01*
X142243800Y-113711399D02*
X142243800Y-113548900D01*
X116137700Y-131129700D02*
X131441200Y-131129700D01*
X131441200Y-131129700D02*
X132888200Y-129682700D01*
X141139471Y-113711399D02*
X142243800Y-113711399D01*
X133690990Y-127797210D02*
X132888200Y-128600000D01*
X133690990Y-123100000D02*
X133690990Y-127797210D01*
X132888200Y-129682700D02*
X132888200Y-128600000D01*
X133690990Y-123100000D02*
X140920930Y-115870060D01*
G04 #@! TO.N,PC2*
X118740000Y-129460000D02*
X119915300Y-129460000D01*
X144250000Y-122520000D02*
X144250000Y-121331100D01*
X144250000Y-121331100D02*
X144621500Y-121331100D01*
X144621500Y-121331100D02*
X145453100Y-120499500D01*
X145453100Y-120499500D02*
X145453100Y-111847300D01*
X145453100Y-111847300D02*
X144695800Y-111090000D01*
X144695800Y-111090000D02*
X141268500Y-111090000D01*
X141268500Y-111090000D02*
X130170000Y-122188500D01*
X130170000Y-122188500D02*
X130170000Y-129853800D01*
X130170000Y-129853800D02*
X129388500Y-130635300D01*
X129388500Y-130635300D02*
X120723200Y-130635300D01*
X120723200Y-130635300D02*
X119915300Y-129827400D01*
X119915300Y-129827400D02*
X119915300Y-129460000D01*
G04 #@! TD*
D15*
G04 #@! TO.N,GND*
G36*
X80557279Y-102684879D02*
X80529275Y-102726790D01*
X79688894Y-103567171D01*
X79348185Y-103499400D01*
X79103815Y-103499400D01*
X78741942Y-103571381D01*
X78331578Y-103845578D01*
X78057381Y-104255942D01*
X77961096Y-104740000D01*
X78057381Y-105224058D01*
X78331578Y-105634422D01*
X78741942Y-105908619D01*
X79103815Y-105980600D01*
X79348185Y-105980600D01*
X79710058Y-105908619D01*
X79994001Y-105718894D01*
X79994001Y-105977563D01*
X73361493Y-112610073D01*
X73319579Y-112638079D01*
X73208627Y-112804131D01*
X73179500Y-112950562D01*
X73179500Y-112950566D01*
X73169667Y-113000000D01*
X73179500Y-113049434D01*
X73179501Y-124110563D01*
X68947593Y-128342473D01*
X68905679Y-128370479D01*
X68794727Y-128536531D01*
X68791412Y-128553196D01*
X68418752Y-128304192D01*
X68060847Y-128233000D01*
X67819153Y-128233000D01*
X67461248Y-128304192D01*
X67055383Y-128575383D01*
X66784192Y-128981248D01*
X66688962Y-129460000D01*
X66784192Y-129938752D01*
X66914185Y-130133300D01*
X66783235Y-130133300D01*
X66639928Y-129989994D01*
X66639925Y-129989989D01*
X66561263Y-129911327D01*
X66651038Y-129460000D01*
X66555808Y-128981248D01*
X66284617Y-128575383D01*
X65878752Y-128304192D01*
X65520847Y-128233000D01*
X65279153Y-128233000D01*
X64921248Y-128304192D01*
X64515383Y-128575383D01*
X64244192Y-128981248D01*
X64148962Y-129460000D01*
X64244192Y-129938752D01*
X64515383Y-130344617D01*
X64921248Y-130615808D01*
X65279153Y-130687000D01*
X65520847Y-130687000D01*
X65851327Y-130621263D01*
X65929989Y-130699925D01*
X65929994Y-130699928D01*
X66185376Y-130955312D01*
X66213379Y-130997221D01*
X66255287Y-131025223D01*
X66255290Y-131025226D01*
X66334423Y-131078100D01*
X66379430Y-131108173D01*
X66525861Y-131137300D01*
X66525865Y-131137300D01*
X66575299Y-131147133D01*
X66624733Y-131137300D01*
X68030066Y-131137300D01*
X70231214Y-133338449D01*
X70001248Y-133384192D01*
X69595383Y-133655383D01*
X69572361Y-133689838D01*
X69571921Y-133689179D01*
X69530010Y-133661175D01*
X67548827Y-131679993D01*
X67520821Y-131638079D01*
X67354770Y-131527127D01*
X67208339Y-131498000D01*
X67208334Y-131498000D01*
X67158900Y-131488167D01*
X67109466Y-131498000D01*
X63067935Y-131498000D01*
X61481263Y-129911329D01*
X61571038Y-129460000D01*
X61608962Y-129460000D01*
X61704192Y-129938752D01*
X61975383Y-130344617D01*
X62381248Y-130615808D01*
X62739153Y-130687000D01*
X62980847Y-130687000D01*
X63338752Y-130615808D01*
X63744617Y-130344617D01*
X64015808Y-129938752D01*
X64111038Y-129460000D01*
X64015808Y-128981248D01*
X63744617Y-128575383D01*
X63338752Y-128304192D01*
X62980847Y-128233000D01*
X62739153Y-128233000D01*
X62381248Y-128304192D01*
X61975383Y-128575383D01*
X61704192Y-128981248D01*
X61608962Y-129460000D01*
X61571038Y-129460000D01*
X61475808Y-128981248D01*
X61204617Y-128575383D01*
X60798752Y-128304192D01*
X60440847Y-128233000D01*
X60199153Y-128233000D01*
X59841248Y-128304192D01*
X59435383Y-128575383D01*
X59164192Y-128981248D01*
X59068962Y-129460000D01*
X59164192Y-129938752D01*
X59435383Y-130344617D01*
X59841248Y-130615808D01*
X60199153Y-130687000D01*
X60440847Y-130687000D01*
X60771329Y-130621263D01*
X62470075Y-132320010D01*
X62498079Y-132361921D01*
X62539990Y-132389925D01*
X62664128Y-132472872D01*
X62664129Y-132472872D01*
X62664130Y-132472873D01*
X62810561Y-132502000D01*
X62810565Y-132502000D01*
X62859999Y-132511833D01*
X62909433Y-132502000D01*
X66950966Y-132502000D01*
X67771454Y-133322488D01*
X67461248Y-133384192D01*
X67055383Y-133655383D01*
X66784192Y-134061248D01*
X66688962Y-134540000D01*
X66784192Y-135018752D01*
X67055383Y-135424617D01*
X67318610Y-135600500D01*
X66021390Y-135600500D01*
X66284617Y-135424617D01*
X66555808Y-135018752D01*
X66651038Y-134540000D01*
X66555808Y-134061248D01*
X66284617Y-133655383D01*
X65878752Y-133384192D01*
X65520847Y-133313000D01*
X65279153Y-133313000D01*
X64921248Y-133384192D01*
X64515383Y-133655383D01*
X64492528Y-133689588D01*
X64491921Y-133688679D01*
X64450010Y-133660675D01*
X63569327Y-132779993D01*
X63541321Y-132738079D01*
X63375270Y-132627127D01*
X63228839Y-132598000D01*
X63228834Y-132598000D01*
X63179400Y-132588167D01*
X63129966Y-132598000D01*
X59087935Y-132598000D01*
X56401263Y-129911329D01*
X56491038Y-129460000D01*
X56528962Y-129460000D01*
X56624192Y-129938752D01*
X56895383Y-130344617D01*
X57301248Y-130615808D01*
X57659153Y-130687000D01*
X57900847Y-130687000D01*
X58258752Y-130615808D01*
X58664617Y-130344617D01*
X58935808Y-129938752D01*
X59031038Y-129460000D01*
X58935808Y-128981248D01*
X58664617Y-128575383D01*
X58258752Y-128304192D01*
X57900847Y-128233000D01*
X57659153Y-128233000D01*
X57301248Y-128304192D01*
X56895383Y-128575383D01*
X56624192Y-128981248D01*
X56528962Y-129460000D01*
X56491038Y-129460000D01*
X56395808Y-128981248D01*
X56124617Y-128575383D01*
X55718752Y-128304192D01*
X55360847Y-128233000D01*
X55119153Y-128233000D01*
X54761248Y-128304192D01*
X54355383Y-128575383D01*
X54185000Y-128830379D01*
X54185000Y-128483691D01*
X54088327Y-128250302D01*
X53909699Y-128071673D01*
X53676310Y-127975000D01*
X52985750Y-127975000D01*
X52827000Y-128133750D01*
X52827000Y-129333000D01*
X52847000Y-129333000D01*
X52847000Y-129587000D01*
X52827000Y-129587000D01*
X52827000Y-130786250D01*
X52985750Y-130945000D01*
X53676310Y-130945000D01*
X53909699Y-130848327D01*
X54088327Y-130669698D01*
X54185000Y-130436309D01*
X54185000Y-130089621D01*
X54355383Y-130344617D01*
X54761248Y-130615808D01*
X55119153Y-130687000D01*
X55360847Y-130687000D01*
X55691329Y-130621263D01*
X58490075Y-133420010D01*
X58518079Y-133461921D01*
X58684130Y-133572873D01*
X58830561Y-133602000D01*
X58830565Y-133602000D01*
X58879999Y-133611833D01*
X58929433Y-133602000D01*
X59515276Y-133602000D01*
X59435383Y-133655383D01*
X59164192Y-134061248D01*
X59068962Y-134540000D01*
X59164192Y-135018752D01*
X59435383Y-135424617D01*
X59841248Y-135695808D01*
X60199153Y-135767000D01*
X60440847Y-135767000D01*
X60798752Y-135695808D01*
X61204617Y-135424617D01*
X61475808Y-135018752D01*
X61571038Y-134540000D01*
X61475808Y-134061248D01*
X61204617Y-133655383D01*
X61124724Y-133602000D01*
X62055276Y-133602000D01*
X61975383Y-133655383D01*
X61704192Y-134061248D01*
X61608962Y-134540000D01*
X61704192Y-135018752D01*
X61975383Y-135424617D01*
X62381248Y-135695808D01*
X62739153Y-135767000D01*
X62980847Y-135767000D01*
X63338752Y-135695808D01*
X63744617Y-135424617D01*
X63767272Y-135390712D01*
X63768080Y-135391921D01*
X63809991Y-135419925D01*
X64812575Y-136422510D01*
X64840579Y-136464421D01*
X65006630Y-136575373D01*
X65153061Y-136604500D01*
X65153065Y-136604500D01*
X65202499Y-136614333D01*
X65251933Y-136604500D01*
X68724566Y-136604500D01*
X69505109Y-137385043D01*
X69533113Y-137426955D01*
X69699164Y-137537907D01*
X69845595Y-137567034D01*
X69845600Y-137567034D01*
X69895034Y-137576867D01*
X69944468Y-137567034D01*
X74457100Y-137567034D01*
X76428000Y-139537935D01*
X76428001Y-144050561D01*
X76418167Y-144100000D01*
X76457128Y-144295870D01*
X76540074Y-144420008D01*
X76540076Y-144420010D01*
X76568080Y-144461921D01*
X76609991Y-144489925D01*
X84657171Y-152537106D01*
X84565096Y-153000000D01*
X84661381Y-153484058D01*
X84935578Y-153894422D01*
X85345942Y-154168619D01*
X85707815Y-154240600D01*
X85952185Y-154240600D01*
X86314058Y-154168619D01*
X86724422Y-153894422D01*
X86978994Y-153513429D01*
X87087312Y-153774947D01*
X87481510Y-154206821D01*
X88010973Y-154454968D01*
X88243000Y-154334469D01*
X88243000Y-153127000D01*
X88497000Y-153127000D01*
X88497000Y-154334469D01*
X88729027Y-154454968D01*
X89258490Y-154206821D01*
X89640000Y-153788848D01*
X90021510Y-154206821D01*
X90550973Y-154454968D01*
X90783000Y-154334469D01*
X90783000Y-153127000D01*
X88497000Y-153127000D01*
X88243000Y-153127000D01*
X88223000Y-153127000D01*
X88223000Y-152873000D01*
X88243000Y-152873000D01*
X88243000Y-152853000D01*
X88497000Y-152853000D01*
X88497000Y-152873000D01*
X90783000Y-152873000D01*
X90783000Y-152853000D01*
X91037000Y-152853000D01*
X91037000Y-152873000D01*
X91057000Y-152873000D01*
X91057000Y-153127000D01*
X91037000Y-153127000D01*
X91037000Y-154334469D01*
X91269027Y-154454968D01*
X91798490Y-154206821D01*
X92192688Y-153774947D01*
X92301006Y-153513429D01*
X92555578Y-153894422D01*
X92965942Y-154168619D01*
X93327815Y-154240600D01*
X93572185Y-154240600D01*
X93934058Y-154168619D01*
X94344422Y-153894422D01*
X94618619Y-153484058D01*
X94714904Y-153000000D01*
X94618619Y-152515942D01*
X94475697Y-152302044D01*
X97504303Y-152302044D01*
X97361381Y-152515942D01*
X97265096Y-153000000D01*
X97361381Y-153484058D01*
X97635578Y-153894422D01*
X98045942Y-154168619D01*
X98407815Y-154240600D01*
X98652185Y-154240600D01*
X99014058Y-154168619D01*
X99424422Y-153894422D01*
X99698619Y-153484058D01*
X99794904Y-153000000D01*
X99698619Y-152515942D01*
X99555697Y-152302044D01*
X100044303Y-152302044D01*
X99901381Y-152515942D01*
X99805096Y-153000000D01*
X99901381Y-153484058D01*
X100175578Y-153894422D01*
X100585942Y-154168619D01*
X100947815Y-154240600D01*
X101192185Y-154240600D01*
X101554058Y-154168619D01*
X101964422Y-153894422D01*
X102238619Y-153484058D01*
X102334904Y-153000000D01*
X102238619Y-152515942D01*
X102095697Y-152302044D01*
X102584303Y-152302044D01*
X102441381Y-152515942D01*
X102345096Y-153000000D01*
X102441381Y-153484058D01*
X102715578Y-153894422D01*
X103125942Y-154168619D01*
X103487815Y-154240600D01*
X103732185Y-154240600D01*
X104094058Y-154168619D01*
X104504422Y-153894422D01*
X104778619Y-153484058D01*
X104874904Y-153000000D01*
X104778619Y-152515942D01*
X104635697Y-152302044D01*
X105124303Y-152302044D01*
X104981381Y-152515942D01*
X104885096Y-153000000D01*
X104981381Y-153484058D01*
X105255578Y-153894422D01*
X105665942Y-154168619D01*
X106027815Y-154240600D01*
X106272185Y-154240600D01*
X106634058Y-154168619D01*
X107044422Y-153894422D01*
X107318619Y-153484058D01*
X107414904Y-153000000D01*
X107318619Y-152515942D01*
X107175697Y-152302044D01*
X107664303Y-152302044D01*
X107521381Y-152515942D01*
X107425096Y-153000000D01*
X107521381Y-153484058D01*
X107795578Y-153894422D01*
X108205942Y-154168619D01*
X108567815Y-154240600D01*
X108812185Y-154240600D01*
X109174058Y-154168619D01*
X109584422Y-153894422D01*
X109858619Y-153484058D01*
X109954904Y-153000000D01*
X109858619Y-152515942D01*
X109715697Y-152302044D01*
X110204303Y-152302044D01*
X110061381Y-152515942D01*
X109965096Y-153000000D01*
X110061381Y-153484058D01*
X110335578Y-153894422D01*
X110745942Y-154168619D01*
X111107815Y-154240600D01*
X111352185Y-154240600D01*
X111714058Y-154168619D01*
X112124422Y-153894422D01*
X112398619Y-153484058D01*
X112494904Y-153000000D01*
X112398619Y-152515942D01*
X112255697Y-152302044D01*
X112744303Y-152302044D01*
X112601381Y-152515942D01*
X112505096Y-153000000D01*
X112601381Y-153484058D01*
X112875578Y-153894422D01*
X113285942Y-154168619D01*
X113647815Y-154240600D01*
X113892185Y-154240600D01*
X114254058Y-154168619D01*
X114664422Y-153894422D01*
X114938619Y-153484058D01*
X115034904Y-153000000D01*
X114938619Y-152515942D01*
X114795697Y-152302044D01*
X115284303Y-152302044D01*
X115141381Y-152515942D01*
X115045096Y-153000000D01*
X115141381Y-153484058D01*
X115415578Y-153894422D01*
X115825942Y-154168619D01*
X116187815Y-154240600D01*
X116432185Y-154240600D01*
X116794058Y-154168619D01*
X117204422Y-153894422D01*
X117478619Y-153484058D01*
X117574904Y-153000000D01*
X117478619Y-152515942D01*
X117335697Y-152302044D01*
X120364303Y-152302044D01*
X120221381Y-152515942D01*
X120125096Y-153000000D01*
X120221381Y-153484058D01*
X120495578Y-153894422D01*
X120905942Y-154168619D01*
X121267815Y-154240600D01*
X121512185Y-154240600D01*
X121874058Y-154168619D01*
X122284422Y-153894422D01*
X122558619Y-153484058D01*
X122654904Y-153000000D01*
X122558619Y-152515942D01*
X122415697Y-152302044D01*
X122904303Y-152302044D01*
X122761381Y-152515942D01*
X122665096Y-153000000D01*
X122761381Y-153484058D01*
X123035578Y-153894422D01*
X123445942Y-154168619D01*
X123807815Y-154240600D01*
X124052185Y-154240600D01*
X124414058Y-154168619D01*
X124824422Y-153894422D01*
X125098619Y-153484058D01*
X125194904Y-153000000D01*
X125098619Y-152515942D01*
X124955697Y-152302044D01*
X125062110Y-152302044D01*
X125297171Y-152537106D01*
X125205096Y-153000000D01*
X125301381Y-153484058D01*
X125575578Y-153894422D01*
X125985942Y-154168619D01*
X126347815Y-154240600D01*
X126592185Y-154240600D01*
X126954058Y-154168619D01*
X127364422Y-153894422D01*
X127638619Y-153484058D01*
X127734904Y-153000000D01*
X127638619Y-152515942D01*
X127364422Y-152105578D01*
X126984966Y-151852033D01*
X127152099Y-151852033D01*
X127837171Y-152537106D01*
X127745096Y-153000000D01*
X127841381Y-153484058D01*
X128115578Y-153894422D01*
X128525942Y-154168619D01*
X128887815Y-154240600D01*
X129132185Y-154240600D01*
X129494058Y-154168619D01*
X129904422Y-153894422D01*
X130178619Y-153484058D01*
X130274904Y-153000000D01*
X130178619Y-152515942D01*
X129904422Y-152105578D01*
X129494058Y-151831381D01*
X129132185Y-151759400D01*
X128887815Y-151759400D01*
X128547106Y-151827171D01*
X128121956Y-151402022D01*
X129242088Y-151402022D01*
X130377171Y-152537106D01*
X130285096Y-153000000D01*
X130381381Y-153484058D01*
X130655578Y-153894422D01*
X131065942Y-154168619D01*
X131427815Y-154240600D01*
X131672185Y-154240600D01*
X132034058Y-154168619D01*
X132444422Y-153894422D01*
X132718619Y-153484058D01*
X132814904Y-153000000D01*
X132718619Y-152515942D01*
X132444422Y-152105578D01*
X132034058Y-151831381D01*
X131672185Y-151759400D01*
X131427815Y-151759400D01*
X131087106Y-151827171D01*
X130211945Y-150952011D01*
X131332077Y-150952011D01*
X132917171Y-152537106D01*
X132825096Y-153000000D01*
X132921381Y-153484058D01*
X133195578Y-153894422D01*
X133605942Y-154168619D01*
X133967815Y-154240600D01*
X134212185Y-154240600D01*
X134574058Y-154168619D01*
X134984422Y-153894422D01*
X135258619Y-153484058D01*
X135354904Y-153000000D01*
X135258619Y-152515942D01*
X134984422Y-152105578D01*
X134574058Y-151831381D01*
X134212185Y-151759400D01*
X133967815Y-151759400D01*
X133627106Y-151827171D01*
X132301934Y-150502000D01*
X133422066Y-150502000D01*
X135457171Y-152537106D01*
X135365096Y-153000000D01*
X135461381Y-153484058D01*
X135735578Y-153894422D01*
X136145942Y-154168619D01*
X136507815Y-154240600D01*
X136752185Y-154240600D01*
X137114058Y-154168619D01*
X137524422Y-153894422D01*
X137798619Y-153484058D01*
X137894904Y-153000000D01*
X137798619Y-152515942D01*
X137524422Y-152105578D01*
X137114058Y-151831381D01*
X136752185Y-151759400D01*
X136507815Y-151759400D01*
X136167106Y-151827171D01*
X134019927Y-149679993D01*
X133991921Y-149638079D01*
X133825870Y-149527127D01*
X133679439Y-149498000D01*
X133679434Y-149498000D01*
X133630000Y-149488167D01*
X133580566Y-149498000D01*
X114987901Y-149498000D01*
X115446020Y-149039881D01*
X115747000Y-148313250D01*
X115747000Y-147526750D01*
X115446020Y-146800119D01*
X114889881Y-146243980D01*
X114163250Y-145943000D01*
X113376750Y-145943000D01*
X112650119Y-146243980D01*
X112093980Y-146800119D01*
X111793000Y-147526750D01*
X111793000Y-148313250D01*
X112093980Y-149039881D01*
X112552099Y-149498000D01*
X104789636Y-149498000D01*
X91035774Y-135744140D01*
X91278752Y-135695808D01*
X91684617Y-135424617D01*
X91750573Y-135325907D01*
X101790175Y-145365510D01*
X101818179Y-145407421D01*
X101860090Y-145435425D01*
X101860091Y-145435426D01*
X101984229Y-145518373D01*
X102015429Y-145524579D01*
X102130661Y-145547500D01*
X102130665Y-145547500D01*
X102180100Y-145557333D01*
X102229535Y-145547500D01*
X131007566Y-145547500D01*
X137997171Y-152537106D01*
X137905096Y-153000000D01*
X138001381Y-153484058D01*
X138275578Y-153894422D01*
X138685942Y-154168619D01*
X139047815Y-154240600D01*
X139292185Y-154240600D01*
X139654058Y-154168619D01*
X140064422Y-153894422D01*
X140338619Y-153484058D01*
X140434904Y-153000000D01*
X140356682Y-152606750D01*
X142273000Y-152606750D01*
X142273000Y-153393250D01*
X142573980Y-154119881D01*
X143130119Y-154676020D01*
X143856750Y-154977000D01*
X144643250Y-154977000D01*
X145369881Y-154676020D01*
X145926020Y-154119881D01*
X146227000Y-153393250D01*
X146227000Y-152606750D01*
X145926020Y-151880119D01*
X145369881Y-151323980D01*
X144643250Y-151023000D01*
X143856750Y-151023000D01*
X143130119Y-151323980D01*
X142573980Y-151880119D01*
X142273000Y-152606750D01*
X140356682Y-152606750D01*
X140338619Y-152515942D01*
X140064422Y-152105578D01*
X139654058Y-151831381D01*
X139292185Y-151759400D01*
X139047815Y-151759400D01*
X138707106Y-151827171D01*
X135158961Y-148279026D01*
X140255042Y-148279026D01*
X140427312Y-148694947D01*
X140821510Y-149126821D01*
X141350973Y-149374968D01*
X141583000Y-149254469D01*
X141583000Y-148047000D01*
X141837000Y-148047000D01*
X141837000Y-149254469D01*
X142069027Y-149374968D01*
X142598490Y-149126821D01*
X142980000Y-148708848D01*
X143361510Y-149126821D01*
X143890973Y-149374968D01*
X144123000Y-149254469D01*
X144123000Y-148047000D01*
X144377000Y-148047000D01*
X144377000Y-149254469D01*
X144609027Y-149374968D01*
X145138490Y-149126821D01*
X145532688Y-148694947D01*
X145704958Y-148279026D01*
X145583817Y-148047000D01*
X144377000Y-148047000D01*
X144123000Y-148047000D01*
X141837000Y-148047000D01*
X141583000Y-148047000D01*
X140376183Y-148047000D01*
X140255042Y-148279026D01*
X135158961Y-148279026D01*
X131605427Y-144725493D01*
X131577421Y-144683579D01*
X131411370Y-144572627D01*
X131264939Y-144543500D01*
X131264934Y-144543500D01*
X131215500Y-144533667D01*
X131166066Y-144543500D01*
X102388035Y-144543500D01*
X93586533Y-135741999D01*
X93818752Y-135695808D01*
X94224617Y-135424617D01*
X94495808Y-135018752D01*
X94591038Y-134540000D01*
X94495808Y-134061248D01*
X94224617Y-133655383D01*
X93818752Y-133384192D01*
X93460847Y-133313000D01*
X93219153Y-133313000D01*
X92861248Y-133384192D01*
X92455383Y-133655383D01*
X92389147Y-133754512D01*
X89045487Y-130410853D01*
X89144617Y-130344617D01*
X89415808Y-129938752D01*
X89511038Y-129460000D01*
X89421263Y-129008672D01*
X89643236Y-128786700D01*
X89774185Y-128786700D01*
X89644192Y-128981248D01*
X89548962Y-129460000D01*
X89644192Y-129938752D01*
X89915383Y-130344617D01*
X90321248Y-130615808D01*
X90679153Y-130687000D01*
X90920847Y-130687000D01*
X91278752Y-130615808D01*
X91684617Y-130344617D01*
X91723857Y-130285891D01*
X92393276Y-130955312D01*
X92421279Y-130997221D01*
X92463187Y-131025223D01*
X92463190Y-131025226D01*
X92542323Y-131078100D01*
X92587330Y-131108173D01*
X92733761Y-131137300D01*
X92733765Y-131137300D01*
X92783199Y-131147133D01*
X92832633Y-131137300D01*
X93526866Y-131137300D01*
X95711953Y-133322389D01*
X95401248Y-133384192D01*
X94995383Y-133655383D01*
X94724192Y-134061248D01*
X94628962Y-134540000D01*
X94724192Y-135018752D01*
X94995383Y-135424617D01*
X95401248Y-135695808D01*
X95759153Y-135767000D01*
X96000847Y-135767000D01*
X96358752Y-135695808D01*
X96764617Y-135424617D01*
X96814310Y-135350247D01*
X96829991Y-135360725D01*
X97954287Y-136485022D01*
X97982291Y-136526933D01*
X98148342Y-136637885D01*
X98294773Y-136667012D01*
X98294778Y-136667012D01*
X98344212Y-136676845D01*
X98393646Y-136667012D01*
X101557078Y-136667012D01*
X105910075Y-141020010D01*
X105938079Y-141061921D01*
X105979990Y-141089925D01*
X105979991Y-141089926D01*
X106104129Y-141172873D01*
X106135329Y-141179079D01*
X106250561Y-141202000D01*
X106250565Y-141202000D01*
X106300000Y-141211833D01*
X106349435Y-141202000D01*
X138792066Y-141202000D01*
X139498000Y-141907935D01*
X139498001Y-143250561D01*
X139488167Y-143300000D01*
X139527128Y-143495870D01*
X139610074Y-143620008D01*
X139610076Y-143620010D01*
X139638080Y-143661921D01*
X139679991Y-143689925D01*
X140454975Y-144464909D01*
X140482979Y-144506821D01*
X140649030Y-144617773D01*
X140718072Y-144631506D01*
X140541381Y-144895942D01*
X140445096Y-145380000D01*
X140541381Y-145864058D01*
X140815578Y-146274422D01*
X141203962Y-146533933D01*
X140821510Y-146713179D01*
X140427312Y-147145053D01*
X140255042Y-147560974D01*
X140376183Y-147793000D01*
X141583000Y-147793000D01*
X141583000Y-147773000D01*
X141837000Y-147773000D01*
X141837000Y-147793000D01*
X144123000Y-147793000D01*
X144123000Y-147773000D01*
X144377000Y-147773000D01*
X144377000Y-147793000D01*
X145583817Y-147793000D01*
X145704958Y-147560974D01*
X145532688Y-147145053D01*
X145138490Y-146713179D01*
X144756038Y-146533933D01*
X145144422Y-146274422D01*
X145418619Y-145864058D01*
X145514904Y-145380000D01*
X145418619Y-144895942D01*
X145144422Y-144485578D01*
X144734058Y-144211381D01*
X144372185Y-144139400D01*
X144127815Y-144139400D01*
X143765942Y-144211381D01*
X143355578Y-144485578D01*
X143312574Y-144549939D01*
X142587527Y-143824893D01*
X142559521Y-143782979D01*
X142545636Y-143773701D01*
X142604422Y-143734422D01*
X142878619Y-143324058D01*
X142974904Y-142840000D01*
X142985096Y-142840000D01*
X143081381Y-143324058D01*
X143355578Y-143734422D01*
X143765942Y-144008619D01*
X144127815Y-144080600D01*
X144372185Y-144080600D01*
X144734058Y-144008619D01*
X145144422Y-143734422D01*
X145418619Y-143324058D01*
X145514904Y-142840000D01*
X145418619Y-142355942D01*
X145144422Y-141945578D01*
X144734058Y-141671381D01*
X144372185Y-141599400D01*
X144127815Y-141599400D01*
X143765942Y-141671381D01*
X143355578Y-141945578D01*
X143081381Y-142355942D01*
X142985096Y-142840000D01*
X142974904Y-142840000D01*
X142878619Y-142355942D01*
X142645262Y-142006700D01*
X142995866Y-142006700D01*
X143045300Y-142016533D01*
X143094734Y-142006700D01*
X143094739Y-142006700D01*
X143241170Y-141977573D01*
X143407221Y-141866621D01*
X143435227Y-141824707D01*
X143787106Y-141472829D01*
X144127815Y-141540600D01*
X144372185Y-141540600D01*
X144734058Y-141468619D01*
X145144422Y-141194422D01*
X145418619Y-140784058D01*
X145514904Y-140300000D01*
X145418619Y-139815942D01*
X145144422Y-139405578D01*
X144734058Y-139131381D01*
X144372185Y-139059400D01*
X144127815Y-139059400D01*
X143765942Y-139131381D01*
X143355578Y-139405578D01*
X143081381Y-139815942D01*
X142985096Y-140300000D01*
X143077171Y-140762894D01*
X142837366Y-141002700D01*
X142732527Y-141002700D01*
X142878619Y-140784058D01*
X142974904Y-140300000D01*
X142878619Y-139815942D01*
X142604422Y-139405578D01*
X142194058Y-139131381D01*
X141832185Y-139059400D01*
X141587815Y-139059400D01*
X141225942Y-139131381D01*
X140815578Y-139405578D01*
X140553369Y-139798000D01*
X140407935Y-139798000D01*
X139726328Y-139116394D01*
X139698322Y-139074480D01*
X139532271Y-138963528D01*
X139385840Y-138934401D01*
X139385835Y-138934401D01*
X139336401Y-138924568D01*
X139286967Y-138934401D01*
X106933637Y-138934401D01*
X103742113Y-135742879D01*
X103978752Y-135695808D01*
X104384617Y-135424617D01*
X104445551Y-135333423D01*
X104474674Y-135377008D01*
X104474676Y-135377010D01*
X104502680Y-135418921D01*
X104544591Y-135446925D01*
X107177677Y-138080013D01*
X107205679Y-138121921D01*
X107247587Y-138149923D01*
X107247590Y-138149926D01*
X107289216Y-138177739D01*
X107371730Y-138232873D01*
X107518161Y-138262000D01*
X107518165Y-138262000D01*
X107567599Y-138271833D01*
X107617033Y-138262000D01*
X140553369Y-138262000D01*
X140815578Y-138654422D01*
X141225942Y-138928619D01*
X141587815Y-139000600D01*
X141832185Y-139000600D01*
X142194058Y-138928619D01*
X142604422Y-138654422D01*
X142878619Y-138244058D01*
X142974904Y-137760000D01*
X142985096Y-137760000D01*
X143081381Y-138244058D01*
X143355578Y-138654422D01*
X143765942Y-138928619D01*
X144127815Y-139000600D01*
X144372185Y-139000600D01*
X144734058Y-138928619D01*
X145144422Y-138654422D01*
X145418619Y-138244058D01*
X145514904Y-137760000D01*
X145418619Y-137275942D01*
X145144422Y-136865578D01*
X144734058Y-136591381D01*
X144372185Y-136519400D01*
X144127815Y-136519400D01*
X143765942Y-136591381D01*
X143355578Y-136865578D01*
X143081381Y-137275942D01*
X142985096Y-137760000D01*
X142974904Y-137760000D01*
X142878619Y-137275942D01*
X142604422Y-136865578D01*
X142194058Y-136591381D01*
X141832185Y-136519400D01*
X141587815Y-136519400D01*
X141225942Y-136591381D01*
X140815578Y-136865578D01*
X140553369Y-137258000D01*
X107775536Y-137258000D01*
X106264014Y-135746479D01*
X106518752Y-135695808D01*
X106924617Y-135424617D01*
X107178583Y-135044531D01*
X107215300Y-135051834D01*
X107411170Y-135012873D01*
X107421632Y-135005882D01*
X107424192Y-135018752D01*
X107695383Y-135424617D01*
X108101248Y-135695808D01*
X108459153Y-135767000D01*
X108700847Y-135767000D01*
X109058752Y-135695808D01*
X109464617Y-135424617D01*
X109503897Y-135365831D01*
X110639376Y-136501312D01*
X110667379Y-136543221D01*
X110709287Y-136571223D01*
X110709290Y-136571226D01*
X110774838Y-136615023D01*
X110833430Y-136654173D01*
X110979861Y-136683300D01*
X110979865Y-136683300D01*
X111029299Y-136693133D01*
X111078733Y-136683300D01*
X132068066Y-136683300D01*
X132117500Y-136693133D01*
X132166934Y-136683300D01*
X132166939Y-136683300D01*
X132313370Y-136654173D01*
X132479421Y-136543221D01*
X132507427Y-136501307D01*
X132918806Y-136089928D01*
X133027291Y-136351835D01*
X133245865Y-136570409D01*
X133531445Y-136688700D01*
X133840555Y-136688700D01*
X134126135Y-136570409D01*
X134344709Y-136351835D01*
X134463000Y-136066255D01*
X134463000Y-135757145D01*
X134344709Y-135471565D01*
X134341539Y-135468395D01*
X134589934Y-135220000D01*
X140445096Y-135220000D01*
X140541381Y-135704058D01*
X140815578Y-136114422D01*
X141225942Y-136388619D01*
X141587815Y-136460600D01*
X141832185Y-136460600D01*
X142194058Y-136388619D01*
X142604422Y-136114422D01*
X142878619Y-135704058D01*
X142974904Y-135220000D01*
X142985096Y-135220000D01*
X143081381Y-135704058D01*
X143355578Y-136114422D01*
X143765942Y-136388619D01*
X144127815Y-136460600D01*
X144372185Y-136460600D01*
X144734058Y-136388619D01*
X145144422Y-136114422D01*
X145418619Y-135704058D01*
X145514904Y-135220000D01*
X145418619Y-134735942D01*
X145144422Y-134325578D01*
X144734058Y-134051381D01*
X144372185Y-133979400D01*
X144127815Y-133979400D01*
X143765942Y-134051381D01*
X143355578Y-134325578D01*
X143081381Y-134735942D01*
X142985096Y-135220000D01*
X142974904Y-135220000D01*
X142878619Y-134735942D01*
X142604422Y-134325578D01*
X142194058Y-134051381D01*
X141832185Y-133979400D01*
X141587815Y-133979400D01*
X141225942Y-134051381D01*
X140815578Y-134325578D01*
X140541381Y-134735942D01*
X140445096Y-135220000D01*
X134589934Y-135220000D01*
X137979035Y-131830900D01*
X140785295Y-131830900D01*
X140541381Y-132195942D01*
X140445096Y-132680000D01*
X140541381Y-133164058D01*
X140815578Y-133574422D01*
X141225942Y-133848619D01*
X141587815Y-133920600D01*
X141832185Y-133920600D01*
X142194058Y-133848619D01*
X142604422Y-133574422D01*
X142878619Y-133164058D01*
X142974904Y-132680000D01*
X142985096Y-132680000D01*
X143081381Y-133164058D01*
X143355578Y-133574422D01*
X143765942Y-133848619D01*
X144127815Y-133920600D01*
X144372185Y-133920600D01*
X144734058Y-133848619D01*
X145144422Y-133574422D01*
X145418619Y-133164058D01*
X145514904Y-132680000D01*
X145418619Y-132195942D01*
X145144422Y-131785578D01*
X144734058Y-131511381D01*
X144372185Y-131439400D01*
X144127815Y-131439400D01*
X143765942Y-131511381D01*
X143355578Y-131785578D01*
X143081381Y-132195942D01*
X142985096Y-132680000D01*
X142974904Y-132680000D01*
X142878619Y-132195942D01*
X142604422Y-131785578D01*
X142534165Y-131738633D01*
X142605721Y-131690821D01*
X142633727Y-131648907D01*
X143312573Y-130970061D01*
X143355578Y-131034422D01*
X143765942Y-131308619D01*
X144127815Y-131380600D01*
X144372185Y-131380600D01*
X144734058Y-131308619D01*
X145144422Y-131034422D01*
X145418619Y-130624058D01*
X145514904Y-130140000D01*
X145418619Y-129655942D01*
X145144422Y-129245578D01*
X144734058Y-128971381D01*
X144372185Y-128899400D01*
X144127815Y-128899400D01*
X143765942Y-128971381D01*
X143355578Y-129245578D01*
X143095384Y-129634985D01*
X143061100Y-129628166D01*
X143011661Y-129638000D01*
X142880250Y-129664139D01*
X142878619Y-129655942D01*
X142604422Y-129245578D01*
X142194058Y-128971381D01*
X141832185Y-128899400D01*
X141587815Y-128899400D01*
X141225942Y-128971381D01*
X140815578Y-129245578D01*
X140541381Y-129655942D01*
X140445096Y-130140000D01*
X140541381Y-130624058D01*
X140676916Y-130826900D01*
X138181835Y-130826900D01*
X140694908Y-128313827D01*
X140815578Y-128494422D01*
X141225942Y-128768619D01*
X141587815Y-128840600D01*
X141832185Y-128840600D01*
X142194058Y-128768619D01*
X142604422Y-128494422D01*
X142878619Y-128084058D01*
X142974904Y-127600000D01*
X142985096Y-127600000D01*
X143081381Y-128084058D01*
X143355578Y-128494422D01*
X143765942Y-128768619D01*
X144127815Y-128840600D01*
X144372185Y-128840600D01*
X144734058Y-128768619D01*
X145144422Y-128494422D01*
X145418619Y-128084058D01*
X145514904Y-127600000D01*
X145418619Y-127115942D01*
X145144422Y-126705578D01*
X144734058Y-126431381D01*
X144372185Y-126359400D01*
X144127815Y-126359400D01*
X143765942Y-126431381D01*
X143355578Y-126705578D01*
X143081381Y-127115942D01*
X142985096Y-127600000D01*
X142974904Y-127600000D01*
X142878619Y-127115942D01*
X142604422Y-126705578D01*
X142194058Y-126431381D01*
X141832185Y-126359400D01*
X141587815Y-126359400D01*
X141225942Y-126431381D01*
X141023000Y-126566983D01*
X141023000Y-126093017D01*
X141225942Y-126228619D01*
X141587815Y-126300600D01*
X141832185Y-126300600D01*
X142194058Y-126228619D01*
X142604422Y-125954422D01*
X142878619Y-125544058D01*
X142974904Y-125060000D01*
X142985096Y-125060000D01*
X143081381Y-125544058D01*
X143355578Y-125954422D01*
X143765942Y-126228619D01*
X144127815Y-126300600D01*
X144372185Y-126300600D01*
X144734058Y-126228619D01*
X145144422Y-125954422D01*
X145418619Y-125544058D01*
X145514904Y-125060000D01*
X145418619Y-124575942D01*
X145144422Y-124165578D01*
X144734058Y-123891381D01*
X144372185Y-123819400D01*
X144127815Y-123819400D01*
X143765942Y-123891381D01*
X143355578Y-124165578D01*
X143081381Y-124575942D01*
X142985096Y-125060000D01*
X142974904Y-125060000D01*
X142878619Y-124575942D01*
X142604422Y-124165578D01*
X142194058Y-123891381D01*
X141832185Y-123819400D01*
X141587815Y-123819400D01*
X141225942Y-123891381D01*
X141023000Y-124026983D01*
X141023000Y-123553017D01*
X141225942Y-123688619D01*
X141587815Y-123760600D01*
X141832185Y-123760600D01*
X142194058Y-123688619D01*
X142604422Y-123414422D01*
X142878619Y-123004058D01*
X142974904Y-122520000D01*
X142878619Y-122035942D01*
X142604422Y-121625578D01*
X142529532Y-121575538D01*
X142533227Y-121570007D01*
X143304803Y-120798432D01*
X143355578Y-120874422D01*
X143765942Y-121148619D01*
X143774139Y-121150250D01*
X143738166Y-121331100D01*
X143744985Y-121365384D01*
X143355578Y-121625578D01*
X143081381Y-122035942D01*
X142985096Y-122520000D01*
X143081381Y-123004058D01*
X143355578Y-123414422D01*
X143765942Y-123688619D01*
X144127815Y-123760600D01*
X144372185Y-123760600D01*
X144734058Y-123688619D01*
X145144422Y-123414422D01*
X145418619Y-123004058D01*
X145514904Y-122520000D01*
X145418619Y-122035942D01*
X145144422Y-121625578D01*
X145080001Y-121582533D01*
X145773110Y-120889425D01*
X145815021Y-120861421D01*
X145925973Y-120695370D01*
X145955100Y-120548939D01*
X145955100Y-120548934D01*
X145964933Y-120499500D01*
X145955100Y-120450066D01*
X145955100Y-111896734D01*
X145964933Y-111847300D01*
X145955100Y-111797866D01*
X145955100Y-111797861D01*
X145925973Y-111651430D01*
X145815021Y-111485379D01*
X145773109Y-111457375D01*
X145085727Y-110769993D01*
X145078173Y-110758688D01*
X145144422Y-110714422D01*
X145418619Y-110304058D01*
X145514904Y-109820000D01*
X145418619Y-109335942D01*
X145144422Y-108925578D01*
X144734058Y-108651381D01*
X144372185Y-108579400D01*
X144127815Y-108579400D01*
X143765942Y-108651381D01*
X143355578Y-108925578D01*
X143081381Y-109335942D01*
X142985096Y-109820000D01*
X143081381Y-110304058D01*
X143271105Y-110588000D01*
X142688895Y-110588000D01*
X142878619Y-110304058D01*
X142974904Y-109820000D01*
X142878619Y-109335942D01*
X142604422Y-108925578D01*
X142194058Y-108651381D01*
X141832185Y-108579400D01*
X141587815Y-108579400D01*
X141225942Y-108651381D01*
X140815578Y-108925578D01*
X140541381Y-109335942D01*
X140445096Y-109820000D01*
X140541381Y-110304058D01*
X140815578Y-110714422D01*
X140884799Y-110760674D01*
X140878577Y-110769987D01*
X129849993Y-121798573D01*
X129808079Y-121826579D01*
X129697127Y-121992631D01*
X129668000Y-122139062D01*
X129668000Y-122139066D01*
X129658167Y-122188500D01*
X129668000Y-122237934D01*
X129668001Y-128497462D01*
X129402000Y-128319726D01*
X129402000Y-118575334D01*
X140486945Y-107490390D01*
X140541381Y-107764058D01*
X140815578Y-108174422D01*
X141225942Y-108448619D01*
X141587815Y-108520600D01*
X141832185Y-108520600D01*
X142194058Y-108448619D01*
X142604422Y-108174422D01*
X142878619Y-107764058D01*
X142974904Y-107280000D01*
X142985096Y-107280000D01*
X143081381Y-107764058D01*
X143355578Y-108174422D01*
X143765942Y-108448619D01*
X144127815Y-108520600D01*
X144372185Y-108520600D01*
X144734058Y-108448619D01*
X145144422Y-108174422D01*
X145418619Y-107764058D01*
X145514904Y-107280000D01*
X145418619Y-106795942D01*
X145144422Y-106385578D01*
X144734058Y-106111381D01*
X144372185Y-106039400D01*
X144127815Y-106039400D01*
X143765942Y-106111381D01*
X143355578Y-106385578D01*
X143081381Y-106795942D01*
X142985096Y-107280000D01*
X142974904Y-107280000D01*
X142878619Y-106795942D01*
X142604422Y-106385578D01*
X142194058Y-106111381D01*
X142185861Y-106109750D01*
X142212000Y-105978339D01*
X142212000Y-105978338D01*
X142221834Y-105928900D01*
X142215015Y-105894616D01*
X142604422Y-105634422D01*
X142878619Y-105224058D01*
X142974904Y-104740000D01*
X142985096Y-104740000D01*
X143081381Y-105224058D01*
X143355578Y-105634422D01*
X143765942Y-105908619D01*
X144127815Y-105980600D01*
X144372185Y-105980600D01*
X144734058Y-105908619D01*
X145144422Y-105634422D01*
X145418619Y-105224058D01*
X145514904Y-104740000D01*
X145418619Y-104255942D01*
X145144422Y-103845578D01*
X144734058Y-103571381D01*
X144372185Y-103499400D01*
X144127815Y-103499400D01*
X143765942Y-103571381D01*
X143355578Y-103845578D01*
X143081381Y-104255942D01*
X142985096Y-104740000D01*
X142974904Y-104740000D01*
X142878619Y-104255942D01*
X142604422Y-103845578D01*
X142194058Y-103571381D01*
X141832185Y-103499400D01*
X141587815Y-103499400D01*
X141225942Y-103571381D01*
X140815578Y-103845578D01*
X140541381Y-104255942D01*
X140445096Y-104740000D01*
X140541381Y-105224058D01*
X140815578Y-105634422D01*
X140879999Y-105677466D01*
X128579993Y-117977473D01*
X128538079Y-118005479D01*
X128427127Y-118171531D01*
X128398000Y-118317962D01*
X128398000Y-118317966D01*
X128388167Y-118367400D01*
X128398000Y-118416834D01*
X128398001Y-128235261D01*
X128398001Y-128319725D01*
X128015383Y-128575383D01*
X127744192Y-128981248D01*
X127648962Y-129460000D01*
X127744192Y-129938752D01*
X127874185Y-130133300D01*
X127385815Y-130133300D01*
X127515808Y-129938752D01*
X127611038Y-129460000D01*
X127515808Y-128981248D01*
X127244617Y-128575383D01*
X126838752Y-128304192D01*
X126480847Y-128233000D01*
X126239153Y-128233000D01*
X125881248Y-128304192D01*
X125475383Y-128575383D01*
X125204192Y-128981248D01*
X125108962Y-129460000D01*
X125204192Y-129938752D01*
X125334185Y-130133300D01*
X124845815Y-130133300D01*
X124975808Y-129938752D01*
X125071038Y-129460000D01*
X124975808Y-128981248D01*
X124704617Y-128575383D01*
X124298752Y-128304192D01*
X123940847Y-128233000D01*
X123699153Y-128233000D01*
X123341248Y-128304192D01*
X122935383Y-128575383D01*
X122664192Y-128981248D01*
X122568962Y-129460000D01*
X122664192Y-129938752D01*
X122794185Y-130133300D01*
X122305815Y-130133300D01*
X122435808Y-129938752D01*
X122531038Y-129460000D01*
X122435808Y-128981248D01*
X122164617Y-128575383D01*
X121758752Y-128304192D01*
X121400847Y-128233000D01*
X121159153Y-128233000D01*
X120801248Y-128304192D01*
X120395383Y-128575383D01*
X120124192Y-128981248D01*
X120121632Y-128994118D01*
X120111170Y-128987127D01*
X119964739Y-128958000D01*
X119915300Y-128948166D01*
X119878583Y-128955469D01*
X119624617Y-128575383D01*
X119218752Y-128304192D01*
X118860847Y-128233000D01*
X118619153Y-128233000D01*
X118261248Y-128304192D01*
X117855383Y-128575383D01*
X117584192Y-128981248D01*
X117488962Y-129460000D01*
X117584192Y-129938752D01*
X117855383Y-130344617D01*
X118261248Y-130615808D01*
X118321033Y-130627700D01*
X116618967Y-130627700D01*
X116678752Y-130615808D01*
X117084617Y-130344617D01*
X117355808Y-129938752D01*
X117451038Y-129460000D01*
X117355808Y-128981248D01*
X117084617Y-128575383D01*
X116678752Y-128304192D01*
X116320847Y-128233000D01*
X116079153Y-128233000D01*
X115721248Y-128304192D01*
X115315383Y-128575383D01*
X115044192Y-128981248D01*
X115041632Y-128994118D01*
X115031170Y-128987127D01*
X114884739Y-128958000D01*
X114835300Y-128948166D01*
X114798583Y-128955469D01*
X114544617Y-128575383D01*
X114138752Y-128304192D01*
X113780847Y-128233000D01*
X113539153Y-128233000D01*
X113181248Y-128304192D01*
X112775383Y-128575383D01*
X112504192Y-128981248D01*
X112501632Y-128994118D01*
X112491170Y-128987127D01*
X112344739Y-128958000D01*
X112295300Y-128948166D01*
X112258583Y-128955469D01*
X112004617Y-128575383D01*
X111598752Y-128304192D01*
X111240847Y-128233000D01*
X110999153Y-128233000D01*
X110641248Y-128304192D01*
X110235383Y-128575383D01*
X109964192Y-128981248D01*
X109868962Y-129460000D01*
X109964192Y-129938752D01*
X110235383Y-130344617D01*
X110641248Y-130615808D01*
X110999153Y-130687000D01*
X111240847Y-130687000D01*
X111598752Y-130615808D01*
X112004617Y-130344617D01*
X112043857Y-130285891D01*
X113286364Y-131528400D01*
X109686236Y-131528400D01*
X108820946Y-130663111D01*
X109058752Y-130615808D01*
X109464617Y-130344617D01*
X109735808Y-129938752D01*
X109831038Y-129460000D01*
X109735808Y-128981248D01*
X109464617Y-128575383D01*
X109058752Y-128304192D01*
X108700847Y-128233000D01*
X108459153Y-128233000D01*
X108101248Y-128304192D01*
X107695383Y-128575383D01*
X107424192Y-128981248D01*
X107421632Y-128994118D01*
X107411170Y-128987127D01*
X107264739Y-128958000D01*
X107215300Y-128948166D01*
X107178583Y-128955469D01*
X106924617Y-128575383D01*
X106518752Y-128304192D01*
X106160847Y-128233000D01*
X105919153Y-128233000D01*
X105561248Y-128304192D01*
X105155383Y-128575383D01*
X104884192Y-128981248D01*
X104788962Y-129460000D01*
X104884192Y-129938752D01*
X105155383Y-130344617D01*
X105561248Y-130615808D01*
X105919153Y-130687000D01*
X106160847Y-130687000D01*
X106518752Y-130615808D01*
X106924617Y-130344617D01*
X106987889Y-130249923D01*
X109088377Y-132350413D01*
X109116379Y-132392321D01*
X109158287Y-132420323D01*
X109158290Y-132420326D01*
X109236932Y-132472872D01*
X109282430Y-132503273D01*
X109428861Y-132532400D01*
X109428865Y-132532400D01*
X109478299Y-132542233D01*
X109527733Y-132532400D01*
X131797466Y-132532400D01*
X131846900Y-132542233D01*
X131896334Y-132532400D01*
X131896339Y-132532400D01*
X132042770Y-132503273D01*
X132208821Y-132392321D01*
X132236827Y-132350407D01*
X134679113Y-129908123D01*
X134721021Y-129880121D01*
X134749023Y-129838213D01*
X134749026Y-129838210D01*
X134816178Y-129737709D01*
X134831973Y-129714070D01*
X134861100Y-129567639D01*
X134861100Y-129567635D01*
X134870933Y-129518201D01*
X134861100Y-129468767D01*
X134861100Y-123276234D01*
X140486945Y-117650390D01*
X140541381Y-117924058D01*
X140815578Y-118334422D01*
X140879999Y-118377467D01*
X139079993Y-120177473D01*
X139038079Y-120205479D01*
X138927127Y-120371531D01*
X138898000Y-120517962D01*
X138898000Y-120517966D01*
X138888167Y-120567400D01*
X138898000Y-120616834D01*
X138898001Y-127392064D01*
X133427366Y-132862700D01*
X108072633Y-132862700D01*
X108023199Y-132852867D01*
X107973765Y-132862700D01*
X107973761Y-132862700D01*
X107827330Y-132891827D01*
X107803007Y-132908079D01*
X107703190Y-132974774D01*
X107703187Y-132974777D01*
X107661279Y-133002779D01*
X107633276Y-133044688D01*
X106963857Y-133714109D01*
X106924617Y-133655383D01*
X106518752Y-133384192D01*
X106160847Y-133313000D01*
X105919153Y-133313000D01*
X105561248Y-133384192D01*
X105155383Y-133655383D01*
X105125516Y-133700081D01*
X104289927Y-132864493D01*
X104261921Y-132822579D01*
X104095870Y-132711627D01*
X103949439Y-132682500D01*
X103949434Y-132682500D01*
X103900000Y-132672667D01*
X103850566Y-132682500D01*
X102392435Y-132682500D01*
X100192000Y-130482066D01*
X100192000Y-130422538D01*
X100481248Y-130615808D01*
X100839153Y-130687000D01*
X101080847Y-130687000D01*
X101438752Y-130615808D01*
X101844617Y-130344617D01*
X102115808Y-129938752D01*
X102211038Y-129460000D01*
X102248962Y-129460000D01*
X102344192Y-129938752D01*
X102615383Y-130344617D01*
X103021248Y-130615808D01*
X103379153Y-130687000D01*
X103620847Y-130687000D01*
X103978752Y-130615808D01*
X104384617Y-130344617D01*
X104655808Y-129938752D01*
X104751038Y-129460000D01*
X104655808Y-128981248D01*
X104384617Y-128575383D01*
X103978752Y-128304192D01*
X103620847Y-128233000D01*
X103379153Y-128233000D01*
X103021248Y-128304192D01*
X102615383Y-128575383D01*
X102344192Y-128981248D01*
X102248962Y-129460000D01*
X102211038Y-129460000D01*
X102115808Y-128981248D01*
X101844617Y-128575383D01*
X101438752Y-128304192D01*
X101080847Y-128233000D01*
X100839153Y-128233000D01*
X100481248Y-128304192D01*
X100075383Y-128575383D01*
X100027677Y-128646780D01*
X100010010Y-128634975D01*
X98875027Y-127499993D01*
X98847021Y-127458079D01*
X98680970Y-127347127D01*
X98534539Y-127318000D01*
X98534534Y-127318000D01*
X98485100Y-127308167D01*
X98435666Y-127318000D01*
X79789433Y-127318000D01*
X79739999Y-127308167D01*
X79690565Y-127318000D01*
X79690561Y-127318000D01*
X79544130Y-127347127D01*
X79544128Y-127347128D01*
X79544129Y-127347128D01*
X79419990Y-127430074D01*
X79419987Y-127430077D01*
X79378079Y-127458079D01*
X79350077Y-127499988D01*
X78551328Y-128298737D01*
X78220847Y-128233000D01*
X77979153Y-128233000D01*
X77621248Y-128304192D01*
X77215383Y-128575383D01*
X76944192Y-128981248D01*
X76848962Y-129460000D01*
X76944192Y-129938752D01*
X77215383Y-130344617D01*
X77621248Y-130615808D01*
X77979153Y-130687000D01*
X78220847Y-130687000D01*
X78578752Y-130615808D01*
X78984617Y-130344617D01*
X79255808Y-129938752D01*
X79351038Y-129460000D01*
X79261263Y-129008672D01*
X79947936Y-128322000D01*
X80134597Y-128322000D01*
X79755383Y-128575383D01*
X79484192Y-128981248D01*
X79388962Y-129460000D01*
X79484192Y-129938752D01*
X79755383Y-130344617D01*
X80161248Y-130615808D01*
X80519153Y-130687000D01*
X80760847Y-130687000D01*
X81091328Y-130621263D01*
X81425376Y-130955312D01*
X81453379Y-130997221D01*
X81495287Y-131025223D01*
X81495290Y-131025226D01*
X81574423Y-131078100D01*
X81619430Y-131108173D01*
X81765861Y-131137300D01*
X81765865Y-131137300D01*
X81815299Y-131147133D01*
X81864733Y-131137300D01*
X85899866Y-131137300D01*
X88086115Y-133323550D01*
X87781248Y-133384192D01*
X87375383Y-133655383D01*
X87104192Y-134061248D01*
X87008962Y-134540000D01*
X87104192Y-135018752D01*
X87375383Y-135424617D01*
X87781248Y-135695808D01*
X88139153Y-135767000D01*
X88380847Y-135767000D01*
X88738752Y-135695808D01*
X89144617Y-135424617D01*
X89204703Y-135334692D01*
X89209991Y-135338225D01*
X103819775Y-149948011D01*
X86257946Y-149948011D01*
X79777001Y-143467067D01*
X79777001Y-135439062D01*
X80161248Y-135695808D01*
X80519153Y-135767000D01*
X80760847Y-135767000D01*
X81118752Y-135695808D01*
X81524617Y-135424617D01*
X81795808Y-135018752D01*
X81891038Y-134540000D01*
X81928962Y-134540000D01*
X82024192Y-135018752D01*
X82295383Y-135424617D01*
X82701248Y-135695808D01*
X83059153Y-135767000D01*
X83300847Y-135767000D01*
X83658752Y-135695808D01*
X84064617Y-135424617D01*
X84335808Y-135018752D01*
X84431038Y-134540000D01*
X84468962Y-134540000D01*
X84564192Y-135018752D01*
X84835383Y-135424617D01*
X85241248Y-135695808D01*
X85599153Y-135767000D01*
X85840847Y-135767000D01*
X86198752Y-135695808D01*
X86604617Y-135424617D01*
X86875808Y-135018752D01*
X86971038Y-134540000D01*
X86875808Y-134061248D01*
X86604617Y-133655383D01*
X86198752Y-133384192D01*
X85840847Y-133313000D01*
X85599153Y-133313000D01*
X85241248Y-133384192D01*
X84835383Y-133655383D01*
X84564192Y-134061248D01*
X84468962Y-134540000D01*
X84431038Y-134540000D01*
X84335808Y-134061248D01*
X84064617Y-133655383D01*
X83658752Y-133384192D01*
X83300847Y-133313000D01*
X83059153Y-133313000D01*
X82701248Y-133384192D01*
X82295383Y-133655383D01*
X82024192Y-134061248D01*
X81928962Y-134540000D01*
X81891038Y-134540000D01*
X81795808Y-134061248D01*
X81524617Y-133655383D01*
X81118752Y-133384192D01*
X80760847Y-133313000D01*
X80519153Y-133313000D01*
X80161248Y-133384192D01*
X79777001Y-133640938D01*
X79777001Y-133224435D01*
X79786834Y-133175001D01*
X79777001Y-133125567D01*
X79777001Y-133125562D01*
X79747874Y-132979131D01*
X79667892Y-132859430D01*
X79664927Y-132854992D01*
X79664926Y-132854991D01*
X79636922Y-132813080D01*
X79595011Y-132785076D01*
X76721263Y-129911329D01*
X76811038Y-129460000D01*
X76715808Y-128981248D01*
X76444617Y-128575383D01*
X76038752Y-128304192D01*
X75680847Y-128233000D01*
X75439153Y-128233000D01*
X75081248Y-128304192D01*
X74886999Y-128433985D01*
X74886999Y-127222935D01*
X75320009Y-126789926D01*
X75361921Y-126761921D01*
X75472873Y-126595870D01*
X75502000Y-126449439D01*
X75502000Y-126449434D01*
X75511833Y-126400000D01*
X75502000Y-126350566D01*
X75502000Y-119586750D01*
X111793000Y-119586750D01*
X111793000Y-120373250D01*
X112093980Y-121099881D01*
X112650119Y-121656020D01*
X113376750Y-121957000D01*
X114163250Y-121957000D01*
X114889881Y-121656020D01*
X115446020Y-121099881D01*
X115747000Y-120373250D01*
X115747000Y-119586750D01*
X115446020Y-118860119D01*
X114889881Y-118303980D01*
X114163250Y-118003000D01*
X113376750Y-118003000D01*
X112650119Y-118303980D01*
X112093980Y-118860119D01*
X111793000Y-119586750D01*
X75502000Y-119586750D01*
X75502000Y-114007934D01*
X82807936Y-106702000D01*
X84750566Y-106702000D01*
X84800000Y-106711833D01*
X84849434Y-106702000D01*
X84849439Y-106702000D01*
X84995870Y-106672873D01*
X85161921Y-106561921D01*
X85189927Y-106520007D01*
X85819212Y-105890724D01*
X85861121Y-105862721D01*
X85889123Y-105820813D01*
X85889126Y-105820810D01*
X85972072Y-105696671D01*
X85972073Y-105696670D01*
X85980598Y-105653813D01*
X86361942Y-105908619D01*
X86723815Y-105980600D01*
X86968185Y-105980600D01*
X87330058Y-105908619D01*
X87740422Y-105634422D01*
X88014619Y-105224058D01*
X88110904Y-104740000D01*
X88121096Y-104740000D01*
X88217381Y-105224058D01*
X88491578Y-105634422D01*
X88901942Y-105908619D01*
X89263815Y-105980600D01*
X89508185Y-105980600D01*
X89870058Y-105908619D01*
X90280422Y-105634422D01*
X90554619Y-105224058D01*
X90650904Y-104740000D01*
X92185096Y-104740000D01*
X92281381Y-105224058D01*
X92555578Y-105634422D01*
X92965942Y-105908619D01*
X93327815Y-105980600D01*
X93572185Y-105980600D01*
X93934058Y-105908619D01*
X94344422Y-105634422D01*
X94618619Y-105224058D01*
X94714904Y-104740000D01*
X94725096Y-104740000D01*
X94821381Y-105224058D01*
X95095578Y-105634422D01*
X95505942Y-105908619D01*
X95867815Y-105980600D01*
X96112185Y-105980600D01*
X96474058Y-105908619D01*
X96884422Y-105634422D01*
X97158619Y-105224058D01*
X97254904Y-104740000D01*
X97265096Y-104740000D01*
X97361381Y-105224058D01*
X97635578Y-105634422D01*
X98045942Y-105908619D01*
X98407815Y-105980600D01*
X98652185Y-105980600D01*
X99014058Y-105908619D01*
X99424422Y-105634422D01*
X99698619Y-105224058D01*
X99794904Y-104740000D01*
X99805096Y-104740000D01*
X99901381Y-105224058D01*
X100175578Y-105634422D01*
X100585942Y-105908619D01*
X100947815Y-105980600D01*
X101192185Y-105980600D01*
X101554058Y-105908619D01*
X101964422Y-105634422D01*
X102238619Y-105224058D01*
X102334904Y-104740000D01*
X102345096Y-104740000D01*
X102441381Y-105224058D01*
X102715578Y-105634422D01*
X103125942Y-105908619D01*
X103487815Y-105980600D01*
X103732185Y-105980600D01*
X104094058Y-105908619D01*
X104504422Y-105634422D01*
X104778619Y-105224058D01*
X104874904Y-104740000D01*
X104885096Y-104740000D01*
X104981381Y-105224058D01*
X105255578Y-105634422D01*
X105665942Y-105908619D01*
X106027815Y-105980600D01*
X106272185Y-105980600D01*
X106634058Y-105908619D01*
X107044422Y-105634422D01*
X107318619Y-105224058D01*
X107414904Y-104740000D01*
X107425096Y-104740000D01*
X107521381Y-105224058D01*
X107795578Y-105634422D01*
X108205942Y-105908619D01*
X108567815Y-105980600D01*
X108812185Y-105980600D01*
X109174058Y-105908619D01*
X109584422Y-105634422D01*
X109858619Y-105224058D01*
X109954904Y-104740000D01*
X109965096Y-104740000D01*
X110061381Y-105224058D01*
X110335578Y-105634422D01*
X110745942Y-105908619D01*
X111107815Y-105980600D01*
X111352185Y-105980600D01*
X111714058Y-105908619D01*
X112124422Y-105634422D01*
X112398619Y-105224058D01*
X112494904Y-104740000D01*
X115045096Y-104740000D01*
X115141381Y-105224058D01*
X115415578Y-105634422D01*
X115825942Y-105908619D01*
X116187815Y-105980600D01*
X116432185Y-105980600D01*
X116794058Y-105908619D01*
X117204422Y-105634422D01*
X117478619Y-105224058D01*
X117574904Y-104740000D01*
X117585096Y-104740000D01*
X117681381Y-105224058D01*
X117955578Y-105634422D01*
X118365942Y-105908619D01*
X118727815Y-105980600D01*
X118972185Y-105980600D01*
X119334058Y-105908619D01*
X119744422Y-105634422D01*
X120018619Y-105224058D01*
X120114904Y-104740000D01*
X120125096Y-104740000D01*
X120221381Y-105224058D01*
X120495578Y-105634422D01*
X120905942Y-105908619D01*
X121267815Y-105980600D01*
X121512185Y-105980600D01*
X121874058Y-105908619D01*
X122284422Y-105634422D01*
X122558619Y-105224058D01*
X122654904Y-104740000D01*
X122665096Y-104740000D01*
X122761381Y-105224058D01*
X123035578Y-105634422D01*
X123445942Y-105908619D01*
X123807815Y-105980600D01*
X124052185Y-105980600D01*
X124414058Y-105908619D01*
X124824422Y-105634422D01*
X125098619Y-105224058D01*
X125194904Y-104740000D01*
X125205096Y-104740000D01*
X125301381Y-105224058D01*
X125575578Y-105634422D01*
X125985942Y-105908619D01*
X126347815Y-105980600D01*
X126592185Y-105980600D01*
X126954058Y-105908619D01*
X127364422Y-105634422D01*
X127638619Y-105224058D01*
X127734904Y-104740000D01*
X127745096Y-104740000D01*
X127841381Y-105224058D01*
X128115578Y-105634422D01*
X128525942Y-105908619D01*
X128887815Y-105980600D01*
X129132185Y-105980600D01*
X129494058Y-105908619D01*
X129904422Y-105634422D01*
X130178619Y-105224058D01*
X130274904Y-104740000D01*
X130285096Y-104740000D01*
X130381381Y-105224058D01*
X130655578Y-105634422D01*
X131065942Y-105908619D01*
X131427815Y-105980600D01*
X131672185Y-105980600D01*
X132034058Y-105908619D01*
X132444422Y-105634422D01*
X132718619Y-105224058D01*
X132814904Y-104740000D01*
X132825096Y-104740000D01*
X132921381Y-105224058D01*
X133195578Y-105634422D01*
X133605942Y-105908619D01*
X133967815Y-105980600D01*
X134212185Y-105980600D01*
X134574058Y-105908619D01*
X134984422Y-105634422D01*
X135258619Y-105224058D01*
X135354904Y-104740000D01*
X135276682Y-104346750D01*
X135923000Y-104346750D01*
X135923000Y-105133250D01*
X136223980Y-105859881D01*
X136780119Y-106416020D01*
X137506750Y-106717000D01*
X138293250Y-106717000D01*
X139019881Y-106416020D01*
X139576020Y-105859881D01*
X139877000Y-105133250D01*
X139877000Y-104346750D01*
X139576020Y-103620119D01*
X139019881Y-103063980D01*
X138293250Y-102763000D01*
X137506750Y-102763000D01*
X136780119Y-103063980D01*
X136223980Y-103620119D01*
X135923000Y-104346750D01*
X135276682Y-104346750D01*
X135258619Y-104255942D01*
X134984422Y-103845578D01*
X134574058Y-103571381D01*
X134212185Y-103499400D01*
X133967815Y-103499400D01*
X133605942Y-103571381D01*
X133195578Y-103845578D01*
X132921381Y-104255942D01*
X132825096Y-104740000D01*
X132814904Y-104740000D01*
X132718619Y-104255942D01*
X132444422Y-103845578D01*
X132034058Y-103571381D01*
X131672185Y-103499400D01*
X131427815Y-103499400D01*
X131065942Y-103571381D01*
X130655578Y-103845578D01*
X130381381Y-104255942D01*
X130285096Y-104740000D01*
X130274904Y-104740000D01*
X130178619Y-104255942D01*
X129904422Y-103845578D01*
X129494058Y-103571381D01*
X129132185Y-103499400D01*
X128887815Y-103499400D01*
X128525942Y-103571381D01*
X128115578Y-103845578D01*
X127841381Y-104255942D01*
X127745096Y-104740000D01*
X127734904Y-104740000D01*
X127638619Y-104255942D01*
X127364422Y-103845578D01*
X126954058Y-103571381D01*
X126592185Y-103499400D01*
X126347815Y-103499400D01*
X125985942Y-103571381D01*
X125575578Y-103845578D01*
X125301381Y-104255942D01*
X125205096Y-104740000D01*
X125194904Y-104740000D01*
X125098619Y-104255942D01*
X124824422Y-103845578D01*
X124414058Y-103571381D01*
X124052185Y-103499400D01*
X123807815Y-103499400D01*
X123445942Y-103571381D01*
X123035578Y-103845578D01*
X122761381Y-104255942D01*
X122665096Y-104740000D01*
X122654904Y-104740000D01*
X122558619Y-104255942D01*
X122284422Y-103845578D01*
X121874058Y-103571381D01*
X121512185Y-103499400D01*
X121267815Y-103499400D01*
X120905942Y-103571381D01*
X120495578Y-103845578D01*
X120221381Y-104255942D01*
X120125096Y-104740000D01*
X120114904Y-104740000D01*
X120018619Y-104255942D01*
X119744422Y-103845578D01*
X119334058Y-103571381D01*
X118972185Y-103499400D01*
X118727815Y-103499400D01*
X118365942Y-103571381D01*
X117955578Y-103845578D01*
X117681381Y-104255942D01*
X117585096Y-104740000D01*
X117574904Y-104740000D01*
X117478619Y-104255942D01*
X117204422Y-103845578D01*
X116794058Y-103571381D01*
X116432185Y-103499400D01*
X116187815Y-103499400D01*
X115825942Y-103571381D01*
X115415578Y-103845578D01*
X115141381Y-104255942D01*
X115045096Y-104740000D01*
X112494904Y-104740000D01*
X112398619Y-104255942D01*
X112124422Y-103845578D01*
X111714058Y-103571381D01*
X111352185Y-103499400D01*
X111107815Y-103499400D01*
X110745942Y-103571381D01*
X110335578Y-103845578D01*
X110061381Y-104255942D01*
X109965096Y-104740000D01*
X109954904Y-104740000D01*
X109858619Y-104255942D01*
X109584422Y-103845578D01*
X109174058Y-103571381D01*
X108812185Y-103499400D01*
X108567815Y-103499400D01*
X108205942Y-103571381D01*
X107795578Y-103845578D01*
X107521381Y-104255942D01*
X107425096Y-104740000D01*
X107414904Y-104740000D01*
X107318619Y-104255942D01*
X107044422Y-103845578D01*
X106634058Y-103571381D01*
X106272185Y-103499400D01*
X106027815Y-103499400D01*
X105665942Y-103571381D01*
X105255578Y-103845578D01*
X104981381Y-104255942D01*
X104885096Y-104740000D01*
X104874904Y-104740000D01*
X104778619Y-104255942D01*
X104504422Y-103845578D01*
X104094058Y-103571381D01*
X103732185Y-103499400D01*
X103487815Y-103499400D01*
X103125942Y-103571381D01*
X102715578Y-103845578D01*
X102441381Y-104255942D01*
X102345096Y-104740000D01*
X102334904Y-104740000D01*
X102238619Y-104255942D01*
X101964422Y-103845578D01*
X101554058Y-103571381D01*
X101192185Y-103499400D01*
X100947815Y-103499400D01*
X100585942Y-103571381D01*
X100175578Y-103845578D01*
X99901381Y-104255942D01*
X99805096Y-104740000D01*
X99794904Y-104740000D01*
X99698619Y-104255942D01*
X99424422Y-103845578D01*
X99014058Y-103571381D01*
X98652185Y-103499400D01*
X98407815Y-103499400D01*
X98045942Y-103571381D01*
X97635578Y-103845578D01*
X97361381Y-104255942D01*
X97265096Y-104740000D01*
X97254904Y-104740000D01*
X97158619Y-104255942D01*
X96884422Y-103845578D01*
X96474058Y-103571381D01*
X96112185Y-103499400D01*
X95867815Y-103499400D01*
X95505942Y-103571381D01*
X95095578Y-103845578D01*
X94821381Y-104255942D01*
X94725096Y-104740000D01*
X94714904Y-104740000D01*
X94618619Y-104255942D01*
X94344422Y-103845578D01*
X93934058Y-103571381D01*
X93572185Y-103499400D01*
X93327815Y-103499400D01*
X92965942Y-103571381D01*
X92555578Y-103845578D01*
X92281381Y-104255942D01*
X92185096Y-104740000D01*
X90650904Y-104740000D01*
X90554619Y-104255942D01*
X90280422Y-103845578D01*
X89870058Y-103571381D01*
X89508185Y-103499400D01*
X89263815Y-103499400D01*
X88901942Y-103571381D01*
X88491578Y-103845578D01*
X88217381Y-104255942D01*
X88121096Y-104740000D01*
X88110904Y-104740000D01*
X88014619Y-104255942D01*
X87740422Y-103845578D01*
X87330058Y-103571381D01*
X86968185Y-103499400D01*
X86723815Y-103499400D01*
X86361942Y-103571381D01*
X85951578Y-103845578D01*
X85909156Y-103909067D01*
X85889126Y-103879090D01*
X85889123Y-103879087D01*
X85861121Y-103837179D01*
X85819213Y-103809177D01*
X84736827Y-102726793D01*
X84708821Y-102684879D01*
X84659614Y-102652000D01*
X145078776Y-102652000D01*
X146338001Y-103911225D01*
X146338000Y-114855482D01*
X146329145Y-114900000D01*
X146338000Y-114944517D01*
X146364225Y-115076361D01*
X146464126Y-115225874D01*
X146501869Y-115251093D01*
X148878000Y-117627224D01*
X148878001Y-151542775D01*
X146501869Y-153918907D01*
X146464126Y-153944126D01*
X146364226Y-154093638D01*
X146364225Y-154093639D01*
X146329145Y-154270000D01*
X146338000Y-154314518D01*
X146338001Y-155088000D01*
X60152000Y-155088000D01*
X60152000Y-154247901D01*
X60580119Y-154676020D01*
X61306750Y-154977000D01*
X62093250Y-154977000D01*
X62819881Y-154676020D01*
X63376020Y-154119881D01*
X63677000Y-153393250D01*
X63677000Y-153000000D01*
X74405096Y-153000000D01*
X74501381Y-153484058D01*
X74775578Y-153894422D01*
X75185942Y-154168619D01*
X75547815Y-154240600D01*
X75792185Y-154240600D01*
X76154058Y-154168619D01*
X76564422Y-153894422D01*
X76838619Y-153484058D01*
X76934904Y-153000000D01*
X76945096Y-153000000D01*
X77041381Y-153484058D01*
X77315578Y-153894422D01*
X77725942Y-154168619D01*
X78087815Y-154240600D01*
X78332185Y-154240600D01*
X78694058Y-154168619D01*
X79104422Y-153894422D01*
X79378619Y-153484058D01*
X79474904Y-153000000D01*
X79485096Y-153000000D01*
X79581381Y-153484058D01*
X79855578Y-153894422D01*
X80265942Y-154168619D01*
X80627815Y-154240600D01*
X80872185Y-154240600D01*
X81234058Y-154168619D01*
X81644422Y-153894422D01*
X81918619Y-153484058D01*
X82014904Y-153000000D01*
X82025096Y-153000000D01*
X82121381Y-153484058D01*
X82395578Y-153894422D01*
X82805942Y-154168619D01*
X83167815Y-154240600D01*
X83412185Y-154240600D01*
X83774058Y-154168619D01*
X84184422Y-153894422D01*
X84458619Y-153484058D01*
X84554904Y-153000000D01*
X84458619Y-152515942D01*
X84184422Y-152105578D01*
X83774058Y-151831381D01*
X83412185Y-151759400D01*
X83167815Y-151759400D01*
X82805942Y-151831381D01*
X82395578Y-152105578D01*
X82121381Y-152515942D01*
X82025096Y-153000000D01*
X82014904Y-153000000D01*
X81918619Y-152515942D01*
X81644422Y-152105578D01*
X81234058Y-151831381D01*
X80872185Y-151759400D01*
X80627815Y-151759400D01*
X80265942Y-151831381D01*
X79855578Y-152105578D01*
X79581381Y-152515942D01*
X79485096Y-153000000D01*
X79474904Y-153000000D01*
X79378619Y-152515942D01*
X79104422Y-152105578D01*
X78694058Y-151831381D01*
X78332185Y-151759400D01*
X78087815Y-151759400D01*
X77725942Y-151831381D01*
X77315578Y-152105578D01*
X77041381Y-152515942D01*
X76945096Y-153000000D01*
X76934904Y-153000000D01*
X76838619Y-152515942D01*
X76564422Y-152105578D01*
X76154058Y-151831381D01*
X75792185Y-151759400D01*
X75547815Y-151759400D01*
X75185942Y-151831381D01*
X74775578Y-152105578D01*
X74501381Y-152515942D01*
X74405096Y-153000000D01*
X63677000Y-153000000D01*
X63677000Y-152606750D01*
X63376020Y-151880119D01*
X62819881Y-151323980D01*
X62093250Y-151023000D01*
X61306750Y-151023000D01*
X60580119Y-151323980D01*
X60152000Y-151752099D01*
X60152000Y-143344518D01*
X60160855Y-143300000D01*
X60125775Y-143123638D01*
X60025874Y-142974126D01*
X59876362Y-142874225D01*
X59744518Y-142848000D01*
X59700000Y-142839145D01*
X59655482Y-142848000D01*
X50707000Y-142848000D01*
X50707000Y-134540000D01*
X51448962Y-134540000D01*
X51544192Y-135018752D01*
X51815383Y-135424617D01*
X52221248Y-135695808D01*
X52579153Y-135767000D01*
X52820847Y-135767000D01*
X53178752Y-135695808D01*
X53584617Y-135424617D01*
X53855808Y-135018752D01*
X53951038Y-134540000D01*
X53988962Y-134540000D01*
X54084192Y-135018752D01*
X54355383Y-135424617D01*
X54761248Y-135695808D01*
X55119153Y-135767000D01*
X55360847Y-135767000D01*
X55718752Y-135695808D01*
X56124617Y-135424617D01*
X56395808Y-135018752D01*
X56491038Y-134540000D01*
X56528962Y-134540000D01*
X56624192Y-135018752D01*
X56895383Y-135424617D01*
X57301248Y-135695808D01*
X57659153Y-135767000D01*
X57900847Y-135767000D01*
X58258752Y-135695808D01*
X58664617Y-135424617D01*
X58935808Y-135018752D01*
X59031038Y-134540000D01*
X58935808Y-134061248D01*
X58664617Y-133655383D01*
X58258752Y-133384192D01*
X57900847Y-133313000D01*
X57659153Y-133313000D01*
X57301248Y-133384192D01*
X56895383Y-133655383D01*
X56624192Y-134061248D01*
X56528962Y-134540000D01*
X56491038Y-134540000D01*
X56395808Y-134061248D01*
X56124617Y-133655383D01*
X55718752Y-133384192D01*
X55360847Y-133313000D01*
X55119153Y-133313000D01*
X54761248Y-133384192D01*
X54355383Y-133655383D01*
X54084192Y-134061248D01*
X53988962Y-134540000D01*
X53951038Y-134540000D01*
X53855808Y-134061248D01*
X53584617Y-133655383D01*
X53178752Y-133384192D01*
X52820847Y-133313000D01*
X52579153Y-133313000D01*
X52221248Y-133384192D01*
X51815383Y-133655383D01*
X51544192Y-134061248D01*
X51448962Y-134540000D01*
X50707000Y-134540000D01*
X50707000Y-129745750D01*
X51215000Y-129745750D01*
X51215000Y-130436309D01*
X51311673Y-130669698D01*
X51490301Y-130848327D01*
X51723690Y-130945000D01*
X52414250Y-130945000D01*
X52573000Y-130786250D01*
X52573000Y-129587000D01*
X51373750Y-129587000D01*
X51215000Y-129745750D01*
X50707000Y-129745750D01*
X50707000Y-128483691D01*
X51215000Y-128483691D01*
X51215000Y-129174250D01*
X51373750Y-129333000D01*
X52573000Y-129333000D01*
X52573000Y-128133750D01*
X52414250Y-127975000D01*
X51723690Y-127975000D01*
X51490301Y-128071673D01*
X51311673Y-128250302D01*
X51215000Y-128483691D01*
X50707000Y-128483691D01*
X50707000Y-123952000D01*
X59655482Y-123952000D01*
X59700000Y-123960855D01*
X59744518Y-123952000D01*
X59876362Y-123925775D01*
X60025874Y-123825874D01*
X60125775Y-123676362D01*
X60160855Y-123500000D01*
X60152000Y-123455482D01*
X60152000Y-104346750D01*
X60993000Y-104346750D01*
X60993000Y-105133250D01*
X61293980Y-105859881D01*
X61850119Y-106416020D01*
X62576750Y-106717000D01*
X63363250Y-106717000D01*
X64089881Y-106416020D01*
X64646020Y-105859881D01*
X64947000Y-105133250D01*
X64947000Y-104740000D01*
X65261096Y-104740000D01*
X65357381Y-105224058D01*
X65631578Y-105634422D01*
X66041942Y-105908619D01*
X66403815Y-105980600D01*
X66648185Y-105980600D01*
X67010058Y-105908619D01*
X67420422Y-105634422D01*
X67694619Y-105224058D01*
X67790904Y-104740000D01*
X67801096Y-104740000D01*
X67897381Y-105224058D01*
X68171578Y-105634422D01*
X68581942Y-105908619D01*
X68943815Y-105980600D01*
X69188185Y-105980600D01*
X69550058Y-105908619D01*
X69960422Y-105634422D01*
X70234619Y-105224058D01*
X70330904Y-104740000D01*
X70341096Y-104740000D01*
X70437381Y-105224058D01*
X70711578Y-105634422D01*
X71121942Y-105908619D01*
X71483815Y-105980600D01*
X71728185Y-105980600D01*
X72090058Y-105908619D01*
X72500422Y-105634422D01*
X72754994Y-105253429D01*
X72863312Y-105514947D01*
X73257510Y-105946821D01*
X73786973Y-106194968D01*
X74019000Y-106074469D01*
X74019000Y-104867000D01*
X73999000Y-104867000D01*
X73999000Y-104613000D01*
X74019000Y-104613000D01*
X74019000Y-103405531D01*
X74273000Y-103405531D01*
X74273000Y-104613000D01*
X74293000Y-104613000D01*
X74293000Y-104867000D01*
X74273000Y-104867000D01*
X74273000Y-106074469D01*
X74505027Y-106194968D01*
X75034490Y-105946821D01*
X75428688Y-105514947D01*
X75537006Y-105253429D01*
X75791578Y-105634422D01*
X76201942Y-105908619D01*
X76563815Y-105980600D01*
X76808185Y-105980600D01*
X77170058Y-105908619D01*
X77580422Y-105634422D01*
X77854619Y-105224058D01*
X77950904Y-104740000D01*
X77854619Y-104255942D01*
X77580422Y-103845578D01*
X77170058Y-103571381D01*
X76808185Y-103499400D01*
X76563815Y-103499400D01*
X76201942Y-103571381D01*
X75791578Y-103845578D01*
X75537006Y-104226571D01*
X75428688Y-103965053D01*
X75034490Y-103533179D01*
X74505027Y-103285032D01*
X74273000Y-103405531D01*
X74019000Y-103405531D01*
X73786973Y-103285032D01*
X73257510Y-103533179D01*
X72863312Y-103965053D01*
X72754994Y-104226571D01*
X72500422Y-103845578D01*
X72090058Y-103571381D01*
X71728185Y-103499400D01*
X71483815Y-103499400D01*
X71121942Y-103571381D01*
X70711578Y-103845578D01*
X70437381Y-104255942D01*
X70341096Y-104740000D01*
X70330904Y-104740000D01*
X70234619Y-104255942D01*
X69960422Y-103845578D01*
X69550058Y-103571381D01*
X69188185Y-103499400D01*
X68943815Y-103499400D01*
X68581942Y-103571381D01*
X68171578Y-103845578D01*
X67897381Y-104255942D01*
X67801096Y-104740000D01*
X67790904Y-104740000D01*
X67694619Y-104255942D01*
X67420422Y-103845578D01*
X67010058Y-103571381D01*
X66648185Y-103499400D01*
X66403815Y-103499400D01*
X66041942Y-103571381D01*
X65631578Y-103845578D01*
X65357381Y-104255942D01*
X65261096Y-104740000D01*
X64947000Y-104740000D01*
X64947000Y-104346750D01*
X64646020Y-103620119D01*
X64089881Y-103063980D01*
X63363250Y-102763000D01*
X62576750Y-102763000D01*
X61850119Y-103063980D01*
X61293980Y-103620119D01*
X60993000Y-104346750D01*
X60152000Y-104346750D01*
X60152000Y-102652000D01*
X80606486Y-102652000D01*
X80557279Y-102684879D01*
X80557279Y-102684879D01*
G37*
X80557279Y-102684879D02*
X80529275Y-102726790D01*
X79688894Y-103567171D01*
X79348185Y-103499400D01*
X79103815Y-103499400D01*
X78741942Y-103571381D01*
X78331578Y-103845578D01*
X78057381Y-104255942D01*
X77961096Y-104740000D01*
X78057381Y-105224058D01*
X78331578Y-105634422D01*
X78741942Y-105908619D01*
X79103815Y-105980600D01*
X79348185Y-105980600D01*
X79710058Y-105908619D01*
X79994001Y-105718894D01*
X79994001Y-105977563D01*
X73361493Y-112610073D01*
X73319579Y-112638079D01*
X73208627Y-112804131D01*
X73179500Y-112950562D01*
X73179500Y-112950566D01*
X73169667Y-113000000D01*
X73179500Y-113049434D01*
X73179501Y-124110563D01*
X68947593Y-128342473D01*
X68905679Y-128370479D01*
X68794727Y-128536531D01*
X68791412Y-128553196D01*
X68418752Y-128304192D01*
X68060847Y-128233000D01*
X67819153Y-128233000D01*
X67461248Y-128304192D01*
X67055383Y-128575383D01*
X66784192Y-128981248D01*
X66688962Y-129460000D01*
X66784192Y-129938752D01*
X66914185Y-130133300D01*
X66783235Y-130133300D01*
X66639928Y-129989994D01*
X66639925Y-129989989D01*
X66561263Y-129911327D01*
X66651038Y-129460000D01*
X66555808Y-128981248D01*
X66284617Y-128575383D01*
X65878752Y-128304192D01*
X65520847Y-128233000D01*
X65279153Y-128233000D01*
X64921248Y-128304192D01*
X64515383Y-128575383D01*
X64244192Y-128981248D01*
X64148962Y-129460000D01*
X64244192Y-129938752D01*
X64515383Y-130344617D01*
X64921248Y-130615808D01*
X65279153Y-130687000D01*
X65520847Y-130687000D01*
X65851327Y-130621263D01*
X65929989Y-130699925D01*
X65929994Y-130699928D01*
X66185376Y-130955312D01*
X66213379Y-130997221D01*
X66255287Y-131025223D01*
X66255290Y-131025226D01*
X66334423Y-131078100D01*
X66379430Y-131108173D01*
X66525861Y-131137300D01*
X66525865Y-131137300D01*
X66575299Y-131147133D01*
X66624733Y-131137300D01*
X68030066Y-131137300D01*
X70231214Y-133338449D01*
X70001248Y-133384192D01*
X69595383Y-133655383D01*
X69572361Y-133689838D01*
X69571921Y-133689179D01*
X69530010Y-133661175D01*
X67548827Y-131679993D01*
X67520821Y-131638079D01*
X67354770Y-131527127D01*
X67208339Y-131498000D01*
X67208334Y-131498000D01*
X67158900Y-131488167D01*
X67109466Y-131498000D01*
X63067935Y-131498000D01*
X61481263Y-129911329D01*
X61571038Y-129460000D01*
X61608962Y-129460000D01*
X61704192Y-129938752D01*
X61975383Y-130344617D01*
X62381248Y-130615808D01*
X62739153Y-130687000D01*
X62980847Y-130687000D01*
X63338752Y-130615808D01*
X63744617Y-130344617D01*
X64015808Y-129938752D01*
X64111038Y-129460000D01*
X64015808Y-128981248D01*
X63744617Y-128575383D01*
X63338752Y-128304192D01*
X62980847Y-128233000D01*
X62739153Y-128233000D01*
X62381248Y-128304192D01*
X61975383Y-128575383D01*
X61704192Y-128981248D01*
X61608962Y-129460000D01*
X61571038Y-129460000D01*
X61475808Y-128981248D01*
X61204617Y-128575383D01*
X60798752Y-128304192D01*
X60440847Y-128233000D01*
X60199153Y-128233000D01*
X59841248Y-128304192D01*
X59435383Y-128575383D01*
X59164192Y-128981248D01*
X59068962Y-129460000D01*
X59164192Y-129938752D01*
X59435383Y-130344617D01*
X59841248Y-130615808D01*
X60199153Y-130687000D01*
X60440847Y-130687000D01*
X60771329Y-130621263D01*
X62470075Y-132320010D01*
X62498079Y-132361921D01*
X62539990Y-132389925D01*
X62664128Y-132472872D01*
X62664129Y-132472872D01*
X62664130Y-132472873D01*
X62810561Y-132502000D01*
X62810565Y-132502000D01*
X62859999Y-132511833D01*
X62909433Y-132502000D01*
X66950966Y-132502000D01*
X67771454Y-133322488D01*
X67461248Y-133384192D01*
X67055383Y-133655383D01*
X66784192Y-134061248D01*
X66688962Y-134540000D01*
X66784192Y-135018752D01*
X67055383Y-135424617D01*
X67318610Y-135600500D01*
X66021390Y-135600500D01*
X66284617Y-135424617D01*
X66555808Y-135018752D01*
X66651038Y-134540000D01*
X66555808Y-134061248D01*
X66284617Y-133655383D01*
X65878752Y-133384192D01*
X65520847Y-133313000D01*
X65279153Y-133313000D01*
X64921248Y-133384192D01*
X64515383Y-133655383D01*
X64492528Y-133689588D01*
X64491921Y-133688679D01*
X64450010Y-133660675D01*
X63569327Y-132779993D01*
X63541321Y-132738079D01*
X63375270Y-132627127D01*
X63228839Y-132598000D01*
X63228834Y-132598000D01*
X63179400Y-132588167D01*
X63129966Y-132598000D01*
X59087935Y-132598000D01*
X56401263Y-129911329D01*
X56491038Y-129460000D01*
X56528962Y-129460000D01*
X56624192Y-129938752D01*
X56895383Y-130344617D01*
X57301248Y-130615808D01*
X57659153Y-130687000D01*
X57900847Y-130687000D01*
X58258752Y-130615808D01*
X58664617Y-130344617D01*
X58935808Y-129938752D01*
X59031038Y-129460000D01*
X58935808Y-128981248D01*
X58664617Y-128575383D01*
X58258752Y-128304192D01*
X57900847Y-128233000D01*
X57659153Y-128233000D01*
X57301248Y-128304192D01*
X56895383Y-128575383D01*
X56624192Y-128981248D01*
X56528962Y-129460000D01*
X56491038Y-129460000D01*
X56395808Y-128981248D01*
X56124617Y-128575383D01*
X55718752Y-128304192D01*
X55360847Y-128233000D01*
X55119153Y-128233000D01*
X54761248Y-128304192D01*
X54355383Y-128575383D01*
X54185000Y-128830379D01*
X54185000Y-128483691D01*
X54088327Y-128250302D01*
X53909699Y-128071673D01*
X53676310Y-127975000D01*
X52985750Y-127975000D01*
X52827000Y-128133750D01*
X52827000Y-129333000D01*
X52847000Y-129333000D01*
X52847000Y-129587000D01*
X52827000Y-129587000D01*
X52827000Y-130786250D01*
X52985750Y-130945000D01*
X53676310Y-130945000D01*
X53909699Y-130848327D01*
X54088327Y-130669698D01*
X54185000Y-130436309D01*
X54185000Y-130089621D01*
X54355383Y-130344617D01*
X54761248Y-130615808D01*
X55119153Y-130687000D01*
X55360847Y-130687000D01*
X55691329Y-130621263D01*
X58490075Y-133420010D01*
X58518079Y-133461921D01*
X58684130Y-133572873D01*
X58830561Y-133602000D01*
X58830565Y-133602000D01*
X58879999Y-133611833D01*
X58929433Y-133602000D01*
X59515276Y-133602000D01*
X59435383Y-133655383D01*
X59164192Y-134061248D01*
X59068962Y-134540000D01*
X59164192Y-135018752D01*
X59435383Y-135424617D01*
X59841248Y-135695808D01*
X60199153Y-135767000D01*
X60440847Y-135767000D01*
X60798752Y-135695808D01*
X61204617Y-135424617D01*
X61475808Y-135018752D01*
X61571038Y-134540000D01*
X61475808Y-134061248D01*
X61204617Y-133655383D01*
X61124724Y-133602000D01*
X62055276Y-133602000D01*
X61975383Y-133655383D01*
X61704192Y-134061248D01*
X61608962Y-134540000D01*
X61704192Y-135018752D01*
X61975383Y-135424617D01*
X62381248Y-135695808D01*
X62739153Y-135767000D01*
X62980847Y-135767000D01*
X63338752Y-135695808D01*
X63744617Y-135424617D01*
X63767272Y-135390712D01*
X63768080Y-135391921D01*
X63809991Y-135419925D01*
X64812575Y-136422510D01*
X64840579Y-136464421D01*
X65006630Y-136575373D01*
X65153061Y-136604500D01*
X65153065Y-136604500D01*
X65202499Y-136614333D01*
X65251933Y-136604500D01*
X68724566Y-136604500D01*
X69505109Y-137385043D01*
X69533113Y-137426955D01*
X69699164Y-137537907D01*
X69845595Y-137567034D01*
X69845600Y-137567034D01*
X69895034Y-137576867D01*
X69944468Y-137567034D01*
X74457100Y-137567034D01*
X76428000Y-139537935D01*
X76428001Y-144050561D01*
X76418167Y-144100000D01*
X76457128Y-144295870D01*
X76540074Y-144420008D01*
X76540076Y-144420010D01*
X76568080Y-144461921D01*
X76609991Y-144489925D01*
X84657171Y-152537106D01*
X84565096Y-153000000D01*
X84661381Y-153484058D01*
X84935578Y-153894422D01*
X85345942Y-154168619D01*
X85707815Y-154240600D01*
X85952185Y-154240600D01*
X86314058Y-154168619D01*
X86724422Y-153894422D01*
X86978994Y-153513429D01*
X87087312Y-153774947D01*
X87481510Y-154206821D01*
X88010973Y-154454968D01*
X88243000Y-154334469D01*
X88243000Y-153127000D01*
X88497000Y-153127000D01*
X88497000Y-154334469D01*
X88729027Y-154454968D01*
X89258490Y-154206821D01*
X89640000Y-153788848D01*
X90021510Y-154206821D01*
X90550973Y-154454968D01*
X90783000Y-154334469D01*
X90783000Y-153127000D01*
X88497000Y-153127000D01*
X88243000Y-153127000D01*
X88223000Y-153127000D01*
X88223000Y-152873000D01*
X88243000Y-152873000D01*
X88243000Y-152853000D01*
X88497000Y-152853000D01*
X88497000Y-152873000D01*
X90783000Y-152873000D01*
X90783000Y-152853000D01*
X91037000Y-152853000D01*
X91037000Y-152873000D01*
X91057000Y-152873000D01*
X91057000Y-153127000D01*
X91037000Y-153127000D01*
X91037000Y-154334469D01*
X91269027Y-154454968D01*
X91798490Y-154206821D01*
X92192688Y-153774947D01*
X92301006Y-153513429D01*
X92555578Y-153894422D01*
X92965942Y-154168619D01*
X93327815Y-154240600D01*
X93572185Y-154240600D01*
X93934058Y-154168619D01*
X94344422Y-153894422D01*
X94618619Y-153484058D01*
X94714904Y-153000000D01*
X94618619Y-152515942D01*
X94475697Y-152302044D01*
X97504303Y-152302044D01*
X97361381Y-152515942D01*
X97265096Y-153000000D01*
X97361381Y-153484058D01*
X97635578Y-153894422D01*
X98045942Y-154168619D01*
X98407815Y-154240600D01*
X98652185Y-154240600D01*
X99014058Y-154168619D01*
X99424422Y-153894422D01*
X99698619Y-153484058D01*
X99794904Y-153000000D01*
X99698619Y-152515942D01*
X99555697Y-152302044D01*
X100044303Y-152302044D01*
X99901381Y-152515942D01*
X99805096Y-153000000D01*
X99901381Y-153484058D01*
X100175578Y-153894422D01*
X100585942Y-154168619D01*
X100947815Y-154240600D01*
X101192185Y-154240600D01*
X101554058Y-154168619D01*
X101964422Y-153894422D01*
X102238619Y-153484058D01*
X102334904Y-153000000D01*
X102238619Y-152515942D01*
X102095697Y-152302044D01*
X102584303Y-152302044D01*
X102441381Y-152515942D01*
X102345096Y-153000000D01*
X102441381Y-153484058D01*
X102715578Y-153894422D01*
X103125942Y-154168619D01*
X103487815Y-154240600D01*
X103732185Y-154240600D01*
X104094058Y-154168619D01*
X104504422Y-153894422D01*
X104778619Y-153484058D01*
X104874904Y-153000000D01*
X104778619Y-152515942D01*
X104635697Y-152302044D01*
X105124303Y-152302044D01*
X104981381Y-152515942D01*
X104885096Y-153000000D01*
X104981381Y-153484058D01*
X105255578Y-153894422D01*
X105665942Y-154168619D01*
X106027815Y-154240600D01*
X106272185Y-154240600D01*
X106634058Y-154168619D01*
X107044422Y-153894422D01*
X107318619Y-153484058D01*
X107414904Y-153000000D01*
X107318619Y-152515942D01*
X107175697Y-152302044D01*
X107664303Y-152302044D01*
X107521381Y-152515942D01*
X107425096Y-153000000D01*
X107521381Y-153484058D01*
X107795578Y-153894422D01*
X108205942Y-154168619D01*
X108567815Y-154240600D01*
X108812185Y-154240600D01*
X109174058Y-154168619D01*
X109584422Y-153894422D01*
X109858619Y-153484058D01*
X109954904Y-153000000D01*
X109858619Y-152515942D01*
X109715697Y-152302044D01*
X110204303Y-152302044D01*
X110061381Y-152515942D01*
X109965096Y-153000000D01*
X110061381Y-153484058D01*
X110335578Y-153894422D01*
X110745942Y-154168619D01*
X111107815Y-154240600D01*
X111352185Y-154240600D01*
X111714058Y-154168619D01*
X112124422Y-153894422D01*
X112398619Y-153484058D01*
X112494904Y-153000000D01*
X112398619Y-152515942D01*
X112255697Y-152302044D01*
X112744303Y-152302044D01*
X112601381Y-152515942D01*
X112505096Y-153000000D01*
X112601381Y-153484058D01*
X112875578Y-153894422D01*
X113285942Y-154168619D01*
X113647815Y-154240600D01*
X113892185Y-154240600D01*
X114254058Y-154168619D01*
X114664422Y-153894422D01*
X114938619Y-153484058D01*
X115034904Y-153000000D01*
X114938619Y-152515942D01*
X114795697Y-152302044D01*
X115284303Y-152302044D01*
X115141381Y-152515942D01*
X115045096Y-153000000D01*
X115141381Y-153484058D01*
X115415578Y-153894422D01*
X115825942Y-154168619D01*
X116187815Y-154240600D01*
X116432185Y-154240600D01*
X116794058Y-154168619D01*
X117204422Y-153894422D01*
X117478619Y-153484058D01*
X117574904Y-153000000D01*
X117478619Y-152515942D01*
X117335697Y-152302044D01*
X120364303Y-152302044D01*
X120221381Y-152515942D01*
X120125096Y-153000000D01*
X120221381Y-153484058D01*
X120495578Y-153894422D01*
X120905942Y-154168619D01*
X121267815Y-154240600D01*
X121512185Y-154240600D01*
X121874058Y-154168619D01*
X122284422Y-153894422D01*
X122558619Y-153484058D01*
X122654904Y-153000000D01*
X122558619Y-152515942D01*
X122415697Y-152302044D01*
X122904303Y-152302044D01*
X122761381Y-152515942D01*
X122665096Y-153000000D01*
X122761381Y-153484058D01*
X123035578Y-153894422D01*
X123445942Y-154168619D01*
X123807815Y-154240600D01*
X124052185Y-154240600D01*
X124414058Y-154168619D01*
X124824422Y-153894422D01*
X125098619Y-153484058D01*
X125194904Y-153000000D01*
X125098619Y-152515942D01*
X124955697Y-152302044D01*
X125062110Y-152302044D01*
X125297171Y-152537106D01*
X125205096Y-153000000D01*
X125301381Y-153484058D01*
X125575578Y-153894422D01*
X125985942Y-154168619D01*
X126347815Y-154240600D01*
X126592185Y-154240600D01*
X126954058Y-154168619D01*
X127364422Y-153894422D01*
X127638619Y-153484058D01*
X127734904Y-153000000D01*
X127638619Y-152515942D01*
X127364422Y-152105578D01*
X126984966Y-151852033D01*
X127152099Y-151852033D01*
X127837171Y-152537106D01*
X127745096Y-153000000D01*
X127841381Y-153484058D01*
X128115578Y-153894422D01*
X128525942Y-154168619D01*
X128887815Y-154240600D01*
X129132185Y-154240600D01*
X129494058Y-154168619D01*
X129904422Y-153894422D01*
X130178619Y-153484058D01*
X130274904Y-153000000D01*
X130178619Y-152515942D01*
X129904422Y-152105578D01*
X129494058Y-151831381D01*
X129132185Y-151759400D01*
X128887815Y-151759400D01*
X128547106Y-151827171D01*
X128121956Y-151402022D01*
X129242088Y-151402022D01*
X130377171Y-152537106D01*
X130285096Y-153000000D01*
X130381381Y-153484058D01*
X130655578Y-153894422D01*
X131065942Y-154168619D01*
X131427815Y-154240600D01*
X131672185Y-154240600D01*
X132034058Y-154168619D01*
X132444422Y-153894422D01*
X132718619Y-153484058D01*
X132814904Y-153000000D01*
X132718619Y-152515942D01*
X132444422Y-152105578D01*
X132034058Y-151831381D01*
X131672185Y-151759400D01*
X131427815Y-151759400D01*
X131087106Y-151827171D01*
X130211945Y-150952011D01*
X131332077Y-150952011D01*
X132917171Y-152537106D01*
X132825096Y-153000000D01*
X132921381Y-153484058D01*
X133195578Y-153894422D01*
X133605942Y-154168619D01*
X133967815Y-154240600D01*
X134212185Y-154240600D01*
X134574058Y-154168619D01*
X134984422Y-153894422D01*
X135258619Y-153484058D01*
X135354904Y-153000000D01*
X135258619Y-152515942D01*
X134984422Y-152105578D01*
X134574058Y-151831381D01*
X134212185Y-151759400D01*
X133967815Y-151759400D01*
X133627106Y-151827171D01*
X132301934Y-150502000D01*
X133422066Y-150502000D01*
X135457171Y-152537106D01*
X135365096Y-153000000D01*
X135461381Y-153484058D01*
X135735578Y-153894422D01*
X136145942Y-154168619D01*
X136507815Y-154240600D01*
X136752185Y-154240600D01*
X137114058Y-154168619D01*
X137524422Y-153894422D01*
X137798619Y-153484058D01*
X137894904Y-153000000D01*
X137798619Y-152515942D01*
X137524422Y-152105578D01*
X137114058Y-151831381D01*
X136752185Y-151759400D01*
X136507815Y-151759400D01*
X136167106Y-151827171D01*
X134019927Y-149679993D01*
X133991921Y-149638079D01*
X133825870Y-149527127D01*
X133679439Y-149498000D01*
X133679434Y-149498000D01*
X133630000Y-149488167D01*
X133580566Y-149498000D01*
X114987901Y-149498000D01*
X115446020Y-149039881D01*
X115747000Y-148313250D01*
X115747000Y-147526750D01*
X115446020Y-146800119D01*
X114889881Y-146243980D01*
X114163250Y-145943000D01*
X113376750Y-145943000D01*
X112650119Y-146243980D01*
X112093980Y-146800119D01*
X111793000Y-147526750D01*
X111793000Y-148313250D01*
X112093980Y-149039881D01*
X112552099Y-149498000D01*
X104789636Y-149498000D01*
X91035774Y-135744140D01*
X91278752Y-135695808D01*
X91684617Y-135424617D01*
X91750573Y-135325907D01*
X101790175Y-145365510D01*
X101818179Y-145407421D01*
X101860090Y-145435425D01*
X101860091Y-145435426D01*
X101984229Y-145518373D01*
X102015429Y-145524579D01*
X102130661Y-145547500D01*
X102130665Y-145547500D01*
X102180100Y-145557333D01*
X102229535Y-145547500D01*
X131007566Y-145547500D01*
X137997171Y-152537106D01*
X137905096Y-153000000D01*
X138001381Y-153484058D01*
X138275578Y-153894422D01*
X138685942Y-154168619D01*
X139047815Y-154240600D01*
X139292185Y-154240600D01*
X139654058Y-154168619D01*
X140064422Y-153894422D01*
X140338619Y-153484058D01*
X140434904Y-153000000D01*
X140356682Y-152606750D01*
X142273000Y-152606750D01*
X142273000Y-153393250D01*
X142573980Y-154119881D01*
X143130119Y-154676020D01*
X143856750Y-154977000D01*
X144643250Y-154977000D01*
X145369881Y-154676020D01*
X145926020Y-154119881D01*
X146227000Y-153393250D01*
X146227000Y-152606750D01*
X145926020Y-151880119D01*
X145369881Y-151323980D01*
X144643250Y-151023000D01*
X143856750Y-151023000D01*
X143130119Y-151323980D01*
X142573980Y-151880119D01*
X142273000Y-152606750D01*
X140356682Y-152606750D01*
X140338619Y-152515942D01*
X140064422Y-152105578D01*
X139654058Y-151831381D01*
X139292185Y-151759400D01*
X139047815Y-151759400D01*
X138707106Y-151827171D01*
X135158961Y-148279026D01*
X140255042Y-148279026D01*
X140427312Y-148694947D01*
X140821510Y-149126821D01*
X141350973Y-149374968D01*
X141583000Y-149254469D01*
X141583000Y-148047000D01*
X141837000Y-148047000D01*
X141837000Y-149254469D01*
X142069027Y-149374968D01*
X142598490Y-149126821D01*
X142980000Y-148708848D01*
X143361510Y-149126821D01*
X143890973Y-149374968D01*
X144123000Y-149254469D01*
X144123000Y-148047000D01*
X144377000Y-148047000D01*
X144377000Y-149254469D01*
X144609027Y-149374968D01*
X145138490Y-149126821D01*
X145532688Y-148694947D01*
X145704958Y-148279026D01*
X145583817Y-148047000D01*
X144377000Y-148047000D01*
X144123000Y-148047000D01*
X141837000Y-148047000D01*
X141583000Y-148047000D01*
X140376183Y-148047000D01*
X140255042Y-148279026D01*
X135158961Y-148279026D01*
X131605427Y-144725493D01*
X131577421Y-144683579D01*
X131411370Y-144572627D01*
X131264939Y-144543500D01*
X131264934Y-144543500D01*
X131215500Y-144533667D01*
X131166066Y-144543500D01*
X102388035Y-144543500D01*
X93586533Y-135741999D01*
X93818752Y-135695808D01*
X94224617Y-135424617D01*
X94495808Y-135018752D01*
X94591038Y-134540000D01*
X94495808Y-134061248D01*
X94224617Y-133655383D01*
X93818752Y-133384192D01*
X93460847Y-133313000D01*
X93219153Y-133313000D01*
X92861248Y-133384192D01*
X92455383Y-133655383D01*
X92389147Y-133754512D01*
X89045487Y-130410853D01*
X89144617Y-130344617D01*
X89415808Y-129938752D01*
X89511038Y-129460000D01*
X89421263Y-129008672D01*
X89643236Y-128786700D01*
X89774185Y-128786700D01*
X89644192Y-128981248D01*
X89548962Y-129460000D01*
X89644192Y-129938752D01*
X89915383Y-130344617D01*
X90321248Y-130615808D01*
X90679153Y-130687000D01*
X90920847Y-130687000D01*
X91278752Y-130615808D01*
X91684617Y-130344617D01*
X91723857Y-130285891D01*
X92393276Y-130955312D01*
X92421279Y-130997221D01*
X92463187Y-131025223D01*
X92463190Y-131025226D01*
X92542323Y-131078100D01*
X92587330Y-131108173D01*
X92733761Y-131137300D01*
X92733765Y-131137300D01*
X92783199Y-131147133D01*
X92832633Y-131137300D01*
X93526866Y-131137300D01*
X95711953Y-133322389D01*
X95401248Y-133384192D01*
X94995383Y-133655383D01*
X94724192Y-134061248D01*
X94628962Y-134540000D01*
X94724192Y-135018752D01*
X94995383Y-135424617D01*
X95401248Y-135695808D01*
X95759153Y-135767000D01*
X96000847Y-135767000D01*
X96358752Y-135695808D01*
X96764617Y-135424617D01*
X96814310Y-135350247D01*
X96829991Y-135360725D01*
X97954287Y-136485022D01*
X97982291Y-136526933D01*
X98148342Y-136637885D01*
X98294773Y-136667012D01*
X98294778Y-136667012D01*
X98344212Y-136676845D01*
X98393646Y-136667012D01*
X101557078Y-136667012D01*
X105910075Y-141020010D01*
X105938079Y-141061921D01*
X105979990Y-141089925D01*
X105979991Y-141089926D01*
X106104129Y-141172873D01*
X106135329Y-141179079D01*
X106250561Y-141202000D01*
X106250565Y-141202000D01*
X106300000Y-141211833D01*
X106349435Y-141202000D01*
X138792066Y-141202000D01*
X139498000Y-141907935D01*
X139498001Y-143250561D01*
X139488167Y-143300000D01*
X139527128Y-143495870D01*
X139610074Y-143620008D01*
X139610076Y-143620010D01*
X139638080Y-143661921D01*
X139679991Y-143689925D01*
X140454975Y-144464909D01*
X140482979Y-144506821D01*
X140649030Y-144617773D01*
X140718072Y-144631506D01*
X140541381Y-144895942D01*
X140445096Y-145380000D01*
X140541381Y-145864058D01*
X140815578Y-146274422D01*
X141203962Y-146533933D01*
X140821510Y-146713179D01*
X140427312Y-147145053D01*
X140255042Y-147560974D01*
X140376183Y-147793000D01*
X141583000Y-147793000D01*
X141583000Y-147773000D01*
X141837000Y-147773000D01*
X141837000Y-147793000D01*
X144123000Y-147793000D01*
X144123000Y-147773000D01*
X144377000Y-147773000D01*
X144377000Y-147793000D01*
X145583817Y-147793000D01*
X145704958Y-147560974D01*
X145532688Y-147145053D01*
X145138490Y-146713179D01*
X144756038Y-146533933D01*
X145144422Y-146274422D01*
X145418619Y-145864058D01*
X145514904Y-145380000D01*
X145418619Y-144895942D01*
X145144422Y-144485578D01*
X144734058Y-144211381D01*
X144372185Y-144139400D01*
X144127815Y-144139400D01*
X143765942Y-144211381D01*
X143355578Y-144485578D01*
X143312574Y-144549939D01*
X142587527Y-143824893D01*
X142559521Y-143782979D01*
X142545636Y-143773701D01*
X142604422Y-143734422D01*
X142878619Y-143324058D01*
X142974904Y-142840000D01*
X142985096Y-142840000D01*
X143081381Y-143324058D01*
X143355578Y-143734422D01*
X143765942Y-144008619D01*
X144127815Y-144080600D01*
X144372185Y-144080600D01*
X144734058Y-144008619D01*
X145144422Y-143734422D01*
X145418619Y-143324058D01*
X145514904Y-142840000D01*
X145418619Y-142355942D01*
X145144422Y-141945578D01*
X144734058Y-141671381D01*
X144372185Y-141599400D01*
X144127815Y-141599400D01*
X143765942Y-141671381D01*
X143355578Y-141945578D01*
X143081381Y-142355942D01*
X142985096Y-142840000D01*
X142974904Y-142840000D01*
X142878619Y-142355942D01*
X142645262Y-142006700D01*
X142995866Y-142006700D01*
X143045300Y-142016533D01*
X143094734Y-142006700D01*
X143094739Y-142006700D01*
X143241170Y-141977573D01*
X143407221Y-141866621D01*
X143435227Y-141824707D01*
X143787106Y-141472829D01*
X144127815Y-141540600D01*
X144372185Y-141540600D01*
X144734058Y-141468619D01*
X145144422Y-141194422D01*
X145418619Y-140784058D01*
X145514904Y-140300000D01*
X145418619Y-139815942D01*
X145144422Y-139405578D01*
X144734058Y-139131381D01*
X144372185Y-139059400D01*
X144127815Y-139059400D01*
X143765942Y-139131381D01*
X143355578Y-139405578D01*
X143081381Y-139815942D01*
X142985096Y-140300000D01*
X143077171Y-140762894D01*
X142837366Y-141002700D01*
X142732527Y-141002700D01*
X142878619Y-140784058D01*
X142974904Y-140300000D01*
X142878619Y-139815942D01*
X142604422Y-139405578D01*
X142194058Y-139131381D01*
X141832185Y-139059400D01*
X141587815Y-139059400D01*
X141225942Y-139131381D01*
X140815578Y-139405578D01*
X140553369Y-139798000D01*
X140407935Y-139798000D01*
X139726328Y-139116394D01*
X139698322Y-139074480D01*
X139532271Y-138963528D01*
X139385840Y-138934401D01*
X139385835Y-138934401D01*
X139336401Y-138924568D01*
X139286967Y-138934401D01*
X106933637Y-138934401D01*
X103742113Y-135742879D01*
X103978752Y-135695808D01*
X104384617Y-135424617D01*
X104445551Y-135333423D01*
X104474674Y-135377008D01*
X104474676Y-135377010D01*
X104502680Y-135418921D01*
X104544591Y-135446925D01*
X107177677Y-138080013D01*
X107205679Y-138121921D01*
X107247587Y-138149923D01*
X107247590Y-138149926D01*
X107289216Y-138177739D01*
X107371730Y-138232873D01*
X107518161Y-138262000D01*
X107518165Y-138262000D01*
X107567599Y-138271833D01*
X107617033Y-138262000D01*
X140553369Y-138262000D01*
X140815578Y-138654422D01*
X141225942Y-138928619D01*
X141587815Y-139000600D01*
X141832185Y-139000600D01*
X142194058Y-138928619D01*
X142604422Y-138654422D01*
X142878619Y-138244058D01*
X142974904Y-137760000D01*
X142985096Y-137760000D01*
X143081381Y-138244058D01*
X143355578Y-138654422D01*
X143765942Y-138928619D01*
X144127815Y-139000600D01*
X144372185Y-139000600D01*
X144734058Y-138928619D01*
X145144422Y-138654422D01*
X145418619Y-138244058D01*
X145514904Y-137760000D01*
X145418619Y-137275942D01*
X145144422Y-136865578D01*
X144734058Y-136591381D01*
X144372185Y-136519400D01*
X144127815Y-136519400D01*
X143765942Y-136591381D01*
X143355578Y-136865578D01*
X143081381Y-137275942D01*
X142985096Y-137760000D01*
X142974904Y-137760000D01*
X142878619Y-137275942D01*
X142604422Y-136865578D01*
X142194058Y-136591381D01*
X141832185Y-136519400D01*
X141587815Y-136519400D01*
X141225942Y-136591381D01*
X140815578Y-136865578D01*
X140553369Y-137258000D01*
X107775536Y-137258000D01*
X106264014Y-135746479D01*
X106518752Y-135695808D01*
X106924617Y-135424617D01*
X107178583Y-135044531D01*
X107215300Y-135051834D01*
X107411170Y-135012873D01*
X107421632Y-135005882D01*
X107424192Y-135018752D01*
X107695383Y-135424617D01*
X108101248Y-135695808D01*
X108459153Y-135767000D01*
X108700847Y-135767000D01*
X109058752Y-135695808D01*
X109464617Y-135424617D01*
X109503897Y-135365831D01*
X110639376Y-136501312D01*
X110667379Y-136543221D01*
X110709287Y-136571223D01*
X110709290Y-136571226D01*
X110774838Y-136615023D01*
X110833430Y-136654173D01*
X110979861Y-136683300D01*
X110979865Y-136683300D01*
X111029299Y-136693133D01*
X111078733Y-136683300D01*
X132068066Y-136683300D01*
X132117500Y-136693133D01*
X132166934Y-136683300D01*
X132166939Y-136683300D01*
X132313370Y-136654173D01*
X132479421Y-136543221D01*
X132507427Y-136501307D01*
X132918806Y-136089928D01*
X133027291Y-136351835D01*
X133245865Y-136570409D01*
X133531445Y-136688700D01*
X133840555Y-136688700D01*
X134126135Y-136570409D01*
X134344709Y-136351835D01*
X134463000Y-136066255D01*
X134463000Y-135757145D01*
X134344709Y-135471565D01*
X134341539Y-135468395D01*
X134589934Y-135220000D01*
X140445096Y-135220000D01*
X140541381Y-135704058D01*
X140815578Y-136114422D01*
X141225942Y-136388619D01*
X141587815Y-136460600D01*
X141832185Y-136460600D01*
X142194058Y-136388619D01*
X142604422Y-136114422D01*
X142878619Y-135704058D01*
X142974904Y-135220000D01*
X142985096Y-135220000D01*
X143081381Y-135704058D01*
X143355578Y-136114422D01*
X143765942Y-136388619D01*
X144127815Y-136460600D01*
X144372185Y-136460600D01*
X144734058Y-136388619D01*
X145144422Y-136114422D01*
X145418619Y-135704058D01*
X145514904Y-135220000D01*
X145418619Y-134735942D01*
X145144422Y-134325578D01*
X144734058Y-134051381D01*
X144372185Y-133979400D01*
X144127815Y-133979400D01*
X143765942Y-134051381D01*
X143355578Y-134325578D01*
X143081381Y-134735942D01*
X142985096Y-135220000D01*
X142974904Y-135220000D01*
X142878619Y-134735942D01*
X142604422Y-134325578D01*
X142194058Y-134051381D01*
X141832185Y-133979400D01*
X141587815Y-133979400D01*
X141225942Y-134051381D01*
X140815578Y-134325578D01*
X140541381Y-134735942D01*
X140445096Y-135220000D01*
X134589934Y-135220000D01*
X137979035Y-131830900D01*
X140785295Y-131830900D01*
X140541381Y-132195942D01*
X140445096Y-132680000D01*
X140541381Y-133164058D01*
X140815578Y-133574422D01*
X141225942Y-133848619D01*
X141587815Y-133920600D01*
X141832185Y-133920600D01*
X142194058Y-133848619D01*
X142604422Y-133574422D01*
X142878619Y-133164058D01*
X142974904Y-132680000D01*
X142985096Y-132680000D01*
X143081381Y-133164058D01*
X143355578Y-133574422D01*
X143765942Y-133848619D01*
X144127815Y-133920600D01*
X144372185Y-133920600D01*
X144734058Y-133848619D01*
X145144422Y-133574422D01*
X145418619Y-133164058D01*
X145514904Y-132680000D01*
X145418619Y-132195942D01*
X145144422Y-131785578D01*
X144734058Y-131511381D01*
X144372185Y-131439400D01*
X144127815Y-131439400D01*
X143765942Y-131511381D01*
X143355578Y-131785578D01*
X143081381Y-132195942D01*
X142985096Y-132680000D01*
X142974904Y-132680000D01*
X142878619Y-132195942D01*
X142604422Y-131785578D01*
X142534165Y-131738633D01*
X142605721Y-131690821D01*
X142633727Y-131648907D01*
X143312573Y-130970061D01*
X143355578Y-131034422D01*
X143765942Y-131308619D01*
X144127815Y-131380600D01*
X144372185Y-131380600D01*
X144734058Y-131308619D01*
X145144422Y-131034422D01*
X145418619Y-130624058D01*
X145514904Y-130140000D01*
X145418619Y-129655942D01*
X145144422Y-129245578D01*
X144734058Y-128971381D01*
X144372185Y-128899400D01*
X144127815Y-128899400D01*
X143765942Y-128971381D01*
X143355578Y-129245578D01*
X143095384Y-129634985D01*
X143061100Y-129628166D01*
X143011661Y-129638000D01*
X142880250Y-129664139D01*
X142878619Y-129655942D01*
X142604422Y-129245578D01*
X142194058Y-128971381D01*
X141832185Y-128899400D01*
X141587815Y-128899400D01*
X141225942Y-128971381D01*
X140815578Y-129245578D01*
X140541381Y-129655942D01*
X140445096Y-130140000D01*
X140541381Y-130624058D01*
X140676916Y-130826900D01*
X138181835Y-130826900D01*
X140694908Y-128313827D01*
X140815578Y-128494422D01*
X141225942Y-128768619D01*
X141587815Y-128840600D01*
X141832185Y-128840600D01*
X142194058Y-128768619D01*
X142604422Y-128494422D01*
X142878619Y-128084058D01*
X142974904Y-127600000D01*
X142985096Y-127600000D01*
X143081381Y-128084058D01*
X143355578Y-128494422D01*
X143765942Y-128768619D01*
X144127815Y-128840600D01*
X144372185Y-128840600D01*
X144734058Y-128768619D01*
X145144422Y-128494422D01*
X145418619Y-128084058D01*
X145514904Y-127600000D01*
X145418619Y-127115942D01*
X145144422Y-126705578D01*
X144734058Y-126431381D01*
X144372185Y-126359400D01*
X144127815Y-126359400D01*
X143765942Y-126431381D01*
X143355578Y-126705578D01*
X143081381Y-127115942D01*
X142985096Y-127600000D01*
X142974904Y-127600000D01*
X142878619Y-127115942D01*
X142604422Y-126705578D01*
X142194058Y-126431381D01*
X141832185Y-126359400D01*
X141587815Y-126359400D01*
X141225942Y-126431381D01*
X141023000Y-126566983D01*
X141023000Y-126093017D01*
X141225942Y-126228619D01*
X141587815Y-126300600D01*
X141832185Y-126300600D01*
X142194058Y-126228619D01*
X142604422Y-125954422D01*
X142878619Y-125544058D01*
X142974904Y-125060000D01*
X142985096Y-125060000D01*
X143081381Y-125544058D01*
X143355578Y-125954422D01*
X143765942Y-126228619D01*
X144127815Y-126300600D01*
X144372185Y-126300600D01*
X144734058Y-126228619D01*
X145144422Y-125954422D01*
X145418619Y-125544058D01*
X145514904Y-125060000D01*
X145418619Y-124575942D01*
X145144422Y-124165578D01*
X144734058Y-123891381D01*
X144372185Y-123819400D01*
X144127815Y-123819400D01*
X143765942Y-123891381D01*
X143355578Y-124165578D01*
X143081381Y-124575942D01*
X142985096Y-125060000D01*
X142974904Y-125060000D01*
X142878619Y-124575942D01*
X142604422Y-124165578D01*
X142194058Y-123891381D01*
X141832185Y-123819400D01*
X141587815Y-123819400D01*
X141225942Y-123891381D01*
X141023000Y-124026983D01*
X141023000Y-123553017D01*
X141225942Y-123688619D01*
X141587815Y-123760600D01*
X141832185Y-123760600D01*
X142194058Y-123688619D01*
X142604422Y-123414422D01*
X142878619Y-123004058D01*
X142974904Y-122520000D01*
X142878619Y-122035942D01*
X142604422Y-121625578D01*
X142529532Y-121575538D01*
X142533227Y-121570007D01*
X143304803Y-120798432D01*
X143355578Y-120874422D01*
X143765942Y-121148619D01*
X143774139Y-121150250D01*
X143738166Y-121331100D01*
X143744985Y-121365384D01*
X143355578Y-121625578D01*
X143081381Y-122035942D01*
X142985096Y-122520000D01*
X143081381Y-123004058D01*
X143355578Y-123414422D01*
X143765942Y-123688619D01*
X144127815Y-123760600D01*
X144372185Y-123760600D01*
X144734058Y-123688619D01*
X145144422Y-123414422D01*
X145418619Y-123004058D01*
X145514904Y-122520000D01*
X145418619Y-122035942D01*
X145144422Y-121625578D01*
X145080001Y-121582533D01*
X145773110Y-120889425D01*
X145815021Y-120861421D01*
X145925973Y-120695370D01*
X145955100Y-120548939D01*
X145955100Y-120548934D01*
X145964933Y-120499500D01*
X145955100Y-120450066D01*
X145955100Y-111896734D01*
X145964933Y-111847300D01*
X145955100Y-111797866D01*
X145955100Y-111797861D01*
X145925973Y-111651430D01*
X145815021Y-111485379D01*
X145773109Y-111457375D01*
X145085727Y-110769993D01*
X145078173Y-110758688D01*
X145144422Y-110714422D01*
X145418619Y-110304058D01*
X145514904Y-109820000D01*
X145418619Y-109335942D01*
X145144422Y-108925578D01*
X144734058Y-108651381D01*
X144372185Y-108579400D01*
X144127815Y-108579400D01*
X143765942Y-108651381D01*
X143355578Y-108925578D01*
X143081381Y-109335942D01*
X142985096Y-109820000D01*
X143081381Y-110304058D01*
X143271105Y-110588000D01*
X142688895Y-110588000D01*
X142878619Y-110304058D01*
X142974904Y-109820000D01*
X142878619Y-109335942D01*
X142604422Y-108925578D01*
X142194058Y-108651381D01*
X141832185Y-108579400D01*
X141587815Y-108579400D01*
X141225942Y-108651381D01*
X140815578Y-108925578D01*
X140541381Y-109335942D01*
X140445096Y-109820000D01*
X140541381Y-110304058D01*
X140815578Y-110714422D01*
X140884799Y-110760674D01*
X140878577Y-110769987D01*
X129849993Y-121798573D01*
X129808079Y-121826579D01*
X129697127Y-121992631D01*
X129668000Y-122139062D01*
X129668000Y-122139066D01*
X129658167Y-122188500D01*
X129668000Y-122237934D01*
X129668001Y-128497462D01*
X129402000Y-128319726D01*
X129402000Y-118575334D01*
X140486945Y-107490390D01*
X140541381Y-107764058D01*
X140815578Y-108174422D01*
X141225942Y-108448619D01*
X141587815Y-108520600D01*
X141832185Y-108520600D01*
X142194058Y-108448619D01*
X142604422Y-108174422D01*
X142878619Y-107764058D01*
X142974904Y-107280000D01*
X142985096Y-107280000D01*
X143081381Y-107764058D01*
X143355578Y-108174422D01*
X143765942Y-108448619D01*
X144127815Y-108520600D01*
X144372185Y-108520600D01*
X144734058Y-108448619D01*
X145144422Y-108174422D01*
X145418619Y-107764058D01*
X145514904Y-107280000D01*
X145418619Y-106795942D01*
X145144422Y-106385578D01*
X144734058Y-106111381D01*
X144372185Y-106039400D01*
X144127815Y-106039400D01*
X143765942Y-106111381D01*
X143355578Y-106385578D01*
X143081381Y-106795942D01*
X142985096Y-107280000D01*
X142974904Y-107280000D01*
X142878619Y-106795942D01*
X142604422Y-106385578D01*
X142194058Y-106111381D01*
X142185861Y-106109750D01*
X142212000Y-105978339D01*
X142212000Y-105978338D01*
X142221834Y-105928900D01*
X142215015Y-105894616D01*
X142604422Y-105634422D01*
X142878619Y-105224058D01*
X142974904Y-104740000D01*
X142985096Y-104740000D01*
X143081381Y-105224058D01*
X143355578Y-105634422D01*
X143765942Y-105908619D01*
X144127815Y-105980600D01*
X144372185Y-105980600D01*
X144734058Y-105908619D01*
X145144422Y-105634422D01*
X145418619Y-105224058D01*
X145514904Y-104740000D01*
X145418619Y-104255942D01*
X145144422Y-103845578D01*
X144734058Y-103571381D01*
X144372185Y-103499400D01*
X144127815Y-103499400D01*
X143765942Y-103571381D01*
X143355578Y-103845578D01*
X143081381Y-104255942D01*
X142985096Y-104740000D01*
X142974904Y-104740000D01*
X142878619Y-104255942D01*
X142604422Y-103845578D01*
X142194058Y-103571381D01*
X141832185Y-103499400D01*
X141587815Y-103499400D01*
X141225942Y-103571381D01*
X140815578Y-103845578D01*
X140541381Y-104255942D01*
X140445096Y-104740000D01*
X140541381Y-105224058D01*
X140815578Y-105634422D01*
X140879999Y-105677466D01*
X128579993Y-117977473D01*
X128538079Y-118005479D01*
X128427127Y-118171531D01*
X128398000Y-118317962D01*
X128398000Y-118317966D01*
X128388167Y-118367400D01*
X128398000Y-118416834D01*
X128398001Y-128235261D01*
X128398001Y-128319725D01*
X128015383Y-128575383D01*
X127744192Y-128981248D01*
X127648962Y-129460000D01*
X127744192Y-129938752D01*
X127874185Y-130133300D01*
X127385815Y-130133300D01*
X127515808Y-129938752D01*
X127611038Y-129460000D01*
X127515808Y-128981248D01*
X127244617Y-128575383D01*
X126838752Y-128304192D01*
X126480847Y-128233000D01*
X126239153Y-128233000D01*
X125881248Y-128304192D01*
X125475383Y-128575383D01*
X125204192Y-128981248D01*
X125108962Y-129460000D01*
X125204192Y-129938752D01*
X125334185Y-130133300D01*
X124845815Y-130133300D01*
X124975808Y-129938752D01*
X125071038Y-129460000D01*
X124975808Y-128981248D01*
X124704617Y-128575383D01*
X124298752Y-128304192D01*
X123940847Y-128233000D01*
X123699153Y-128233000D01*
X123341248Y-128304192D01*
X122935383Y-128575383D01*
X122664192Y-128981248D01*
X122568962Y-129460000D01*
X122664192Y-129938752D01*
X122794185Y-130133300D01*
X122305815Y-130133300D01*
X122435808Y-129938752D01*
X122531038Y-129460000D01*
X122435808Y-128981248D01*
X122164617Y-128575383D01*
X121758752Y-128304192D01*
X121400847Y-128233000D01*
X121159153Y-128233000D01*
X120801248Y-128304192D01*
X120395383Y-128575383D01*
X120124192Y-128981248D01*
X120121632Y-128994118D01*
X120111170Y-128987127D01*
X119964739Y-128958000D01*
X119915300Y-128948166D01*
X119878583Y-128955469D01*
X119624617Y-128575383D01*
X119218752Y-128304192D01*
X118860847Y-128233000D01*
X118619153Y-128233000D01*
X118261248Y-128304192D01*
X117855383Y-128575383D01*
X117584192Y-128981248D01*
X117488962Y-129460000D01*
X117584192Y-129938752D01*
X117855383Y-130344617D01*
X118261248Y-130615808D01*
X118321033Y-130627700D01*
X116618967Y-130627700D01*
X116678752Y-130615808D01*
X117084617Y-130344617D01*
X117355808Y-129938752D01*
X117451038Y-129460000D01*
X117355808Y-128981248D01*
X117084617Y-128575383D01*
X116678752Y-128304192D01*
X116320847Y-128233000D01*
X116079153Y-128233000D01*
X115721248Y-128304192D01*
X115315383Y-128575383D01*
X115044192Y-128981248D01*
X115041632Y-128994118D01*
X115031170Y-128987127D01*
X114884739Y-128958000D01*
X114835300Y-128948166D01*
X114798583Y-128955469D01*
X114544617Y-128575383D01*
X114138752Y-128304192D01*
X113780847Y-128233000D01*
X113539153Y-128233000D01*
X113181248Y-128304192D01*
X112775383Y-128575383D01*
X112504192Y-128981248D01*
X112501632Y-128994118D01*
X112491170Y-128987127D01*
X112344739Y-128958000D01*
X112295300Y-128948166D01*
X112258583Y-128955469D01*
X112004617Y-128575383D01*
X111598752Y-128304192D01*
X111240847Y-128233000D01*
X110999153Y-128233000D01*
X110641248Y-128304192D01*
X110235383Y-128575383D01*
X109964192Y-128981248D01*
X109868962Y-129460000D01*
X109964192Y-129938752D01*
X110235383Y-130344617D01*
X110641248Y-130615808D01*
X110999153Y-130687000D01*
X111240847Y-130687000D01*
X111598752Y-130615808D01*
X112004617Y-130344617D01*
X112043857Y-130285891D01*
X113286364Y-131528400D01*
X109686236Y-131528400D01*
X108820946Y-130663111D01*
X109058752Y-130615808D01*
X109464617Y-130344617D01*
X109735808Y-129938752D01*
X109831038Y-129460000D01*
X109735808Y-128981248D01*
X109464617Y-128575383D01*
X109058752Y-128304192D01*
X108700847Y-128233000D01*
X108459153Y-128233000D01*
X108101248Y-128304192D01*
X107695383Y-128575383D01*
X107424192Y-128981248D01*
X107421632Y-128994118D01*
X107411170Y-128987127D01*
X107264739Y-128958000D01*
X107215300Y-128948166D01*
X107178583Y-128955469D01*
X106924617Y-128575383D01*
X106518752Y-128304192D01*
X106160847Y-128233000D01*
X105919153Y-128233000D01*
X105561248Y-128304192D01*
X105155383Y-128575383D01*
X104884192Y-128981248D01*
X104788962Y-129460000D01*
X104884192Y-129938752D01*
X105155383Y-130344617D01*
X105561248Y-130615808D01*
X105919153Y-130687000D01*
X106160847Y-130687000D01*
X106518752Y-130615808D01*
X106924617Y-130344617D01*
X106987889Y-130249923D01*
X109088377Y-132350413D01*
X109116379Y-132392321D01*
X109158287Y-132420323D01*
X109158290Y-132420326D01*
X109236932Y-132472872D01*
X109282430Y-132503273D01*
X109428861Y-132532400D01*
X109428865Y-132532400D01*
X109478299Y-132542233D01*
X109527733Y-132532400D01*
X131797466Y-132532400D01*
X131846900Y-132542233D01*
X131896334Y-132532400D01*
X131896339Y-132532400D01*
X132042770Y-132503273D01*
X132208821Y-132392321D01*
X132236827Y-132350407D01*
X134679113Y-129908123D01*
X134721021Y-129880121D01*
X134749023Y-129838213D01*
X134749026Y-129838210D01*
X134816178Y-129737709D01*
X134831973Y-129714070D01*
X134861100Y-129567639D01*
X134861100Y-129567635D01*
X134870933Y-129518201D01*
X134861100Y-129468767D01*
X134861100Y-123276234D01*
X140486945Y-117650390D01*
X140541381Y-117924058D01*
X140815578Y-118334422D01*
X140879999Y-118377467D01*
X139079993Y-120177473D01*
X139038079Y-120205479D01*
X138927127Y-120371531D01*
X138898000Y-120517962D01*
X138898000Y-120517966D01*
X138888167Y-120567400D01*
X138898000Y-120616834D01*
X138898001Y-127392064D01*
X133427366Y-132862700D01*
X108072633Y-132862700D01*
X108023199Y-132852867D01*
X107973765Y-132862700D01*
X107973761Y-132862700D01*
X107827330Y-132891827D01*
X107803007Y-132908079D01*
X107703190Y-132974774D01*
X107703187Y-132974777D01*
X107661279Y-133002779D01*
X107633276Y-133044688D01*
X106963857Y-133714109D01*
X106924617Y-133655383D01*
X106518752Y-133384192D01*
X106160847Y-133313000D01*
X105919153Y-133313000D01*
X105561248Y-133384192D01*
X105155383Y-133655383D01*
X105125516Y-133700081D01*
X104289927Y-132864493D01*
X104261921Y-132822579D01*
X104095870Y-132711627D01*
X103949439Y-132682500D01*
X103949434Y-132682500D01*
X103900000Y-132672667D01*
X103850566Y-132682500D01*
X102392435Y-132682500D01*
X100192000Y-130482066D01*
X100192000Y-130422538D01*
X100481248Y-130615808D01*
X100839153Y-130687000D01*
X101080847Y-130687000D01*
X101438752Y-130615808D01*
X101844617Y-130344617D01*
X102115808Y-129938752D01*
X102211038Y-129460000D01*
X102248962Y-129460000D01*
X102344192Y-129938752D01*
X102615383Y-130344617D01*
X103021248Y-130615808D01*
X103379153Y-130687000D01*
X103620847Y-130687000D01*
X103978752Y-130615808D01*
X104384617Y-130344617D01*
X104655808Y-129938752D01*
X104751038Y-129460000D01*
X104655808Y-128981248D01*
X104384617Y-128575383D01*
X103978752Y-128304192D01*
X103620847Y-128233000D01*
X103379153Y-128233000D01*
X103021248Y-128304192D01*
X102615383Y-128575383D01*
X102344192Y-128981248D01*
X102248962Y-129460000D01*
X102211038Y-129460000D01*
X102115808Y-128981248D01*
X101844617Y-128575383D01*
X101438752Y-128304192D01*
X101080847Y-128233000D01*
X100839153Y-128233000D01*
X100481248Y-128304192D01*
X100075383Y-128575383D01*
X100027677Y-128646780D01*
X100010010Y-128634975D01*
X98875027Y-127499993D01*
X98847021Y-127458079D01*
X98680970Y-127347127D01*
X98534539Y-127318000D01*
X98534534Y-127318000D01*
X98485100Y-127308167D01*
X98435666Y-127318000D01*
X79789433Y-127318000D01*
X79739999Y-127308167D01*
X79690565Y-127318000D01*
X79690561Y-127318000D01*
X79544130Y-127347127D01*
X79544128Y-127347128D01*
X79544129Y-127347128D01*
X79419990Y-127430074D01*
X79419987Y-127430077D01*
X79378079Y-127458079D01*
X79350077Y-127499988D01*
X78551328Y-128298737D01*
X78220847Y-128233000D01*
X77979153Y-128233000D01*
X77621248Y-128304192D01*
X77215383Y-128575383D01*
X76944192Y-128981248D01*
X76848962Y-129460000D01*
X76944192Y-129938752D01*
X77215383Y-130344617D01*
X77621248Y-130615808D01*
X77979153Y-130687000D01*
X78220847Y-130687000D01*
X78578752Y-130615808D01*
X78984617Y-130344617D01*
X79255808Y-129938752D01*
X79351038Y-129460000D01*
X79261263Y-129008672D01*
X79947936Y-128322000D01*
X80134597Y-128322000D01*
X79755383Y-128575383D01*
X79484192Y-128981248D01*
X79388962Y-129460000D01*
X79484192Y-129938752D01*
X79755383Y-130344617D01*
X80161248Y-130615808D01*
X80519153Y-130687000D01*
X80760847Y-130687000D01*
X81091328Y-130621263D01*
X81425376Y-130955312D01*
X81453379Y-130997221D01*
X81495287Y-131025223D01*
X81495290Y-131025226D01*
X81574423Y-131078100D01*
X81619430Y-131108173D01*
X81765861Y-131137300D01*
X81765865Y-131137300D01*
X81815299Y-131147133D01*
X81864733Y-131137300D01*
X85899866Y-131137300D01*
X88086115Y-133323550D01*
X87781248Y-133384192D01*
X87375383Y-133655383D01*
X87104192Y-134061248D01*
X87008962Y-134540000D01*
X87104192Y-135018752D01*
X87375383Y-135424617D01*
X87781248Y-135695808D01*
X88139153Y-135767000D01*
X88380847Y-135767000D01*
X88738752Y-135695808D01*
X89144617Y-135424617D01*
X89204703Y-135334692D01*
X89209991Y-135338225D01*
X103819775Y-149948011D01*
X86257946Y-149948011D01*
X79777001Y-143467067D01*
X79777001Y-135439062D01*
X80161248Y-135695808D01*
X80519153Y-135767000D01*
X80760847Y-135767000D01*
X81118752Y-135695808D01*
X81524617Y-135424617D01*
X81795808Y-135018752D01*
X81891038Y-134540000D01*
X81928962Y-134540000D01*
X82024192Y-135018752D01*
X82295383Y-135424617D01*
X82701248Y-135695808D01*
X83059153Y-135767000D01*
X83300847Y-135767000D01*
X83658752Y-135695808D01*
X84064617Y-135424617D01*
X84335808Y-135018752D01*
X84431038Y-134540000D01*
X84468962Y-134540000D01*
X84564192Y-135018752D01*
X84835383Y-135424617D01*
X85241248Y-135695808D01*
X85599153Y-135767000D01*
X85840847Y-135767000D01*
X86198752Y-135695808D01*
X86604617Y-135424617D01*
X86875808Y-135018752D01*
X86971038Y-134540000D01*
X86875808Y-134061248D01*
X86604617Y-133655383D01*
X86198752Y-133384192D01*
X85840847Y-133313000D01*
X85599153Y-133313000D01*
X85241248Y-133384192D01*
X84835383Y-133655383D01*
X84564192Y-134061248D01*
X84468962Y-134540000D01*
X84431038Y-134540000D01*
X84335808Y-134061248D01*
X84064617Y-133655383D01*
X83658752Y-133384192D01*
X83300847Y-133313000D01*
X83059153Y-133313000D01*
X82701248Y-133384192D01*
X82295383Y-133655383D01*
X82024192Y-134061248D01*
X81928962Y-134540000D01*
X81891038Y-134540000D01*
X81795808Y-134061248D01*
X81524617Y-133655383D01*
X81118752Y-133384192D01*
X80760847Y-133313000D01*
X80519153Y-133313000D01*
X80161248Y-133384192D01*
X79777001Y-133640938D01*
X79777001Y-133224435D01*
X79786834Y-133175001D01*
X79777001Y-133125567D01*
X79777001Y-133125562D01*
X79747874Y-132979131D01*
X79667892Y-132859430D01*
X79664927Y-132854992D01*
X79664926Y-132854991D01*
X79636922Y-132813080D01*
X79595011Y-132785076D01*
X76721263Y-129911329D01*
X76811038Y-129460000D01*
X76715808Y-128981248D01*
X76444617Y-128575383D01*
X76038752Y-128304192D01*
X75680847Y-128233000D01*
X75439153Y-128233000D01*
X75081248Y-128304192D01*
X74886999Y-128433985D01*
X74886999Y-127222935D01*
X75320009Y-126789926D01*
X75361921Y-126761921D01*
X75472873Y-126595870D01*
X75502000Y-126449439D01*
X75502000Y-126449434D01*
X75511833Y-126400000D01*
X75502000Y-126350566D01*
X75502000Y-119586750D01*
X111793000Y-119586750D01*
X111793000Y-120373250D01*
X112093980Y-121099881D01*
X112650119Y-121656020D01*
X113376750Y-121957000D01*
X114163250Y-121957000D01*
X114889881Y-121656020D01*
X115446020Y-121099881D01*
X115747000Y-120373250D01*
X115747000Y-119586750D01*
X115446020Y-118860119D01*
X114889881Y-118303980D01*
X114163250Y-118003000D01*
X113376750Y-118003000D01*
X112650119Y-118303980D01*
X112093980Y-118860119D01*
X111793000Y-119586750D01*
X75502000Y-119586750D01*
X75502000Y-114007934D01*
X82807936Y-106702000D01*
X84750566Y-106702000D01*
X84800000Y-106711833D01*
X84849434Y-106702000D01*
X84849439Y-106702000D01*
X84995870Y-106672873D01*
X85161921Y-106561921D01*
X85189927Y-106520007D01*
X85819212Y-105890724D01*
X85861121Y-105862721D01*
X85889123Y-105820813D01*
X85889126Y-105820810D01*
X85972072Y-105696671D01*
X85972073Y-105696670D01*
X85980598Y-105653813D01*
X86361942Y-105908619D01*
X86723815Y-105980600D01*
X86968185Y-105980600D01*
X87330058Y-105908619D01*
X87740422Y-105634422D01*
X88014619Y-105224058D01*
X88110904Y-104740000D01*
X88121096Y-104740000D01*
X88217381Y-105224058D01*
X88491578Y-105634422D01*
X88901942Y-105908619D01*
X89263815Y-105980600D01*
X89508185Y-105980600D01*
X89870058Y-105908619D01*
X90280422Y-105634422D01*
X90554619Y-105224058D01*
X90650904Y-104740000D01*
X92185096Y-104740000D01*
X92281381Y-105224058D01*
X92555578Y-105634422D01*
X92965942Y-105908619D01*
X93327815Y-105980600D01*
X93572185Y-105980600D01*
X93934058Y-105908619D01*
X94344422Y-105634422D01*
X94618619Y-105224058D01*
X94714904Y-104740000D01*
X94725096Y-104740000D01*
X94821381Y-105224058D01*
X95095578Y-105634422D01*
X95505942Y-105908619D01*
X95867815Y-105980600D01*
X96112185Y-105980600D01*
X96474058Y-105908619D01*
X96884422Y-105634422D01*
X97158619Y-105224058D01*
X97254904Y-104740000D01*
X97265096Y-104740000D01*
X97361381Y-105224058D01*
X97635578Y-105634422D01*
X98045942Y-105908619D01*
X98407815Y-105980600D01*
X98652185Y-105980600D01*
X99014058Y-105908619D01*
X99424422Y-105634422D01*
X99698619Y-105224058D01*
X99794904Y-104740000D01*
X99805096Y-104740000D01*
X99901381Y-105224058D01*
X100175578Y-105634422D01*
X100585942Y-105908619D01*
X100947815Y-105980600D01*
X101192185Y-105980600D01*
X101554058Y-105908619D01*
X101964422Y-105634422D01*
X102238619Y-105224058D01*
X102334904Y-104740000D01*
X102345096Y-104740000D01*
X102441381Y-105224058D01*
X102715578Y-105634422D01*
X103125942Y-105908619D01*
X103487815Y-105980600D01*
X103732185Y-105980600D01*
X104094058Y-105908619D01*
X104504422Y-105634422D01*
X104778619Y-105224058D01*
X104874904Y-104740000D01*
X104885096Y-104740000D01*
X104981381Y-105224058D01*
X105255578Y-105634422D01*
X105665942Y-105908619D01*
X106027815Y-105980600D01*
X106272185Y-105980600D01*
X106634058Y-105908619D01*
X107044422Y-105634422D01*
X107318619Y-105224058D01*
X107414904Y-104740000D01*
X107425096Y-104740000D01*
X107521381Y-105224058D01*
X107795578Y-105634422D01*
X108205942Y-105908619D01*
X108567815Y-105980600D01*
X108812185Y-105980600D01*
X109174058Y-105908619D01*
X109584422Y-105634422D01*
X109858619Y-105224058D01*
X109954904Y-104740000D01*
X109965096Y-104740000D01*
X110061381Y-105224058D01*
X110335578Y-105634422D01*
X110745942Y-105908619D01*
X111107815Y-105980600D01*
X111352185Y-105980600D01*
X111714058Y-105908619D01*
X112124422Y-105634422D01*
X112398619Y-105224058D01*
X112494904Y-104740000D01*
X115045096Y-104740000D01*
X115141381Y-105224058D01*
X115415578Y-105634422D01*
X115825942Y-105908619D01*
X116187815Y-105980600D01*
X116432185Y-105980600D01*
X116794058Y-105908619D01*
X117204422Y-105634422D01*
X117478619Y-105224058D01*
X117574904Y-104740000D01*
X117585096Y-104740000D01*
X117681381Y-105224058D01*
X117955578Y-105634422D01*
X118365942Y-105908619D01*
X118727815Y-105980600D01*
X118972185Y-105980600D01*
X119334058Y-105908619D01*
X119744422Y-105634422D01*
X120018619Y-105224058D01*
X120114904Y-104740000D01*
X120125096Y-104740000D01*
X120221381Y-105224058D01*
X120495578Y-105634422D01*
X120905942Y-105908619D01*
X121267815Y-105980600D01*
X121512185Y-105980600D01*
X121874058Y-105908619D01*
X122284422Y-105634422D01*
X122558619Y-105224058D01*
X122654904Y-104740000D01*
X122665096Y-104740000D01*
X122761381Y-105224058D01*
X123035578Y-105634422D01*
X123445942Y-105908619D01*
X123807815Y-105980600D01*
X124052185Y-105980600D01*
X124414058Y-105908619D01*
X124824422Y-105634422D01*
X125098619Y-105224058D01*
X125194904Y-104740000D01*
X125205096Y-104740000D01*
X125301381Y-105224058D01*
X125575578Y-105634422D01*
X125985942Y-105908619D01*
X126347815Y-105980600D01*
X126592185Y-105980600D01*
X126954058Y-105908619D01*
X127364422Y-105634422D01*
X127638619Y-105224058D01*
X127734904Y-104740000D01*
X127745096Y-104740000D01*
X127841381Y-105224058D01*
X128115578Y-105634422D01*
X128525942Y-105908619D01*
X128887815Y-105980600D01*
X129132185Y-105980600D01*
X129494058Y-105908619D01*
X129904422Y-105634422D01*
X130178619Y-105224058D01*
X130274904Y-104740000D01*
X130285096Y-104740000D01*
X130381381Y-105224058D01*
X130655578Y-105634422D01*
X131065942Y-105908619D01*
X131427815Y-105980600D01*
X131672185Y-105980600D01*
X132034058Y-105908619D01*
X132444422Y-105634422D01*
X132718619Y-105224058D01*
X132814904Y-104740000D01*
X132825096Y-104740000D01*
X132921381Y-105224058D01*
X133195578Y-105634422D01*
X133605942Y-105908619D01*
X133967815Y-105980600D01*
X134212185Y-105980600D01*
X134574058Y-105908619D01*
X134984422Y-105634422D01*
X135258619Y-105224058D01*
X135354904Y-104740000D01*
X135276682Y-104346750D01*
X135923000Y-104346750D01*
X135923000Y-105133250D01*
X136223980Y-105859881D01*
X136780119Y-106416020D01*
X137506750Y-106717000D01*
X138293250Y-106717000D01*
X139019881Y-106416020D01*
X139576020Y-105859881D01*
X139877000Y-105133250D01*
X139877000Y-104346750D01*
X139576020Y-103620119D01*
X139019881Y-103063980D01*
X138293250Y-102763000D01*
X137506750Y-102763000D01*
X136780119Y-103063980D01*
X136223980Y-103620119D01*
X135923000Y-104346750D01*
X135276682Y-104346750D01*
X135258619Y-104255942D01*
X134984422Y-103845578D01*
X134574058Y-103571381D01*
X134212185Y-103499400D01*
X133967815Y-103499400D01*
X133605942Y-103571381D01*
X133195578Y-103845578D01*
X132921381Y-104255942D01*
X132825096Y-104740000D01*
X132814904Y-104740000D01*
X132718619Y-104255942D01*
X132444422Y-103845578D01*
X132034058Y-103571381D01*
X131672185Y-103499400D01*
X131427815Y-103499400D01*
X131065942Y-103571381D01*
X130655578Y-103845578D01*
X130381381Y-104255942D01*
X130285096Y-104740000D01*
X130274904Y-104740000D01*
X130178619Y-104255942D01*
X129904422Y-103845578D01*
X129494058Y-103571381D01*
X129132185Y-103499400D01*
X128887815Y-103499400D01*
X128525942Y-103571381D01*
X128115578Y-103845578D01*
X127841381Y-104255942D01*
X127745096Y-104740000D01*
X127734904Y-104740000D01*
X127638619Y-104255942D01*
X127364422Y-103845578D01*
X126954058Y-103571381D01*
X126592185Y-103499400D01*
X126347815Y-103499400D01*
X125985942Y-103571381D01*
X125575578Y-103845578D01*
X125301381Y-104255942D01*
X125205096Y-104740000D01*
X125194904Y-104740000D01*
X125098619Y-104255942D01*
X124824422Y-103845578D01*
X124414058Y-103571381D01*
X124052185Y-103499400D01*
X123807815Y-103499400D01*
X123445942Y-103571381D01*
X123035578Y-103845578D01*
X122761381Y-104255942D01*
X122665096Y-104740000D01*
X122654904Y-104740000D01*
X122558619Y-104255942D01*
X122284422Y-103845578D01*
X121874058Y-103571381D01*
X121512185Y-103499400D01*
X121267815Y-103499400D01*
X120905942Y-103571381D01*
X120495578Y-103845578D01*
X120221381Y-104255942D01*
X120125096Y-104740000D01*
X120114904Y-104740000D01*
X120018619Y-104255942D01*
X119744422Y-103845578D01*
X119334058Y-103571381D01*
X118972185Y-103499400D01*
X118727815Y-103499400D01*
X118365942Y-103571381D01*
X117955578Y-103845578D01*
X117681381Y-104255942D01*
X117585096Y-104740000D01*
X117574904Y-104740000D01*
X117478619Y-104255942D01*
X117204422Y-103845578D01*
X116794058Y-103571381D01*
X116432185Y-103499400D01*
X116187815Y-103499400D01*
X115825942Y-103571381D01*
X115415578Y-103845578D01*
X115141381Y-104255942D01*
X115045096Y-104740000D01*
X112494904Y-104740000D01*
X112398619Y-104255942D01*
X112124422Y-103845578D01*
X111714058Y-103571381D01*
X111352185Y-103499400D01*
X111107815Y-103499400D01*
X110745942Y-103571381D01*
X110335578Y-103845578D01*
X110061381Y-104255942D01*
X109965096Y-104740000D01*
X109954904Y-104740000D01*
X109858619Y-104255942D01*
X109584422Y-103845578D01*
X109174058Y-103571381D01*
X108812185Y-103499400D01*
X108567815Y-103499400D01*
X108205942Y-103571381D01*
X107795578Y-103845578D01*
X107521381Y-104255942D01*
X107425096Y-104740000D01*
X107414904Y-104740000D01*
X107318619Y-104255942D01*
X107044422Y-103845578D01*
X106634058Y-103571381D01*
X106272185Y-103499400D01*
X106027815Y-103499400D01*
X105665942Y-103571381D01*
X105255578Y-103845578D01*
X104981381Y-104255942D01*
X104885096Y-104740000D01*
X104874904Y-104740000D01*
X104778619Y-104255942D01*
X104504422Y-103845578D01*
X104094058Y-103571381D01*
X103732185Y-103499400D01*
X103487815Y-103499400D01*
X103125942Y-103571381D01*
X102715578Y-103845578D01*
X102441381Y-104255942D01*
X102345096Y-104740000D01*
X102334904Y-104740000D01*
X102238619Y-104255942D01*
X101964422Y-103845578D01*
X101554058Y-103571381D01*
X101192185Y-103499400D01*
X100947815Y-103499400D01*
X100585942Y-103571381D01*
X100175578Y-103845578D01*
X99901381Y-104255942D01*
X99805096Y-104740000D01*
X99794904Y-104740000D01*
X99698619Y-104255942D01*
X99424422Y-103845578D01*
X99014058Y-103571381D01*
X98652185Y-103499400D01*
X98407815Y-103499400D01*
X98045942Y-103571381D01*
X97635578Y-103845578D01*
X97361381Y-104255942D01*
X97265096Y-104740000D01*
X97254904Y-104740000D01*
X97158619Y-104255942D01*
X96884422Y-103845578D01*
X96474058Y-103571381D01*
X96112185Y-103499400D01*
X95867815Y-103499400D01*
X95505942Y-103571381D01*
X95095578Y-103845578D01*
X94821381Y-104255942D01*
X94725096Y-104740000D01*
X94714904Y-104740000D01*
X94618619Y-104255942D01*
X94344422Y-103845578D01*
X93934058Y-103571381D01*
X93572185Y-103499400D01*
X93327815Y-103499400D01*
X92965942Y-103571381D01*
X92555578Y-103845578D01*
X92281381Y-104255942D01*
X92185096Y-104740000D01*
X90650904Y-104740000D01*
X90554619Y-104255942D01*
X90280422Y-103845578D01*
X89870058Y-103571381D01*
X89508185Y-103499400D01*
X89263815Y-103499400D01*
X88901942Y-103571381D01*
X88491578Y-103845578D01*
X88217381Y-104255942D01*
X88121096Y-104740000D01*
X88110904Y-104740000D01*
X88014619Y-104255942D01*
X87740422Y-103845578D01*
X87330058Y-103571381D01*
X86968185Y-103499400D01*
X86723815Y-103499400D01*
X86361942Y-103571381D01*
X85951578Y-103845578D01*
X85909156Y-103909067D01*
X85889126Y-103879090D01*
X85889123Y-103879087D01*
X85861121Y-103837179D01*
X85819213Y-103809177D01*
X84736827Y-102726793D01*
X84708821Y-102684879D01*
X84659614Y-102652000D01*
X145078776Y-102652000D01*
X146338001Y-103911225D01*
X146338000Y-114855482D01*
X146329145Y-114900000D01*
X146338000Y-114944517D01*
X146364225Y-115076361D01*
X146464126Y-115225874D01*
X146501869Y-115251093D01*
X148878000Y-117627224D01*
X148878001Y-151542775D01*
X146501869Y-153918907D01*
X146464126Y-153944126D01*
X146364226Y-154093638D01*
X146364225Y-154093639D01*
X146329145Y-154270000D01*
X146338000Y-154314518D01*
X146338001Y-155088000D01*
X60152000Y-155088000D01*
X60152000Y-154247901D01*
X60580119Y-154676020D01*
X61306750Y-154977000D01*
X62093250Y-154977000D01*
X62819881Y-154676020D01*
X63376020Y-154119881D01*
X63677000Y-153393250D01*
X63677000Y-153000000D01*
X74405096Y-153000000D01*
X74501381Y-153484058D01*
X74775578Y-153894422D01*
X75185942Y-154168619D01*
X75547815Y-154240600D01*
X75792185Y-154240600D01*
X76154058Y-154168619D01*
X76564422Y-153894422D01*
X76838619Y-153484058D01*
X76934904Y-153000000D01*
X76945096Y-153000000D01*
X77041381Y-153484058D01*
X77315578Y-153894422D01*
X77725942Y-154168619D01*
X78087815Y-154240600D01*
X78332185Y-154240600D01*
X78694058Y-154168619D01*
X79104422Y-153894422D01*
X79378619Y-153484058D01*
X79474904Y-153000000D01*
X79485096Y-153000000D01*
X79581381Y-153484058D01*
X79855578Y-153894422D01*
X80265942Y-154168619D01*
X80627815Y-154240600D01*
X80872185Y-154240600D01*
X81234058Y-154168619D01*
X81644422Y-153894422D01*
X81918619Y-153484058D01*
X82014904Y-153000000D01*
X82025096Y-153000000D01*
X82121381Y-153484058D01*
X82395578Y-153894422D01*
X82805942Y-154168619D01*
X83167815Y-154240600D01*
X83412185Y-154240600D01*
X83774058Y-154168619D01*
X84184422Y-153894422D01*
X84458619Y-153484058D01*
X84554904Y-153000000D01*
X84458619Y-152515942D01*
X84184422Y-152105578D01*
X83774058Y-151831381D01*
X83412185Y-151759400D01*
X83167815Y-151759400D01*
X82805942Y-151831381D01*
X82395578Y-152105578D01*
X82121381Y-152515942D01*
X82025096Y-153000000D01*
X82014904Y-153000000D01*
X81918619Y-152515942D01*
X81644422Y-152105578D01*
X81234058Y-151831381D01*
X80872185Y-151759400D01*
X80627815Y-151759400D01*
X80265942Y-151831381D01*
X79855578Y-152105578D01*
X79581381Y-152515942D01*
X79485096Y-153000000D01*
X79474904Y-153000000D01*
X79378619Y-152515942D01*
X79104422Y-152105578D01*
X78694058Y-151831381D01*
X78332185Y-151759400D01*
X78087815Y-151759400D01*
X77725942Y-151831381D01*
X77315578Y-152105578D01*
X77041381Y-152515942D01*
X76945096Y-153000000D01*
X76934904Y-153000000D01*
X76838619Y-152515942D01*
X76564422Y-152105578D01*
X76154058Y-151831381D01*
X75792185Y-151759400D01*
X75547815Y-151759400D01*
X75185942Y-151831381D01*
X74775578Y-152105578D01*
X74501381Y-152515942D01*
X74405096Y-153000000D01*
X63677000Y-153000000D01*
X63677000Y-152606750D01*
X63376020Y-151880119D01*
X62819881Y-151323980D01*
X62093250Y-151023000D01*
X61306750Y-151023000D01*
X60580119Y-151323980D01*
X60152000Y-151752099D01*
X60152000Y-143344518D01*
X60160855Y-143300000D01*
X60125775Y-143123638D01*
X60025874Y-142974126D01*
X59876362Y-142874225D01*
X59744518Y-142848000D01*
X59700000Y-142839145D01*
X59655482Y-142848000D01*
X50707000Y-142848000D01*
X50707000Y-134540000D01*
X51448962Y-134540000D01*
X51544192Y-135018752D01*
X51815383Y-135424617D01*
X52221248Y-135695808D01*
X52579153Y-135767000D01*
X52820847Y-135767000D01*
X53178752Y-135695808D01*
X53584617Y-135424617D01*
X53855808Y-135018752D01*
X53951038Y-134540000D01*
X53988962Y-134540000D01*
X54084192Y-135018752D01*
X54355383Y-135424617D01*
X54761248Y-135695808D01*
X55119153Y-135767000D01*
X55360847Y-135767000D01*
X55718752Y-135695808D01*
X56124617Y-135424617D01*
X56395808Y-135018752D01*
X56491038Y-134540000D01*
X56528962Y-134540000D01*
X56624192Y-135018752D01*
X56895383Y-135424617D01*
X57301248Y-135695808D01*
X57659153Y-135767000D01*
X57900847Y-135767000D01*
X58258752Y-135695808D01*
X58664617Y-135424617D01*
X58935808Y-135018752D01*
X59031038Y-134540000D01*
X58935808Y-134061248D01*
X58664617Y-133655383D01*
X58258752Y-133384192D01*
X57900847Y-133313000D01*
X57659153Y-133313000D01*
X57301248Y-133384192D01*
X56895383Y-133655383D01*
X56624192Y-134061248D01*
X56528962Y-134540000D01*
X56491038Y-134540000D01*
X56395808Y-134061248D01*
X56124617Y-133655383D01*
X55718752Y-133384192D01*
X55360847Y-133313000D01*
X55119153Y-133313000D01*
X54761248Y-133384192D01*
X54355383Y-133655383D01*
X54084192Y-134061248D01*
X53988962Y-134540000D01*
X53951038Y-134540000D01*
X53855808Y-134061248D01*
X53584617Y-133655383D01*
X53178752Y-133384192D01*
X52820847Y-133313000D01*
X52579153Y-133313000D01*
X52221248Y-133384192D01*
X51815383Y-133655383D01*
X51544192Y-134061248D01*
X51448962Y-134540000D01*
X50707000Y-134540000D01*
X50707000Y-129745750D01*
X51215000Y-129745750D01*
X51215000Y-130436309D01*
X51311673Y-130669698D01*
X51490301Y-130848327D01*
X51723690Y-130945000D01*
X52414250Y-130945000D01*
X52573000Y-130786250D01*
X52573000Y-129587000D01*
X51373750Y-129587000D01*
X51215000Y-129745750D01*
X50707000Y-129745750D01*
X50707000Y-128483691D01*
X51215000Y-128483691D01*
X51215000Y-129174250D01*
X51373750Y-129333000D01*
X52573000Y-129333000D01*
X52573000Y-128133750D01*
X52414250Y-127975000D01*
X51723690Y-127975000D01*
X51490301Y-128071673D01*
X51311673Y-128250302D01*
X51215000Y-128483691D01*
X50707000Y-128483691D01*
X50707000Y-123952000D01*
X59655482Y-123952000D01*
X59700000Y-123960855D01*
X59744518Y-123952000D01*
X59876362Y-123925775D01*
X60025874Y-123825874D01*
X60125775Y-123676362D01*
X60160855Y-123500000D01*
X60152000Y-123455482D01*
X60152000Y-104346750D01*
X60993000Y-104346750D01*
X60993000Y-105133250D01*
X61293980Y-105859881D01*
X61850119Y-106416020D01*
X62576750Y-106717000D01*
X63363250Y-106717000D01*
X64089881Y-106416020D01*
X64646020Y-105859881D01*
X64947000Y-105133250D01*
X64947000Y-104740000D01*
X65261096Y-104740000D01*
X65357381Y-105224058D01*
X65631578Y-105634422D01*
X66041942Y-105908619D01*
X66403815Y-105980600D01*
X66648185Y-105980600D01*
X67010058Y-105908619D01*
X67420422Y-105634422D01*
X67694619Y-105224058D01*
X67790904Y-104740000D01*
X67801096Y-104740000D01*
X67897381Y-105224058D01*
X68171578Y-105634422D01*
X68581942Y-105908619D01*
X68943815Y-105980600D01*
X69188185Y-105980600D01*
X69550058Y-105908619D01*
X69960422Y-105634422D01*
X70234619Y-105224058D01*
X70330904Y-104740000D01*
X70341096Y-104740000D01*
X70437381Y-105224058D01*
X70711578Y-105634422D01*
X71121942Y-105908619D01*
X71483815Y-105980600D01*
X71728185Y-105980600D01*
X72090058Y-105908619D01*
X72500422Y-105634422D01*
X72754994Y-105253429D01*
X72863312Y-105514947D01*
X73257510Y-105946821D01*
X73786973Y-106194968D01*
X74019000Y-106074469D01*
X74019000Y-104867000D01*
X73999000Y-104867000D01*
X73999000Y-104613000D01*
X74019000Y-104613000D01*
X74019000Y-103405531D01*
X74273000Y-103405531D01*
X74273000Y-104613000D01*
X74293000Y-104613000D01*
X74293000Y-104867000D01*
X74273000Y-104867000D01*
X74273000Y-106074469D01*
X74505027Y-106194968D01*
X75034490Y-105946821D01*
X75428688Y-105514947D01*
X75537006Y-105253429D01*
X75791578Y-105634422D01*
X76201942Y-105908619D01*
X76563815Y-105980600D01*
X76808185Y-105980600D01*
X77170058Y-105908619D01*
X77580422Y-105634422D01*
X77854619Y-105224058D01*
X77950904Y-104740000D01*
X77854619Y-104255942D01*
X77580422Y-103845578D01*
X77170058Y-103571381D01*
X76808185Y-103499400D01*
X76563815Y-103499400D01*
X76201942Y-103571381D01*
X75791578Y-103845578D01*
X75537006Y-104226571D01*
X75428688Y-103965053D01*
X75034490Y-103533179D01*
X74505027Y-103285032D01*
X74273000Y-103405531D01*
X74019000Y-103405531D01*
X73786973Y-103285032D01*
X73257510Y-103533179D01*
X72863312Y-103965053D01*
X72754994Y-104226571D01*
X72500422Y-103845578D01*
X72090058Y-103571381D01*
X71728185Y-103499400D01*
X71483815Y-103499400D01*
X71121942Y-103571381D01*
X70711578Y-103845578D01*
X70437381Y-104255942D01*
X70341096Y-104740000D01*
X70330904Y-104740000D01*
X70234619Y-104255942D01*
X69960422Y-103845578D01*
X69550058Y-103571381D01*
X69188185Y-103499400D01*
X68943815Y-103499400D01*
X68581942Y-103571381D01*
X68171578Y-103845578D01*
X67897381Y-104255942D01*
X67801096Y-104740000D01*
X67790904Y-104740000D01*
X67694619Y-104255942D01*
X67420422Y-103845578D01*
X67010058Y-103571381D01*
X66648185Y-103499400D01*
X66403815Y-103499400D01*
X66041942Y-103571381D01*
X65631578Y-103845578D01*
X65357381Y-104255942D01*
X65261096Y-104740000D01*
X64947000Y-104740000D01*
X64947000Y-104346750D01*
X64646020Y-103620119D01*
X64089881Y-103063980D01*
X63363250Y-102763000D01*
X62576750Y-102763000D01*
X61850119Y-103063980D01*
X61293980Y-103620119D01*
X60993000Y-104346750D01*
X60152000Y-104346750D01*
X60152000Y-102652000D01*
X80606486Y-102652000D01*
X80557279Y-102684879D01*
G36*
X96007000Y-129333000D02*
X96027000Y-129333000D01*
X96027000Y-129587000D01*
X96007000Y-129587000D01*
X96007000Y-130780155D01*
X96236890Y-130901476D01*
X96646924Y-130731645D01*
X96957695Y-130448429D01*
X99864475Y-133355210D01*
X99892479Y-133397121D01*
X100058530Y-133508073D01*
X100204961Y-133537200D01*
X100204966Y-133537200D01*
X100241408Y-133544449D01*
X100075383Y-133655383D01*
X100009147Y-133754512D01*
X98989927Y-132735293D01*
X98961921Y-132693379D01*
X98795870Y-132582427D01*
X98649439Y-132553300D01*
X98649434Y-132553300D01*
X98600000Y-132543467D01*
X98550566Y-132553300D01*
X97143235Y-132553300D01*
X95468998Y-130879063D01*
X95523110Y-130901476D01*
X95753000Y-130780155D01*
X95753000Y-129587000D01*
X95733000Y-129587000D01*
X95733000Y-129333000D01*
X95753000Y-129333000D01*
X95753000Y-129313000D01*
X96007000Y-129313000D01*
X96007000Y-129333000D01*
X96007000Y-129333000D01*
G37*
X96007000Y-129333000D02*
X96027000Y-129333000D01*
X96027000Y-129587000D01*
X96007000Y-129587000D01*
X96007000Y-130780155D01*
X96236890Y-130901476D01*
X96646924Y-130731645D01*
X96957695Y-130448429D01*
X99864475Y-133355210D01*
X99892479Y-133397121D01*
X100058530Y-133508073D01*
X100204961Y-133537200D01*
X100204966Y-133537200D01*
X100241408Y-133544449D01*
X100075383Y-133655383D01*
X100009147Y-133754512D01*
X98989927Y-132735293D01*
X98961921Y-132693379D01*
X98795870Y-132582427D01*
X98649439Y-132553300D01*
X98649434Y-132553300D01*
X98600000Y-132543467D01*
X98550566Y-132553300D01*
X97143235Y-132553300D01*
X95468998Y-130879063D01*
X95523110Y-130901476D01*
X95753000Y-130780155D01*
X95753000Y-129587000D01*
X95733000Y-129587000D01*
X95733000Y-129333000D01*
X95753000Y-129333000D01*
X95753000Y-129313000D01*
X96007000Y-129313000D01*
X96007000Y-129333000D01*
G36*
X140541381Y-112844058D02*
X140815578Y-113254422D01*
X140867695Y-113289245D01*
X140836334Y-113310200D01*
X140777550Y-113349478D01*
X140749545Y-113391390D01*
X140201390Y-113939546D01*
X140159479Y-113967550D01*
X140131475Y-114009461D01*
X140131473Y-114009463D01*
X140048527Y-114133601D01*
X140009566Y-114329471D01*
X140019400Y-114378909D01*
X140019399Y-115421095D01*
X140009566Y-115470529D01*
X140019399Y-115519963D01*
X140019399Y-115519967D01*
X140048526Y-115666398D01*
X140159478Y-115832450D01*
X140201391Y-115860456D01*
X140210995Y-115870059D01*
X133370983Y-122710073D01*
X133329069Y-122738079D01*
X133218117Y-122904131D01*
X133188990Y-123050562D01*
X133188990Y-123050566D01*
X133179157Y-123100000D01*
X133188990Y-123149434D01*
X133188991Y-127589274D01*
X132568191Y-128210075D01*
X132526280Y-128238079D01*
X132498276Y-128279990D01*
X132498274Y-128279992D01*
X132426063Y-128388064D01*
X132206924Y-128188355D01*
X131796890Y-128018524D01*
X131567000Y-128139845D01*
X131567000Y-129333000D01*
X131587000Y-129333000D01*
X131587000Y-129587000D01*
X131567000Y-129587000D01*
X131567000Y-129607000D01*
X131313000Y-129607000D01*
X131313000Y-129587000D01*
X131293000Y-129587000D01*
X131293000Y-129333000D01*
X131313000Y-129333000D01*
X131313000Y-128139845D01*
X131083110Y-128018524D01*
X130673076Y-128188355D01*
X130672000Y-128189336D01*
X130672000Y-122396434D01*
X140488787Y-112579649D01*
X140541381Y-112844058D01*
X140541381Y-112844058D01*
G37*
X140541381Y-112844058D02*
X140815578Y-113254422D01*
X140867695Y-113289245D01*
X140836334Y-113310200D01*
X140777550Y-113349478D01*
X140749545Y-113391390D01*
X140201390Y-113939546D01*
X140159479Y-113967550D01*
X140131475Y-114009461D01*
X140131473Y-114009463D01*
X140048527Y-114133601D01*
X140009566Y-114329471D01*
X140019400Y-114378909D01*
X140019399Y-115421095D01*
X140009566Y-115470529D01*
X140019399Y-115519963D01*
X140019399Y-115519967D01*
X140048526Y-115666398D01*
X140159478Y-115832450D01*
X140201391Y-115860456D01*
X140210995Y-115870059D01*
X133370983Y-122710073D01*
X133329069Y-122738079D01*
X133218117Y-122904131D01*
X133188990Y-123050562D01*
X133188990Y-123050566D01*
X133179157Y-123100000D01*
X133188990Y-123149434D01*
X133188991Y-127589274D01*
X132568191Y-128210075D01*
X132526280Y-128238079D01*
X132498276Y-128279990D01*
X132498274Y-128279992D01*
X132426063Y-128388064D01*
X132206924Y-128188355D01*
X131796890Y-128018524D01*
X131567000Y-128139845D01*
X131567000Y-129333000D01*
X131587000Y-129333000D01*
X131587000Y-129587000D01*
X131567000Y-129587000D01*
X131567000Y-129607000D01*
X131313000Y-129607000D01*
X131313000Y-129587000D01*
X131293000Y-129587000D01*
X131293000Y-129333000D01*
X131313000Y-129333000D01*
X131313000Y-128139845D01*
X131083110Y-128018524D01*
X130673076Y-128188355D01*
X130672000Y-128189336D01*
X130672000Y-122396434D01*
X140488787Y-112579649D01*
X140541381Y-112844058D01*
G04 #@! TD*
M02*
