G04 #@! TF.GenerationSoftware,KiCad,Pcbnew,(5.0.0)*
G04 #@! TF.CreationDate,2018-09-11T16:23:21+02:00*
G04 #@! TF.ProjectId,romprg_megadrive_cart,726F6D7072675F6D6567616472697665,1*
G04 #@! TF.SameCoordinates,Original*
G04 #@! TF.FileFunction,Legend,Bot*
G04 #@! TF.FilePolarity,Positive*
%FSLAX46Y46*%
G04 Gerber Fmt 4.6, Leading zero omitted, Abs format (unit mm)*
G04 Created by KiCad (PCBNEW (5.0.0)) date 09/11/18 16:23:21*
%MOMM*%
%LPD*%
G01*
G04 APERTURE LIST*
%ADD10C,0.150000*%
G04 APERTURE END LIST*
G04 #@! TO.C,CON1*
D10*
X95169380Y-124699065D02*
X95121760Y-124603827D01*
X95121760Y-124460970D01*
X95169380Y-124318112D01*
X95264618Y-124222874D01*
X95359856Y-124175255D01*
X95550332Y-124127636D01*
X95693189Y-124127636D01*
X95883665Y-124175255D01*
X95978903Y-124222874D01*
X96074141Y-124318112D01*
X96121760Y-124460970D01*
X96121760Y-124556208D01*
X96074141Y-124699065D01*
X96026522Y-124746684D01*
X95693189Y-124746684D01*
X95693189Y-124556208D01*
X96121760Y-125175255D02*
X95121760Y-125175255D01*
X96121760Y-125746684D01*
X95121760Y-125746684D01*
X96121760Y-126222874D02*
X95121760Y-126222874D01*
X95121760Y-126460970D01*
X95169380Y-126603827D01*
X95264618Y-126699065D01*
X95359856Y-126746684D01*
X95550332Y-126794303D01*
X95693189Y-126794303D01*
X95883665Y-126746684D01*
X95978903Y-126699065D01*
X96074141Y-126603827D01*
X96121760Y-126460970D01*
X96121760Y-126222874D01*
X101201760Y-124722874D02*
X100201760Y-124722874D01*
X100201760Y-124960970D01*
X100249380Y-125103827D01*
X100344618Y-125199065D01*
X100439856Y-125246684D01*
X100630332Y-125294303D01*
X100773189Y-125294303D01*
X100963665Y-125246684D01*
X101058903Y-125199065D01*
X101154141Y-125103827D01*
X101201760Y-124960970D01*
X101201760Y-124722874D01*
X100201760Y-125913350D02*
X100201760Y-126008589D01*
X100249380Y-126103827D01*
X100296999Y-126151446D01*
X100392237Y-126199065D01*
X100582713Y-126246684D01*
X100820808Y-126246684D01*
X101011284Y-126199065D01*
X101106522Y-126151446D01*
X101154141Y-126103827D01*
X101201760Y-126008589D01*
X101201760Y-125913350D01*
X101154141Y-125818112D01*
X101106522Y-125770493D01*
X101011284Y-125722874D01*
X100820808Y-125675255D01*
X100582713Y-125675255D01*
X100392237Y-125722874D01*
X100296999Y-125770493D01*
X100249380Y-125818112D01*
X100201760Y-125913350D01*
X98661760Y-124722874D02*
X97661760Y-124722874D01*
X97661760Y-124960970D01*
X97709380Y-125103827D01*
X97804618Y-125199065D01*
X97899856Y-125246684D01*
X98090332Y-125294303D01*
X98233189Y-125294303D01*
X98423665Y-125246684D01*
X98518903Y-125199065D01*
X98614141Y-125103827D01*
X98661760Y-124960970D01*
X98661760Y-124722874D01*
X97661760Y-125627636D02*
X97661760Y-126294303D01*
X98661760Y-125865731D01*
X103741760Y-124722874D02*
X102741760Y-124722874D01*
X102741760Y-124960970D01*
X102789380Y-125103827D01*
X102884618Y-125199065D01*
X102979856Y-125246684D01*
X103170332Y-125294303D01*
X103313189Y-125294303D01*
X103503665Y-125246684D01*
X103598903Y-125199065D01*
X103694141Y-125103827D01*
X103741760Y-124960970D01*
X103741760Y-124722874D01*
X103170332Y-125865731D02*
X103122713Y-125770493D01*
X103075094Y-125722874D01*
X102979856Y-125675255D01*
X102932237Y-125675255D01*
X102836999Y-125722874D01*
X102789380Y-125770493D01*
X102741760Y-125865731D01*
X102741760Y-126056208D01*
X102789380Y-126151446D01*
X102836999Y-126199065D01*
X102932237Y-126246684D01*
X102979856Y-126246684D01*
X103075094Y-126199065D01*
X103122713Y-126151446D01*
X103170332Y-126056208D01*
X103170332Y-125865731D01*
X103217951Y-125770493D01*
X103265570Y-125722874D01*
X103360808Y-125675255D01*
X103551284Y-125675255D01*
X103646522Y-125722874D01*
X103694141Y-125770493D01*
X103741760Y-125865731D01*
X103741760Y-126056208D01*
X103694141Y-126151446D01*
X103646522Y-126199065D01*
X103551284Y-126246684D01*
X103360808Y-126246684D01*
X103265570Y-126199065D01*
X103217951Y-126151446D01*
X103170332Y-126056208D01*
X51989380Y-124699065D02*
X51941760Y-124603827D01*
X51941760Y-124460970D01*
X51989380Y-124318112D01*
X52084618Y-124222874D01*
X52179856Y-124175255D01*
X52370332Y-124127636D01*
X52513189Y-124127636D01*
X52703665Y-124175255D01*
X52798903Y-124222874D01*
X52894141Y-124318112D01*
X52941760Y-124460970D01*
X52941760Y-124556208D01*
X52894141Y-124699065D01*
X52846522Y-124746684D01*
X52513189Y-124746684D01*
X52513189Y-124556208D01*
X52941760Y-125175255D02*
X51941760Y-125175255D01*
X52941760Y-125746684D01*
X51941760Y-125746684D01*
X52941760Y-126222874D02*
X51941760Y-126222874D01*
X51941760Y-126460970D01*
X51989380Y-126603827D01*
X52084618Y-126699065D01*
X52179856Y-126746684D01*
X52370332Y-126794303D01*
X52513189Y-126794303D01*
X52703665Y-126746684D01*
X52798903Y-126699065D01*
X52894141Y-126603827D01*
X52941760Y-126460970D01*
X52941760Y-126222874D01*
X54481760Y-124127636D02*
X55481760Y-124460970D01*
X54481760Y-124794303D01*
X55386522Y-125699065D02*
X55434141Y-125651446D01*
X55481760Y-125508589D01*
X55481760Y-125413350D01*
X55434141Y-125270493D01*
X55338903Y-125175255D01*
X55243665Y-125127636D01*
X55053189Y-125080017D01*
X54910332Y-125080017D01*
X54719856Y-125127636D01*
X54624618Y-125175255D01*
X54529380Y-125270493D01*
X54481760Y-125413350D01*
X54481760Y-125508589D01*
X54529380Y-125651446D01*
X54576999Y-125699065D01*
X55386522Y-126699065D02*
X55434141Y-126651446D01*
X55481760Y-126508589D01*
X55481760Y-126413350D01*
X55434141Y-126270493D01*
X55338903Y-126175255D01*
X55243665Y-126127636D01*
X55053189Y-126080017D01*
X54910332Y-126080017D01*
X54719856Y-126127636D01*
X54624618Y-126175255D01*
X54529380Y-126270493D01*
X54481760Y-126413350D01*
X54481760Y-126508589D01*
X54529380Y-126651446D01*
X54576999Y-126699065D01*
X93296046Y-124746684D02*
X93296046Y-125222874D01*
X93581760Y-124651446D02*
X92581760Y-124984779D01*
X93581760Y-125318112D01*
X92581760Y-125841922D02*
X92581760Y-125937160D01*
X92629380Y-126032398D01*
X92676999Y-126080017D01*
X92772237Y-126127636D01*
X92962713Y-126175255D01*
X93200808Y-126175255D01*
X93391284Y-126127636D01*
X93486522Y-126080017D01*
X93534141Y-126032398D01*
X93581760Y-125937160D01*
X93581760Y-125841922D01*
X93534141Y-125746684D01*
X93486522Y-125699065D01*
X93391284Y-125651446D01*
X93200808Y-125603827D01*
X92962713Y-125603827D01*
X92772237Y-125651446D01*
X92676999Y-125699065D01*
X92629380Y-125746684D01*
X92581760Y-125841922D01*
X62816046Y-124746684D02*
X62816046Y-125222874D01*
X63101760Y-124651446D02*
X62101760Y-124984779D01*
X63101760Y-125318112D01*
X62101760Y-126080017D02*
X62101760Y-125889541D01*
X62149380Y-125794303D01*
X62196999Y-125746684D01*
X62339856Y-125651446D01*
X62530332Y-125603827D01*
X62911284Y-125603827D01*
X63006522Y-125651446D01*
X63054141Y-125699065D01*
X63101760Y-125794303D01*
X63101760Y-125984779D01*
X63054141Y-126080017D01*
X63006522Y-126127636D01*
X62911284Y-126175255D01*
X62673189Y-126175255D01*
X62577951Y-126127636D01*
X62530332Y-126080017D01*
X62482713Y-125984779D01*
X62482713Y-125794303D01*
X62530332Y-125699065D01*
X62577951Y-125651446D01*
X62673189Y-125603827D01*
X57736046Y-124746684D02*
X57736046Y-125222874D01*
X58021760Y-124651446D02*
X57021760Y-124984779D01*
X58021760Y-125318112D01*
X57021760Y-125556208D02*
X57021760Y-126222874D01*
X58021760Y-125794303D01*
X60276046Y-124270493D02*
X60276046Y-124746684D01*
X60561760Y-124175255D02*
X59561760Y-124508589D01*
X60561760Y-124841922D01*
X60561760Y-125699065D02*
X60561760Y-125127636D01*
X60561760Y-125413350D02*
X59561760Y-125413350D01*
X59704618Y-125318112D01*
X59799856Y-125222874D01*
X59847475Y-125127636D01*
X59561760Y-126318112D02*
X59561760Y-126413350D01*
X59609380Y-126508589D01*
X59656999Y-126556208D01*
X59752237Y-126603827D01*
X59942713Y-126651446D01*
X60180808Y-126651446D01*
X60371284Y-126603827D01*
X60466522Y-126556208D01*
X60514141Y-126508589D01*
X60561760Y-126413350D01*
X60561760Y-126318112D01*
X60514141Y-126222874D01*
X60466522Y-126175255D01*
X60371284Y-126127636D01*
X60180808Y-126080017D01*
X59942713Y-126080017D01*
X59752237Y-126127636D01*
X59656999Y-126175255D01*
X59609380Y-126222874D01*
X59561760Y-126318112D01*
X106281760Y-124722874D02*
X105281760Y-124722874D01*
X105281760Y-124960970D01*
X105329380Y-125103827D01*
X105424618Y-125199065D01*
X105519856Y-125246684D01*
X105710332Y-125294303D01*
X105853189Y-125294303D01*
X106043665Y-125246684D01*
X106138903Y-125199065D01*
X106234141Y-125103827D01*
X106281760Y-124960970D01*
X106281760Y-124722874D01*
X105281760Y-126151446D02*
X105281760Y-125960970D01*
X105329380Y-125865731D01*
X105376999Y-125818112D01*
X105519856Y-125722874D01*
X105710332Y-125675255D01*
X106091284Y-125675255D01*
X106186522Y-125722874D01*
X106234141Y-125770493D01*
X106281760Y-125865731D01*
X106281760Y-126056208D01*
X106234141Y-126151446D01*
X106186522Y-126199065D01*
X106091284Y-126246684D01*
X105853189Y-126246684D01*
X105757951Y-126199065D01*
X105710332Y-126151446D01*
X105662713Y-126056208D01*
X105662713Y-125865731D01*
X105710332Y-125770493D01*
X105757951Y-125722874D01*
X105853189Y-125675255D01*
X67896046Y-124746684D02*
X67896046Y-125222874D01*
X68181760Y-124651446D02*
X67181760Y-124984779D01*
X68181760Y-125318112D01*
X67181760Y-126127636D02*
X67181760Y-125651446D01*
X67657951Y-125603827D01*
X67610332Y-125651446D01*
X67562713Y-125746684D01*
X67562713Y-125984779D01*
X67610332Y-126080017D01*
X67657951Y-126127636D01*
X67753189Y-126175255D01*
X67991284Y-126175255D01*
X68086522Y-126127636D01*
X68134141Y-126080017D01*
X68181760Y-125984779D01*
X68181760Y-125746684D01*
X68134141Y-125651446D01*
X68086522Y-125603827D01*
X75516046Y-124270493D02*
X75516046Y-124746684D01*
X75801760Y-124175255D02*
X74801760Y-124508589D01*
X75801760Y-124841922D01*
X75801760Y-125699065D02*
X75801760Y-125127636D01*
X75801760Y-125413350D02*
X74801760Y-125413350D01*
X74944618Y-125318112D01*
X75039856Y-125222874D01*
X75087475Y-125127636D01*
X74801760Y-126032398D02*
X74801760Y-126651446D01*
X75182713Y-126318112D01*
X75182713Y-126460970D01*
X75230332Y-126556208D01*
X75277951Y-126603827D01*
X75373189Y-126651446D01*
X75611284Y-126651446D01*
X75706522Y-126603827D01*
X75754141Y-126556208D01*
X75801760Y-126460970D01*
X75801760Y-126175255D01*
X75754141Y-126080017D01*
X75706522Y-126032398D01*
X70436046Y-124270493D02*
X70436046Y-124746684D01*
X70721760Y-124175255D02*
X69721760Y-124508589D01*
X70721760Y-124841922D01*
X70721760Y-125699065D02*
X70721760Y-125127636D01*
X70721760Y-125413350D02*
X69721760Y-125413350D01*
X69864618Y-125318112D01*
X69959856Y-125222874D01*
X70007475Y-125127636D01*
X69816999Y-126080017D02*
X69769380Y-126127636D01*
X69721760Y-126222874D01*
X69721760Y-126460970D01*
X69769380Y-126556208D01*
X69816999Y-126603827D01*
X69912237Y-126651446D01*
X70007475Y-126651446D01*
X70150332Y-126603827D01*
X70721760Y-126032398D01*
X70721760Y-126651446D01*
X72976046Y-124746684D02*
X72976046Y-125222874D01*
X73261760Y-124651446D02*
X72261760Y-124984779D01*
X73261760Y-125318112D01*
X72595094Y-126080017D02*
X73261760Y-126080017D01*
X72214141Y-125841922D02*
X72928427Y-125603827D01*
X72928427Y-126222874D01*
X65356046Y-124270493D02*
X65356046Y-124746684D01*
X65641760Y-124175255D02*
X64641760Y-124508589D01*
X65641760Y-124841922D01*
X65641760Y-125699065D02*
X65641760Y-125127636D01*
X65641760Y-125413350D02*
X64641760Y-125413350D01*
X64784618Y-125318112D01*
X64879856Y-125222874D01*
X64927475Y-125127636D01*
X65641760Y-126651446D02*
X65641760Y-126080017D01*
X65641760Y-126365731D02*
X64641760Y-126365731D01*
X64784618Y-126270493D01*
X64879856Y-126175255D01*
X64927475Y-126080017D01*
X90756046Y-124270493D02*
X90756046Y-124746684D01*
X91041760Y-124175255D02*
X90041760Y-124508589D01*
X91041760Y-124841922D01*
X91041760Y-125699065D02*
X91041760Y-125127636D01*
X91041760Y-125413350D02*
X90041760Y-125413350D01*
X90184618Y-125318112D01*
X90279856Y-125222874D01*
X90327475Y-125127636D01*
X90041760Y-126556208D02*
X90041760Y-126365731D01*
X90089380Y-126270493D01*
X90136999Y-126222874D01*
X90279856Y-126127636D01*
X90470332Y-126080017D01*
X90851284Y-126080017D01*
X90946522Y-126127636D01*
X90994141Y-126175255D01*
X91041760Y-126270493D01*
X91041760Y-126460970D01*
X90994141Y-126556208D01*
X90946522Y-126603827D01*
X90851284Y-126651446D01*
X90613189Y-126651446D01*
X90517951Y-126603827D01*
X90470332Y-126556208D01*
X90422713Y-126460970D01*
X90422713Y-126270493D01*
X90470332Y-126175255D01*
X90517951Y-126127636D01*
X90613189Y-126080017D01*
X85676046Y-124270493D02*
X85676046Y-124746684D01*
X85961760Y-124175255D02*
X84961760Y-124508589D01*
X85961760Y-124841922D01*
X85961760Y-125699065D02*
X85961760Y-125127636D01*
X85961760Y-125413350D02*
X84961760Y-125413350D01*
X85104618Y-125318112D01*
X85199856Y-125222874D01*
X85247475Y-125127636D01*
X84961760Y-126603827D02*
X84961760Y-126127636D01*
X85437951Y-126080017D01*
X85390332Y-126127636D01*
X85342713Y-126222874D01*
X85342713Y-126460970D01*
X85390332Y-126556208D01*
X85437951Y-126603827D01*
X85533189Y-126651446D01*
X85771284Y-126651446D01*
X85866522Y-126603827D01*
X85914141Y-126556208D01*
X85961760Y-126460970D01*
X85961760Y-126222874D01*
X85914141Y-126127636D01*
X85866522Y-126080017D01*
X83136046Y-124746684D02*
X83136046Y-125222874D01*
X83421760Y-124651446D02*
X82421760Y-124984779D01*
X83421760Y-125318112D01*
X82516999Y-125603827D02*
X82469380Y-125651446D01*
X82421760Y-125746684D01*
X82421760Y-125984779D01*
X82469380Y-126080017D01*
X82516999Y-126127636D01*
X82612237Y-126175255D01*
X82707475Y-126175255D01*
X82850332Y-126127636D01*
X83421760Y-125556208D01*
X83421760Y-126175255D01*
X80596046Y-124270493D02*
X80596046Y-124746684D01*
X80881760Y-124175255D02*
X79881760Y-124508589D01*
X80881760Y-124841922D01*
X80881760Y-125699065D02*
X80881760Y-125127636D01*
X80881760Y-125413350D02*
X79881760Y-125413350D01*
X80024618Y-125318112D01*
X80119856Y-125222874D01*
X80167475Y-125127636D01*
X80215094Y-126556208D02*
X80881760Y-126556208D01*
X79834141Y-126318112D02*
X80548427Y-126080017D01*
X80548427Y-126699065D01*
X88216046Y-124746684D02*
X88216046Y-125222874D01*
X88501760Y-124651446D02*
X87501760Y-124984779D01*
X88501760Y-125318112D01*
X88501760Y-126175255D02*
X88501760Y-125603827D01*
X88501760Y-125889541D02*
X87501760Y-125889541D01*
X87644618Y-125794303D01*
X87739856Y-125699065D01*
X87787475Y-125603827D01*
X78056046Y-124746684D02*
X78056046Y-125222874D01*
X78341760Y-124651446D02*
X77341760Y-124984779D01*
X78341760Y-125318112D01*
X77341760Y-125556208D02*
X77341760Y-126175255D01*
X77722713Y-125841922D01*
X77722713Y-125984779D01*
X77770332Y-126080017D01*
X77817951Y-126127636D01*
X77913189Y-126175255D01*
X78151284Y-126175255D01*
X78246522Y-126127636D01*
X78294141Y-126080017D01*
X78341760Y-125984779D01*
X78341760Y-125699065D01*
X78294141Y-125603827D01*
X78246522Y-125556208D01*
X130729380Y-124699065D02*
X130681760Y-124603827D01*
X130681760Y-124460970D01*
X130729380Y-124318112D01*
X130824618Y-124222874D01*
X130919856Y-124175255D01*
X131110332Y-124127636D01*
X131253189Y-124127636D01*
X131443665Y-124175255D01*
X131538903Y-124222874D01*
X131634141Y-124318112D01*
X131681760Y-124460970D01*
X131681760Y-124556208D01*
X131634141Y-124699065D01*
X131586522Y-124746684D01*
X131253189Y-124746684D01*
X131253189Y-124556208D01*
X131681760Y-125175255D02*
X130681760Y-125175255D01*
X131681760Y-125746684D01*
X130681760Y-125746684D01*
X131681760Y-126222874D02*
X130681760Y-126222874D01*
X130681760Y-126460970D01*
X130729380Y-126603827D01*
X130824618Y-126699065D01*
X130919856Y-126746684D01*
X131110332Y-126794303D01*
X131253189Y-126794303D01*
X131443665Y-126746684D01*
X131538903Y-126699065D01*
X131634141Y-126603827D01*
X131681760Y-126460970D01*
X131681760Y-126222874D01*
X121521760Y-124722874D02*
X120521760Y-124722874D01*
X120521760Y-124960970D01*
X120569380Y-125103827D01*
X120664618Y-125199065D01*
X120759856Y-125246684D01*
X120950332Y-125294303D01*
X121093189Y-125294303D01*
X121283665Y-125246684D01*
X121378903Y-125199065D01*
X121474141Y-125103827D01*
X121521760Y-124960970D01*
X121521760Y-124722874D01*
X120855094Y-126151446D02*
X121521760Y-126151446D01*
X120474141Y-125913350D02*
X121188427Y-125675255D01*
X121188427Y-126294303D01*
X126601760Y-124246684D02*
X125601760Y-124246684D01*
X125601760Y-124484779D01*
X125649380Y-124627636D01*
X125744618Y-124722874D01*
X125839856Y-124770493D01*
X126030332Y-124818112D01*
X126173189Y-124818112D01*
X126363665Y-124770493D01*
X126458903Y-124722874D01*
X126554141Y-124627636D01*
X126601760Y-124484779D01*
X126601760Y-124246684D01*
X126601760Y-125770493D02*
X126601760Y-125199065D01*
X126601760Y-125484779D02*
X125601760Y-125484779D01*
X125744618Y-125389541D01*
X125839856Y-125294303D01*
X125887475Y-125199065D01*
X126601760Y-126722874D02*
X126601760Y-126151446D01*
X126601760Y-126437160D02*
X125601760Y-126437160D01*
X125744618Y-126341922D01*
X125839856Y-126246684D01*
X125887475Y-126151446D01*
X128141760Y-124127636D02*
X129141760Y-124460970D01*
X128141760Y-124794303D01*
X129046522Y-125699065D02*
X129094141Y-125651446D01*
X129141760Y-125508589D01*
X129141760Y-125413350D01*
X129094141Y-125270493D01*
X128998903Y-125175255D01*
X128903665Y-125127636D01*
X128713189Y-125080017D01*
X128570332Y-125080017D01*
X128379856Y-125127636D01*
X128284618Y-125175255D01*
X128189380Y-125270493D01*
X128141760Y-125413350D01*
X128141760Y-125508589D01*
X128189380Y-125651446D01*
X128236999Y-125699065D01*
X129046522Y-126699065D02*
X129094141Y-126651446D01*
X129141760Y-126508589D01*
X129141760Y-126413350D01*
X129094141Y-126270493D01*
X128998903Y-126175255D01*
X128903665Y-126127636D01*
X128713189Y-126080017D01*
X128570332Y-126080017D01*
X128379856Y-126127636D01*
X128284618Y-126175255D01*
X128189380Y-126270493D01*
X128141760Y-126413350D01*
X128141760Y-126508589D01*
X128189380Y-126651446D01*
X128236999Y-126699065D01*
X124061760Y-124722874D02*
X123061760Y-124722874D01*
X123061760Y-124960970D01*
X123109380Y-125103827D01*
X123204618Y-125199065D01*
X123299856Y-125246684D01*
X123490332Y-125294303D01*
X123633189Y-125294303D01*
X123823665Y-125246684D01*
X123918903Y-125199065D01*
X124014141Y-125103827D01*
X124061760Y-124960970D01*
X124061760Y-124722874D01*
X123061760Y-125627636D02*
X123061760Y-126246684D01*
X123442713Y-125913350D01*
X123442713Y-126056208D01*
X123490332Y-126151446D01*
X123537951Y-126199065D01*
X123633189Y-126246684D01*
X123871284Y-126246684D01*
X123966522Y-126199065D01*
X124014141Y-126151446D01*
X124061760Y-126056208D01*
X124061760Y-125770493D01*
X124014141Y-125675255D01*
X123966522Y-125627636D01*
X113901760Y-124722874D02*
X112901760Y-124722874D01*
X112901760Y-124960970D01*
X112949380Y-125103827D01*
X113044618Y-125199065D01*
X113139856Y-125246684D01*
X113330332Y-125294303D01*
X113473189Y-125294303D01*
X113663665Y-125246684D01*
X113758903Y-125199065D01*
X113854141Y-125103827D01*
X113901760Y-124960970D01*
X113901760Y-124722874D01*
X112901760Y-126199065D02*
X112901760Y-125722874D01*
X113377951Y-125675255D01*
X113330332Y-125722874D01*
X113282713Y-125818112D01*
X113282713Y-126056208D01*
X113330332Y-126151446D01*
X113377951Y-126199065D01*
X113473189Y-126246684D01*
X113711284Y-126246684D01*
X113806522Y-126199065D01*
X113854141Y-126151446D01*
X113901760Y-126056208D01*
X113901760Y-125818112D01*
X113854141Y-125722874D01*
X113806522Y-125675255D01*
X116441760Y-124722874D02*
X115441760Y-124722874D01*
X115441760Y-124960970D01*
X115489380Y-125103827D01*
X115584618Y-125199065D01*
X115679856Y-125246684D01*
X115870332Y-125294303D01*
X116013189Y-125294303D01*
X116203665Y-125246684D01*
X116298903Y-125199065D01*
X116394141Y-125103827D01*
X116441760Y-124960970D01*
X116441760Y-124722874D01*
X115536999Y-125675255D02*
X115489380Y-125722874D01*
X115441760Y-125818112D01*
X115441760Y-126056208D01*
X115489380Y-126151446D01*
X115536999Y-126199065D01*
X115632237Y-126246684D01*
X115727475Y-126246684D01*
X115870332Y-126199065D01*
X116441760Y-125627636D01*
X116441760Y-126246684D01*
X111361760Y-124722874D02*
X110361760Y-124722874D01*
X110361760Y-124960970D01*
X110409380Y-125103827D01*
X110504618Y-125199065D01*
X110599856Y-125246684D01*
X110790332Y-125294303D01*
X110933189Y-125294303D01*
X111123665Y-125246684D01*
X111218903Y-125199065D01*
X111314141Y-125103827D01*
X111361760Y-124960970D01*
X111361760Y-124722874D01*
X111361760Y-125770493D02*
X111361760Y-125960970D01*
X111314141Y-126056208D01*
X111266522Y-126103827D01*
X111123665Y-126199065D01*
X110933189Y-126246684D01*
X110552237Y-126246684D01*
X110456999Y-126199065D01*
X110409380Y-126151446D01*
X110361760Y-126056208D01*
X110361760Y-125865731D01*
X110409380Y-125770493D01*
X110456999Y-125722874D01*
X110552237Y-125675255D01*
X110790332Y-125675255D01*
X110885570Y-125722874D01*
X110933189Y-125770493D01*
X110980808Y-125865731D01*
X110980808Y-126056208D01*
X110933189Y-126151446D01*
X110885570Y-126199065D01*
X110790332Y-126246684D01*
X108821760Y-124722874D02*
X107821760Y-124722874D01*
X107821760Y-124960970D01*
X107869380Y-125103827D01*
X107964618Y-125199065D01*
X108059856Y-125246684D01*
X108250332Y-125294303D01*
X108393189Y-125294303D01*
X108583665Y-125246684D01*
X108678903Y-125199065D01*
X108774141Y-125103827D01*
X108821760Y-124960970D01*
X108821760Y-124722874D01*
X108821760Y-126246684D02*
X108821760Y-125675255D01*
X108821760Y-125960970D02*
X107821760Y-125960970D01*
X107964618Y-125865731D01*
X108059856Y-125770493D01*
X108107475Y-125675255D01*
X118981760Y-124246684D02*
X117981760Y-124246684D01*
X117981760Y-124484779D01*
X118029380Y-124627636D01*
X118124618Y-124722874D01*
X118219856Y-124770493D01*
X118410332Y-124818112D01*
X118553189Y-124818112D01*
X118743665Y-124770493D01*
X118838903Y-124722874D01*
X118934141Y-124627636D01*
X118981760Y-124484779D01*
X118981760Y-124246684D01*
X118981760Y-125770493D02*
X118981760Y-125199065D01*
X118981760Y-125484779D02*
X117981760Y-125484779D01*
X118124618Y-125389541D01*
X118219856Y-125294303D01*
X118267475Y-125199065D01*
X117981760Y-126389541D02*
X117981760Y-126484779D01*
X118029380Y-126580017D01*
X118076999Y-126627636D01*
X118172237Y-126675255D01*
X118362713Y-126722874D01*
X118600808Y-126722874D01*
X118791284Y-126675255D01*
X118886522Y-126627636D01*
X118934141Y-126580017D01*
X118981760Y-126484779D01*
X118981760Y-126389541D01*
X118934141Y-126294303D01*
X118886522Y-126246684D01*
X118791284Y-126199065D01*
X118600808Y-126151446D01*
X118362713Y-126151446D01*
X118172237Y-126199065D01*
X118076999Y-126246684D01*
X118029380Y-126294303D01*
X117981760Y-126389541D01*
X128120100Y-138298544D02*
X128120100Y-139060449D01*
X128487480Y-138393782D02*
X128487480Y-138965211D01*
X129487480Y-138679497D02*
X128487480Y-138679497D01*
X128120100Y-139060449D02*
X128120100Y-139536640D01*
X129487480Y-139298544D02*
X128487480Y-139298544D01*
X128120100Y-139536640D02*
X128120100Y-140679497D01*
X129487480Y-139774735D02*
X128487480Y-139774735D01*
X129201766Y-140108068D01*
X128487480Y-140441402D01*
X129487480Y-140441402D01*
X128120100Y-140679497D02*
X128120100Y-141584259D01*
X128963671Y-140917592D02*
X128963671Y-141250925D01*
X129487480Y-141393782D02*
X129487480Y-140917592D01*
X128487480Y-140917592D01*
X128487480Y-141393782D01*
X123040100Y-137869973D02*
X123040100Y-138917592D01*
X123407480Y-138108068D02*
X124217004Y-138108068D01*
X124312242Y-138155687D01*
X124359861Y-138203306D01*
X124407480Y-138298544D01*
X124407480Y-138489021D01*
X124359861Y-138584259D01*
X124312242Y-138631878D01*
X124217004Y-138679497D01*
X123407480Y-138679497D01*
X123040100Y-138917592D02*
X123040100Y-139917592D01*
X124407480Y-139155687D02*
X123407480Y-139155687D01*
X123407480Y-139393782D01*
X123455100Y-139536640D01*
X123550338Y-139631878D01*
X123645576Y-139679497D01*
X123836052Y-139727116D01*
X123978909Y-139727116D01*
X124169385Y-139679497D01*
X124264623Y-139631878D01*
X124359861Y-139536640D01*
X124407480Y-139393782D01*
X124407480Y-139155687D01*
X123040100Y-139917592D02*
X123040100Y-140869973D01*
X124359861Y-140108068D02*
X124407480Y-140250925D01*
X124407480Y-140489021D01*
X124359861Y-140584259D01*
X124312242Y-140631878D01*
X124217004Y-140679497D01*
X124121766Y-140679497D01*
X124026528Y-140631878D01*
X123978909Y-140584259D01*
X123931290Y-140489021D01*
X123883671Y-140298544D01*
X123836052Y-140203306D01*
X123788433Y-140155687D01*
X123693195Y-140108068D01*
X123597957Y-140108068D01*
X123502719Y-140155687D01*
X123455100Y-140203306D01*
X123407480Y-140298544D01*
X123407480Y-140536640D01*
X123455100Y-140679497D01*
X123040100Y-140869973D02*
X123040100Y-142012830D01*
X123407480Y-141012830D02*
X124407480Y-141250925D01*
X123693195Y-141441402D01*
X124407480Y-141631878D01*
X123407480Y-141869973D01*
X114247480Y-138727116D02*
X113247480Y-138727116D01*
X113247480Y-138965211D01*
X113295100Y-139108068D01*
X113390338Y-139203306D01*
X113485576Y-139250925D01*
X113676052Y-139298544D01*
X113818909Y-139298544D01*
X114009385Y-139250925D01*
X114104623Y-139203306D01*
X114199861Y-139108068D01*
X114247480Y-138965211D01*
X114247480Y-138727116D01*
X114247480Y-140250925D02*
X114247480Y-139679497D01*
X114247480Y-139965211D02*
X113247480Y-139965211D01*
X113390338Y-139869973D01*
X113485576Y-139774735D01*
X113533195Y-139679497D01*
X113342719Y-140631878D02*
X113295100Y-140679497D01*
X113247480Y-140774735D01*
X113247480Y-141012830D01*
X113295100Y-141108068D01*
X113342719Y-141155687D01*
X113437957Y-141203306D01*
X113533195Y-141203306D01*
X113676052Y-141155687D01*
X114247480Y-140584259D01*
X114247480Y-141203306D01*
X111707480Y-138727116D02*
X110707480Y-138727116D01*
X110707480Y-138965211D01*
X110755100Y-139108068D01*
X110850338Y-139203306D01*
X110945576Y-139250925D01*
X111136052Y-139298544D01*
X111278909Y-139298544D01*
X111469385Y-139250925D01*
X111564623Y-139203306D01*
X111659861Y-139108068D01*
X111707480Y-138965211D01*
X111707480Y-138727116D01*
X111707480Y-140250925D02*
X111707480Y-139679497D01*
X111707480Y-139965211D02*
X110707480Y-139965211D01*
X110850338Y-139869973D01*
X110945576Y-139774735D01*
X110993195Y-139679497D01*
X110707480Y-140584259D02*
X110707480Y-141203306D01*
X111088433Y-140869973D01*
X111088433Y-141012830D01*
X111136052Y-141108068D01*
X111183671Y-141155687D01*
X111278909Y-141203306D01*
X111517004Y-141203306D01*
X111612242Y-141155687D01*
X111659861Y-141108068D01*
X111707480Y-141012830D01*
X111707480Y-140727116D01*
X111659861Y-140631878D01*
X111612242Y-140584259D01*
X109167480Y-138727116D02*
X108167480Y-138727116D01*
X108167480Y-138965211D01*
X108215100Y-139108068D01*
X108310338Y-139203306D01*
X108405576Y-139250925D01*
X108596052Y-139298544D01*
X108738909Y-139298544D01*
X108929385Y-139250925D01*
X109024623Y-139203306D01*
X109119861Y-139108068D01*
X109167480Y-138965211D01*
X109167480Y-138727116D01*
X109167480Y-140250925D02*
X109167480Y-139679497D01*
X109167480Y-139965211D02*
X108167480Y-139965211D01*
X108310338Y-139869973D01*
X108405576Y-139774735D01*
X108453195Y-139679497D01*
X108500814Y-141108068D02*
X109167480Y-141108068D01*
X108119861Y-140869973D02*
X108834147Y-140631878D01*
X108834147Y-141250925D01*
X115420100Y-137036640D02*
X115420100Y-137846163D01*
X116787480Y-137750925D02*
X116787480Y-137274735D01*
X115787480Y-137274735D01*
X115420100Y-137846163D02*
X115420100Y-138893782D01*
X115787480Y-138274735D02*
X115787480Y-138465211D01*
X115835100Y-138560449D01*
X115930338Y-138655687D01*
X116120814Y-138703306D01*
X116454147Y-138703306D01*
X116644623Y-138655687D01*
X116739861Y-138560449D01*
X116787480Y-138465211D01*
X116787480Y-138274735D01*
X116739861Y-138179497D01*
X116644623Y-138084259D01*
X116454147Y-138036640D01*
X116120814Y-138036640D01*
X115930338Y-138084259D01*
X115835100Y-138179497D01*
X115787480Y-138274735D01*
X115420100Y-138893782D02*
X115420100Y-139655687D01*
X116882719Y-138893782D02*
X116882719Y-139655687D01*
X115420100Y-139655687D02*
X115420100Y-140798544D01*
X116787480Y-139893782D02*
X115787480Y-139893782D01*
X116501766Y-140227116D01*
X115787480Y-140560449D01*
X116787480Y-140560449D01*
X115420100Y-140798544D02*
X115420100Y-141703306D01*
X116263671Y-141036640D02*
X116263671Y-141369973D01*
X116787480Y-141512830D02*
X116787480Y-141036640D01*
X115787480Y-141036640D01*
X115787480Y-141512830D01*
X115420100Y-141703306D02*
X115420100Y-142846163D01*
X116787480Y-141941402D02*
X115787480Y-141941402D01*
X116501766Y-142274735D01*
X115787480Y-142608068D01*
X116787480Y-142608068D01*
X117960100Y-136679497D02*
X117960100Y-137631878D01*
X118327480Y-137346163D02*
X118327480Y-137155687D01*
X118375100Y-137060449D01*
X118422719Y-137012830D01*
X118565576Y-136917592D01*
X118756052Y-136869973D01*
X119137004Y-136869973D01*
X119232242Y-136917592D01*
X119279861Y-136965211D01*
X119327480Y-137060449D01*
X119327480Y-137250925D01*
X119279861Y-137346163D01*
X119232242Y-137393782D01*
X119137004Y-137441402D01*
X118898909Y-137441402D01*
X118803671Y-137393782D01*
X118756052Y-137346163D01*
X118708433Y-137250925D01*
X118708433Y-137060449D01*
X118756052Y-136965211D01*
X118803671Y-136917592D01*
X118898909Y-136869973D01*
X117960100Y-137631878D02*
X117960100Y-138584259D01*
X118756052Y-138012830D02*
X118708433Y-137917592D01*
X118660814Y-137869973D01*
X118565576Y-137822354D01*
X118517957Y-137822354D01*
X118422719Y-137869973D01*
X118375100Y-137917592D01*
X118327480Y-138012830D01*
X118327480Y-138203306D01*
X118375100Y-138298544D01*
X118422719Y-138346163D01*
X118517957Y-138393782D01*
X118565576Y-138393782D01*
X118660814Y-138346163D01*
X118708433Y-138298544D01*
X118756052Y-138203306D01*
X118756052Y-138012830D01*
X118803671Y-137917592D01*
X118851290Y-137869973D01*
X118946528Y-137822354D01*
X119137004Y-137822354D01*
X119232242Y-137869973D01*
X119279861Y-137917592D01*
X119327480Y-138012830D01*
X119327480Y-138203306D01*
X119279861Y-138298544D01*
X119232242Y-138346163D01*
X119137004Y-138393782D01*
X118946528Y-138393782D01*
X118851290Y-138346163D01*
X118803671Y-138298544D01*
X118756052Y-138203306D01*
X117960100Y-138584259D02*
X117960100Y-139584259D01*
X119327480Y-138822354D02*
X118327480Y-138822354D01*
X119327480Y-139393782D02*
X118756052Y-138965211D01*
X118327480Y-139393782D02*
X118898909Y-138822354D01*
X117960100Y-139584259D02*
X117960100Y-140346163D01*
X119422719Y-139584259D02*
X119422719Y-140346163D01*
X117960100Y-140346163D02*
X117960100Y-141346163D01*
X119327480Y-141155687D02*
X118851290Y-140822354D01*
X119327480Y-140584259D02*
X118327480Y-140584259D01*
X118327480Y-140965211D01*
X118375100Y-141060449D01*
X118422719Y-141108068D01*
X118517957Y-141155687D01*
X118660814Y-141155687D01*
X118756052Y-141108068D01*
X118803671Y-141060449D01*
X118851290Y-140965211D01*
X118851290Y-140584259D01*
X117960100Y-141346163D02*
X117960100Y-142250925D01*
X118803671Y-141584259D02*
X118803671Y-141917592D01*
X119327480Y-142060449D02*
X119327480Y-141584259D01*
X118327480Y-141584259D01*
X118327480Y-142060449D01*
X117960100Y-142250925D02*
X117960100Y-143203306D01*
X119279861Y-142441402D02*
X119327480Y-142584259D01*
X119327480Y-142822354D01*
X119279861Y-142917592D01*
X119232242Y-142965211D01*
X119137004Y-143012830D01*
X119041766Y-143012830D01*
X118946528Y-142965211D01*
X118898909Y-142917592D01*
X118851290Y-142822354D01*
X118803671Y-142631878D01*
X118756052Y-142536640D01*
X118708433Y-142489021D01*
X118613195Y-142441402D01*
X118517957Y-142441402D01*
X118422719Y-142489021D01*
X118375100Y-142536640D01*
X118327480Y-142631878D01*
X118327480Y-142869973D01*
X118375100Y-143012830D01*
X106627480Y-138727116D02*
X105627480Y-138727116D01*
X105627480Y-138965211D01*
X105675100Y-139108068D01*
X105770338Y-139203306D01*
X105865576Y-139250925D01*
X106056052Y-139298544D01*
X106198909Y-139298544D01*
X106389385Y-139250925D01*
X106484623Y-139203306D01*
X106579861Y-139108068D01*
X106627480Y-138965211D01*
X106627480Y-138727116D01*
X106627480Y-140250925D02*
X106627480Y-139679497D01*
X106627480Y-139965211D02*
X105627480Y-139965211D01*
X105770338Y-139869973D01*
X105865576Y-139774735D01*
X105913195Y-139679497D01*
X105627480Y-141155687D02*
X105627480Y-140679497D01*
X106103671Y-140631878D01*
X106056052Y-140679497D01*
X106008433Y-140774735D01*
X106008433Y-141012830D01*
X106056052Y-141108068D01*
X106103671Y-141155687D01*
X106198909Y-141203306D01*
X106437004Y-141203306D01*
X106532242Y-141155687D01*
X106579861Y-141108068D01*
X106627480Y-141012830D01*
X106627480Y-140774735D01*
X106579861Y-140679497D01*
X106532242Y-140631878D01*
X102720100Y-137679497D02*
X102720100Y-138679497D01*
X103992242Y-138489021D02*
X104039861Y-138441402D01*
X104087480Y-138298544D01*
X104087480Y-138203306D01*
X104039861Y-138060449D01*
X103944623Y-137965211D01*
X103849385Y-137917592D01*
X103658909Y-137869973D01*
X103516052Y-137869973D01*
X103325576Y-137917592D01*
X103230338Y-137965211D01*
X103135100Y-138060449D01*
X103087480Y-138203306D01*
X103087480Y-138298544D01*
X103135100Y-138441402D01*
X103182719Y-138489021D01*
X102720100Y-138679497D02*
X102720100Y-139536640D01*
X103801766Y-138869973D02*
X103801766Y-139346163D01*
X104087480Y-138774735D02*
X103087480Y-139108068D01*
X104087480Y-139441402D01*
X102720100Y-139536640D02*
X102720100Y-140489021D01*
X104039861Y-139727116D02*
X104087480Y-139869973D01*
X104087480Y-140108068D01*
X104039861Y-140203306D01*
X103992242Y-140250925D01*
X103897004Y-140298544D01*
X103801766Y-140298544D01*
X103706528Y-140250925D01*
X103658909Y-140203306D01*
X103611290Y-140108068D01*
X103563671Y-139917592D01*
X103516052Y-139822354D01*
X103468433Y-139774735D01*
X103373195Y-139727116D01*
X103277957Y-139727116D01*
X103182719Y-139774735D01*
X103135100Y-139822354D01*
X103087480Y-139917592D01*
X103087480Y-140155687D01*
X103135100Y-140298544D01*
X102720100Y-140489021D02*
X102720100Y-141250925D01*
X104182719Y-140489021D02*
X104182719Y-141250925D01*
X102720100Y-141250925D02*
X102720100Y-142203306D01*
X104087480Y-142012830D02*
X104087480Y-141441402D01*
X104087480Y-141727116D02*
X103087480Y-141727116D01*
X103230338Y-141631878D01*
X103325576Y-141536640D01*
X103373195Y-141441402D01*
X100180100Y-137631878D02*
X100180100Y-138631878D01*
X101547480Y-137869973D02*
X100547480Y-137869973D01*
X100547480Y-138108068D01*
X100595100Y-138250925D01*
X100690338Y-138346163D01*
X100785576Y-138393782D01*
X100976052Y-138441402D01*
X101118909Y-138441402D01*
X101309385Y-138393782D01*
X101404623Y-138346163D01*
X101499861Y-138250925D01*
X101547480Y-138108068D01*
X101547480Y-137869973D01*
X100180100Y-138631878D02*
X100180100Y-139393782D01*
X100547480Y-138727116D02*
X100547480Y-139298544D01*
X101547480Y-139012830D02*
X100547480Y-139012830D01*
X100180100Y-139393782D02*
X100180100Y-140250925D01*
X101261766Y-139584259D02*
X101261766Y-140060449D01*
X101547480Y-139489021D02*
X100547480Y-139822354D01*
X101547480Y-140155687D01*
X100180100Y-140250925D02*
X100180100Y-141250925D01*
X101452242Y-141060449D02*
X101499861Y-141012830D01*
X101547480Y-140869973D01*
X101547480Y-140774735D01*
X101499861Y-140631878D01*
X101404623Y-140536640D01*
X101309385Y-140489021D01*
X101118909Y-140441402D01*
X100976052Y-140441402D01*
X100785576Y-140489021D01*
X100690338Y-140536640D01*
X100595100Y-140631878D01*
X100547480Y-140774735D01*
X100547480Y-140869973D01*
X100595100Y-141012830D01*
X100642719Y-141060449D01*
X100180100Y-141250925D02*
X100180100Y-142250925D01*
X101547480Y-141489021D02*
X100547480Y-141489021D01*
X101547480Y-142060449D02*
X100976052Y-141631878D01*
X100547480Y-142060449D02*
X101118909Y-141489021D01*
X120500100Y-137989021D02*
X120500100Y-138798544D01*
X121867480Y-138703306D02*
X121867480Y-138227116D01*
X120867480Y-138227116D01*
X120500100Y-138798544D02*
X120500100Y-139798544D01*
X121867480Y-139036640D02*
X120867480Y-139036640D01*
X120867480Y-139274735D01*
X120915100Y-139417592D01*
X121010338Y-139512830D01*
X121105576Y-139560449D01*
X121296052Y-139608068D01*
X121438909Y-139608068D01*
X121629385Y-139560449D01*
X121724623Y-139512830D01*
X121819861Y-139417592D01*
X121867480Y-139274735D01*
X121867480Y-139036640D01*
X120500100Y-139798544D02*
X120500100Y-140750925D01*
X121819861Y-139989021D02*
X121867480Y-140131878D01*
X121867480Y-140369973D01*
X121819861Y-140465211D01*
X121772242Y-140512830D01*
X121677004Y-140560449D01*
X121581766Y-140560449D01*
X121486528Y-140512830D01*
X121438909Y-140465211D01*
X121391290Y-140369973D01*
X121343671Y-140179497D01*
X121296052Y-140084259D01*
X121248433Y-140036640D01*
X121153195Y-139989021D01*
X121057957Y-139989021D01*
X120962719Y-140036640D01*
X120915100Y-140084259D01*
X120867480Y-140179497D01*
X120867480Y-140417592D01*
X120915100Y-140560449D01*
X120500100Y-140750925D02*
X120500100Y-141893782D01*
X120867480Y-140893782D02*
X121867480Y-141131878D01*
X121153195Y-141322354D01*
X121867480Y-141512830D01*
X120867480Y-141750925D01*
X80227480Y-137893782D02*
X81227480Y-138227116D01*
X80227480Y-138560449D01*
X81227480Y-138893782D02*
X80227480Y-138893782D01*
X81227480Y-139369973D02*
X80227480Y-139369973D01*
X80227480Y-139608068D01*
X80275100Y-139750925D01*
X80370338Y-139846163D01*
X80465576Y-139893782D01*
X80656052Y-139941402D01*
X80798909Y-139941402D01*
X80989385Y-139893782D01*
X81084623Y-139846163D01*
X81179861Y-139750925D01*
X81227480Y-139608068D01*
X81227480Y-139369973D01*
X80703671Y-140369973D02*
X80703671Y-140703306D01*
X81227480Y-140846163D02*
X81227480Y-140369973D01*
X80227480Y-140369973D01*
X80227480Y-140846163D01*
X80227480Y-141465211D02*
X80227480Y-141655687D01*
X80275100Y-141750925D01*
X80370338Y-141846163D01*
X80560814Y-141893782D01*
X80894147Y-141893782D01*
X81084623Y-141846163D01*
X81179861Y-141750925D01*
X81227480Y-141655687D01*
X81227480Y-141465211D01*
X81179861Y-141369973D01*
X81084623Y-141274735D01*
X80894147Y-141227116D01*
X80560814Y-141227116D01*
X80370338Y-141274735D01*
X80275100Y-141369973D01*
X80227480Y-141465211D01*
X95100100Y-139036640D02*
X95100100Y-139893782D01*
X96181766Y-139227116D02*
X96181766Y-139703306D01*
X96467480Y-139131878D02*
X95467480Y-139465211D01*
X96467480Y-139798544D01*
X95100100Y-139893782D02*
X95100100Y-140846163D01*
X96419861Y-140084259D02*
X96467480Y-140227116D01*
X96467480Y-140465211D01*
X96419861Y-140560449D01*
X96372242Y-140608068D01*
X96277004Y-140655687D01*
X96181766Y-140655687D01*
X96086528Y-140608068D01*
X96038909Y-140560449D01*
X95991290Y-140465211D01*
X95943671Y-140274735D01*
X95896052Y-140179497D01*
X95848433Y-140131878D01*
X95753195Y-140084259D01*
X95657957Y-140084259D01*
X95562719Y-140131878D01*
X95515100Y-140179497D01*
X95467480Y-140274735D01*
X95467480Y-140512830D01*
X95515100Y-140655687D01*
X98912242Y-139346163D02*
X98959861Y-139298544D01*
X99007480Y-139155687D01*
X99007480Y-139060449D01*
X98959861Y-138917592D01*
X98864623Y-138822354D01*
X98769385Y-138774735D01*
X98578909Y-138727116D01*
X98436052Y-138727116D01*
X98245576Y-138774735D01*
X98150338Y-138822354D01*
X98055100Y-138917592D01*
X98007480Y-139060449D01*
X98007480Y-139155687D01*
X98055100Y-139298544D01*
X98102719Y-139346163D01*
X99007480Y-140250925D02*
X99007480Y-139774735D01*
X98007480Y-139774735D01*
X99007480Y-140584259D02*
X98007480Y-140584259D01*
X99007480Y-141155687D02*
X98436052Y-140727116D01*
X98007480Y-141155687D02*
X98578909Y-140584259D01*
X92560100Y-138989021D02*
X92560100Y-139989021D01*
X93832242Y-139798544D02*
X93879861Y-139750925D01*
X93927480Y-139608068D01*
X93927480Y-139512830D01*
X93879861Y-139369973D01*
X93784623Y-139274735D01*
X93689385Y-139227116D01*
X93498909Y-139179497D01*
X93356052Y-139179497D01*
X93165576Y-139227116D01*
X93070338Y-139274735D01*
X92975100Y-139369973D01*
X92927480Y-139512830D01*
X92927480Y-139608068D01*
X92975100Y-139750925D01*
X93022719Y-139798544D01*
X92560100Y-139989021D02*
X92560100Y-140893782D01*
X93403671Y-140227116D02*
X93403671Y-140560449D01*
X93927480Y-140703306D02*
X93927480Y-140227116D01*
X92927480Y-140227116D01*
X92927480Y-140703306D01*
X82767480Y-137679497D02*
X83767480Y-138012830D01*
X82767480Y-138346163D01*
X83719861Y-138631878D02*
X83767480Y-138774735D01*
X83767480Y-139012830D01*
X83719861Y-139108068D01*
X83672242Y-139155687D01*
X83577004Y-139203306D01*
X83481766Y-139203306D01*
X83386528Y-139155687D01*
X83338909Y-139108068D01*
X83291290Y-139012830D01*
X83243671Y-138822354D01*
X83196052Y-138727116D01*
X83148433Y-138679497D01*
X83053195Y-138631878D01*
X82957957Y-138631878D01*
X82862719Y-138679497D01*
X82815100Y-138727116D01*
X82767480Y-138822354D01*
X82767480Y-139060449D01*
X82815100Y-139203306D01*
X83291290Y-139822354D02*
X83767480Y-139822354D01*
X82767480Y-139489021D02*
X83291290Y-139822354D01*
X82767480Y-140155687D01*
X83767480Y-140489021D02*
X82767480Y-140489021D01*
X83767480Y-141060449D01*
X82767480Y-141060449D01*
X83672242Y-142108068D02*
X83719861Y-142060449D01*
X83767480Y-141917592D01*
X83767480Y-141822354D01*
X83719861Y-141679497D01*
X83624623Y-141584259D01*
X83529385Y-141536640D01*
X83338909Y-141489021D01*
X83196052Y-141489021D01*
X83005576Y-141536640D01*
X82910338Y-141584259D01*
X82815100Y-141679497D01*
X82767480Y-141822354D01*
X82767480Y-141917592D01*
X82815100Y-142060449D01*
X82862719Y-142108068D01*
X86307480Y-137727116D02*
X85307480Y-137727116D01*
X85783671Y-137727116D02*
X85783671Y-138298544D01*
X86307480Y-138298544D02*
X85307480Y-138298544D01*
X86259861Y-138727116D02*
X86307480Y-138869973D01*
X86307480Y-139108068D01*
X86259861Y-139203306D01*
X86212242Y-139250925D01*
X86117004Y-139298544D01*
X86021766Y-139298544D01*
X85926528Y-139250925D01*
X85878909Y-139203306D01*
X85831290Y-139108068D01*
X85783671Y-138917592D01*
X85736052Y-138822354D01*
X85688433Y-138774735D01*
X85593195Y-138727116D01*
X85497957Y-138727116D01*
X85402719Y-138774735D01*
X85355100Y-138822354D01*
X85307480Y-138917592D01*
X85307480Y-139155687D01*
X85355100Y-139298544D01*
X85831290Y-139917592D02*
X86307480Y-139917592D01*
X85307480Y-139584259D02*
X85831290Y-139917592D01*
X85307480Y-140250925D01*
X86307480Y-140584259D02*
X85307480Y-140584259D01*
X86307480Y-141155687D01*
X85307480Y-141155687D01*
X86212242Y-142203306D02*
X86259861Y-142155687D01*
X86307480Y-142012830D01*
X86307480Y-141917592D01*
X86259861Y-141774735D01*
X86164623Y-141679497D01*
X86069385Y-141631878D01*
X85878909Y-141584259D01*
X85736052Y-141584259D01*
X85545576Y-141631878D01*
X85450338Y-141679497D01*
X85355100Y-141774735D01*
X85307480Y-141917592D01*
X85307480Y-142012830D01*
X85355100Y-142155687D01*
X85402719Y-142203306D01*
X88847480Y-137393782D02*
X87847480Y-137393782D01*
X88323671Y-137393782D02*
X88323671Y-137965211D01*
X88847480Y-137965211D02*
X87847480Y-137965211D01*
X88799861Y-138393782D02*
X88847480Y-138536640D01*
X88847480Y-138774735D01*
X88799861Y-138869973D01*
X88752242Y-138917592D01*
X88657004Y-138965211D01*
X88561766Y-138965211D01*
X88466528Y-138917592D01*
X88418909Y-138869973D01*
X88371290Y-138774735D01*
X88323671Y-138584259D01*
X88276052Y-138489021D01*
X88228433Y-138441402D01*
X88133195Y-138393782D01*
X88037957Y-138393782D01*
X87942719Y-138441402D01*
X87895100Y-138489021D01*
X87847480Y-138584259D01*
X87847480Y-138822354D01*
X87895100Y-138965211D01*
X88942719Y-139155687D02*
X88942719Y-139917592D01*
X88752242Y-140727116D02*
X88799861Y-140679497D01*
X88847480Y-140536640D01*
X88847480Y-140441402D01*
X88799861Y-140298544D01*
X88704623Y-140203306D01*
X88609385Y-140155687D01*
X88418909Y-140108068D01*
X88276052Y-140108068D01*
X88085576Y-140155687D01*
X87990338Y-140203306D01*
X87895100Y-140298544D01*
X87847480Y-140441402D01*
X87847480Y-140536640D01*
X87895100Y-140679497D01*
X87942719Y-140727116D01*
X88847480Y-141631878D02*
X88847480Y-141155687D01*
X87847480Y-141155687D01*
X88847480Y-141965211D02*
X87847480Y-141965211D01*
X88847480Y-142536640D02*
X88276052Y-142108068D01*
X87847480Y-142536640D02*
X88418909Y-141965211D01*
X54460100Y-136774735D02*
X54460100Y-137822354D01*
X55827480Y-137012830D02*
X54827480Y-137012830D01*
X55303671Y-137012830D02*
X55303671Y-137584259D01*
X55827480Y-137584259D02*
X54827480Y-137584259D01*
X54460100Y-137822354D02*
X54460100Y-138584259D01*
X55922719Y-137822354D02*
X55922719Y-138584259D01*
X54460100Y-138584259D02*
X54460100Y-139584259D01*
X55827480Y-139393782D02*
X55351290Y-139060449D01*
X55827480Y-138822354D02*
X54827480Y-138822354D01*
X54827480Y-139203306D01*
X54875100Y-139298544D01*
X54922719Y-139346163D01*
X55017957Y-139393782D01*
X55160814Y-139393782D01*
X55256052Y-139346163D01*
X55303671Y-139298544D01*
X55351290Y-139203306D01*
X55351290Y-138822354D01*
X54460100Y-139584259D02*
X54460100Y-140489021D01*
X55303671Y-139822354D02*
X55303671Y-140155687D01*
X55827480Y-140298544D02*
X55827480Y-139822354D01*
X54827480Y-139822354D01*
X54827480Y-140298544D01*
X54460100Y-140489021D02*
X54460100Y-141441402D01*
X55779861Y-140679497D02*
X55827480Y-140822354D01*
X55827480Y-141060449D01*
X55779861Y-141155687D01*
X55732242Y-141203306D01*
X55637004Y-141250925D01*
X55541766Y-141250925D01*
X55446528Y-141203306D01*
X55398909Y-141155687D01*
X55351290Y-141060449D01*
X55303671Y-140869973D01*
X55256052Y-140774735D01*
X55208433Y-140727116D01*
X55113195Y-140679497D01*
X55017957Y-140679497D01*
X54922719Y-140727116D01*
X54875100Y-140774735D01*
X54827480Y-140869973D01*
X54827480Y-141108068D01*
X54875100Y-141250925D01*
X54460100Y-141441402D02*
X54460100Y-142346163D01*
X55303671Y-141679497D02*
X55303671Y-142012830D01*
X55827480Y-142155687D02*
X55827480Y-141679497D01*
X54827480Y-141679497D01*
X54827480Y-142155687D01*
X54460100Y-142346163D02*
X54460100Y-143108068D01*
X54827480Y-142441402D02*
X54827480Y-143012830D01*
X55827480Y-142727116D02*
X54827480Y-142727116D01*
X130660100Y-136989021D02*
X130660100Y-137989021D01*
X131932242Y-137798544D02*
X131979861Y-137750925D01*
X132027480Y-137608068D01*
X132027480Y-137512830D01*
X131979861Y-137369973D01*
X131884623Y-137274735D01*
X131789385Y-137227116D01*
X131598909Y-137179497D01*
X131456052Y-137179497D01*
X131265576Y-137227116D01*
X131170338Y-137274735D01*
X131075100Y-137369973D01*
X131027480Y-137512830D01*
X131027480Y-137608068D01*
X131075100Y-137750925D01*
X131122719Y-137798544D01*
X130660100Y-137989021D02*
X130660100Y-138846163D01*
X131741766Y-138179497D02*
X131741766Y-138655687D01*
X132027480Y-138084259D02*
X131027480Y-138417592D01*
X132027480Y-138750925D01*
X130660100Y-138846163D02*
X130660100Y-139846163D01*
X132027480Y-139655687D02*
X131551290Y-139322354D01*
X132027480Y-139084259D02*
X131027480Y-139084259D01*
X131027480Y-139465211D01*
X131075100Y-139560449D01*
X131122719Y-139608068D01*
X131217957Y-139655687D01*
X131360814Y-139655687D01*
X131456052Y-139608068D01*
X131503671Y-139560449D01*
X131551290Y-139465211D01*
X131551290Y-139084259D01*
X130660100Y-139846163D02*
X130660100Y-140608068D01*
X131027480Y-139941402D02*
X131027480Y-140512830D01*
X132027480Y-140227116D02*
X131027480Y-140227116D01*
X130660100Y-140608068D02*
X130660100Y-141369973D01*
X132122719Y-140608068D02*
X132122719Y-141369973D01*
X130660100Y-141369973D02*
X130660100Y-141846163D01*
X132027480Y-141608068D02*
X131027480Y-141608068D01*
X130660100Y-141846163D02*
X130660100Y-142893782D01*
X132027480Y-142084259D02*
X131027480Y-142084259D01*
X132027480Y-142655687D01*
X131027480Y-142655687D01*
X125580100Y-136822354D02*
X125580100Y-137774735D01*
X126899861Y-137012830D02*
X126947480Y-137155687D01*
X126947480Y-137393782D01*
X126899861Y-137489021D01*
X126852242Y-137536640D01*
X126757004Y-137584259D01*
X126661766Y-137584259D01*
X126566528Y-137536640D01*
X126518909Y-137489021D01*
X126471290Y-137393782D01*
X126423671Y-137203306D01*
X126376052Y-137108068D01*
X126328433Y-137060449D01*
X126233195Y-137012830D01*
X126137957Y-137012830D01*
X126042719Y-137060449D01*
X125995100Y-137108068D01*
X125947480Y-137203306D01*
X125947480Y-137441402D01*
X125995100Y-137584259D01*
X125580100Y-137774735D02*
X125580100Y-138536640D01*
X127042719Y-137774735D02*
X127042719Y-138536640D01*
X125580100Y-138536640D02*
X125580100Y-139536640D01*
X126947480Y-139346163D02*
X126471290Y-139012830D01*
X126947480Y-138774735D02*
X125947480Y-138774735D01*
X125947480Y-139155687D01*
X125995100Y-139250925D01*
X126042719Y-139298544D01*
X126137957Y-139346163D01*
X126280814Y-139346163D01*
X126376052Y-139298544D01*
X126423671Y-139250925D01*
X126471290Y-139155687D01*
X126471290Y-138774735D01*
X125580100Y-139536640D02*
X125580100Y-140441402D01*
X126423671Y-139774735D02*
X126423671Y-140108068D01*
X126947480Y-140250925D02*
X126947480Y-139774735D01*
X125947480Y-139774735D01*
X125947480Y-140250925D01*
X125580100Y-140441402D02*
X125580100Y-141393782D01*
X126899861Y-140631878D02*
X126947480Y-140774735D01*
X126947480Y-141012830D01*
X126899861Y-141108068D01*
X126852242Y-141155687D01*
X126757004Y-141203306D01*
X126661766Y-141203306D01*
X126566528Y-141155687D01*
X126518909Y-141108068D01*
X126471290Y-141012830D01*
X126423671Y-140822354D01*
X126376052Y-140727116D01*
X126328433Y-140679497D01*
X126233195Y-140631878D01*
X126137957Y-140631878D01*
X126042719Y-140679497D01*
X125995100Y-140727116D01*
X125947480Y-140822354D01*
X125947480Y-141060449D01*
X125995100Y-141203306D01*
X125580100Y-141393782D02*
X125580100Y-142298544D01*
X126423671Y-141631878D02*
X126423671Y-141965211D01*
X126947480Y-142108068D02*
X126947480Y-141631878D01*
X125947480Y-141631878D01*
X125947480Y-142108068D01*
X125580100Y-142298544D02*
X125580100Y-143060449D01*
X125947480Y-142393782D02*
X125947480Y-142965211D01*
X126947480Y-142679497D02*
X125947480Y-142679497D01*
X90020100Y-138965211D02*
X90020100Y-140012830D01*
X90387480Y-139393782D02*
X90387480Y-139584259D01*
X90435100Y-139679497D01*
X90530338Y-139774735D01*
X90720814Y-139822354D01*
X91054147Y-139822354D01*
X91244623Y-139774735D01*
X91339861Y-139679497D01*
X91387480Y-139584259D01*
X91387480Y-139393782D01*
X91339861Y-139298544D01*
X91244623Y-139203306D01*
X91054147Y-139155687D01*
X90720814Y-139155687D01*
X90530338Y-139203306D01*
X90435100Y-139298544D01*
X90387480Y-139393782D01*
X90020100Y-140012830D02*
X90020100Y-140917592D01*
X90863671Y-140250925D02*
X90863671Y-140584259D01*
X91387480Y-140727116D02*
X91387480Y-140250925D01*
X90387480Y-140250925D01*
X90387480Y-140727116D01*
X58319861Y-137750925D02*
X58367480Y-137893782D01*
X58367480Y-138131878D01*
X58319861Y-138227116D01*
X58272242Y-138274735D01*
X58177004Y-138322354D01*
X58081766Y-138322354D01*
X57986528Y-138274735D01*
X57938909Y-138227116D01*
X57891290Y-138131878D01*
X57843671Y-137941402D01*
X57796052Y-137846163D01*
X57748433Y-137798544D01*
X57653195Y-137750925D01*
X57557957Y-137750925D01*
X57462719Y-137798544D01*
X57415100Y-137846163D01*
X57367480Y-137941402D01*
X57367480Y-138179497D01*
X57415100Y-138322354D01*
X58367480Y-138750925D02*
X57367480Y-138750925D01*
X58367480Y-139322354D01*
X57367480Y-139322354D01*
X58367480Y-139798544D02*
X57367480Y-139798544D01*
X57367480Y-140036640D01*
X57415100Y-140179497D01*
X57510338Y-140274735D01*
X57605576Y-140322354D01*
X57796052Y-140369973D01*
X57938909Y-140369973D01*
X58129385Y-140322354D01*
X58224623Y-140274735D01*
X58319861Y-140179497D01*
X58367480Y-140036640D01*
X58367480Y-139798544D01*
X58462719Y-140560449D02*
X58462719Y-141322354D01*
X58367480Y-142131878D02*
X57891290Y-141798544D01*
X58367480Y-141560449D02*
X57367480Y-141560449D01*
X57367480Y-141941402D01*
X57415100Y-142036640D01*
X57462719Y-142084259D01*
X57557957Y-142131878D01*
X57700814Y-142131878D01*
X57796052Y-142084259D01*
X57843671Y-142036640D01*
X57891290Y-141941402D01*
X57891290Y-141560449D01*
X63161766Y-139227116D02*
X63161766Y-139703306D01*
X63447480Y-139131878D02*
X62447480Y-139465211D01*
X63447480Y-139798544D01*
X63447480Y-140179497D02*
X63447480Y-140369973D01*
X63399861Y-140465211D01*
X63352242Y-140512830D01*
X63209385Y-140608068D01*
X63018909Y-140655687D01*
X62637957Y-140655687D01*
X62542719Y-140608068D01*
X62495100Y-140560449D01*
X62447480Y-140465211D01*
X62447480Y-140274735D01*
X62495100Y-140179497D01*
X62542719Y-140131878D01*
X62637957Y-140084259D01*
X62876052Y-140084259D01*
X62971290Y-140131878D01*
X63018909Y-140179497D01*
X63066528Y-140274735D01*
X63066528Y-140465211D01*
X63018909Y-140560449D01*
X62971290Y-140608068D01*
X62876052Y-140655687D01*
X60621766Y-139227116D02*
X60621766Y-139703306D01*
X60907480Y-139131878D02*
X59907480Y-139465211D01*
X60907480Y-139798544D01*
X60336052Y-140274735D02*
X60288433Y-140179497D01*
X60240814Y-140131878D01*
X60145576Y-140084259D01*
X60097957Y-140084259D01*
X60002719Y-140131878D01*
X59955100Y-140179497D01*
X59907480Y-140274735D01*
X59907480Y-140465211D01*
X59955100Y-140560449D01*
X60002719Y-140608068D01*
X60097957Y-140655687D01*
X60145576Y-140655687D01*
X60240814Y-140608068D01*
X60288433Y-140560449D01*
X60336052Y-140465211D01*
X60336052Y-140274735D01*
X60383671Y-140179497D01*
X60431290Y-140131878D01*
X60526528Y-140084259D01*
X60717004Y-140084259D01*
X60812242Y-140131878D01*
X60859861Y-140179497D01*
X60907480Y-140274735D01*
X60907480Y-140465211D01*
X60859861Y-140560449D01*
X60812242Y-140608068D01*
X60717004Y-140655687D01*
X60526528Y-140655687D01*
X60431290Y-140608068D01*
X60383671Y-140560449D01*
X60336052Y-140465211D01*
X65701766Y-138750925D02*
X65701766Y-139227116D01*
X65987480Y-138655687D02*
X64987480Y-138989021D01*
X65987480Y-139322354D01*
X65987480Y-140179497D02*
X65987480Y-139608068D01*
X65987480Y-139893782D02*
X64987480Y-139893782D01*
X65130338Y-139798544D01*
X65225576Y-139703306D01*
X65273195Y-139608068D01*
X64987480Y-140512830D02*
X64987480Y-141179497D01*
X65987480Y-140750925D01*
X53239861Y-137846163D02*
X53287480Y-137989021D01*
X53287480Y-138227116D01*
X53239861Y-138322354D01*
X53192242Y-138369973D01*
X53097004Y-138417592D01*
X53001766Y-138417592D01*
X52906528Y-138369973D01*
X52858909Y-138322354D01*
X52811290Y-138227116D01*
X52763671Y-138036640D01*
X52716052Y-137941402D01*
X52668433Y-137893782D01*
X52573195Y-137846163D01*
X52477957Y-137846163D01*
X52382719Y-137893782D01*
X52335100Y-137941402D01*
X52287480Y-138036640D01*
X52287480Y-138274735D01*
X52335100Y-138417592D01*
X53287480Y-138846163D02*
X52287480Y-138846163D01*
X53287480Y-139417592D01*
X52287480Y-139417592D01*
X53287480Y-139893782D02*
X52287480Y-139893782D01*
X52287480Y-140131878D01*
X52335100Y-140274735D01*
X52430338Y-140369973D01*
X52525576Y-140417592D01*
X52716052Y-140465211D01*
X52858909Y-140465211D01*
X53049385Y-140417592D01*
X53144623Y-140369973D01*
X53239861Y-140274735D01*
X53287480Y-140131878D01*
X53287480Y-139893782D01*
X53382719Y-140655687D02*
X53382719Y-141417592D01*
X53287480Y-142131878D02*
X53287480Y-141655687D01*
X52287480Y-141655687D01*
X78401766Y-138750925D02*
X78401766Y-139227116D01*
X78687480Y-138655687D02*
X77687480Y-138989021D01*
X78687480Y-139322354D01*
X77782719Y-139608068D02*
X77735100Y-139655687D01*
X77687480Y-139750925D01*
X77687480Y-139989021D01*
X77735100Y-140084259D01*
X77782719Y-140131878D01*
X77877957Y-140179497D01*
X77973195Y-140179497D01*
X78116052Y-140131878D01*
X78687480Y-139560449D01*
X78687480Y-140179497D01*
X77782719Y-140560449D02*
X77735100Y-140608068D01*
X77687480Y-140703306D01*
X77687480Y-140941402D01*
X77735100Y-141036640D01*
X77782719Y-141084259D01*
X77877957Y-141131878D01*
X77973195Y-141131878D01*
X78116052Y-141084259D01*
X78687480Y-140512830D01*
X78687480Y-141131878D01*
X75861766Y-138750925D02*
X75861766Y-139227116D01*
X76147480Y-138655687D02*
X75147480Y-138989021D01*
X76147480Y-139322354D01*
X75242719Y-139608068D02*
X75195100Y-139655687D01*
X75147480Y-139750925D01*
X75147480Y-139989021D01*
X75195100Y-140084259D01*
X75242719Y-140131878D01*
X75337957Y-140179497D01*
X75433195Y-140179497D01*
X75576052Y-140131878D01*
X76147480Y-139560449D01*
X76147480Y-140179497D01*
X76147480Y-141131878D02*
X76147480Y-140560449D01*
X76147480Y-140846163D02*
X75147480Y-140846163D01*
X75290338Y-140750925D01*
X75385576Y-140655687D01*
X75433195Y-140560449D01*
X73321766Y-138750925D02*
X73321766Y-139227116D01*
X73607480Y-138655687D02*
X72607480Y-138989021D01*
X73607480Y-139322354D01*
X72702719Y-139608068D02*
X72655100Y-139655687D01*
X72607480Y-139750925D01*
X72607480Y-139989021D01*
X72655100Y-140084259D01*
X72702719Y-140131878D01*
X72797957Y-140179497D01*
X72893195Y-140179497D01*
X73036052Y-140131878D01*
X73607480Y-139560449D01*
X73607480Y-140179497D01*
X72607480Y-140798544D02*
X72607480Y-140893782D01*
X72655100Y-140989021D01*
X72702719Y-141036640D01*
X72797957Y-141084259D01*
X72988433Y-141131878D01*
X73226528Y-141131878D01*
X73417004Y-141084259D01*
X73512242Y-141036640D01*
X73559861Y-140989021D01*
X73607480Y-140893782D01*
X73607480Y-140798544D01*
X73559861Y-140703306D01*
X73512242Y-140655687D01*
X73417004Y-140608068D01*
X73226528Y-140560449D01*
X72988433Y-140560449D01*
X72797957Y-140608068D01*
X72702719Y-140655687D01*
X72655100Y-140703306D01*
X72607480Y-140798544D01*
X70781766Y-138750925D02*
X70781766Y-139227116D01*
X71067480Y-138655687D02*
X70067480Y-138989021D01*
X71067480Y-139322354D01*
X71067480Y-140179497D02*
X71067480Y-139608068D01*
X71067480Y-139893782D02*
X70067480Y-139893782D01*
X70210338Y-139798544D01*
X70305576Y-139703306D01*
X70353195Y-139608068D01*
X71067480Y-140655687D02*
X71067480Y-140846163D01*
X71019861Y-140941402D01*
X70972242Y-140989021D01*
X70829385Y-141084259D01*
X70638909Y-141131878D01*
X70257957Y-141131878D01*
X70162719Y-141084259D01*
X70115100Y-141036640D01*
X70067480Y-140941402D01*
X70067480Y-140750925D01*
X70115100Y-140655687D01*
X70162719Y-140608068D01*
X70257957Y-140560449D01*
X70496052Y-140560449D01*
X70591290Y-140608068D01*
X70638909Y-140655687D01*
X70686528Y-140750925D01*
X70686528Y-140941402D01*
X70638909Y-141036640D01*
X70591290Y-141084259D01*
X70496052Y-141131878D01*
X68241766Y-138750925D02*
X68241766Y-139227116D01*
X68527480Y-138655687D02*
X67527480Y-138989021D01*
X68527480Y-139322354D01*
X68527480Y-140179497D02*
X68527480Y-139608068D01*
X68527480Y-139893782D02*
X67527480Y-139893782D01*
X67670338Y-139798544D01*
X67765576Y-139703306D01*
X67813195Y-139608068D01*
X67956052Y-140750925D02*
X67908433Y-140655687D01*
X67860814Y-140608068D01*
X67765576Y-140560449D01*
X67717957Y-140560449D01*
X67622719Y-140608068D01*
X67575100Y-140655687D01*
X67527480Y-140750925D01*
X67527480Y-140941402D01*
X67575100Y-141036640D01*
X67622719Y-141084259D01*
X67717957Y-141131878D01*
X67765576Y-141131878D01*
X67860814Y-141084259D01*
X67908433Y-141036640D01*
X67956052Y-140941402D01*
X67956052Y-140750925D01*
X68003671Y-140655687D01*
X68051290Y-140608068D01*
X68146528Y-140560449D01*
X68337004Y-140560449D01*
X68432242Y-140608068D01*
X68479861Y-140655687D01*
X68527480Y-140750925D01*
X68527480Y-140941402D01*
X68479861Y-141036640D01*
X68432242Y-141084259D01*
X68337004Y-141131878D01*
X68146528Y-141131878D01*
X68051290Y-141084259D01*
X68003671Y-141036640D01*
X67956052Y-140941402D01*
G04 #@! TD*
M02*
